<?xml version="1.0" encoding="utf-8" standalone="no"?>
<!DOCTYPE svg PUBLIC "-//W3C//DTD SVG 1.1//EN"
  "http://www.w3.org/Graphics/SVG/1.1/DTD/svg11.dtd">
<svg xmlns:xlink="http://www.w3.org/1999/xlink" width="569.946539pt" height="281.547015pt" viewBox="0 0 569.946539 281.547015" xmlns="http://www.w3.org/2000/svg" version="1.1">
 <metadata>
  <rdf:RDF xmlns:dc="http://purl.org/dc/elements/1.1/" xmlns:cc="http://creativecommons.org/ns#" xmlns:rdf="http://www.w3.org/1999/02/22-rdf-syntax-ns#">
   <cc:Work>
    <dc:type rdf:resource="http://purl.org/dc/dcmitype/StillImage"/>
    <dc:date>2022-08-29T08:17:06.563693</dc:date>
    <dc:format>image/svg+xml</dc:format>
    <dc:creator>
     <cc:Agent>
      <dc:title>Matplotlib v3.5.1, https://matplotlib.org/</dc:title>
     </cc:Agent>
    </dc:creator>
   </cc:Work>
  </rdf:RDF>
 </metadata>
 <defs>
  <style type="text/css">*{stroke-linejoin: round; stroke-linecap: butt}</style>
 </defs>
 <g id="figure_1">
  <g id="patch_1">
   <path d="M 0 281.547015 
L 569.946539 281.547015 
L 569.946539 0 
L 0 0 
z
" style="fill: #ffffff"/>
  </g>
  <g id="axes_1">
   <g id="patch_2">
    <path d="M 44.088012 245.635662 
L 256.61494 245.635662 
L 256.61494 42.667123 
L 44.088012 42.667123 
z
" style="fill: #ffffff"/>
   </g>
   <g id="matplotlib.axis_1">
    <g id="xtick_1">
     <g id="line2d_1">
      <defs>
       <path id="m160347c77a" d="M 0 0 
L 0 3.5 
" style="stroke: #000000; stroke-width: 0.8"/>
      </defs>
      <g>
       <use xlink:href="#m160347c77a" x="65.340704" y="245.635662" style="stroke: #000000; stroke-width: 0.8"/>
      </g>
     </g>
     <g id="text_1">
      <!-- $\mathdefault{0.1}$ -->
      <g transform="translate(58.975665 259.55416)scale(0.1 -0.1)">
       <defs>
        <path id="CMR17-30" d="M 2688 2025 
C 2688 2416 2682 3080 2413 3591 
C 2176 4039 1798 4198 1466 4198 
C 1158 4198 768 4058 525 3597 
C 269 3118 243 2524 243 2025 
C 243 1661 250 1106 448 619 
C 723 -39 1216 -128 1466 -128 
C 1760 -128 2208 -7 2470 600 
C 2662 1042 2688 1559 2688 2025 
z
M 1466 -26 
C 1056 -26 813 325 723 812 
C 653 1188 653 1738 653 2096 
C 653 2588 653 2997 736 3387 
C 858 3929 1216 4096 1466 4096 
C 1728 4096 2067 3923 2189 3400 
C 2272 3036 2278 2607 2278 2096 
C 2278 1680 2278 1169 2202 792 
C 2067 95 1690 -26 1466 -26 
z
" transform="scale(0.015625)"/>
        <path id="CMMI12-3a" d="M 1178 307 
C 1178 492 1024 619 870 619 
C 685 619 557 466 557 313 
C 557 128 710 0 864 0 
C 1050 0 1178 153 1178 307 
z
" transform="scale(0.015625)"/>
        <path id="CMR17-31" d="M 1702 4058 
C 1702 4192 1696 4192 1606 4192 
C 1357 3916 979 3827 621 3827 
C 602 3827 570 3827 563 3808 
C 557 3795 557 3782 557 3648 
C 755 3648 1088 3686 1344 3839 
L 1344 461 
C 1344 236 1331 160 781 160 
L 589 160 
L 589 0 
C 896 0 1216 0 1523 0 
C 1830 0 2150 0 2458 0 
L 2458 160 
L 2266 160 
C 1715 160 1702 230 1702 458 
L 1702 4058 
z
" transform="scale(0.015625)"/>
       </defs>
       <use xlink:href="#CMR17-30" transform="scale(0.996264)"/>
       <use xlink:href="#CMMI12-3a" transform="translate(45.690477 0)scale(0.996264)"/>
       <use xlink:href="#CMR17-31" transform="translate(72.787654 0)scale(0.996264)"/>
      </g>
     </g>
    </g>
    <g id="xtick_2">
     <g id="line2d_2">
      <g>
       <use xlink:href="#m160347c77a" x="107.84609" y="245.635662" style="stroke: #000000; stroke-width: 0.8"/>
      </g>
     </g>
     <g id="text_2">
      <!-- $\mathdefault{0.3}$ -->
      <g transform="translate(101.481051 259.55416)scale(0.1 -0.1)">
       <defs>
        <path id="CMR17-33" d="M 1414 2157 
C 1984 2157 2234 1662 2234 1090 
C 2234 320 1824 25 1453 25 
C 1114 25 563 194 390 693 
C 422 680 454 680 486 680 
C 640 680 755 782 755 948 
C 755 1133 614 1216 486 1216 
C 378 1216 211 1165 211 926 
C 211 335 787 -128 1466 -128 
C 2176 -128 2720 430 2720 1085 
C 2720 1707 2208 2157 1600 2227 
C 2086 2328 2554 2756 2554 3329 
C 2554 3820 2048 4179 1472 4179 
C 890 4179 378 3829 378 3329 
C 378 3110 544 3072 627 3072 
C 762 3072 877 3155 877 3321 
C 877 3486 762 3569 627 3569 
C 602 3569 570 3569 544 3557 
C 730 3959 1235 4032 1459 4032 
C 1683 4032 2106 3925 2106 3320 
C 2106 3143 2080 2828 1862 2550 
C 1670 2304 1453 2304 1242 2284 
C 1210 2284 1062 2269 1037 2269 
C 992 2263 966 2257 966 2208 
C 966 2163 973 2157 1101 2157 
L 1414 2157 
z
" transform="scale(0.015625)"/>
       </defs>
       <use xlink:href="#CMR17-30" transform="scale(0.996264)"/>
       <use xlink:href="#CMMI12-3a" transform="translate(45.690477 0)scale(0.996264)"/>
       <use xlink:href="#CMR17-33" transform="translate(72.787654 0)scale(0.996264)"/>
      </g>
     </g>
    </g>
    <g id="xtick_3">
     <g id="line2d_3">
      <g>
       <use xlink:href="#m160347c77a" x="150.351476" y="245.635662" style="stroke: #000000; stroke-width: 0.8"/>
      </g>
     </g>
     <g id="text_3">
      <!-- $\mathdefault{0.5}$ -->
      <g transform="translate(143.986436 259.55416)scale(0.1 -0.1)">
       <defs>
        <path id="CMR17-35" d="M 730 3692 
C 794 3666 1056 3584 1325 3584 
C 1920 3584 2246 3911 2432 4100 
C 2432 4157 2432 4192 2394 4192 
C 2387 4192 2374 4192 2323 4163 
C 2099 4058 1837 3973 1517 3973 
C 1325 3973 1037 3999 723 4139 
C 653 4171 640 4171 634 4171 
C 602 4171 595 4164 595 4037 
L 595 2203 
C 595 2089 595 2057 659 2057 
C 691 2057 704 2070 736 2114 
C 941 2401 1222 2522 1542 2522 
C 1766 2522 2246 2382 2246 1289 
C 2246 1085 2246 715 2054 421 
C 1894 159 1645 25 1370 25 
C 947 25 518 320 403 814 
C 429 807 480 795 506 795 
C 589 795 749 840 749 1038 
C 749 1210 627 1280 506 1280 
C 358 1280 262 1190 262 1011 
C 262 454 704 -128 1382 -128 
C 2042 -128 2669 440 2669 1264 
C 2669 2030 2170 2624 1549 2624 
C 1222 2624 947 2503 730 2274 
L 730 3692 
z
" transform="scale(0.015625)"/>
       </defs>
       <use xlink:href="#CMR17-30" transform="scale(0.996264)"/>
       <use xlink:href="#CMMI12-3a" transform="translate(45.690477 0)scale(0.996264)"/>
       <use xlink:href="#CMR17-35" transform="translate(72.787654 0)scale(0.996264)"/>
      </g>
     </g>
    </g>
    <g id="xtick_4">
     <g id="line2d_4">
      <g>
       <use xlink:href="#m160347c77a" x="192.856862" y="245.635662" style="stroke: #000000; stroke-width: 0.8"/>
      </g>
     </g>
     <g id="text_4">
      <!-- $\mathdefault{0.7}$ -->
      <g transform="translate(186.491822 259.55416)scale(0.1 -0.1)">
       <defs>
        <path id="CMR17-37" d="M 2886 3941 
L 2886 4081 
L 1382 4081 
C 634 4081 621 4165 595 4288 
L 480 4288 
L 294 3094 
L 410 3094 
C 429 3215 474 3540 550 3661 
C 589 3712 1062 3712 1171 3712 
L 2579 3712 
L 1869 2661 
C 1395 1954 1069 999 1069 165 
C 1069 89 1069 -128 1299 -128 
C 1530 -128 1530 89 1530 171 
L 1530 465 
C 1530 1508 1709 2196 2003 2636 
L 2886 3941 
z
" transform="scale(0.015625)"/>
       </defs>
       <use xlink:href="#CMR17-30" transform="scale(0.996264)"/>
       <use xlink:href="#CMMI12-3a" transform="translate(45.690477 0)scale(0.996264)"/>
       <use xlink:href="#CMR17-37" transform="translate(72.787654 0)scale(0.996264)"/>
      </g>
     </g>
    </g>
    <g id="xtick_5">
     <g id="line2d_5">
      <g>
       <use xlink:href="#m160347c77a" x="235.362247" y="245.635662" style="stroke: #000000; stroke-width: 0.8"/>
      </g>
     </g>
     <g id="text_5">
      <!-- $\mathdefault{0.9}$ -->
      <g transform="translate(228.997208 259.55416)scale(0.1 -0.1)">
       <defs>
        <path id="CMR17-39" d="M 2253 1864 
C 2253 464 1670 31 1190 31 
C 1043 31 685 31 538 294 
C 704 268 826 357 826 518 
C 826 692 685 749 595 749 
C 538 749 365 723 365 506 
C 365 71 742 -128 1203 -128 
C 1939 -128 2688 674 2688 2073 
C 2688 3817 1971 4179 1485 4179 
C 851 4179 243 3628 243 2778 
C 243 1991 762 1408 1414 1408 
C 1952 1408 2189 1903 2253 2112 
L 2253 1864 
z
M 1427 1510 
C 1254 1510 1011 1542 813 1922 
C 678 2169 678 2461 678 2771 
C 678 3146 678 3405 858 3684 
C 947 3817 1114 4032 1485 4032 
C 2240 4032 2240 2885 2240 2632 
C 2240 2182 2035 1510 1427 1510 
z
" transform="scale(0.015625)"/>
       </defs>
       <use xlink:href="#CMR17-30" transform="scale(0.996264)"/>
       <use xlink:href="#CMMI12-3a" transform="translate(45.690477 0)scale(0.996264)"/>
       <use xlink:href="#CMR17-39" transform="translate(72.787654 0)scale(0.996264)"/>
      </g>
     </g>
    </g>
    <g id="text_6">
     <!-- Próg minimalnej powszechności czasowej -->
     <g transform="translate(61.490118 272.409837)scale(0.1 -0.1)">
      <defs>
       <path id="CMR17-50" d="M 1267 2042 
L 2291 2042 
C 3117 2042 3718 2578 3718 3184 
C 3718 3791 3130 4352 2291 4352 
L 333 4352 
L 333 4186 
C 774 4186 845 4186 845 3899 
L 845 446 
C 845 160 774 160 333 160 
L 333 0 
C 518 0 858 0 1056 0 
C 1254 0 1594 0 1779 0 
L 1779 160 
C 1338 160 1267 160 1267 446 
L 1267 2042 
z
M 1254 2176 
L 1254 3938 
C 1254 4155 1267 4186 1523 4186 
L 2170 4186 
C 2995 4186 3232 3714 3232 3184 
C 3232 2604 2950 2176 2170 2176 
L 1254 2176 
z
" transform="scale(0.015625)"/>
       <path id="CMR17-72" d="M 960 1497 
C 960 2112 1222 2688 1702 2688 
C 1747 2688 1792 2682 1837 2662 
C 1837 2662 1696 2617 1696 2452 
C 1696 2298 1818 2234 1914 2234 
C 1990 2234 2131 2279 2131 2458 
C 2131 2663 1926 2790 1709 2790 
C 1222 2790 1011 2317 947 2093 
L 941 2093 
L 941 2790 
L 198 2720 
L 198 2554 
C 576 2554 634 2515 634 2208 
L 634 428 
C 634 184 608 153 198 153 
L 198 -13 
C 352 0 646 0 813 0 
C 998 0 1325 0 1498 -13 
L 1498 153 
C 1037 153 960 153 960 440 
L 960 1497 
z
" transform="scale(0.015625)"/>
       <path id="CMR17-13" d="M 2221 4091 
C 2298 4161 2317 4174 2317 4244 
C 2317 4339 2234 4416 2144 4416 
C 2067 4416 2042 4384 1978 4308 
L 1254 3390 
C 1210 3333 1210 3327 1210 3320 
C 1210 3314 1267 3256 1280 3244 
L 2221 4091 
z
" transform="scale(0.015625)"/>
       <path id="CMR17-6f" d="M 2758 1356 
C 2758 2176 2163 2816 1466 2816 
C 768 2816 173 2176 173 1356 
C 173 551 768 -64 1466 -64 
C 2163 -64 2758 551 2758 1356 
z
M 1466 51 
C 1165 51 909 230 762 480 
C 602 767 582 1126 582 1408 
C 582 1677 595 2010 762 2298 
C 890 2509 1139 2714 1466 2714 
C 1754 2714 1997 2554 2150 2330 
C 2349 2029 2349 1607 2349 1408 
C 2349 1158 2336 775 2163 467 
C 1984 173 1709 51 1466 51 
z
" transform="scale(0.015625)"/>
       <path id="CMR17-67" d="M 710 1164 
C 832 1068 1043 960 1299 960 
C 1805 960 2240 1357 2240 1888 
C 2240 2054 2189 2310 1997 2509 
C 2176 2692 2438 2752 2586 2752 
C 2611 2752 2650 2752 2682 2734 
C 2656 2728 2598 2703 2598 2605 
C 2598 2527 2656 2471 2739 2471 
C 2835 2471 2886 2533 2886 2614 
C 2886 2731 2790 2854 2586 2854 
C 2330 2854 2106 2738 1926 2580 
C 1734 2753 1504 2816 1299 2816 
C 794 2816 358 2419 358 1888 
C 358 1522 570 1292 634 1228 
C 442 1004 442 743 442 711 
C 442 545 506 302 723 168 
C 390 85 128 -169 128 -486 
C 128 -943 736 -1280 1466 -1280 
C 2170 -1280 2803 -956 2803 -479 
C 2803 384 1856 384 1363 384 
C 1216 384 954 384 922 391 
C 723 423 589 602 589 826 
C 589 883 589 1024 710 1164 
z
M 1299 1068 
C 736 1068 736 1760 736 1889 
C 736 2016 736 2708 1299 2708 
C 1862 2708 1862 2016 1862 1889 
C 1862 1760 1862 1068 1299 1068 
z
M 1466 -1171 
C 826 -1171 384 -835 384 -486 
C 384 -289 493 -105 634 -4 
C 794 104 858 104 1293 104 
C 1818 104 2547 104 2547 -486 
C 2547 -835 2106 -1171 1466 -1171 
z
" transform="scale(0.015625)"/>
       <path id="CMR17-6d" d="M 4326 1933 
C 4326 2252 4269 2790 3507 2790 
C 3072 2790 2771 2496 2656 2151 
L 2650 2151 
C 2573 2676 2195 2790 1837 2790 
C 1331 2790 1069 2400 973 2144 
L 966 2144 
L 966 2790 
L 211 2720 
L 211 2554 
C 589 2554 646 2515 646 2208 
L 646 428 
C 646 184 621 153 211 153 
L 211 -13 
C 365 0 646 0 813 0 
C 979 0 1267 0 1421 -13 
L 1421 153 
C 1011 153 986 178 986 428 
L 986 1658 
C 986 2247 1344 2688 1792 2688 
C 2266 2688 2317 2266 2317 1958 
L 2317 428 
C 2317 184 2291 153 1882 153 
L 1882 -13 
C 2035 0 2317 0 2483 0 
C 2650 0 2938 0 3091 -13 
L 3091 153 
C 2682 153 2656 178 2656 428 
L 2656 1658 
C 2656 2247 3014 2688 3462 2688 
C 3936 2688 3987 2266 3987 1958 
L 3987 428 
C 3987 184 3962 153 3552 153 
L 3552 -13 
C 3706 0 3987 0 4154 0 
C 4320 0 4608 0 4762 -13 
L 4762 153 
C 4352 153 4326 178 4326 428 
L 4326 1933 
z
" transform="scale(0.015625)"/>
       <path id="CMR17-69" d="M 992 3909 
C 992 4049 877 4170 730 4170 
C 589 4170 467 4056 467 3909 
C 467 3769 582 3648 730 3648 
C 870 3648 992 3763 992 3909 
z
M 243 2706 
L 243 2541 
C 602 2541 653 2502 653 2197 
L 653 427 
C 653 184 627 153 218 153 
L 218 -13 
C 371 0 646 0 806 0 
C 960 0 1222 0 1370 -13 
L 1370 153 
C 992 153 979 191 979 420 
L 979 2776 
L 243 2706 
z
" transform="scale(0.015625)"/>
       <path id="CMR17-6e" d="M 2656 1933 
C 2656 2259 2592 2790 1837 2790 
C 1331 2790 1069 2400 973 2144 
L 966 2144 
L 966 2790 
L 211 2720 
L 211 2554 
C 589 2554 646 2515 646 2208 
L 646 428 
C 646 184 621 153 211 153 
L 211 -13 
C 365 0 646 0 813 0 
C 979 0 1267 0 1421 -13 
L 1421 153 
C 1011 153 986 178 986 428 
L 986 1658 
C 986 2247 1344 2688 1792 2688 
C 2266 2688 2317 2266 2317 1958 
L 2317 428 
C 2317 184 2291 153 1882 153 
L 1882 -13 
C 2035 0 2317 0 2483 0 
C 2650 0 2938 0 3091 -13 
L 3091 153 
C 2682 153 2656 178 2656 428 
L 2656 1933 
z
" transform="scale(0.015625)"/>
       <path id="CMR17-61" d="M 2304 1653 
C 2304 2072 2304 2294 2035 2543 
C 1798 2752 1523 2816 1306 2816 
C 800 2816 435 2407 435 1971 
C 435 1728 627 1728 666 1728 
C 749 1728 896 1778 896 1954 
C 896 2112 774 2181 666 2181 
C 640 2181 608 2174 589 2168 
C 723 2592 1069 2714 1293 2714 
C 1613 2714 1965 2429 1965 1885 
L 1965 1600 
C 1587 1600 1133 1549 774 1357 
C 371 1133 256 813 256 570 
C 256 77 832 -64 1171 -64 
C 1523 -64 1850 139 1990 511 
C 2003 233 2182 -18 2464 -18 
C 2598 -18 2938 70 2938 567 
L 2938 920 
L 2822 920 
L 2822 562 
C 2822 178 2650 128 2566 128 
C 2304 128 2304 458 2304 738 
L 2304 1653 
z
M 1965 870 
C 1965 317 1568 38 1216 38 
C 896 38 646 275 646 570 
C 646 761 730 1100 1101 1305 
C 1408 1478 1760 1504 1965 1504 
L 1965 870 
z
" transform="scale(0.015625)"/>
       <path id="CMR17-6c" d="M 979 4396 
L 218 4326 
L 218 4160 
C 595 4160 653 4122 653 3817 
L 653 426 
C 653 184 627 153 218 153 
L 218 -13 
C 371 0 653 0 813 0 
C 979 0 1261 0 1414 -13 
L 1414 153 
C 1005 153 979 178 979 426 
L 979 4396 
z
" transform="scale(0.015625)"/>
       <path id="CMR17-65" d="M 2438 1472 
C 2464 1498 2464 1511 2464 1576 
C 2464 2238 2118 2816 1389 2816 
C 710 2816 173 2169 173 1383 
C 173 551 781 -64 1459 -64 
C 2176 -64 2458 607 2458 740 
C 2458 784 2419 784 2406 784 
C 2362 784 2355 771 2330 696 
C 2189 265 1837 51 1504 51 
C 1229 51 954 203 781 480 
C 582 803 582 1176 582 1472 
L 2438 1472 
z
M 589 1568 
C 634 2505 1126 2714 1382 2714 
C 1818 2714 2112 2297 2118 1568 
L 589 1568 
z
" transform="scale(0.015625)"/>
       <path id="CMR17-6a" d="M 1165 3963 
C 1165 4103 1050 4224 902 4224 
C 762 4224 640 4110 640 3963 
C 640 3823 755 3702 902 3702 
C 1043 3702 1165 3817 1165 3963 
z
M 365 2754 
L 365 2588 
C 787 2588 838 2543 838 2235 
L 838 -359 
C 838 -678 781 -1178 403 -1178 
C 358 -1178 186 -1178 45 -1082 
C 90 -1075 250 -1031 250 -851 
C 250 -729 166 -621 19 -621 
C -122 -621 -211 -717 -211 -858 
C -211 -1114 70 -1280 397 -1280 
C 838 -1280 1165 -877 1165 -332 
L 1165 2825 
L 365 2754 
z
" transform="scale(0.015625)"/>
       <path id="CMR17-70" d="M 1408 -1063 
C 998 -1063 973 -1037 973 -789 
L 973 402 
C 1158 134 1427 -38 1766 -38 
C 2406 -38 3053 523 3053 1388 
C 3053 2191 2496 2802 1837 2802 
C 1453 2802 1139 2592 960 2338 
L 960 2802 
L 198 2732 
L 198 2567 
C 576 2567 634 2528 634 2223 
L 634 -789 
C 634 -1031 608 -1063 198 -1063 
L 198 -1228 
C 352 -1216 634 -1216 800 -1216 
C 966 -1216 1254 -1216 1408 -1228 
L 1408 -1063 
z
M 973 2012 
C 973 2102 973 2235 1222 2471 
C 1254 2497 1472 2688 1792 2688 
C 2259 2688 2643 2108 2643 1382 
C 2643 656 2234 64 1728 64 
C 1498 64 1248 172 1056 472 
C 973 612 973 650 973 752 
L 973 2012 
z
" transform="scale(0.015625)"/>
       <path id="CMR17-77" d="M 3725 2183 
C 3853 2560 4109 2560 4205 2560 
L 4205 2732 
C 4077 2732 3949 2732 3821 2732 
C 3699 2732 3424 2732 3315 2738 
L 3315 2560 
C 3514 2560 3622 2445 3622 2286 
C 3622 2241 3610 2184 3597 2140 
L 2995 407 
L 2342 2275 
C 2330 2319 2310 2370 2310 2395 
C 2310 2560 2528 2560 2630 2560 
L 2630 2738 
C 2483 2732 2214 2732 2061 2732 
C 1901 2732 1734 2732 1587 2738 
L 1587 2560 
C 1939 2560 1939 2547 2074 2149 
L 1485 451 
L 851 2281 
C 819 2363 819 2376 819 2395 
C 819 2560 1037 2560 1139 2560 
L 1139 2738 
C 986 2732 717 2732 557 2732 
C 416 2732 198 2732 64 2738 
L 64 2560 
C 346 2560 416 2541 486 2331 
L 1274 49 
C 1299 -33 1318 -52 1370 -52 
C 1414 -52 1440 -39 1472 56 
L 2131 1980 
L 2797 56 
C 2829 -39 2854 -52 2899 -52 
C 2950 -52 2970 -33 2995 50 
L 3725 2183 
z
" transform="scale(0.015625)"/>
       <path id="CMR17-73" d="M 1978 2697 
C 1978 2813 1971 2819 1933 2819 
C 1907 2819 1901 2813 1824 2717 
C 1805 2691 1747 2626 1728 2601 
C 1523 2819 1235 2819 1126 2819 
C 416 2819 160 2447 160 2076 
C 160 1498 813 1365 998 1325 
C 1402 1243 1542 1217 1677 1101 
C 1760 1025 1901 884 1901 654 
C 1901 384 1747 38 1158 38 
C 602 38 403 460 288 1021 
C 269 1110 269 1117 218 1117 
C 166 1117 160 1110 160 983 
L 160 63 
C 160 -51 166 -58 205 -58 
C 237 -58 243 -51 275 0 
C 314 57 410 211 448 276 
C 576 103 800 -64 1158 -64 
C 1792 -64 2131 283 2131 784 
C 2131 1112 1958 1285 1875 1362 
C 1683 1561 1459 1606 1190 1657 
C 838 1735 390 1825 390 2217 
C 390 2383 480 2737 1126 2737 
C 1811 2737 1850 2094 1862 1888 
C 1869 1856 1901 1849 1920 1849 
C 1978 1849 1978 1869 1978 1978 
L 1978 2697 
z
" transform="scale(0.015625)"/>
       <path id="CMR17-7a" d="M 2310 2605 
C 2362 2670 2362 2682 2362 2695 
C 2362 2752 2336 2752 2221 2752 
L 275 2752 
L 211 1760 
L 326 1760 
C 371 2381 442 2650 1178 2650 
L 1958 2650 
L 128 96 
C 128 0 134 0 269 0 
L 2291 0 
L 2381 1152 
L 2266 1152 
C 2214 442 2131 115 1350 115 
L 531 115 
L 2310 2605 
z
" transform="scale(0.015625)"/>
       <path id="CMR17-63" d="M 2234 2240 
C 2112 2240 1933 2240 1933 2017 
C 1933 1838 2080 1787 2163 1787 
C 2208 1787 2394 1807 2394 2024 
C 2394 2467 1958 2803 1466 2803 
C 787 2803 211 2178 211 1363 
C 211 516 813 -64 1466 -64 
C 2259 -64 2458 677 2458 748 
C 2458 774 2451 793 2406 793 
C 2362 793 2355 787 2330 703 
C 2163 180 1798 51 1523 51 
C 1114 51 621 427 621 1369 
C 621 2338 1094 2688 1472 2688 
C 1722 2688 2093 2573 2234 2240 
z
" transform="scale(0.015625)"/>
       <path id="CMR17-68" d="M 2656 1933 
C 2656 2259 2592 2790 1837 2790 
C 1312 2790 1056 2368 979 2157 
L 973 2157 
L 973 4396 
L 211 4326 
L 211 4160 
C 589 4160 646 4122 646 3817 
L 646 426 
C 646 184 621 153 211 153 
L 211 -13 
C 365 0 646 0 813 0 
C 979 0 1267 0 1421 -13 
L 1421 153 
C 1011 153 986 178 986 428 
L 986 1658 
C 986 2247 1344 2688 1792 2688 
C 2266 2688 2317 2266 2317 1958 
L 2317 428 
C 2317 184 2291 153 1882 153 
L 1882 -13 
C 2035 0 2317 0 2483 0 
C 2650 0 2938 0 3091 -13 
L 3091 153 
C 2682 153 2656 178 2656 428 
L 2656 1933 
z
" transform="scale(0.015625)"/>
      </defs>
      <use xlink:href="#CMR17-50" transform="scale(0.996264)"/>
      <use xlink:href="#CMR17-72" transform="translate(62.586301 0)scale(0.996264)"/>
      <use xlink:href="#CMR17-13" transform="translate(97.867068 0)scale(0.996264)"/>
      <use xlink:href="#CMR17-6f" transform="translate(97.867068 0)scale(0.996264)"/>
      <use xlink:href="#CMR17-67" transform="translate(143.557545 0)scale(0.996264)"/>
      <use xlink:href="#CMR17-6d" transform="translate(219.323989 0)scale(0.996264)"/>
      <use xlink:href="#CMR17-69" transform="translate(296.243579 0)scale(0.996264)"/>
      <use xlink:href="#CMR17-6e" transform="translate(321.114637 0)scale(0.996264)"/>
      <use xlink:href="#CMR17-69" transform="translate(372.010007 0)scale(0.996264)"/>
      <use xlink:href="#CMR17-6d" transform="translate(396.881066 0)scale(0.996264)"/>
      <use xlink:href="#CMR17-61" transform="translate(473.800655 0)scale(0.996264)"/>
      <use xlink:href="#CMR17-6c" transform="translate(519.491132 0)scale(0.996264)"/>
      <use xlink:href="#CMR17-6e" transform="translate(544.362191 0)scale(0.996264)"/>
      <use xlink:href="#CMR17-65" transform="translate(595.257561 0)scale(0.996264)"/>
      <use xlink:href="#CMR17-6a" transform="translate(635.743221 0)scale(0.996264)"/>
      <use xlink:href="#CMR17-70" transform="translate(693.2927 0)scale(0.996264)"/>
      <use xlink:href="#CMR17-6f" transform="translate(746.790508 0)scale(0.996264)"/>
      <use xlink:href="#CMR17-77" transform="translate(789.878532 0)scale(0.996264)"/>
      <use xlink:href="#CMR17-73" transform="translate(856.388412 0)scale(0.996264)"/>
      <use xlink:href="#CMR17-7a" transform="translate(892.18975 0)scale(0.996264)"/>
      <use xlink:href="#CMR17-65" transform="translate(932.67541 0)scale(0.996264)"/>
      <use xlink:href="#CMR17-63" transform="translate(973.161071 0)scale(0.996264)"/>
      <use xlink:href="#CMR17-68" transform="translate(1011.044277 0)scale(0.996264)"/>
      <use xlink:href="#CMR17-6e" transform="translate(1061.939647 0)scale(0.996264)"/>
      <use xlink:href="#CMR17-6f" transform="translate(1112.835017 0)scale(0.996264)"/>
      <use xlink:href="#CMR17-13" transform="translate(1153.580917 0)scale(0.996264)"/>
      <use xlink:href="#CMR17-73" transform="translate(1158.525494 0)scale(0.996264)"/>
      <use xlink:href="#CMR17-63" transform="translate(1194.326832 0)scale(0.996264)"/>
      <use xlink:href="#CMR17-69" transform="translate(1234.812492 0)scale(0.996264)"/>
      <use xlink:href="#CMR17-63" transform="translate(1289.759517 0)scale(0.996264)"/>
      <use xlink:href="#CMR17-7a" transform="translate(1330.245177 0)scale(0.996264)"/>
      <use xlink:href="#CMR17-61" transform="translate(1370.730838 0)scale(0.996264)"/>
      <use xlink:href="#CMR17-73" transform="translate(1416.421315 0)scale(0.996264)"/>
      <use xlink:href="#CMR17-6f" transform="translate(1452.222653 0)scale(0.996264)"/>
      <use xlink:href="#CMR17-77" transform="translate(1495.310676 0)scale(0.996264)"/>
      <use xlink:href="#CMR17-65" transform="translate(1559.218102 0)scale(0.996264)"/>
      <use xlink:href="#CMR17-6a" transform="translate(1599.703763 0)scale(0.996264)"/>
     </g>
    </g>
   </g>
   <g id="matplotlib.axis_2">
    <g id="ytick_1">
     <g id="line2d_6">
      <defs>
       <path id="m5a655bbf5a" d="M 0 0 
L -3.5 0 
" style="stroke: #000000; stroke-width: 0.8"/>
      </defs>
      <g>
       <use xlink:href="#m5a655bbf5a" x="44.088012" y="245.635662" style="stroke: #000000; stroke-width: 0.8"/>
      </g>
     </g>
     <g id="text_7">
      <!-- $\mathdefault{0}$ -->
      <g transform="translate(32.106676 249.094911)scale(0.1 -0.1)">
       <use xlink:href="#CMR17-30" transform="scale(0.996264)"/>
      </g>
     </g>
    </g>
    <g id="ytick_2">
     <g id="line2d_7">
      <g>
       <use xlink:href="#m5a655bbf5a" x="44.088012" y="211.643828" style="stroke: #000000; stroke-width: 0.8"/>
      </g>
     </g>
     <g id="text_8">
      <!-- $\mathdefault{50000}$ -->
      <g transform="translate(12.181335 215.103077)scale(0.1 -0.1)">
       <use xlink:href="#CMR17-35" transform="scale(0.996264)"/>
       <use xlink:href="#CMR17-30" transform="translate(45.690477 0)scale(0.996264)"/>
       <use xlink:href="#CMR17-30" transform="translate(91.380954 0)scale(0.996264)"/>
       <use xlink:href="#CMR17-30" transform="translate(137.071431 0)scale(0.996264)"/>
       <use xlink:href="#CMR17-30" transform="translate(182.761908 0)scale(0.996264)"/>
      </g>
     </g>
    </g>
    <g id="ytick_3">
     <g id="line2d_8">
      <g>
       <use xlink:href="#m5a655bbf5a" x="44.088012" y="177.651994" style="stroke: #000000; stroke-width: 0.8"/>
      </g>
     </g>
     <g id="text_9">
      <!-- $\mathdefault{100000}$ -->
      <g transform="translate(7.2 181.111243)scale(0.1 -0.1)">
       <use xlink:href="#CMR17-31" transform="scale(0.996264)"/>
       <use xlink:href="#CMR17-30" transform="translate(45.690477 0)scale(0.996264)"/>
       <use xlink:href="#CMR17-30" transform="translate(91.380954 0)scale(0.996264)"/>
       <use xlink:href="#CMR17-30" transform="translate(137.071431 0)scale(0.996264)"/>
       <use xlink:href="#CMR17-30" transform="translate(182.761908 0)scale(0.996264)"/>
       <use xlink:href="#CMR17-30" transform="translate(228.452386 0)scale(0.996264)"/>
      </g>
     </g>
    </g>
    <g id="ytick_4">
     <g id="line2d_9">
      <g>
       <use xlink:href="#m5a655bbf5a" x="44.088012" y="143.66016" style="stroke: #000000; stroke-width: 0.8"/>
      </g>
     </g>
     <g id="text_10">
      <!-- $\mathdefault{150000}$ -->
      <g transform="translate(7.2 147.119409)scale(0.1 -0.1)">
       <use xlink:href="#CMR17-31" transform="scale(0.996264)"/>
       <use xlink:href="#CMR17-35" transform="translate(45.690477 0)scale(0.996264)"/>
       <use xlink:href="#CMR17-30" transform="translate(91.380954 0)scale(0.996264)"/>
       <use xlink:href="#CMR17-30" transform="translate(137.071431 0)scale(0.996264)"/>
       <use xlink:href="#CMR17-30" transform="translate(182.761908 0)scale(0.996264)"/>
       <use xlink:href="#CMR17-30" transform="translate(228.452386 0)scale(0.996264)"/>
      </g>
     </g>
    </g>
    <g id="ytick_5">
     <g id="line2d_10">
      <g>
       <use xlink:href="#m5a655bbf5a" x="44.088012" y="109.668325" style="stroke: #000000; stroke-width: 0.8"/>
      </g>
     </g>
     <g id="text_11">
      <!-- $\mathdefault{200000}$ -->
      <g transform="translate(7.2 113.127575)scale(0.1 -0.1)">
       <defs>
        <path id="CMR17-32" d="M 2669 989 
L 2554 989 
C 2490 536 2438 459 2413 420 
C 2381 369 1920 369 1830 369 
L 602 369 
C 832 619 1280 1072 1824 1597 
C 2214 1967 2669 2402 2669 3035 
C 2669 3790 2067 4224 1395 4224 
C 691 4224 262 3604 262 3030 
C 262 2780 448 2748 525 2748 
C 589 2748 781 2787 781 3010 
C 781 3207 614 3264 525 3264 
C 486 3264 448 3258 422 3245 
C 544 3790 915 4058 1306 4058 
C 1862 4058 2227 3617 2227 3035 
C 2227 2479 1901 2000 1536 1584 
L 262 146 
L 262 0 
L 2515 0 
L 2669 989 
z
" transform="scale(0.015625)"/>
       </defs>
       <use xlink:href="#CMR17-32" transform="scale(0.996264)"/>
       <use xlink:href="#CMR17-30" transform="translate(45.690477 0)scale(0.996264)"/>
       <use xlink:href="#CMR17-30" transform="translate(91.380954 0)scale(0.996264)"/>
       <use xlink:href="#CMR17-30" transform="translate(137.071431 0)scale(0.996264)"/>
       <use xlink:href="#CMR17-30" transform="translate(182.761908 0)scale(0.996264)"/>
       <use xlink:href="#CMR17-30" transform="translate(228.452386 0)scale(0.996264)"/>
      </g>
     </g>
    </g>
    <g id="ytick_6">
     <g id="line2d_11">
      <g>
       <use xlink:href="#m5a655bbf5a" x="44.088012" y="75.676491" style="stroke: #000000; stroke-width: 0.8"/>
      </g>
     </g>
     <g id="text_12">
      <!-- $\mathdefault{250000}$ -->
      <g transform="translate(7.2 79.135741)scale(0.1 -0.1)">
       <use xlink:href="#CMR17-32" transform="scale(0.996264)"/>
       <use xlink:href="#CMR17-35" transform="translate(45.690477 0)scale(0.996264)"/>
       <use xlink:href="#CMR17-30" transform="translate(91.380954 0)scale(0.996264)"/>
       <use xlink:href="#CMR17-30" transform="translate(137.071431 0)scale(0.996264)"/>
       <use xlink:href="#CMR17-30" transform="translate(182.761908 0)scale(0.996264)"/>
       <use xlink:href="#CMR17-30" transform="translate(228.452386 0)scale(0.996264)"/>
      </g>
     </g>
    </g>
   </g>
   <g id="PathCollection_1">
    <defs>
     <path id="m8d7d1bde40" d="M 0 0 
L 0 -3.5 
M 0 0 
L -2.8 1.75 
M 0 0 
L 2.8 1.75 
" style="stroke: #222222; stroke-width: 1.5"/>
    </defs>
    <g clip-path="url(#pdb63f65595)">
     <use xlink:href="#m8d7d1bde40" x="65.340704" y="236.543526" style="fill: #222222; stroke: #222222; stroke-width: 1.5"/>
    </g>
   </g>
   <g id="PathCollection_2">
    <defs>
     <path id="m2e844dfddf" d="M 0 -3.5 
L 0 0 
L -3.031089 -1.75 
L 0 0 
L -3.031089 1.75 
L 0 0 
L -0 3.5 
L 0 0 
L 3.031089 1.75 
L 0 0 
L 3.031089 -1.75 
L 0 0 
z
" style="stroke: #000000; stroke-width: 1.5"/>
    </defs>
    <g clip-path="url(#pdb63f65595)">
     <use xlink:href="#m2e844dfddf" x="65.340704" y="244.535686" style="stroke: #000000; stroke-width: 1.5"/>
    </g>
   </g>
   <g id="line2d_12">
    <path d="M 65.340704 80.735156 
L 107.84609 80.735156 
L 150.351476 80.735156 
L 192.856862 80.735156 
L 235.362247 80.735156 
" clip-path="url(#pdb63f65595)" style="fill: none; stroke-dasharray: 5.55,2.4; stroke-dashoffset: 0; stroke: #cccccc; stroke-width: 1.5"/>
    <defs>
     <path id="m094b3a6b8f" d="M 0 3.5 
C 0.928211 3.5 1.81853 3.131218 2.474874 2.474874 
C 3.131218 1.81853 3.5 0.928211 3.5 0 
C 3.5 -0.928211 3.131218 -1.81853 2.474874 -2.474874 
C 1.81853 -3.131218 0.928211 -3.5 0 -3.5 
C -0.928211 -3.5 -1.81853 -3.131218 -2.474874 -2.474874 
C -3.131218 -1.81853 -3.5 -0.928211 -3.5 0 
C -3.5 0.928211 -3.131218 1.81853 -2.474874 2.474874 
C -1.81853 3.131218 -0.928211 3.5 0 3.5 
z
" style="stroke: #cccccc"/>
    </defs>
    <g clip-path="url(#pdb63f65595)">
     <use xlink:href="#m094b3a6b8f" x="65.340704" y="80.735156" style="fill: #cccccc; stroke: #cccccc"/>
     <use xlink:href="#m094b3a6b8f" x="107.84609" y="80.735156" style="fill: #cccccc; stroke: #cccccc"/>
     <use xlink:href="#m094b3a6b8f" x="150.351476" y="80.735156" style="fill: #cccccc; stroke: #cccccc"/>
     <use xlink:href="#m094b3a6b8f" x="192.856862" y="80.735156" style="fill: #cccccc; stroke: #cccccc"/>
     <use xlink:href="#m094b3a6b8f" x="235.362247" y="80.735156" style="fill: #cccccc; stroke: #cccccc"/>
    </g>
   </g>
   <g id="line2d_13">
    <path d="M 65.340704 52.279912 
L 107.84609 52.279912 
L 150.351476 52.279912 
L 192.856862 62.592355 
L 235.362247 131.497201 
" clip-path="url(#pdb63f65595)" style="fill: none; stroke-dasharray: 5.55,2.4; stroke-dashoffset: 0; stroke: #aaaaaa; stroke-width: 1.5"/>
    <defs>
     <path id="m950d7e9bdc" d="M -3.5 3.5 
L 3.5 3.5 
L 3.5 -3.5 
L -3.5 -3.5 
z
" style="stroke: #aaaaaa; stroke-linejoin: miter"/>
    </defs>
    <g clip-path="url(#pdb63f65595)">
     <use xlink:href="#m950d7e9bdc" x="65.340704" y="52.279912" style="fill: #aaaaaa; stroke: #aaaaaa; stroke-linejoin: miter"/>
     <use xlink:href="#m950d7e9bdc" x="107.84609" y="52.279912" style="fill: #aaaaaa; stroke: #aaaaaa; stroke-linejoin: miter"/>
     <use xlink:href="#m950d7e9bdc" x="150.351476" y="52.279912" style="fill: #aaaaaa; stroke: #aaaaaa; stroke-linejoin: miter"/>
     <use xlink:href="#m950d7e9bdc" x="192.856862" y="62.592355" style="fill: #aaaaaa; stroke: #aaaaaa; stroke-linejoin: miter"/>
     <use xlink:href="#m950d7e9bdc" x="235.362247" y="131.497201" style="fill: #aaaaaa; stroke: #aaaaaa; stroke-linejoin: miter"/>
    </g>
   </g>
   <g id="line2d_14">
    <path d="M 65.340704 94.08103 
L 107.84609 96.168808 
L 150.351476 116.26682 
L 192.856862 155.324118 
L 235.362247 230.28359 
" clip-path="url(#pdb63f65595)" style="fill: none; stroke-dasharray: 5.55,2.4; stroke-dashoffset: 0; stroke: #888888; stroke-width: 1.5"/>
    <defs>
     <path id="m52f0b9682d" d="M 0 -3.5 
L -3.5 3.5 
L 3.5 3.5 
z
" style="stroke: #888888; stroke-linejoin: miter"/>
    </defs>
    <g clip-path="url(#pdb63f65595)">
     <use xlink:href="#m52f0b9682d" x="65.340704" y="94.08103" style="fill: #888888; stroke: #888888; stroke-linejoin: miter"/>
     <use xlink:href="#m52f0b9682d" x="107.84609" y="96.168808" style="fill: #888888; stroke: #888888; stroke-linejoin: miter"/>
     <use xlink:href="#m52f0b9682d" x="150.351476" y="116.26682" style="fill: #888888; stroke: #888888; stroke-linejoin: miter"/>
     <use xlink:href="#m52f0b9682d" x="192.856862" y="155.324118" style="fill: #888888; stroke: #888888; stroke-linejoin: miter"/>
     <use xlink:href="#m52f0b9682d" x="235.362247" y="230.28359" style="fill: #888888; stroke: #888888; stroke-linejoin: miter"/>
    </g>
   </g>
   <g id="line2d_15">
    <path d="M 65.340704 159.752574 
L 107.84609 166.22054 
L 150.351476 196.740448 
L 192.856862 240.530088 
" clip-path="url(#pdb63f65595)" style="fill: none; stroke-dasharray: 5.55,2.4; stroke-dashoffset: 0; stroke: #666666; stroke-width: 1.5"/>
    <defs>
     <path id="mefe563b12c" d="M -3.5 0 
L 3.5 0 
M 0 3.5 
L 0 -3.5 
" style="stroke: #666666"/>
    </defs>
    <g clip-path="url(#pdb63f65595)">
     <use xlink:href="#mefe563b12c" x="65.340704" y="159.752574" style="fill: #666666; stroke: #666666"/>
     <use xlink:href="#mefe563b12c" x="107.84609" y="166.22054" style="fill: #666666; stroke: #666666"/>
     <use xlink:href="#mefe563b12c" x="150.351476" y="196.740448" style="fill: #666666; stroke: #666666"/>
     <use xlink:href="#mefe563b12c" x="192.856862" y="240.530088" style="fill: #666666; stroke: #666666"/>
    </g>
   </g>
   <g id="line2d_16">
    <path d="M 65.340704 210.711772 
L 107.84609 228.214167 
" clip-path="url(#pdb63f65595)" style="fill: none; stroke-dasharray: 5.55,2.4; stroke-dashoffset: 0; stroke: #444444; stroke-width: 1.5"/>
    <defs>
     <path id="m5ad690f025" d="M -3.5 3.5 
L 3.5 -3.5 
M -3.5 -3.5 
L 3.5 3.5 
" style="stroke: #444444"/>
    </defs>
    <g clip-path="url(#pdb63f65595)">
     <use xlink:href="#m5ad690f025" x="65.340704" y="210.711772" style="fill: #444444; stroke: #444444"/>
     <use xlink:href="#m5ad690f025" x="107.84609" y="228.214167" style="fill: #444444; stroke: #444444"/>
    </g>
   </g>
   <g id="patch_3">
    <path d="M 44.088012 245.635662 
L 44.088012 42.667123 
" style="fill: none; stroke: #000000; stroke-width: 0.8; stroke-linejoin: miter; stroke-linecap: square"/>
   </g>
   <g id="patch_4">
    <path d="M 256.61494 245.635662 
L 256.61494 42.667123 
" style="fill: none; stroke: #000000; stroke-width: 0.8; stroke-linejoin: miter; stroke-linecap: square"/>
   </g>
   <g id="patch_5">
    <path d="M 44.088012 245.635662 
L 256.61494 245.635662 
" style="fill: none; stroke: #000000; stroke-width: 0.8; stroke-linejoin: miter; stroke-linecap: square"/>
   </g>
   <g id="patch_6">
    <path d="M 44.088012 42.667123 
L 256.61494 42.667123 
" style="fill: none; stroke: #000000; stroke-width: 0.8; stroke-linejoin: miter; stroke-linecap: square"/>
   </g>
   <g id="text_13">
    <!-- Liczba instancji wzorców o danej długości -->
    <g transform="translate(50.046825 36.667123)scale(0.11 -0.11)">
     <defs>
      <path id="CMR17-4c" d="M 3469 1615 
L 3354 1615 
C 3302 983 3219 166 2125 166 
L 1530 166 
C 1274 166 1261 197 1261 414 
L 1261 3898 
C 1261 4129 1274 4192 1760 4192 
L 1901 4192 
L 1901 4352 
C 1638 4352 1331 4352 1069 4352 
C 870 4352 512 4352 326 4352 
L 326 4192 
C 768 4192 838 4192 838 3905 
L 838 452 
C 838 166 768 166 326 166 
L 326 0 
L 3315 0 
L 3469 1615 
z
" transform="scale(0.015625)"/>
      <path id="CMR17-62" d="M 960 4396 
L 198 4326 
L 198 4160 
C 576 4160 634 4122 634 3817 
L 634 -13 
L 749 -13 
L 934 441 
C 1120 141 1395 -64 1766 -64 
C 2406 -64 3053 500 3053 1370 
C 3053 2188 2477 2790 1830 2790 
C 1434 2790 1152 2579 960 2330 
L 960 4396 
z
M 973 2004 
C 973 2118 973 2138 1062 2272 
C 1312 2657 1670 2688 1792 2688 
C 1984 2688 2643 2585 2643 1376 
C 2643 108 1888 38 1734 38 
C 1536 38 1248 114 1043 486 
C 973 608 973 621 973 735 
L 973 2004 
z
" transform="scale(0.015625)"/>
      <path id="CMR17-74" d="M 966 2560 
L 1862 2560 
L 1862 2725 
L 966 2725 
L 966 3904 
L 851 3904 
C 838 3245 614 2668 70 2668 
L 70 2560 
L 627 2560 
L 627 771 
C 627 650 627 -64 1370 -64 
C 1747 -64 1965 306 1965 777 
L 1965 1140 
L 1850 1140 
L 1850 783 
C 1850 344 1677 51 1408 51 
C 1222 51 966 178 966 758 
L 966 2560 
z
" transform="scale(0.015625)"/>
      <path id="CMR17-64" d="M 1869 4326 
L 1869 4160 
C 2246 4160 2304 4122 2304 3820 
L 2304 2345 
C 2278 2377 2016 2790 1498 2790 
C 845 2790 211 2208 211 1364 
C 211 525 806 -64 1434 -64 
C 1978 -64 2259 337 2291 380 
L 2291 -63 
L 3066 -63 
L 3066 128 
C 2688 128 2630 166 2630 473 
L 2630 4396 
L 1869 4326 
z
M 2291 755 
C 2291 563 2176 390 2029 262 
C 1811 70 1594 38 1472 38 
C 1286 38 621 134 621 1356 
C 621 2612 1363 2688 1530 2688 
C 1824 2688 2061 2522 2208 2291 
C 2291 2157 2291 2138 2291 2023 
L 2291 755 
z
" transform="scale(0.015625)"/>
      <path id="CMR17-20" d="M 1517 2349 
L 1453 2502 
L 115 1946 
L 179 1792 
L 1517 2349 
z
" transform="scale(0.015625)"/>
      <path id="CMR17-75" d="M 1882 2693 
L 1882 2528 
C 2259 2528 2317 2489 2317 2186 
L 2317 1032 
C 2317 500 2029 38 1555 38 
C 1030 38 986 348 986 678 
L 986 2763 
L 211 2693 
L 211 2528 
C 467 2528 640 2528 646 2274 
L 646 1058 
C 646 633 646 361 813 183 
C 896 101 1056 -64 1517 -64 
C 2061 -64 2272 377 2323 506 
L 2330 506 
L 2330 -63 
L 3091 -63 
L 3091 128 
C 2714 128 2656 166 2656 473 
L 2656 2763 
L 1882 2693 
z
" transform="scale(0.015625)"/>
     </defs>
     <use xlink:href="#CMR17-4c" transform="scale(0.996264)"/>
     <use xlink:href="#CMR17-69" transform="translate(57.381408 0)scale(0.996264)"/>
     <use xlink:href="#CMR17-63" transform="translate(82.252466 0)scale(0.996264)"/>
     <use xlink:href="#CMR17-7a" transform="translate(122.738127 0)scale(0.996264)"/>
     <use xlink:href="#CMR17-62" transform="translate(163.223787 0)scale(0.996264)"/>
     <use xlink:href="#CMR17-61" transform="translate(214.119157 0)scale(0.996264)"/>
     <use xlink:href="#CMR17-69" transform="translate(289.885601 0)scale(0.996264)"/>
     <use xlink:href="#CMR17-6e" transform="translate(314.756659 0)scale(0.996264)"/>
     <use xlink:href="#CMR17-73" transform="translate(365.652029 0)scale(0.996264)"/>
     <use xlink:href="#CMR17-74" transform="translate(401.453366 0)scale(0.996264)"/>
     <use xlink:href="#CMR17-61" transform="translate(436.734134 0)scale(0.996264)"/>
     <use xlink:href="#CMR17-6e" transform="translate(482.424611 0)scale(0.996264)"/>
     <use xlink:href="#CMR17-63" transform="translate(533.319981 0)scale(0.996264)"/>
     <use xlink:href="#CMR17-6a" transform="translate(573.805642 0)scale(0.996264)"/>
     <use xlink:href="#CMR17-69" transform="translate(601.279154 0)scale(0.996264)"/>
     <use xlink:href="#CMR17-77" transform="translate(656.226179 0)scale(0.996264)"/>
     <use xlink:href="#CMR17-7a" transform="translate(722.736059 0)scale(0.996264)"/>
     <use xlink:href="#CMR17-6f" transform="translate(763.22172 0)scale(0.996264)"/>
     <use xlink:href="#CMR17-72" transform="translate(808.912197 0)scale(0.996264)"/>
     <use xlink:href="#CMR17-63" transform="translate(844.192965 0)scale(0.996264)"/>
     <use xlink:href="#CMR17-13" transform="translate(884.678625 0)scale(0.996264)"/>
     <use xlink:href="#CMR17-6f" transform="translate(884.678625 0)scale(0.996264)"/>
     <use xlink:href="#CMR17-77" transform="translate(930.369102 0)scale(0.996264)"/>
     <use xlink:href="#CMR17-6f" transform="translate(1026.954949 0)scale(0.996264)"/>
     <use xlink:href="#CMR17-64" transform="translate(1102.721393 0)scale(0.996264)"/>
     <use xlink:href="#CMR17-61" transform="translate(1153.616762 0)scale(0.996264)"/>
     <use xlink:href="#CMR17-6e" transform="translate(1199.30724 0)scale(0.996264)"/>
     <use xlink:href="#CMR17-65" transform="translate(1250.202609 0)scale(0.996264)"/>
     <use xlink:href="#CMR17-6a" transform="translate(1290.68827 0)scale(0.996264)"/>
     <use xlink:href="#CMR17-64" transform="translate(1348.237749 0)scale(0.996264)"/>
     <use xlink:href="#CMR17-20" transform="translate(1399.133118 0)scale(0.996264)"/>
     <use xlink:href="#CMR17-6c" transform="translate(1399.133103 0)scale(0.996264)"/>
     <use xlink:href="#CMR17-75" transform="translate(1424.004162 0)scale(0.996264)"/>
     <use xlink:href="#CMR17-67" transform="translate(1474.899531 0)scale(0.996264)"/>
     <use xlink:href="#CMR17-6f" transform="translate(1520.590009 0)scale(0.996264)"/>
     <use xlink:href="#CMR17-13" transform="translate(1561.335908 0)scale(0.996264)"/>
     <use xlink:href="#CMR17-73" transform="translate(1566.280486 0)scale(0.996264)"/>
     <use xlink:href="#CMR17-63" transform="translate(1602.081823 0)scale(0.996264)"/>
     <use xlink:href="#CMR17-69" transform="translate(1642.567484 0)scale(0.996264)"/>
    </g>
   </g>
  </g>
  <g id="axes_2">
   <g id="patch_7">
    <path d="M 302.710059 245.635662 
L 515.236988 245.635662 
L 515.236988 42.667123 
L 302.710059 42.667123 
z
" style="fill: #ffffff"/>
   </g>
   <g id="matplotlib.axis_3">
    <g id="xtick_6">
     <g id="line2d_17">
      <g>
       <use xlink:href="#m160347c77a" x="323.962752" y="245.635662" style="stroke: #000000; stroke-width: 0.8"/>
      </g>
     </g>
     <g id="text_14">
      <!-- $\mathdefault{0.1}$ -->
      <g transform="translate(317.597712 259.55416)scale(0.1 -0.1)">
       <use xlink:href="#CMR17-30" transform="scale(0.996264)"/>
       <use xlink:href="#CMMI12-3a" transform="translate(45.690477 0)scale(0.996264)"/>
       <use xlink:href="#CMR17-31" transform="translate(72.787654 0)scale(0.996264)"/>
      </g>
     </g>
    </g>
    <g id="xtick_7">
     <g id="line2d_18">
      <g>
       <use xlink:href="#m160347c77a" x="366.468137" y="245.635662" style="stroke: #000000; stroke-width: 0.8"/>
      </g>
     </g>
     <g id="text_15">
      <!-- $\mathdefault{0.3}$ -->
      <g transform="translate(360.103098 259.55416)scale(0.1 -0.1)">
       <use xlink:href="#CMR17-30" transform="scale(0.996264)"/>
       <use xlink:href="#CMMI12-3a" transform="translate(45.690477 0)scale(0.996264)"/>
       <use xlink:href="#CMR17-33" transform="translate(72.787654 0)scale(0.996264)"/>
      </g>
     </g>
    </g>
    <g id="xtick_8">
     <g id="line2d_19">
      <g>
       <use xlink:href="#m160347c77a" x="408.973523" y="245.635662" style="stroke: #000000; stroke-width: 0.8"/>
      </g>
     </g>
     <g id="text_16">
      <!-- $\mathdefault{0.5}$ -->
      <g transform="translate(402.608484 259.55416)scale(0.1 -0.1)">
       <use xlink:href="#CMR17-30" transform="scale(0.996264)"/>
       <use xlink:href="#CMMI12-3a" transform="translate(45.690477 0)scale(0.996264)"/>
       <use xlink:href="#CMR17-35" transform="translate(72.787654 0)scale(0.996264)"/>
      </g>
     </g>
    </g>
    <g id="xtick_9">
     <g id="line2d_20">
      <g>
       <use xlink:href="#m160347c77a" x="451.478909" y="245.635662" style="stroke: #000000; stroke-width: 0.8"/>
      </g>
     </g>
     <g id="text_17">
      <!-- $\mathdefault{0.7}$ -->
      <g transform="translate(445.113869 259.55416)scale(0.1 -0.1)">
       <use xlink:href="#CMR17-30" transform="scale(0.996264)"/>
       <use xlink:href="#CMMI12-3a" transform="translate(45.690477 0)scale(0.996264)"/>
       <use xlink:href="#CMR17-37" transform="translate(72.787654 0)scale(0.996264)"/>
      </g>
     </g>
    </g>
    <g id="xtick_10">
     <g id="line2d_21">
      <g>
       <use xlink:href="#m160347c77a" x="493.984295" y="245.635662" style="stroke: #000000; stroke-width: 0.8"/>
      </g>
     </g>
     <g id="text_18">
      <!-- $\mathdefault{0.9}$ -->
      <g transform="translate(487.619255 259.55416)scale(0.1 -0.1)">
       <use xlink:href="#CMR17-30" transform="scale(0.996264)"/>
       <use xlink:href="#CMMI12-3a" transform="translate(45.690477 0)scale(0.996264)"/>
       <use xlink:href="#CMR17-39" transform="translate(72.787654 0)scale(0.996264)"/>
      </g>
     </g>
    </g>
    <g id="text_19">
     <!-- Próg minimalnej powszechności czasowej -->
     <g transform="translate(320.112166 272.409837)scale(0.1 -0.1)">
      <use xlink:href="#CMR17-50" transform="scale(0.996264)"/>
      <use xlink:href="#CMR17-72" transform="translate(62.586301 0)scale(0.996264)"/>
      <use xlink:href="#CMR17-13" transform="translate(97.867068 0)scale(0.996264)"/>
      <use xlink:href="#CMR17-6f" transform="translate(97.867068 0)scale(0.996264)"/>
      <use xlink:href="#CMR17-67" transform="translate(143.557545 0)scale(0.996264)"/>
      <use xlink:href="#CMR17-6d" transform="translate(219.323989 0)scale(0.996264)"/>
      <use xlink:href="#CMR17-69" transform="translate(296.243579 0)scale(0.996264)"/>
      <use xlink:href="#CMR17-6e" transform="translate(321.114637 0)scale(0.996264)"/>
      <use xlink:href="#CMR17-69" transform="translate(372.010007 0)scale(0.996264)"/>
      <use xlink:href="#CMR17-6d" transform="translate(396.881066 0)scale(0.996264)"/>
      <use xlink:href="#CMR17-61" transform="translate(473.800655 0)scale(0.996264)"/>
      <use xlink:href="#CMR17-6c" transform="translate(519.491132 0)scale(0.996264)"/>
      <use xlink:href="#CMR17-6e" transform="translate(544.362191 0)scale(0.996264)"/>
      <use xlink:href="#CMR17-65" transform="translate(595.257561 0)scale(0.996264)"/>
      <use xlink:href="#CMR17-6a" transform="translate(635.743221 0)scale(0.996264)"/>
      <use xlink:href="#CMR17-70" transform="translate(693.2927 0)scale(0.996264)"/>
      <use xlink:href="#CMR17-6f" transform="translate(746.790508 0)scale(0.996264)"/>
      <use xlink:href="#CMR17-77" transform="translate(789.878532 0)scale(0.996264)"/>
      <use xlink:href="#CMR17-73" transform="translate(856.388412 0)scale(0.996264)"/>
      <use xlink:href="#CMR17-7a" transform="translate(892.18975 0)scale(0.996264)"/>
      <use xlink:href="#CMR17-65" transform="translate(932.67541 0)scale(0.996264)"/>
      <use xlink:href="#CMR17-63" transform="translate(973.161071 0)scale(0.996264)"/>
      <use xlink:href="#CMR17-68" transform="translate(1011.044277 0)scale(0.996264)"/>
      <use xlink:href="#CMR17-6e" transform="translate(1061.939647 0)scale(0.996264)"/>
      <use xlink:href="#CMR17-6f" transform="translate(1112.835017 0)scale(0.996264)"/>
      <use xlink:href="#CMR17-13" transform="translate(1153.580917 0)scale(0.996264)"/>
      <use xlink:href="#CMR17-73" transform="translate(1158.525494 0)scale(0.996264)"/>
      <use xlink:href="#CMR17-63" transform="translate(1194.326832 0)scale(0.996264)"/>
      <use xlink:href="#CMR17-69" transform="translate(1234.812492 0)scale(0.996264)"/>
      <use xlink:href="#CMR17-63" transform="translate(1289.759517 0)scale(0.996264)"/>
      <use xlink:href="#CMR17-7a" transform="translate(1330.245177 0)scale(0.996264)"/>
      <use xlink:href="#CMR17-61" transform="translate(1370.730838 0)scale(0.996264)"/>
      <use xlink:href="#CMR17-73" transform="translate(1416.421315 0)scale(0.996264)"/>
      <use xlink:href="#CMR17-6f" transform="translate(1452.222653 0)scale(0.996264)"/>
      <use xlink:href="#CMR17-77" transform="translate(1495.310676 0)scale(0.996264)"/>
      <use xlink:href="#CMR17-65" transform="translate(1559.218102 0)scale(0.996264)"/>
      <use xlink:href="#CMR17-6a" transform="translate(1599.703763 0)scale(0.996264)"/>
     </g>
    </g>
   </g>
   <g id="matplotlib.axis_4">
    <g id="ytick_7">
     <g id="line2d_22">
      <g>
       <use xlink:href="#m5a655bbf5a" x="302.710059" y="245.635662" style="stroke: #000000; stroke-width: 0.8"/>
      </g>
     </g>
     <g id="text_20">
      <!-- $\mathdefault{0}$ -->
      <g transform="translate(290.728724 249.094911)scale(0.1 -0.1)">
       <use xlink:href="#CMR17-30" transform="scale(0.996264)"/>
      </g>
     </g>
    </g>
    <g id="ytick_8">
     <g id="line2d_23">
      <g>
       <use xlink:href="#m5a655bbf5a" x="302.710059" y="202.656617" style="stroke: #000000; stroke-width: 0.8"/>
      </g>
     </g>
     <g id="text_21">
      <!-- $\mathdefault{20}$ -->
      <g transform="translate(285.747388 206.115866)scale(0.1 -0.1)">
       <use xlink:href="#CMR17-32" transform="scale(0.996264)"/>
       <use xlink:href="#CMR17-30" transform="translate(45.690477 0)scale(0.996264)"/>
      </g>
     </g>
    </g>
    <g id="ytick_9">
     <g id="line2d_24">
      <g>
       <use xlink:href="#m5a655bbf5a" x="302.710059" y="159.677572" style="stroke: #000000; stroke-width: 0.8"/>
      </g>
     </g>
     <g id="text_22">
      <!-- $\mathdefault{40}$ -->
      <g transform="translate(285.747388 163.136822)scale(0.1 -0.1)">
       <defs>
        <path id="CMR17-34" d="M 2150 4122 
C 2150 4256 2144 4256 2029 4256 
L 128 1254 
L 128 1088 
L 1779 1088 
L 1779 457 
C 1779 224 1766 160 1318 160 
L 1197 160 
L 1197 0 
C 1402 0 1747 0 1965 0 
C 2182 0 2528 0 2733 0 
L 2733 160 
L 2611 160 
C 2163 160 2150 224 2150 457 
L 2150 1088 
L 2803 1088 
L 2803 1254 
L 2150 1254 
L 2150 4122 
z
M 1798 3703 
L 1798 1254 
L 256 1254 
L 1798 3703 
z
" transform="scale(0.015625)"/>
       </defs>
       <use xlink:href="#CMR17-34" transform="scale(0.996264)"/>
       <use xlink:href="#CMR17-30" transform="translate(45.690477 0)scale(0.996264)"/>
      </g>
     </g>
    </g>
    <g id="ytick_10">
     <g id="line2d_25">
      <g>
       <use xlink:href="#m5a655bbf5a" x="302.710059" y="116.698528" style="stroke: #000000; stroke-width: 0.8"/>
      </g>
     </g>
     <g id="text_23">
      <!-- $\mathdefault{60}$ -->
      <g transform="translate(285.747388 120.157777)scale(0.1 -0.1)">
       <defs>
        <path id="CMR17-36" d="M 678 2176 
C 678 3690 1395 4032 1811 4032 
C 1946 4032 2272 4009 2400 3776 
C 2298 3776 2106 3776 2106 3553 
C 2106 3381 2246 3323 2336 3323 
C 2394 3323 2566 3348 2566 3560 
C 2566 3954 2246 4179 1805 4179 
C 1043 4179 243 3390 243 1984 
C 243 253 966 -128 1478 -128 
C 2099 -128 2688 427 2688 1283 
C 2688 2081 2170 2662 1517 2662 
C 1126 2662 838 2407 678 1960 
L 678 2176 
z
M 1478 25 
C 691 25 691 1200 691 1436 
C 691 1896 909 2560 1504 2560 
C 1613 2560 1926 2560 2138 2120 
C 2253 1870 2253 1609 2253 1289 
C 2253 944 2253 690 2118 434 
C 1978 171 1773 25 1478 25 
z
" transform="scale(0.015625)"/>
       </defs>
       <use xlink:href="#CMR17-36" transform="scale(0.996264)"/>
       <use xlink:href="#CMR17-30" transform="translate(45.690477 0)scale(0.996264)"/>
      </g>
     </g>
    </g>
    <g id="ytick_11">
     <g id="line2d_26">
      <g>
       <use xlink:href="#m5a655bbf5a" x="302.710059" y="73.719483" style="stroke: #000000; stroke-width: 0.8"/>
      </g>
     </g>
     <g id="text_24">
      <!-- $\mathdefault{80}$ -->
      <g transform="translate(285.747388 77.178732)scale(0.1 -0.1)">
       <defs>
        <path id="CMR17-38" d="M 1741 2264 
C 2144 2467 2554 2773 2554 3263 
C 2554 3841 1990 4179 1472 4179 
C 890 4179 378 3759 378 3180 
C 378 3021 416 2747 666 2505 
C 730 2442 998 2251 1171 2130 
C 883 1983 211 1634 211 934 
C 211 279 838 -128 1459 -128 
C 2144 -128 2720 362 2720 1010 
C 2720 1590 2330 1857 2074 2029 
L 1741 2264 
z
M 902 2822 
C 851 2854 595 3051 595 3351 
C 595 3739 998 4032 1459 4032 
C 1965 4032 2336 3676 2336 3262 
C 2336 2669 1670 2331 1638 2331 
C 1632 2331 1626 2331 1574 2370 
L 902 2822 
z
M 2080 1519 
C 2176 1449 2483 1240 2483 851 
C 2483 381 2010 25 1472 25 
C 890 25 448 438 448 940 
C 448 1443 838 1862 1280 2060 
L 2080 1519 
z
" transform="scale(0.015625)"/>
       </defs>
       <use xlink:href="#CMR17-38" transform="scale(0.996264)"/>
       <use xlink:href="#CMR17-30" transform="translate(45.690477 0)scale(0.996264)"/>
      </g>
     </g>
    </g>
   </g>
   <g id="PathCollection_3">
    <g clip-path="url(#p4df3f9ca44)">
     <use xlink:href="#m8d7d1bde40" x="323.962752" y="228.444044" style="fill: #222222; stroke: #222222; stroke-width: 1.5"/>
    </g>
   </g>
   <g id="PathCollection_4">
    <g clip-path="url(#p4df3f9ca44)">
     <use xlink:href="#m2e844dfddf" x="323.962752" y="243.48671" style="stroke: #000000; stroke-width: 1.5"/>
    </g>
   </g>
   <g id="line2d_27">
    <path d="M 323.962752 108.102719 
L 366.468137 108.102719 
L 408.973523 108.102719 
L 451.478909 108.102719 
L 493.984295 108.102719 
" clip-path="url(#p4df3f9ca44)" style="fill: none; stroke-dasharray: 5.55,2.4; stroke-dashoffset: 0; stroke: #cccccc; stroke-width: 1.5"/>
    <g clip-path="url(#p4df3f9ca44)">
     <use xlink:href="#m094b3a6b8f" x="323.962752" y="108.102719" style="fill: #cccccc; stroke: #cccccc"/>
     <use xlink:href="#m094b3a6b8f" x="366.468137" y="108.102719" style="fill: #cccccc; stroke: #cccccc"/>
     <use xlink:href="#m094b3a6b8f" x="408.973523" y="108.102719" style="fill: #cccccc; stroke: #cccccc"/>
     <use xlink:href="#m094b3a6b8f" x="451.478909" y="108.102719" style="fill: #cccccc; stroke: #cccccc"/>
     <use xlink:href="#m094b3a6b8f" x="493.984295" y="108.102719" style="fill: #cccccc; stroke: #cccccc"/>
    </g>
   </g>
   <g id="line2d_28">
    <path d="M 323.962752 52.229961 
L 366.468137 52.229961 
L 408.973523 52.229961 
L 451.478909 60.82577 
L 493.984295 129.592241 
" clip-path="url(#p4df3f9ca44)" style="fill: none; stroke-dasharray: 5.55,2.4; stroke-dashoffset: 0; stroke: #aaaaaa; stroke-width: 1.5"/>
    <g clip-path="url(#p4df3f9ca44)">
     <use xlink:href="#m950d7e9bdc" x="323.962752" y="52.229961" style="fill: #aaaaaa; stroke: #aaaaaa; stroke-linejoin: miter"/>
     <use xlink:href="#m950d7e9bdc" x="366.468137" y="52.229961" style="fill: #aaaaaa; stroke: #aaaaaa; stroke-linejoin: miter"/>
     <use xlink:href="#m950d7e9bdc" x="408.973523" y="52.229961" style="fill: #aaaaaa; stroke: #aaaaaa; stroke-linejoin: miter"/>
     <use xlink:href="#m950d7e9bdc" x="451.478909" y="60.82577" style="fill: #aaaaaa; stroke: #aaaaaa; stroke-linejoin: miter"/>
     <use xlink:href="#m950d7e9bdc" x="493.984295" y="129.592241" style="fill: #aaaaaa; stroke: #aaaaaa; stroke-linejoin: miter"/>
    </g>
   </g>
   <g id="line2d_29">
    <path d="M 323.962752 60.82577 
L 366.468137 62.974722 
L 408.973523 82.315292 
L 451.478909 136.039098 
L 493.984295 228.444044 
" clip-path="url(#p4df3f9ca44)" style="fill: none; stroke-dasharray: 5.55,2.4; stroke-dashoffset: 0; stroke: #888888; stroke-width: 1.5"/>
    <g clip-path="url(#p4df3f9ca44)">
     <use xlink:href="#m52f0b9682d" x="323.962752" y="60.82577" style="fill: #888888; stroke: #888888; stroke-linejoin: miter"/>
     <use xlink:href="#m52f0b9682d" x="366.468137" y="62.974722" style="fill: #888888; stroke: #888888; stroke-linejoin: miter"/>
     <use xlink:href="#m52f0b9682d" x="408.973523" y="82.315292" style="fill: #888888; stroke: #888888; stroke-linejoin: miter"/>
     <use xlink:href="#m52f0b9682d" x="451.478909" y="136.039098" style="fill: #888888; stroke: #888888; stroke-linejoin: miter"/>
     <use xlink:href="#m52f0b9682d" x="493.984295" y="228.444044" style="fill: #888888; stroke: #888888; stroke-linejoin: miter"/>
    </g>
   </g>
   <g id="line2d_30">
    <path d="M 323.962752 118.84748 
L 366.468137 127.443289 
L 408.973523 176.86919 
L 451.478909 239.188805 
" clip-path="url(#p4df3f9ca44)" style="fill: none; stroke-dasharray: 5.55,2.4; stroke-dashoffset: 0; stroke: #666666; stroke-width: 1.5"/>
    <g clip-path="url(#p4df3f9ca44)">
     <use xlink:href="#mefe563b12c" x="323.962752" y="118.84748" style="fill: #666666; stroke: #666666"/>
     <use xlink:href="#mefe563b12c" x="366.468137" y="127.443289" style="fill: #666666; stroke: #666666"/>
     <use xlink:href="#mefe563b12c" x="408.973523" y="176.86919" style="fill: #666666; stroke: #666666"/>
     <use xlink:href="#mefe563b12c" x="451.478909" y="239.188805" style="fill: #666666; stroke: #666666"/>
    </g>
   </g>
   <g id="line2d_31">
    <path d="M 323.962752 185.464999 
L 366.468137 217.699283 
" clip-path="url(#p4df3f9ca44)" style="fill: none; stroke-dasharray: 5.55,2.4; stroke-dashoffset: 0; stroke: #444444; stroke-width: 1.5"/>
    <g clip-path="url(#p4df3f9ca44)">
     <use xlink:href="#m5ad690f025" x="323.962752" y="185.464999" style="fill: #444444; stroke: #444444"/>
     <use xlink:href="#m5ad690f025" x="366.468137" y="217.699283" style="fill: #444444; stroke: #444444"/>
    </g>
   </g>
   <g id="patch_8">
    <path d="M 302.710059 245.635662 
L 302.710059 42.667123 
" style="fill: none; stroke: #000000; stroke-width: 0.8; stroke-linejoin: miter; stroke-linecap: square"/>
   </g>
   <g id="patch_9">
    <path d="M 515.236988 245.635662 
L 515.236988 42.667123 
" style="fill: none; stroke: #000000; stroke-width: 0.8; stroke-linejoin: miter; stroke-linecap: square"/>
   </g>
   <g id="patch_10">
    <path d="M 302.710059 245.635662 
L 515.236988 245.635662 
" style="fill: none; stroke: #000000; stroke-width: 0.8; stroke-linejoin: miter; stroke-linecap: square"/>
   </g>
   <g id="patch_11">
    <path d="M 302.710059 42.667123 
L 515.236988 42.667123 
" style="fill: none; stroke: #000000; stroke-width: 0.8; stroke-linejoin: miter; stroke-linecap: square"/>
   </g>
   <g id="text_25">
    <!-- Liczba wzorców o danej długości -->
    <g transform="translate(330.769383 36.667123)scale(0.11 -0.11)">
     <use xlink:href="#CMR17-4c" transform="scale(0.996264)"/>
     <use xlink:href="#CMR17-69" transform="translate(57.381408 0)scale(0.996264)"/>
     <use xlink:href="#CMR17-63" transform="translate(82.252466 0)scale(0.996264)"/>
     <use xlink:href="#CMR17-7a" transform="translate(122.738127 0)scale(0.996264)"/>
     <use xlink:href="#CMR17-62" transform="translate(163.223787 0)scale(0.996264)"/>
     <use xlink:href="#CMR17-61" transform="translate(214.119157 0)scale(0.996264)"/>
     <use xlink:href="#CMR17-77" transform="translate(289.885601 0)scale(0.996264)"/>
     <use xlink:href="#CMR17-7a" transform="translate(356.395481 0)scale(0.996264)"/>
     <use xlink:href="#CMR17-6f" transform="translate(396.881142 0)scale(0.996264)"/>
     <use xlink:href="#CMR17-72" transform="translate(442.571619 0)scale(0.996264)"/>
     <use xlink:href="#CMR17-63" transform="translate(477.852386 0)scale(0.996264)"/>
     <use xlink:href="#CMR17-13" transform="translate(518.338047 0)scale(0.996264)"/>
     <use xlink:href="#CMR17-6f" transform="translate(518.338047 0)scale(0.996264)"/>
     <use xlink:href="#CMR17-77" transform="translate(564.028524 0)scale(0.996264)"/>
     <use xlink:href="#CMR17-6f" transform="translate(660.614371 0)scale(0.996264)"/>
     <use xlink:href="#CMR17-64" transform="translate(736.380814 0)scale(0.996264)"/>
     <use xlink:href="#CMR17-61" transform="translate(787.276184 0)scale(0.996264)"/>
     <use xlink:href="#CMR17-6e" transform="translate(832.966661 0)scale(0.996264)"/>
     <use xlink:href="#CMR17-65" transform="translate(883.862031 0)scale(0.996264)"/>
     <use xlink:href="#CMR17-6a" transform="translate(924.347692 0)scale(0.996264)"/>
     <use xlink:href="#CMR17-64" transform="translate(981.89717 0)scale(0.996264)"/>
     <use xlink:href="#CMR17-20" transform="translate(1032.79254 0)scale(0.996264)"/>
     <use xlink:href="#CMR17-6c" transform="translate(1032.792525 0)scale(0.996264)"/>
     <use xlink:href="#CMR17-75" transform="translate(1057.663583 0)scale(0.996264)"/>
     <use xlink:href="#CMR17-67" transform="translate(1108.558953 0)scale(0.996264)"/>
     <use xlink:href="#CMR17-6f" transform="translate(1154.24943 0)scale(0.996264)"/>
     <use xlink:href="#CMR17-13" transform="translate(1194.99533 0)scale(0.996264)"/>
     <use xlink:href="#CMR17-73" transform="translate(1199.939907 0)scale(0.996264)"/>
     <use xlink:href="#CMR17-63" transform="translate(1235.741245 0)scale(0.996264)"/>
     <use xlink:href="#CMR17-69" transform="translate(1276.226905 0)scale(0.996264)"/>
    </g>
   </g>
   <g id="legend_1">
    <g id="patch_12">
     <path d="M 522.236988 206.36835 
L 560.746539 206.36835 
Q 562.746539 206.36835 562.746539 204.36835 
L 562.746539 83.934435 
Q 562.746539 81.934435 560.746539 81.934435 
L 522.236988 81.934435 
Q 520.236988 81.934435 520.236988 83.934435 
L 520.236988 204.36835 
Q 520.236988 206.36835 522.236988 206.36835 
z
" style="fill: #ffffff; opacity: 0.8; stroke: #cccccc; stroke-linejoin: miter"/>
    </g>
    <g id="text_26">
     <!-- \noindent Długość \\ \vspace{20mm} wzorca -->
     <g transform="translate(524.236988 92.852934)scale(0.1 -0.1)">
      <defs>
       <path id="CMR17-44" d="M 333 4352 
L 333 4186 
C 774 4186 845 4186 845 3900 
L 845 452 
C 845 166 774 166 333 166 
L 333 0 
L 2368 0 
C 3398 0 4224 943 4224 2141 
C 4224 3346 3411 4352 2368 4352 
L 333 4352 
z
M 1523 166 
C 1267 166 1254 197 1254 414 
L 1254 3938 
C 1254 4155 1267 4186 1523 4186 
L 2240 4186 
C 2771 4186 3750 3874 3750 2141 
C 3750 1242 3488 879 3366 707 
C 3213 510 2848 166 2240 166 
L 1523 166 
z
" transform="scale(0.015625)"/>
      </defs>
      <use xlink:href="#CMR17-44" transform="scale(0.996264)"/>
      <use xlink:href="#CMR17-20" transform="translate(70.393556 0)scale(0.996264)"/>
      <use xlink:href="#CMR17-6c" transform="translate(70.393541 0)scale(0.996264)"/>
      <use xlink:href="#CMR17-75" transform="translate(95.264599 0)scale(0.996264)"/>
      <use xlink:href="#CMR17-67" transform="translate(146.159969 0)scale(0.996264)"/>
      <use xlink:href="#CMR17-6f" transform="translate(191.850446 0)scale(0.996264)"/>
      <use xlink:href="#CMR17-13" transform="translate(232.596346 0)scale(0.996264)"/>
      <use xlink:href="#CMR17-73" transform="translate(237.540923 0)scale(0.996264)"/>
      <use xlink:href="#CMR17-13" transform="translate(270.739853 0)scale(0.996264)"/>
      <use xlink:href="#CMR17-63" transform="translate(273.342261 0)scale(0.996264)"/>
      <use xlink:href="#CMR17-77" transform="translate(30.075966 -63.262749)scale(0.996264)"/>
      <use xlink:href="#CMR17-7a" transform="translate(96.585847 -63.262749)scale(0.996264)"/>
      <use xlink:href="#CMR17-6f" transform="translate(137.071507 -63.262749)scale(0.996264)"/>
      <use xlink:href="#CMR17-72" transform="translate(182.761984 -63.262749)scale(0.996264)"/>
      <use xlink:href="#CMR17-63" transform="translate(218.042752 -63.262749)scale(0.996264)"/>
      <use xlink:href="#CMR17-61" transform="translate(258.528413 -63.262749)scale(0.996264)"/>
     </g>
    </g>
    <g id="line2d_32">
     <path d="M 525.001095 113.308102 
L 535.001095 113.308102 
L 545.001095 113.308102 
" style="fill: none; stroke-dasharray: 5.55,2.4; stroke-dashoffset: 0; stroke: #cccccc; stroke-width: 1.5"/>
     <g>
      <use xlink:href="#m094b3a6b8f" x="535.001095" y="113.308102" style="fill: #cccccc; stroke: #cccccc"/>
     </g>
    </g>
    <g id="text_27">
     <!-- $2$ -->
     <g transform="translate(553.001095 116.808102)scale(0.1 -0.1)">
      <use xlink:href="#CMR17-32" transform="scale(0.996264)"/>
     </g>
    </g>
    <g id="line2d_33">
     <path d="M 525.001095 127.24528 
L 535.001095 127.24528 
L 545.001095 127.24528 
" style="fill: none; stroke-dasharray: 5.55,2.4; stroke-dashoffset: 0; stroke: #aaaaaa; stroke-width: 1.5"/>
     <g>
      <use xlink:href="#m950d7e9bdc" x="535.001095" y="127.24528" style="fill: #aaaaaa; stroke: #aaaaaa; stroke-linejoin: miter"/>
     </g>
    </g>
    <g id="text_28">
     <!-- $3$ -->
     <g transform="translate(553.001095 130.74528)scale(0.1 -0.1)">
      <use xlink:href="#CMR17-33" transform="scale(0.996264)"/>
     </g>
    </g>
    <g id="line2d_34">
     <path d="M 525.001095 141.182458 
L 535.001095 141.182458 
L 545.001095 141.182458 
" style="fill: none; stroke-dasharray: 5.55,2.4; stroke-dashoffset: 0; stroke: #888888; stroke-width: 1.5"/>
     <g>
      <use xlink:href="#m52f0b9682d" x="535.001095" y="141.182458" style="fill: #888888; stroke: #888888; stroke-linejoin: miter"/>
     </g>
    </g>
    <g id="text_29">
     <!-- $4$ -->
     <g transform="translate(553.001095 144.682458)scale(0.1 -0.1)">
      <use xlink:href="#CMR17-34" transform="scale(0.996264)"/>
     </g>
    </g>
    <g id="line2d_35">
     <path d="M 525.001095 155.119637 
L 535.001095 155.119637 
L 545.001095 155.119637 
" style="fill: none; stroke-dasharray: 5.55,2.4; stroke-dashoffset: 0; stroke: #666666; stroke-width: 1.5"/>
     <g>
      <use xlink:href="#mefe563b12c" x="535.001095" y="155.119637" style="fill: #666666; stroke: #666666"/>
     </g>
    </g>
    <g id="text_30">
     <!-- $5$ -->
     <g transform="translate(553.001095 158.619637)scale(0.1 -0.1)">
      <use xlink:href="#CMR17-35" transform="scale(0.996264)"/>
     </g>
    </g>
    <g id="line2d_36">
     <path d="M 525.001095 169.056815 
L 535.001095 169.056815 
L 545.001095 169.056815 
" style="fill: none; stroke-dasharray: 5.55,2.4; stroke-dashoffset: 0; stroke: #444444; stroke-width: 1.5"/>
     <g>
      <use xlink:href="#m5ad690f025" x="535.001095" y="169.056815" style="fill: #444444; stroke: #444444"/>
     </g>
    </g>
    <g id="text_31">
     <!-- $6$ -->
     <g transform="translate(553.001095 172.556815)scale(0.1 -0.1)">
      <use xlink:href="#CMR17-36" transform="scale(0.996264)"/>
     </g>
    </g>
    <g id="PathCollection_5">
     <g>
      <use xlink:href="#m8d7d1bde40" x="535.001095" y="183.868993" style="fill: #222222; stroke: #222222; stroke-width: 1.5"/>
     </g>
    </g>
    <g id="text_32">
     <!-- $7$ -->
     <g transform="translate(553.001095 186.493993)scale(0.1 -0.1)">
      <use xlink:href="#CMR17-37" transform="scale(0.996264)"/>
     </g>
    </g>
    <g id="PathCollection_6">
     <g>
      <use xlink:href="#m2e844dfddf" x="535.001095" y="197.806172" style="stroke: #000000; stroke-width: 1.5"/>
     </g>
    </g>
    <g id="text_33">
     <!-- $8$ -->
     <g transform="translate(553.001095 200.431172)scale(0.1 -0.1)">
      <use xlink:href="#CMR17-38" transform="scale(0.996264)"/>
     </g>
    </g>
   </g>
  </g>
  <g id="text_34">
   <!-- Generator oparty na zastosowaniu ruchu jednostajnego po okregu -->
   <g transform="translate(96.532502 16.885876)scale(0.14 -0.14)">
    <defs>
     <path id="CMR17-47" d="M 3974 1233 
C 3974 1473 3994 1505 4390 1505 
L 4390 1670 
C 4237 1664 3891 1664 3718 1664 
C 3539 1664 3040 1664 2797 1664 
L 2797 1505 
L 2989 1505 
C 3539 1505 3552 1434 3552 1201 
L 3552 774 
C 3552 63 2720 63 2522 63 
C 1862 63 781 511 781 2160 
C 781 3808 1843 4250 2464 4250 
C 3187 4250 3712 3626 3834 2741 
C 3846 2664 3846 2651 3904 2651 
C 3974 2651 3974 2664 3974 2779 
L 3974 4288 
C 3974 4402 3968 4409 3930 4409 
C 3904 4409 3898 4402 3853 4326 
L 3571 3791 
C 3258 4187 2874 4416 2381 4416 
C 1286 4416 294 3456 294 2148 
C 294 845 1267 -128 2394 -128 
C 2912 -128 3418 56 3616 417 
C 3725 158 3904 -20 3936 -20 
C 3968 -20 3974 -13 3974 100 
L 3974 1233 
z
" transform="scale(0.015625)"/>
     <path id="CMR17-79" d="M 2496 2197 
C 2656 2586 2944 2586 3034 2586 
L 3034 2752 
C 2912 2752 2752 2752 2630 2752 
C 2496 2752 2285 2752 2157 2758 
L 2157 2592 
C 2400 2573 2406 2394 2406 2343 
C 2406 2280 2394 2248 2362 2171 
L 1664 449 
L 902 2306 
C 870 2382 870 2426 870 2433 
C 870 2573 1018 2586 1171 2586 
L 1171 2758 
C 1018 2752 742 2752 582 2752 
C 410 2752 205 2752 64 2758 
L 64 2586 
C 410 2586 448 2554 531 2350 
L 1485 15 
C 1197 -738 1030 -1178 627 -1178 
C 557 -1178 397 -1159 282 -1044 
C 429 -1031 493 -942 493 -833 
C 493 -725 416 -629 288 -629 
C 147 -629 77 -725 77 -840 
C 77 -1095 339 -1280 627 -1280 
C 998 -1280 1229 -922 1357 -604 
L 2496 2197 
z
" transform="scale(0.015625)"/>
     <path id="CMR17-6b" d="M 1670 1673 
C 1664 1686 1632 1724 1632 1743 
C 1632 1756 2086 2171 2144 2222 
C 2509 2528 2739 2560 2906 2560 
L 2906 2733 
C 2867 2733 2854 2733 2848 2720 
L 2534 2720 
C 2355 2720 2080 2720 1907 2733 
L 1907 2566 
C 1997 2559 2061 2508 2061 2419 
C 2061 2291 1933 2170 1926 2170 
L 960 1289 
L 960 4396 
L 198 4326 
L 198 4160 
C 576 4160 634 4122 634 3817 
L 634 426 
C 634 184 608 153 198 153 
L 198 -13 
C 352 0 634 0 794 0 
C 954 0 1235 0 1389 -13 
L 1389 153 
C 979 153 954 178 954 428 
L 954 1130 
L 1395 1532 
L 2042 574 
C 2118 459 2182 369 2182 286 
C 2182 172 2067 153 1990 153 
L 1990 -13 
C 2144 0 2419 0 2579 0 
C 2694 0 2931 0 3040 0 
L 3040 153 
C 2739 153 2669 210 2477 491 
L 1670 1673 
z
" transform="scale(0.015625)"/>
    </defs>
    <use xlink:href="#CMR17-47" transform="scale(0.996264)"/>
    <use xlink:href="#CMR17-65" transform="translate(72.355346 0)scale(0.996264)"/>
    <use xlink:href="#CMR17-6e" transform="translate(112.841006 0)scale(0.996264)"/>
    <use xlink:href="#CMR17-65" transform="translate(163.736376 0)scale(0.996264)"/>
    <use xlink:href="#CMR17-72" transform="translate(204.222037 0)scale(0.996264)"/>
    <use xlink:href="#CMR17-61" transform="translate(239.502804 0)scale(0.996264)"/>
    <use xlink:href="#CMR17-74" transform="translate(285.193282 0)scale(0.996264)"/>
    <use xlink:href="#CMR17-6f" transform="translate(320.474049 0)scale(0.996264)"/>
    <use xlink:href="#CMR17-72" transform="translate(366.164526 0)scale(0.996264)"/>
    <use xlink:href="#CMR17-6f" transform="translate(431.521261 0)scale(0.996264)"/>
    <use xlink:href="#CMR17-70" transform="translate(477.211738 0)scale(0.996264)"/>
    <use xlink:href="#CMR17-61" transform="translate(528.107108 0)scale(0.996264)"/>
    <use xlink:href="#CMR17-72" transform="translate(573.797585 0)scale(0.996264)"/>
    <use xlink:href="#CMR17-74" transform="translate(609.078352 0)scale(0.996264)"/>
    <use xlink:href="#CMR17-79" transform="translate(641.756666 0)scale(0.996264)"/>
    <use xlink:href="#CMR17-6e" transform="translate(720.125548 0)scale(0.996264)"/>
    <use xlink:href="#CMR17-61" transform="translate(771.020918 0)scale(0.996264)"/>
    <use xlink:href="#CMR17-7a" transform="translate(846.787362 0)scale(0.996264)"/>
    <use xlink:href="#CMR17-61" transform="translate(887.273022 0)scale(0.996264)"/>
    <use xlink:href="#CMR17-73" transform="translate(932.963499 0)scale(0.996264)"/>
    <use xlink:href="#CMR17-74" transform="translate(968.764837 0)scale(0.996264)"/>
    <use xlink:href="#CMR17-6f" transform="translate(1004.045605 0)scale(0.996264)"/>
    <use xlink:href="#CMR17-73" transform="translate(1049.736082 0)scale(0.996264)"/>
    <use xlink:href="#CMR17-6f" transform="translate(1085.537419 0)scale(0.996264)"/>
    <use xlink:href="#CMR17-77" transform="translate(1128.625443 0)scale(0.996264)"/>
    <use xlink:href="#CMR17-61" transform="translate(1192.532869 0)scale(0.996264)"/>
    <use xlink:href="#CMR17-6e" transform="translate(1238.223346 0)scale(0.996264)"/>
    <use xlink:href="#CMR17-69" transform="translate(1289.118716 0)scale(0.996264)"/>
    <use xlink:href="#CMR17-75" transform="translate(1313.989775 0)scale(0.996264)"/>
    <use xlink:href="#CMR17-72" transform="translate(1394.961111 0)scale(0.996264)"/>
    <use xlink:href="#CMR17-75" transform="translate(1430.241879 0)scale(0.996264)"/>
    <use xlink:href="#CMR17-63" transform="translate(1481.137248 0)scale(0.996264)"/>
    <use xlink:href="#CMR17-68" transform="translate(1519.020455 0)scale(0.996264)"/>
    <use xlink:href="#CMR17-75" transform="translate(1567.313371 0)scale(0.996264)"/>
    <use xlink:href="#CMR17-6a" transform="translate(1648.284707 0)scale(0.996264)"/>
    <use xlink:href="#CMR17-65" transform="translate(1675.758219 0)scale(0.996264)"/>
    <use xlink:href="#CMR17-64" transform="translate(1716.24388 0)scale(0.996264)"/>
    <use xlink:href="#CMR17-6e" transform="translate(1767.13925 0)scale(0.996264)"/>
    <use xlink:href="#CMR17-6f" transform="translate(1818.034619 0)scale(0.996264)"/>
    <use xlink:href="#CMR17-73" transform="translate(1863.725096 0)scale(0.996264)"/>
    <use xlink:href="#CMR17-74" transform="translate(1899.526434 0)scale(0.996264)"/>
    <use xlink:href="#CMR17-61" transform="translate(1934.807202 0)scale(0.996264)"/>
    <use xlink:href="#CMR17-6a" transform="translate(1985.70248 0)scale(0.996264)"/>
    <use xlink:href="#CMR17-6e" transform="translate(2013.175993 0)scale(0.996264)"/>
    <use xlink:href="#CMR17-65" transform="translate(2064.071363 0)scale(0.996264)"/>
    <use xlink:href="#CMR17-67" transform="translate(2104.557023 0)scale(0.996264)"/>
    <use xlink:href="#CMR17-6f" transform="translate(2150.2475 0)scale(0.996264)"/>
    <use xlink:href="#CMR17-70" transform="translate(2226.013944 0)scale(0.996264)"/>
    <use xlink:href="#CMR17-6f" transform="translate(2279.511752 0)scale(0.996264)"/>
    <use xlink:href="#CMR17-6f" transform="translate(2355.278196 0)scale(0.996264)"/>
    <use xlink:href="#CMR17-6b" transform="translate(2400.968673 0)scale(0.996264)"/>
    <use xlink:href="#CMR17-72" transform="translate(2449.261589 0)scale(0.996264)"/>
    <use xlink:href="#CMR17-65" transform="translate(2484.542356 0)scale(0.996264)"/>
    <use xlink:href="#CMR17-67" transform="translate(2525.028017 0)scale(0.996264)"/>
    <use xlink:href="#CMR17-75" transform="translate(2570.718494 0)scale(0.996264)"/>
   </g>
  </g>
 </g>
 <defs>
  <clipPath id="pdb63f65595">
   <rect x="44.088012" y="42.667123" width="212.526929" height="202.968539"/>
  </clipPath>
  <clipPath id="p4df3f9ca44">
   <rect x="302.710059" y="42.667123" width="212.526929" height="202.968539"/>
  </clipPath>
 </defs>
</svg>
