<?xml version="1.0" encoding="utf-8" standalone="no"?>
<!DOCTYPE svg PUBLIC "-//W3C//DTD SVG 1.1//EN"
  "http://www.w3.org/Graphics/SVG/1.1/DTD/svg11.dtd">
<svg xmlns:xlink="http://www.w3.org/1999/xlink" width="553.992435pt" height="282.460232pt" viewBox="0 0 553.992435 282.460232" xmlns="http://www.w3.org/2000/svg" version="1.1">
 <metadata>
  <rdf:RDF xmlns:dc="http://purl.org/dc/elements/1.1/" xmlns:cc="http://creativecommons.org/ns#" xmlns:rdf="http://www.w3.org/1999/02/22-rdf-syntax-ns#">
   <cc:Work>
    <dc:type rdf:resource="http://purl.org/dc/dcmitype/StillImage"/>
    <dc:date>2022-09-05T15:58:44.968946</dc:date>
    <dc:format>image/svg+xml</dc:format>
    <dc:creator>
     <cc:Agent>
      <dc:title>Matplotlib v3.5.1, https://matplotlib.org/</dc:title>
     </cc:Agent>
    </dc:creator>
   </cc:Work>
  </rdf:RDF>
 </metadata>
 <defs>
  <style type="text/css">*{stroke-linejoin: round; stroke-linecap: butt}</style>
 </defs>
 <g id="figure_1">
  <g id="patch_1">
   <path d="M 0 282.460232 
L 553.992435 282.460232 
L 553.992435 -0 
L 0 -0 
z
" style="fill: #ffffff"/>
  </g>
  <g id="axes_1">
   <g id="patch_2">
    <path d="M 28.133908 245.635662 
L 240.660837 245.635662 
L 240.660837 42.667123 
L 28.133908 42.667123 
z
" style="fill: #ffffff"/>
   </g>
   <g id="PathCollection_1">
    <defs>
     <path id="m8f788b164d" d="M -3.5 0 
L 3.5 0 
M 0 3.5 
L 0 -3.5 
" style="stroke: #333333; stroke-width: 1.5"/>
    </defs>
    <g clip-path="url(#p10690ebb90)">
     <use xlink:href="#m8f788b164d" x="81.26564" y="234.886705" style="fill: #333333; stroke: #333333; stroke-width: 1.5"/>
    </g>
   </g>
   <g id="PathCollection_2">
    <defs>
     <path id="m362c8327f4" d="M -3.5 3.5 
L 3.5 -3.5 
M -3.5 -3.5 
L 3.5 3.5 
" style="stroke: #000000; stroke-width: 1.5"/>
    </defs>
    <g clip-path="url(#p10690ebb90)">
     <use xlink:href="#m362c8327f4" x="166.276412" y="235.298562" style="stroke: #000000; stroke-width: 1.5"/>
    </g>
   </g>
   <g id="matplotlib.axis_1">
    <g id="xtick_1">
     <g id="line2d_1">
      <defs>
       <path id="m4869601e8c" d="M 0 0 
L 0 3.5 
" style="stroke: #000000; stroke-width: 0.8"/>
      </defs>
      <g>
       <use xlink:href="#m4869601e8c" x="38.760255" y="245.635662" style="stroke: #000000; stroke-width: 0.8"/>
      </g>
     </g>
     <g id="text_1">
      <!-- $\mathdefault{40}$ -->
      <g transform="translate(33.778919 259.55416)scale(0.1 -0.1)">
       <defs>
        <path id="CMR17-34" d="M 2150 4122 
C 2150 4256 2144 4256 2029 4256 
L 128 1254 
L 128 1088 
L 1779 1088 
L 1779 457 
C 1779 224 1766 160 1318 160 
L 1197 160 
L 1197 0 
C 1402 0 1747 0 1965 0 
C 2182 0 2528 0 2733 0 
L 2733 160 
L 2611 160 
C 2163 160 2150 224 2150 457 
L 2150 1088 
L 2803 1088 
L 2803 1254 
L 2150 1254 
L 2150 4122 
z
M 1798 3703 
L 1798 1254 
L 256 1254 
L 1798 3703 
z
" transform="scale(0.015625)"/>
        <path id="CMR17-30" d="M 2688 2025 
C 2688 2416 2682 3080 2413 3591 
C 2176 4039 1798 4198 1466 4198 
C 1158 4198 768 4058 525 3597 
C 269 3118 243 2524 243 2025 
C 243 1661 250 1106 448 619 
C 723 -39 1216 -128 1466 -128 
C 1760 -128 2208 -7 2470 600 
C 2662 1042 2688 1559 2688 2025 
z
M 1466 -26 
C 1056 -26 813 325 723 812 
C 653 1188 653 1738 653 2096 
C 653 2588 653 2997 736 3387 
C 858 3929 1216 4096 1466 4096 
C 1728 4096 2067 3923 2189 3400 
C 2272 3036 2278 2607 2278 2096 
C 2278 1680 2278 1169 2202 792 
C 2067 95 1690 -26 1466 -26 
z
" transform="scale(0.015625)"/>
       </defs>
       <use xlink:href="#CMR17-34" transform="scale(0.996264)"/>
       <use xlink:href="#CMR17-30" transform="translate(45.690477 0)scale(0.996264)"/>
      </g>
     </g>
    </g>
    <g id="xtick_2">
     <g id="line2d_2">
      <g>
       <use xlink:href="#m4869601e8c" x="60.012947" y="245.635662" style="stroke: #000000; stroke-width: 0.8"/>
      </g>
     </g>
     <g id="text_2">
      <!-- $\mathdefault{80}$ -->
      <g transform="translate(55.031612 259.55416)scale(0.1 -0.1)">
       <defs>
        <path id="CMR17-38" d="M 1741 2264 
C 2144 2467 2554 2773 2554 3263 
C 2554 3841 1990 4179 1472 4179 
C 890 4179 378 3759 378 3180 
C 378 3021 416 2747 666 2505 
C 730 2442 998 2251 1171 2130 
C 883 1983 211 1634 211 934 
C 211 279 838 -128 1459 -128 
C 2144 -128 2720 362 2720 1010 
C 2720 1590 2330 1857 2074 2029 
L 1741 2264 
z
M 902 2822 
C 851 2854 595 3051 595 3351 
C 595 3739 998 4032 1459 4032 
C 1965 4032 2336 3676 2336 3262 
C 2336 2669 1670 2331 1638 2331 
C 1632 2331 1626 2331 1574 2370 
L 902 2822 
z
M 2080 1519 
C 2176 1449 2483 1240 2483 851 
C 2483 381 2010 25 1472 25 
C 890 25 448 438 448 940 
C 448 1443 838 1862 1280 2060 
L 2080 1519 
z
" transform="scale(0.015625)"/>
       </defs>
       <use xlink:href="#CMR17-38" transform="scale(0.996264)"/>
       <use xlink:href="#CMR17-30" transform="translate(45.690477 0)scale(0.996264)"/>
      </g>
     </g>
    </g>
    <g id="xtick_3">
     <g id="line2d_3">
      <g>
       <use xlink:href="#m4869601e8c" x="81.26564" y="245.635662" style="stroke: #000000; stroke-width: 0.8"/>
      </g>
     </g>
     <g id="text_3">
      <!-- $\mathdefault{120}$ -->
      <g transform="translate(73.793637 259.55416)scale(0.1 -0.1)">
       <defs>
        <path id="CMR17-31" d="M 1702 4058 
C 1702 4192 1696 4192 1606 4192 
C 1357 3916 979 3827 621 3827 
C 602 3827 570 3827 563 3808 
C 557 3795 557 3782 557 3648 
C 755 3648 1088 3686 1344 3839 
L 1344 461 
C 1344 236 1331 160 781 160 
L 589 160 
L 589 0 
C 896 0 1216 0 1523 0 
C 1830 0 2150 0 2458 0 
L 2458 160 
L 2266 160 
C 1715 160 1702 230 1702 458 
L 1702 4058 
z
" transform="scale(0.015625)"/>
        <path id="CMR17-32" d="M 2669 989 
L 2554 989 
C 2490 536 2438 459 2413 420 
C 2381 369 1920 369 1830 369 
L 602 369 
C 832 619 1280 1072 1824 1597 
C 2214 1967 2669 2402 2669 3035 
C 2669 3790 2067 4224 1395 4224 
C 691 4224 262 3604 262 3030 
C 262 2780 448 2748 525 2748 
C 589 2748 781 2787 781 3010 
C 781 3207 614 3264 525 3264 
C 486 3264 448 3258 422 3245 
C 544 3790 915 4058 1306 4058 
C 1862 4058 2227 3617 2227 3035 
C 2227 2479 1901 2000 1536 1584 
L 262 146 
L 262 0 
L 2515 0 
L 2669 989 
z
" transform="scale(0.015625)"/>
       </defs>
       <use xlink:href="#CMR17-31" transform="scale(0.996264)"/>
       <use xlink:href="#CMR17-32" transform="translate(45.690477 0)scale(0.996264)"/>
       <use xlink:href="#CMR17-30" transform="translate(91.380954 0)scale(0.996264)"/>
      </g>
     </g>
    </g>
    <g id="xtick_4">
     <g id="line2d_4">
      <g>
       <use xlink:href="#m4869601e8c" x="102.518333" y="245.635662" style="stroke: #000000; stroke-width: 0.8"/>
      </g>
     </g>
     <g id="text_4">
      <!-- $\mathdefault{160}$ -->
      <g transform="translate(95.04633 259.55416)scale(0.1 -0.1)">
       <defs>
        <path id="CMR17-36" d="M 678 2176 
C 678 3690 1395 4032 1811 4032 
C 1946 4032 2272 4009 2400 3776 
C 2298 3776 2106 3776 2106 3553 
C 2106 3381 2246 3323 2336 3323 
C 2394 3323 2566 3348 2566 3560 
C 2566 3954 2246 4179 1805 4179 
C 1043 4179 243 3390 243 1984 
C 243 253 966 -128 1478 -128 
C 2099 -128 2688 427 2688 1283 
C 2688 2081 2170 2662 1517 2662 
C 1126 2662 838 2407 678 1960 
L 678 2176 
z
M 1478 25 
C 691 25 691 1200 691 1436 
C 691 1896 909 2560 1504 2560 
C 1613 2560 1926 2560 2138 2120 
C 2253 1870 2253 1609 2253 1289 
C 2253 944 2253 690 2118 434 
C 1978 171 1773 25 1478 25 
z
" transform="scale(0.015625)"/>
       </defs>
       <use xlink:href="#CMR17-31" transform="scale(0.996264)"/>
       <use xlink:href="#CMR17-36" transform="translate(45.690477 0)scale(0.996264)"/>
       <use xlink:href="#CMR17-30" transform="translate(91.380954 0)scale(0.996264)"/>
      </g>
     </g>
    </g>
    <g id="xtick_5">
     <g id="line2d_5">
      <g>
       <use xlink:href="#m4869601e8c" x="123.771026" y="245.635662" style="stroke: #000000; stroke-width: 0.8"/>
      </g>
     </g>
     <g id="text_5">
      <!-- $\mathdefault{200}$ -->
      <g transform="translate(116.299023 259.55416)scale(0.1 -0.1)">
       <use xlink:href="#CMR17-32" transform="scale(0.996264)"/>
       <use xlink:href="#CMR17-30" transform="translate(45.690477 0)scale(0.996264)"/>
       <use xlink:href="#CMR17-30" transform="translate(91.380954 0)scale(0.996264)"/>
      </g>
     </g>
    </g>
    <g id="xtick_6">
     <g id="line2d_6">
      <g>
       <use xlink:href="#m4869601e8c" x="145.023719" y="245.635662" style="stroke: #000000; stroke-width: 0.8"/>
      </g>
     </g>
     <g id="text_6">
      <!-- $\mathdefault{240}$ -->
      <g transform="translate(137.551716 259.55416)scale(0.1 -0.1)">
       <use xlink:href="#CMR17-32" transform="scale(0.996264)"/>
       <use xlink:href="#CMR17-34" transform="translate(45.690477 0)scale(0.996264)"/>
       <use xlink:href="#CMR17-30" transform="translate(91.380954 0)scale(0.996264)"/>
      </g>
     </g>
    </g>
    <g id="xtick_7">
     <g id="line2d_7">
      <g>
       <use xlink:href="#m4869601e8c" x="166.276412" y="245.635662" style="stroke: #000000; stroke-width: 0.8"/>
      </g>
     </g>
     <g id="text_7">
      <!-- $\mathdefault{280}$ -->
      <g transform="translate(158.804409 259.55416)scale(0.1 -0.1)">
       <use xlink:href="#CMR17-32" transform="scale(0.996264)"/>
       <use xlink:href="#CMR17-38" transform="translate(45.690477 0)scale(0.996264)"/>
       <use xlink:href="#CMR17-30" transform="translate(91.380954 0)scale(0.996264)"/>
      </g>
     </g>
    </g>
    <g id="xtick_8">
     <g id="line2d_8">
      <g>
       <use xlink:href="#m4869601e8c" x="187.529105" y="245.635662" style="stroke: #000000; stroke-width: 0.8"/>
      </g>
     </g>
     <g id="text_8">
      <!-- $\mathdefault{320}$ -->
      <g transform="translate(180.057102 259.55416)scale(0.1 -0.1)">
       <defs>
        <path id="CMR17-33" d="M 1414 2157 
C 1984 2157 2234 1662 2234 1090 
C 2234 320 1824 25 1453 25 
C 1114 25 563 194 390 693 
C 422 680 454 680 486 680 
C 640 680 755 782 755 948 
C 755 1133 614 1216 486 1216 
C 378 1216 211 1165 211 926 
C 211 335 787 -128 1466 -128 
C 2176 -128 2720 430 2720 1085 
C 2720 1707 2208 2157 1600 2227 
C 2086 2328 2554 2756 2554 3329 
C 2554 3820 2048 4179 1472 4179 
C 890 4179 378 3829 378 3329 
C 378 3110 544 3072 627 3072 
C 762 3072 877 3155 877 3321 
C 877 3486 762 3569 627 3569 
C 602 3569 570 3569 544 3557 
C 730 3959 1235 4032 1459 4032 
C 1683 4032 2106 3925 2106 3320 
C 2106 3143 2080 2828 1862 2550 
C 1670 2304 1453 2304 1242 2284 
C 1210 2284 1062 2269 1037 2269 
C 992 2263 966 2257 966 2208 
C 966 2163 973 2157 1101 2157 
L 1414 2157 
z
" transform="scale(0.015625)"/>
       </defs>
       <use xlink:href="#CMR17-33" transform="scale(0.996264)"/>
       <use xlink:href="#CMR17-32" transform="translate(45.690477 0)scale(0.996264)"/>
       <use xlink:href="#CMR17-30" transform="translate(91.380954 0)scale(0.996264)"/>
      </g>
     </g>
    </g>
    <g id="xtick_9">
     <g id="line2d_9">
      <g>
       <use xlink:href="#m4869601e8c" x="208.781798" y="245.635662" style="stroke: #000000; stroke-width: 0.8"/>
      </g>
     </g>
     <g id="text_9">
      <!-- $\mathdefault{360}$ -->
      <g transform="translate(201.309795 259.55416)scale(0.1 -0.1)">
       <use xlink:href="#CMR17-33" transform="scale(0.996264)"/>
       <use xlink:href="#CMR17-36" transform="translate(45.690477 0)scale(0.996264)"/>
       <use xlink:href="#CMR17-30" transform="translate(91.380954 0)scale(0.996264)"/>
      </g>
     </g>
    </g>
    <g id="xtick_10">
     <g id="line2d_10">
      <g>
       <use xlink:href="#m4869601e8c" x="230.03449" y="245.635662" style="stroke: #000000; stroke-width: 0.8"/>
      </g>
     </g>
     <g id="text_10">
      <!-- $\mathdefault{400}$ -->
      <g transform="translate(222.562488 259.55416)scale(0.1 -0.1)">
       <use xlink:href="#CMR17-34" transform="scale(0.996264)"/>
       <use xlink:href="#CMR17-30" transform="translate(45.690477 0)scale(0.996264)"/>
       <use xlink:href="#CMR17-30" transform="translate(91.380954 0)scale(0.996264)"/>
      </g>
     </g>
    </g>
    <g id="text_11">
     <!-- Wartość parametru generatora $TF_{waiting}$ -->
     <g transform="translate(45.273982 272.409837)scale(0.1 -0.1)">
      <defs>
       <path id="CMR17-57" d="M 5523 3764 
C 5581 3936 5677 4160 6048 4160 
L 6048 4326 
C 5939 4326 5715 4326 5600 4326 
C 5440 4326 5158 4326 5005 4332 
L 5005 4160 
C 5293 4160 5414 4000 5414 3847 
C 5414 3802 5408 3777 5382 3707 
L 4390 555 
L 3347 3873 
C 3328 3937 3322 3963 3322 3988 
C 3322 4160 3603 4160 3725 4160 
L 3725 4326 
C 3539 4326 3219 4326 3021 4326 
C 2861 4326 2573 4326 2426 4332 
L 2426 4160 
C 2720 4160 2797 4141 2861 4027 
C 2886 3969 2989 3638 2989 3619 
C 2989 3593 2976 3555 2970 3536 
L 2029 561 
L 986 3867 
C 954 3957 954 3969 954 3982 
C 954 4160 1235 4160 1363 4160 
L 1363 4326 
C 1178 4326 858 4326 659 4326 
C 493 4326 211 4326 58 4332 
L 58 4160 
C 442 4160 467 4122 531 3918 
L 1779 -20 
C 1811 -115 1811 -128 1869 -128 
C 1920 -128 1939 -115 1965 -26 
L 3053 3433 
L 4141 -26 
C 4166 -115 4186 -128 4237 -128 
C 4294 -128 4294 -115 4326 -20 
L 5523 3764 
z
" transform="scale(0.015625)"/>
       <path id="CMR17-61" d="M 2304 1653 
C 2304 2072 2304 2294 2035 2543 
C 1798 2752 1523 2816 1306 2816 
C 800 2816 435 2407 435 1971 
C 435 1728 627 1728 666 1728 
C 749 1728 896 1778 896 1954 
C 896 2112 774 2181 666 2181 
C 640 2181 608 2174 589 2168 
C 723 2592 1069 2714 1293 2714 
C 1613 2714 1965 2429 1965 1885 
L 1965 1600 
C 1587 1600 1133 1549 774 1357 
C 371 1133 256 813 256 570 
C 256 77 832 -64 1171 -64 
C 1523 -64 1850 139 1990 511 
C 2003 233 2182 -18 2464 -18 
C 2598 -18 2938 70 2938 567 
L 2938 920 
L 2822 920 
L 2822 562 
C 2822 178 2650 128 2566 128 
C 2304 128 2304 458 2304 738 
L 2304 1653 
z
M 1965 870 
C 1965 317 1568 38 1216 38 
C 896 38 646 275 646 570 
C 646 761 730 1100 1101 1305 
C 1408 1478 1760 1504 1965 1504 
L 1965 870 
z
" transform="scale(0.015625)"/>
       <path id="CMR17-72" d="M 960 1497 
C 960 2112 1222 2688 1702 2688 
C 1747 2688 1792 2682 1837 2662 
C 1837 2662 1696 2617 1696 2452 
C 1696 2298 1818 2234 1914 2234 
C 1990 2234 2131 2279 2131 2458 
C 2131 2663 1926 2790 1709 2790 
C 1222 2790 1011 2317 947 2093 
L 941 2093 
L 941 2790 
L 198 2720 
L 198 2554 
C 576 2554 634 2515 634 2208 
L 634 428 
C 634 184 608 153 198 153 
L 198 -13 
C 352 0 646 0 813 0 
C 998 0 1325 0 1498 -13 
L 1498 153 
C 1037 153 960 153 960 440 
L 960 1497 
z
" transform="scale(0.015625)"/>
       <path id="CMR17-74" d="M 966 2560 
L 1862 2560 
L 1862 2725 
L 966 2725 
L 966 3904 
L 851 3904 
C 838 3245 614 2668 70 2668 
L 70 2560 
L 627 2560 
L 627 771 
C 627 650 627 -64 1370 -64 
C 1747 -64 1965 306 1965 777 
L 1965 1140 
L 1850 1140 
L 1850 783 
C 1850 344 1677 51 1408 51 
C 1222 51 966 178 966 758 
L 966 2560 
z
" transform="scale(0.015625)"/>
       <path id="CMR17-6f" d="M 2758 1356 
C 2758 2176 2163 2816 1466 2816 
C 768 2816 173 2176 173 1356 
C 173 551 768 -64 1466 -64 
C 2163 -64 2758 551 2758 1356 
z
M 1466 51 
C 1165 51 909 230 762 480 
C 602 767 582 1126 582 1408 
C 582 1677 595 2010 762 2298 
C 890 2509 1139 2714 1466 2714 
C 1754 2714 1997 2554 2150 2330 
C 2349 2029 2349 1607 2349 1408 
C 2349 1158 2336 775 2163 467 
C 1984 173 1709 51 1466 51 
z
" transform="scale(0.015625)"/>
       <path id="CMR17-13" d="M 2221 4091 
C 2298 4161 2317 4174 2317 4244 
C 2317 4339 2234 4416 2144 4416 
C 2067 4416 2042 4384 1978 4308 
L 1254 3390 
C 1210 3333 1210 3327 1210 3320 
C 1210 3314 1267 3256 1280 3244 
L 2221 4091 
z
" transform="scale(0.015625)"/>
       <path id="CMR17-73" d="M 1978 2697 
C 1978 2813 1971 2819 1933 2819 
C 1907 2819 1901 2813 1824 2717 
C 1805 2691 1747 2626 1728 2601 
C 1523 2819 1235 2819 1126 2819 
C 416 2819 160 2447 160 2076 
C 160 1498 813 1365 998 1325 
C 1402 1243 1542 1217 1677 1101 
C 1760 1025 1901 884 1901 654 
C 1901 384 1747 38 1158 38 
C 602 38 403 460 288 1021 
C 269 1110 269 1117 218 1117 
C 166 1117 160 1110 160 983 
L 160 63 
C 160 -51 166 -58 205 -58 
C 237 -58 243 -51 275 0 
C 314 57 410 211 448 276 
C 576 103 800 -64 1158 -64 
C 1792 -64 2131 283 2131 784 
C 2131 1112 1958 1285 1875 1362 
C 1683 1561 1459 1606 1190 1657 
C 838 1735 390 1825 390 2217 
C 390 2383 480 2737 1126 2737 
C 1811 2737 1850 2094 1862 1888 
C 1869 1856 1901 1849 1920 1849 
C 1978 1849 1978 1869 1978 1978 
L 1978 2697 
z
" transform="scale(0.015625)"/>
       <path id="CMR17-63" d="M 2234 2240 
C 2112 2240 1933 2240 1933 2017 
C 1933 1838 2080 1787 2163 1787 
C 2208 1787 2394 1807 2394 2024 
C 2394 2467 1958 2803 1466 2803 
C 787 2803 211 2178 211 1363 
C 211 516 813 -64 1466 -64 
C 2259 -64 2458 677 2458 748 
C 2458 774 2451 793 2406 793 
C 2362 793 2355 787 2330 703 
C 2163 180 1798 51 1523 51 
C 1114 51 621 427 621 1369 
C 621 2338 1094 2688 1472 2688 
C 1722 2688 2093 2573 2234 2240 
z
" transform="scale(0.015625)"/>
       <path id="CMR17-70" d="M 1408 -1063 
C 998 -1063 973 -1037 973 -789 
L 973 402 
C 1158 134 1427 -38 1766 -38 
C 2406 -38 3053 523 3053 1388 
C 3053 2191 2496 2802 1837 2802 
C 1453 2802 1139 2592 960 2338 
L 960 2802 
L 198 2732 
L 198 2567 
C 576 2567 634 2528 634 2223 
L 634 -789 
C 634 -1031 608 -1063 198 -1063 
L 198 -1228 
C 352 -1216 634 -1216 800 -1216 
C 966 -1216 1254 -1216 1408 -1228 
L 1408 -1063 
z
M 973 2012 
C 973 2102 973 2235 1222 2471 
C 1254 2497 1472 2688 1792 2688 
C 2259 2688 2643 2108 2643 1382 
C 2643 656 2234 64 1728 64 
C 1498 64 1248 172 1056 472 
C 973 612 973 650 973 752 
L 973 2012 
z
" transform="scale(0.015625)"/>
       <path id="CMR17-6d" d="M 4326 1933 
C 4326 2252 4269 2790 3507 2790 
C 3072 2790 2771 2496 2656 2151 
L 2650 2151 
C 2573 2676 2195 2790 1837 2790 
C 1331 2790 1069 2400 973 2144 
L 966 2144 
L 966 2790 
L 211 2720 
L 211 2554 
C 589 2554 646 2515 646 2208 
L 646 428 
C 646 184 621 153 211 153 
L 211 -13 
C 365 0 646 0 813 0 
C 979 0 1267 0 1421 -13 
L 1421 153 
C 1011 153 986 178 986 428 
L 986 1658 
C 986 2247 1344 2688 1792 2688 
C 2266 2688 2317 2266 2317 1958 
L 2317 428 
C 2317 184 2291 153 1882 153 
L 1882 -13 
C 2035 0 2317 0 2483 0 
C 2650 0 2938 0 3091 -13 
L 3091 153 
C 2682 153 2656 178 2656 428 
L 2656 1658 
C 2656 2247 3014 2688 3462 2688 
C 3936 2688 3987 2266 3987 1958 
L 3987 428 
C 3987 184 3962 153 3552 153 
L 3552 -13 
C 3706 0 3987 0 4154 0 
C 4320 0 4608 0 4762 -13 
L 4762 153 
C 4352 153 4326 178 4326 428 
L 4326 1933 
z
" transform="scale(0.015625)"/>
       <path id="CMR17-65" d="M 2438 1472 
C 2464 1498 2464 1511 2464 1576 
C 2464 2238 2118 2816 1389 2816 
C 710 2816 173 2169 173 1383 
C 173 551 781 -64 1459 -64 
C 2176 -64 2458 607 2458 740 
C 2458 784 2419 784 2406 784 
C 2362 784 2355 771 2330 696 
C 2189 265 1837 51 1504 51 
C 1229 51 954 203 781 480 
C 582 803 582 1176 582 1472 
L 2438 1472 
z
M 589 1568 
C 634 2505 1126 2714 1382 2714 
C 1818 2714 2112 2297 2118 1568 
L 589 1568 
z
" transform="scale(0.015625)"/>
       <path id="CMR17-75" d="M 1882 2693 
L 1882 2528 
C 2259 2528 2317 2489 2317 2186 
L 2317 1032 
C 2317 500 2029 38 1555 38 
C 1030 38 986 348 986 678 
L 986 2763 
L 211 2693 
L 211 2528 
C 467 2528 640 2528 646 2274 
L 646 1058 
C 646 633 646 361 813 183 
C 896 101 1056 -64 1517 -64 
C 2061 -64 2272 377 2323 506 
L 2330 506 
L 2330 -63 
L 3091 -63 
L 3091 128 
C 2714 128 2656 166 2656 473 
L 2656 2763 
L 1882 2693 
z
" transform="scale(0.015625)"/>
       <path id="CMR17-67" d="M 710 1164 
C 832 1068 1043 960 1299 960 
C 1805 960 2240 1357 2240 1888 
C 2240 2054 2189 2310 1997 2509 
C 2176 2692 2438 2752 2586 2752 
C 2611 2752 2650 2752 2682 2734 
C 2656 2728 2598 2703 2598 2605 
C 2598 2527 2656 2471 2739 2471 
C 2835 2471 2886 2533 2886 2614 
C 2886 2731 2790 2854 2586 2854 
C 2330 2854 2106 2738 1926 2580 
C 1734 2753 1504 2816 1299 2816 
C 794 2816 358 2419 358 1888 
C 358 1522 570 1292 634 1228 
C 442 1004 442 743 442 711 
C 442 545 506 302 723 168 
C 390 85 128 -169 128 -486 
C 128 -943 736 -1280 1466 -1280 
C 2170 -1280 2803 -956 2803 -479 
C 2803 384 1856 384 1363 384 
C 1216 384 954 384 922 391 
C 723 423 589 602 589 826 
C 589 883 589 1024 710 1164 
z
M 1299 1068 
C 736 1068 736 1760 736 1889 
C 736 2016 736 2708 1299 2708 
C 1862 2708 1862 2016 1862 1889 
C 1862 1760 1862 1068 1299 1068 
z
M 1466 -1171 
C 826 -1171 384 -835 384 -486 
C 384 -289 493 -105 634 -4 
C 794 104 858 104 1293 104 
C 1818 104 2547 104 2547 -486 
C 2547 -835 2106 -1171 1466 -1171 
z
" transform="scale(0.015625)"/>
       <path id="CMR17-6e" d="M 2656 1933 
C 2656 2259 2592 2790 1837 2790 
C 1331 2790 1069 2400 973 2144 
L 966 2144 
L 966 2790 
L 211 2720 
L 211 2554 
C 589 2554 646 2515 646 2208 
L 646 428 
C 646 184 621 153 211 153 
L 211 -13 
C 365 0 646 0 813 0 
C 979 0 1267 0 1421 -13 
L 1421 153 
C 1011 153 986 178 986 428 
L 986 1658 
C 986 2247 1344 2688 1792 2688 
C 2266 2688 2317 2266 2317 1958 
L 2317 428 
C 2317 184 2291 153 1882 153 
L 1882 -13 
C 2035 0 2317 0 2483 0 
C 2650 0 2938 0 3091 -13 
L 3091 153 
C 2682 153 2656 178 2656 428 
L 2656 1933 
z
" transform="scale(0.015625)"/>
       <path id="CMMI12-54" d="M 2669 3910 
C 2707 4064 2720 4121 2816 4147 
C 2867 4160 3078 4160 3213 4160 
C 3853 4160 4154 4134 4154 3634 
C 4154 3537 4128 3295 4090 3057 
L 4083 2980 
C 4083 2954 4109 2916 4147 2916 
C 4211 2916 4211 2948 4230 3050 
L 4416 4184 
C 4429 4243 4429 4256 4429 4275 
C 4429 4345 4390 4345 4262 4345 
L 762 4345 
C 614 4345 608 4339 570 4224 
L 179 3070 
C 173 3056 154 2986 154 2980 
C 154 2948 179 2916 218 2916 
C 269 2916 282 2941 307 3024 
C 576 3801 710 4160 1562 4160 
L 1990 4160 
C 2144 4160 2208 4160 2208 4089 
C 2208 4069 2208 4057 2176 3941 
L 1318 499 
C 1254 249 1242 185 563 185 
C 403 185 358 185 358 64 
C 358 0 429 0 461 0 
C 621 0 787 0 947 0 
L 1946 0 
C 2106 0 2278 0 2438 0 
C 2509 0 2573 0 2573 121 
C 2573 185 2528 185 2362 185 
C 1786 185 1786 243 1786 339 
C 1786 346 1786 391 1811 494 
L 2669 3910 
z
" transform="scale(0.015625)"/>
       <path id="CMMI12-46" d="M 1901 2055 
L 2515 2055 
C 3002 2055 3040 1946 3040 1761 
C 3040 1678 3027 1589 2995 1448 
C 2982 1423 2976 1391 2976 1378 
C 2976 1333 3002 1308 3046 1308 
C 3098 1308 3104 1333 3130 1435 
L 3501 2935 
C 3501 2961 3482 2999 3437 2999 
C 3379 2999 3373 2974 3347 2863 
C 3213 2376 3085 2240 2528 2240 
L 1946 2240 
L 2362 3926 
C 2419 4154 2432 4154 2694 4154 
L 3552 4154 
C 4352 4154 4467 3918 4467 3464 
C 4467 3426 4467 3285 4448 3119 
C 4442 3094 4429 3011 4429 2985 
C 4429 2934 4461 2915 4499 2915 
C 4544 2915 4570 2941 4582 3055 
L 4717 4174 
C 4717 4195 4730 4263 4730 4277 
C 4730 4352 4672 4352 4557 4352 
L 1523 4352 
C 1402 4352 1338 4352 1338 4229 
C 1338 4154 1382 4154 1491 4154 
C 1888 4154 1888 4113 1888 4050 
C 1888 4018 1882 3992 1862 3922 
L 998 473 
C 941 249 928 185 480 185 
C 358 185 294 185 294 70 
C 294 0 352 0 390 0 
C 512 0 640 0 762 0 
L 1594 0 
C 1734 0 1888 0 2029 0 
C 2086 0 2163 0 2163 115 
C 2163 185 2125 185 1984 185 
C 1478 185 1466 229 1466 324 
C 1466 356 1478 406 1491 449 
L 1901 2055 
z
" transform="scale(0.015625)"/>
       <path id="CMMI12-77" d="M 2202 390 
C 2342 6 2739 -64 2982 -64 
C 3469 -64 3757 358 3936 798 
C 4083 1169 4320 2012 4320 2389 
C 4320 2778 4122 2816 4064 2816 
C 3910 2816 3770 2663 3770 2535 
C 3770 2459 3814 2414 3846 2389 
C 3904 2331 4070 2159 4070 1827 
C 4070 1609 3891 1009 3757 709 
C 3578 319 3341 64 3008 64 
C 2650 64 2534 332 2534 626 
C 2534 811 2592 1035 2618 1143 
L 2886 2216 
C 2918 2344 2976 2567 2976 2593 
C 2976 2689 2899 2753 2803 2753 
C 2618 2753 2573 2593 2534 2440 
C 2470 2191 2202 1111 2176 971 
C 2150 862 2150 792 2150 651 
C 2150 498 1946 255 1939 243 
C 1869 172 1766 64 1568 64 
C 1062 64 1062 543 1062 651 
C 1062 856 1107 1137 1395 1897 
C 1472 2095 1504 2178 1504 2305 
C 1504 2574 1312 2816 998 2816 
C 410 2816 173 1890 173 1839 
C 173 1814 198 1782 243 1782 
C 301 1782 307 1807 333 1896 
C 493 2454 742 2682 979 2682 
C 1043 2682 1146 2682 1146 2478 
C 1146 2446 1146 2312 1037 2031 
C 736 1233 672 971 672 728 
C 672 57 1222 -64 1549 -64 
C 1658 -64 1946 -64 2202 390 
z
" transform="scale(0.015625)"/>
       <path id="CMMI12-61" d="M 1926 760 
C 1894 651 1894 639 1805 517 
C 1664 338 1382 64 1082 64 
C 819 64 672 300 672 677 
C 672 1028 870 1743 992 2012 
C 1210 2459 1510 2689 1760 2689 
C 2182 2689 2266 2165 2266 2114 
C 2266 2108 2246 2024 2240 2012 
L 1926 760 
z
M 2336 2395 
C 2266 2561 2093 2816 1760 2816 
C 1037 2816 256 1884 256 939 
C 256 307 627 -64 1062 -64 
C 1414 -64 1715 211 1894 422 
C 1958 45 2259 -64 2451 -64 
C 2643 -64 2797 51 2912 281 
C 3014 498 3104 888 3104 913 
C 3104 945 3078 971 3040 971 
C 2982 971 2976 939 2950 843 
C 2854 466 2733 64 2470 64 
C 2285 64 2272 230 2272 358 
C 2272 505 2291 575 2349 824 
C 2394 984 2426 1124 2477 1309 
C 2714 2267 2771 2497 2771 2535 
C 2771 2625 2701 2695 2605 2695 
C 2400 2695 2349 2472 2336 2395 
z
" transform="scale(0.015625)"/>
       <path id="CMMI12-69" d="M 1811 913 
C 1811 945 1786 971 1747 971 
C 1690 971 1683 952 1651 843 
C 1485 262 1222 64 1011 64 
C 934 64 845 83 845 275 
C 845 447 922 639 992 830 
L 1440 2018 
C 1459 2069 1504 2184 1504 2305 
C 1504 2574 1312 2816 998 2816 
C 410 2816 173 1890 173 1839 
C 173 1814 198 1782 243 1782 
C 301 1782 307 1807 333 1896 
C 486 2428 730 2682 979 2682 
C 1037 2682 1146 2682 1146 2478 
C 1146 2312 1062 2101 1011 1961 
L 563 773 
C 525 671 486 568 486 453 
C 486 166 685 -64 992 -64 
C 1581 -64 1811 869 1811 913 
z
M 1760 4013 
C 1760 4109 1683 4224 1542 4224 
C 1395 4224 1229 4083 1229 3917 
C 1229 3758 1363 3707 1440 3707 
C 1613 3707 1760 3873 1760 4013 
z
" transform="scale(0.015625)"/>
       <path id="CMMI12-74" d="M 1286 2566 
L 1875 2566 
C 1997 2566 2061 2566 2061 2681 
C 2061 2752 2022 2752 1894 2752 
L 1331 2752 
L 1568 3692 
C 1594 3781 1594 3794 1594 3840 
C 1594 3943 1510 4000 1427 4000 
C 1376 4000 1229 3981 1178 3775 
L 928 2752 
L 326 2752 
C 198 2752 141 2752 141 2630 
C 141 2566 186 2566 307 2566 
L 877 2566 
L 454 881 
C 403 658 384 594 384 511 
C 384 211 595 -64 954 -64 
C 1600 -64 1946 868 1946 912 
C 1946 951 1920 970 1882 970 
C 1869 970 1843 970 1830 944 
C 1824 938 1818 931 1773 829 
C 1638 511 1344 64 973 64 
C 781 64 768 224 768 364 
C 768 370 768 492 787 568 
L 1286 2566 
z
" transform="scale(0.015625)"/>
       <path id="CMMI12-6e" d="M 1318 1871 
C 1331 1910 1491 2229 1728 2433 
C 1894 2586 2112 2689 2362 2689 
C 2618 2689 2707 2497 2707 2242 
C 2707 1878 2445 1150 2317 805 
C 2259 651 2227 568 2227 453 
C 2227 166 2426 -64 2733 -64 
C 3328 -64 3552 875 3552 913 
C 3552 945 3526 971 3488 971 
C 3430 971 3424 952 3392 843 
C 3245 319 3002 64 2752 64 
C 2688 64 2586 64 2586 269 
C 2586 429 2656 621 2694 710 
C 2822 1063 3091 1780 3091 2145 
C 3091 2528 2867 2816 2381 2816 
C 1811 2816 1510 2415 1395 2255 
C 1376 2618 1114 2816 832 2816 
C 627 2816 486 2695 378 2478 
C 262 2248 173 1865 173 1839 
C 173 1814 198 1782 243 1782 
C 294 1782 301 1788 339 1935 
C 442 2325 557 2689 813 2689 
C 960 2689 1011 2586 1011 2395 
C 1011 2254 947 2005 902 1807 
L 723 1118 
C 698 996 627 709 595 594 
C 550 428 480 128 480 96 
C 480 6 550 -64 646 -64 
C 723 -64 813 -26 864 70 
C 877 102 934 326 966 453 
L 1107 1028 
L 1318 1871 
z
" transform="scale(0.015625)"/>
       <path id="CMMI12-67" d="M 2163 811 
C 2138 709 2125 683 2042 588 
C 1779 249 1510 128 1312 128 
C 1101 128 902 294 902 734 
C 902 1073 1094 1788 1235 2076 
C 1421 2433 1709 2689 1978 2689 
C 2400 2689 2483 2165 2483 2127 
L 2464 2037 
L 2163 811 
z
M 2560 2395 
C 2477 2580 2298 2816 1978 2816 
C 1280 2816 486 1941 486 990 
C 486 326 890 0 1299 0 
C 1638 0 1939 268 2054 396 
L 1914 -171 
C 1824 -516 1786 -674 1555 -894 
C 1293 -1152 1050 -1152 909 -1152 
C 717 -1152 557 -1139 397 -1089 
C 602 -1033 653 -858 653 -789 
C 653 -689 576 -588 435 -588 
C 282 -588 115 -714 115 -922 
C 115 -1180 378 -1280 922 -1280 
C 1747 -1280 2176 -753 2259 -410 
L 2970 2435 
C 2989 2511 2989 2524 2989 2536 
C 2989 2625 2918 2695 2822 2695 
C 2669 2695 2579 2567 2560 2395 
z
" transform="scale(0.015625)"/>
      </defs>
      <use xlink:href="#CMR17-57" transform="scale(0.996264)"/>
      <use xlink:href="#CMR17-61" transform="translate(87.289395 0)scale(0.996264)"/>
      <use xlink:href="#CMR17-72" transform="translate(132.979872 0)scale(0.996264)"/>
      <use xlink:href="#CMR17-74" transform="translate(168.260639 0)scale(0.996264)"/>
      <use xlink:href="#CMR17-6f" transform="translate(203.541407 0)scale(0.996264)"/>
      <use xlink:href="#CMR17-13" transform="translate(244.287307 0)scale(0.996264)"/>
      <use xlink:href="#CMR17-73" transform="translate(249.231884 0)scale(0.996264)"/>
      <use xlink:href="#CMR17-13" transform="translate(282.430814 0)scale(0.996264)"/>
      <use xlink:href="#CMR17-63" transform="translate(285.033222 0)scale(0.996264)"/>
      <use xlink:href="#CMR17-70" transform="translate(355.594849 0)scale(0.996264)"/>
      <use xlink:href="#CMR17-61" transform="translate(406.490219 0)scale(0.996264)"/>
      <use xlink:href="#CMR17-72" transform="translate(452.180696 0)scale(0.996264)"/>
      <use xlink:href="#CMR17-61" transform="translate(487.461463 0)scale(0.996264)"/>
      <use xlink:href="#CMR17-6d" transform="translate(533.151941 0)scale(0.996264)"/>
      <use xlink:href="#CMR17-65" transform="translate(610.07153 0)scale(0.996264)"/>
      <use xlink:href="#CMR17-74" transform="translate(650.557191 0)scale(0.996264)"/>
      <use xlink:href="#CMR17-72" transform="translate(685.837959 0)scale(0.996264)"/>
      <use xlink:href="#CMR17-75" transform="translate(721.118727 0)scale(0.996264)"/>
      <use xlink:href="#CMR17-67" transform="translate(802.090063 0)scale(0.996264)"/>
      <use xlink:href="#CMR17-65" transform="translate(847.78054 0)scale(0.996264)"/>
      <use xlink:href="#CMR17-6e" transform="translate(888.2662 0)scale(0.996264)"/>
      <use xlink:href="#CMR17-65" transform="translate(939.16157 0)scale(0.996264)"/>
      <use xlink:href="#CMR17-72" transform="translate(979.64723 0)scale(0.996264)"/>
      <use xlink:href="#CMR17-61" transform="translate(1014.927998 0)scale(0.996264)"/>
      <use xlink:href="#CMR17-74" transform="translate(1060.618475 0)scale(0.996264)"/>
      <use xlink:href="#CMR17-6f" transform="translate(1095.899243 0)scale(0.996264)"/>
      <use xlink:href="#CMR17-72" transform="translate(1141.58972 0)scale(0.996264)"/>
      <use xlink:href="#CMR17-61" transform="translate(1176.870488 0)scale(0.996264)"/>
      <use xlink:href="#CMMI12-54" transform="translate(1252.636932 0)scale(0.996264)"/>
      <use xlink:href="#CMMI12-46" transform="translate(1323.360564 0)scale(0.996264)"/>
      <use xlink:href="#CMMI12-77" transform="translate(1386.508768 -14.943915)scale(0.697382)"/>
      <use xlink:href="#CMMI12-61" transform="translate(1437.197576 -14.943915)scale(0.697382)"/>
      <use xlink:href="#CMMI12-69" transform="translate(1473.042923 -14.943915)scale(0.697382)"/>
      <use xlink:href="#CMMI12-74" transform="translate(1496.33783 -14.943915)scale(0.697382)"/>
      <use xlink:href="#CMMI12-69" transform="translate(1520.996139 -14.943915)scale(0.697382)"/>
      <use xlink:href="#CMMI12-6e" transform="translate(1544.291047 -14.943915)scale(0.697382)"/>
      <use xlink:href="#CMMI12-67" transform="translate(1585.05189 -14.943915)scale(0.697382)"/>
     </g>
    </g>
   </g>
   <g id="matplotlib.axis_2">
    <g id="ytick_1">
     <g id="line2d_11">
      <defs>
       <path id="m1cfc0a81c0" d="M 0 0 
L -3.5 0 
" style="stroke: #000000; stroke-width: 0.8"/>
      </defs>
      <g>
       <use xlink:href="#m1cfc0a81c0" x="28.133908" y="217.903132" style="stroke: #000000; stroke-width: 0.8"/>
      </g>
     </g>
     <g id="text_12">
      <!-- $\mathdefault{10^{1}}$ -->
      <g transform="translate(7.2 221.362381)scale(0.1 -0.1)">
       <use xlink:href="#CMR17-31" transform="scale(0.996264)"/>
       <use xlink:href="#CMR17-30" transform="translate(45.690477 0)scale(0.996264)"/>
       <use xlink:href="#CMR17-31" transform="translate(91.380954 36.153639)scale(0.697382)"/>
      </g>
     </g>
    </g>
    <g id="ytick_2">
     <g id="line2d_12">
      <g>
       <use xlink:href="#m1cfc0a81c0" x="28.133908" y="154.247214" style="stroke: #000000; stroke-width: 0.8"/>
      </g>
     </g>
     <g id="text_13">
      <!-- $\mathdefault{10^{2}}$ -->
      <g transform="translate(7.2 157.706463)scale(0.1 -0.1)">
       <use xlink:href="#CMR17-31" transform="scale(0.996264)"/>
       <use xlink:href="#CMR17-30" transform="translate(45.690477 0)scale(0.996264)"/>
       <use xlink:href="#CMR17-32" transform="translate(91.380954 36.153639)scale(0.697382)"/>
      </g>
     </g>
    </g>
    <g id="ytick_3">
     <g id="line2d_13">
      <g>
       <use xlink:href="#m1cfc0a81c0" x="28.133908" y="90.591296" style="stroke: #000000; stroke-width: 0.8"/>
      </g>
     </g>
     <g id="text_14">
      <!-- $\mathdefault{10^{3}}$ -->
      <g transform="translate(7.2 94.050545)scale(0.1 -0.1)">
       <use xlink:href="#CMR17-31" transform="scale(0.996264)"/>
       <use xlink:href="#CMR17-30" transform="translate(45.690477 0)scale(0.996264)"/>
       <use xlink:href="#CMR17-33" transform="translate(91.380954 36.153639)scale(0.697382)"/>
      </g>
     </g>
    </g>
    <g id="ytick_4">
     <g id="line2d_14">
      <defs>
       <path id="me01ff61046" d="M 0 0 
L -2 0 
" style="stroke: #000000; stroke-width: 0.6"/>
      </defs>
      <g>
       <use xlink:href="#me01ff61046" x="28.133908" y="243.234368" style="stroke: #000000; stroke-width: 0.6"/>
      </g>
     </g>
    </g>
    <g id="ytick_5">
     <g id="line2d_15">
      <g>
       <use xlink:href="#me01ff61046" x="28.133908" y="237.065472" style="stroke: #000000; stroke-width: 0.6"/>
      </g>
     </g>
    </g>
    <g id="ytick_6">
     <g id="line2d_16">
      <g>
       <use xlink:href="#me01ff61046" x="28.133908" y="232.025117" style="stroke: #000000; stroke-width: 0.6"/>
      </g>
     </g>
    </g>
    <g id="ytick_7">
     <g id="line2d_17">
      <g>
       <use xlink:href="#me01ff61046" x="28.133908" y="227.763558" style="stroke: #000000; stroke-width: 0.6"/>
      </g>
     </g>
    </g>
    <g id="ytick_8">
     <g id="line2d_18">
      <g>
       <use xlink:href="#me01ff61046" x="28.133908" y="224.072028" style="stroke: #000000; stroke-width: 0.6"/>
      </g>
     </g>
    </g>
    <g id="ytick_9">
     <g id="line2d_19">
      <g>
       <use xlink:href="#me01ff61046" x="28.133908" y="220.815867" style="stroke: #000000; stroke-width: 0.6"/>
      </g>
     </g>
    </g>
    <g id="ytick_10">
     <g id="line2d_20">
      <g>
       <use xlink:href="#me01ff61046" x="28.133908" y="198.740791" style="stroke: #000000; stroke-width: 0.6"/>
      </g>
     </g>
    </g>
    <g id="ytick_11">
     <g id="line2d_21">
      <g>
       <use xlink:href="#me01ff61046" x="28.133908" y="187.53154" style="stroke: #000000; stroke-width: 0.6"/>
      </g>
     </g>
    </g>
    <g id="ytick_12">
     <g id="line2d_22">
      <g>
       <use xlink:href="#me01ff61046" x="28.133908" y="179.57845" style="stroke: #000000; stroke-width: 0.6"/>
      </g>
     </g>
    </g>
    <g id="ytick_13">
     <g id="line2d_23">
      <g>
       <use xlink:href="#me01ff61046" x="28.133908" y="173.409554" style="stroke: #000000; stroke-width: 0.6"/>
      </g>
     </g>
    </g>
    <g id="ytick_14">
     <g id="line2d_24">
      <g>
       <use xlink:href="#me01ff61046" x="28.133908" y="168.3692" style="stroke: #000000; stroke-width: 0.6"/>
      </g>
     </g>
    </g>
    <g id="ytick_15">
     <g id="line2d_25">
      <g>
       <use xlink:href="#me01ff61046" x="28.133908" y="164.10764" style="stroke: #000000; stroke-width: 0.6"/>
      </g>
     </g>
    </g>
    <g id="ytick_16">
     <g id="line2d_26">
      <g>
       <use xlink:href="#me01ff61046" x="28.133908" y="160.41611" style="stroke: #000000; stroke-width: 0.6"/>
      </g>
     </g>
    </g>
    <g id="ytick_17">
     <g id="line2d_27">
      <g>
       <use xlink:href="#me01ff61046" x="28.133908" y="157.159949" style="stroke: #000000; stroke-width: 0.6"/>
      </g>
     </g>
    </g>
    <g id="ytick_18">
     <g id="line2d_28">
      <g>
       <use xlink:href="#me01ff61046" x="28.133908" y="135.084873" style="stroke: #000000; stroke-width: 0.6"/>
      </g>
     </g>
    </g>
    <g id="ytick_19">
     <g id="line2d_29">
      <g>
       <use xlink:href="#me01ff61046" x="28.133908" y="123.875622" style="stroke: #000000; stroke-width: 0.6"/>
      </g>
     </g>
    </g>
    <g id="ytick_20">
     <g id="line2d_30">
      <g>
       <use xlink:href="#me01ff61046" x="28.133908" y="115.922532" style="stroke: #000000; stroke-width: 0.6"/>
      </g>
     </g>
    </g>
    <g id="ytick_21">
     <g id="line2d_31">
      <g>
       <use xlink:href="#me01ff61046" x="28.133908" y="109.753636" style="stroke: #000000; stroke-width: 0.6"/>
      </g>
     </g>
    </g>
    <g id="ytick_22">
     <g id="line2d_32">
      <g>
       <use xlink:href="#me01ff61046" x="28.133908" y="104.713282" style="stroke: #000000; stroke-width: 0.6"/>
      </g>
     </g>
    </g>
    <g id="ytick_23">
     <g id="line2d_33">
      <g>
       <use xlink:href="#me01ff61046" x="28.133908" y="100.451722" style="stroke: #000000; stroke-width: 0.6"/>
      </g>
     </g>
    </g>
    <g id="ytick_24">
     <g id="line2d_34">
      <g>
       <use xlink:href="#me01ff61046" x="28.133908" y="96.760192" style="stroke: #000000; stroke-width: 0.6"/>
      </g>
     </g>
    </g>
    <g id="ytick_25">
     <g id="line2d_35">
      <g>
       <use xlink:href="#me01ff61046" x="28.133908" y="93.504031" style="stroke: #000000; stroke-width: 0.6"/>
      </g>
     </g>
    </g>
    <g id="ytick_26">
     <g id="line2d_36">
      <g>
       <use xlink:href="#me01ff61046" x="28.133908" y="71.428955" style="stroke: #000000; stroke-width: 0.6"/>
      </g>
     </g>
    </g>
    <g id="ytick_27">
     <g id="line2d_37">
      <g>
       <use xlink:href="#me01ff61046" x="28.133908" y="60.219704" style="stroke: #000000; stroke-width: 0.6"/>
      </g>
     </g>
    </g>
    <g id="ytick_28">
     <g id="line2d_38">
      <g>
       <use xlink:href="#me01ff61046" x="28.133908" y="52.266614" style="stroke: #000000; stroke-width: 0.6"/>
      </g>
     </g>
    </g>
    <g id="ytick_29">
     <g id="line2d_39">
      <g>
       <use xlink:href="#me01ff61046" x="28.133908" y="46.097719" style="stroke: #000000; stroke-width: 0.6"/>
      </g>
     </g>
    </g>
   </g>
   <g id="line2d_40">
    <path d="M 38.760255 124.936093 
L 60.012947 100.912078 
L 81.26564 87.834033 
L 102.518333 73.298207 
L 123.771026 67.272014 
L 145.023719 59.797845 
L 166.276412 57.39272 
L 187.529105 54.447309 
L 208.781798 52.611841 
L 230.03449 51.892966 
" clip-path="url(#p10690ebb90)" style="fill: none; stroke-dasharray: 5.55,2.4; stroke-dashoffset: 0; stroke: #cccccc; stroke-width: 1.5"/>
    <defs>
     <path id="m757866c236" d="M 0 3.5 
C 0.928211 3.5 1.81853 3.131218 2.474874 2.474874 
C 3.131218 1.81853 3.5 0.928211 3.5 0 
C 3.5 -0.928211 3.131218 -1.81853 2.474874 -2.474874 
C 1.81853 -3.131218 0.928211 -3.5 0 -3.5 
C -0.928211 -3.5 -1.81853 -3.131218 -2.474874 -2.474874 
C -3.131218 -1.81853 -3.5 -0.928211 -3.5 0 
C -3.5 0.928211 -3.131218 1.81853 -2.474874 2.474874 
C -1.81853 3.131218 -0.928211 3.5 0 3.5 
z
" style="stroke: #cccccc"/>
    </defs>
    <g clip-path="url(#p10690ebb90)">
     <use xlink:href="#m757866c236" x="38.760255" y="124.936093" style="fill: #cccccc; stroke: #cccccc"/>
     <use xlink:href="#m757866c236" x="60.012947" y="100.912078" style="fill: #cccccc; stroke: #cccccc"/>
     <use xlink:href="#m757866c236" x="81.26564" y="87.834033" style="fill: #cccccc; stroke: #cccccc"/>
     <use xlink:href="#m757866c236" x="102.518333" y="73.298207" style="fill: #cccccc; stroke: #cccccc"/>
     <use xlink:href="#m757866c236" x="123.771026" y="67.272014" style="fill: #cccccc; stroke: #cccccc"/>
     <use xlink:href="#m757866c236" x="145.023719" y="59.797845" style="fill: #cccccc; stroke: #cccccc"/>
     <use xlink:href="#m757866c236" x="166.276412" y="57.39272" style="fill: #cccccc; stroke: #cccccc"/>
     <use xlink:href="#m757866c236" x="187.529105" y="54.447309" style="fill: #cccccc; stroke: #cccccc"/>
     <use xlink:href="#m757866c236" x="208.781798" y="52.611841" style="fill: #cccccc; stroke: #cccccc"/>
     <use xlink:href="#m757866c236" x="230.03449" y="51.892966" style="fill: #cccccc; stroke: #cccccc"/>
    </g>
   </g>
   <g id="line2d_41">
    <path d="M 60.012947 172.959847 
L 81.26564 139.667362 
L 102.518333 126.471743 
L 123.771026 110.737419 
L 145.023719 94.490869 
L 166.276412 87.121679 
L 187.529105 81.006481 
L 208.781798 74.041834 
L 230.03449 73.645271 
" clip-path="url(#p10690ebb90)" style="fill: none; stroke-dasharray: 5.55,2.4; stroke-dashoffset: 0; stroke: #999999; stroke-width: 1.5"/>
    <defs>
     <path id="m772116ca52" d="M -3.5 3.5 
L 3.5 3.5 
L 3.5 -3.5 
L -3.5 -3.5 
z
" style="stroke: #999999; stroke-linejoin: miter"/>
    </defs>
    <g clip-path="url(#p10690ebb90)">
     <use xlink:href="#m772116ca52" x="60.012947" y="172.959847" style="fill: #999999; stroke: #999999; stroke-linejoin: miter"/>
     <use xlink:href="#m772116ca52" x="81.26564" y="139.667362" style="fill: #999999; stroke: #999999; stroke-linejoin: miter"/>
     <use xlink:href="#m772116ca52" x="102.518333" y="126.471743" style="fill: #999999; stroke: #999999; stroke-linejoin: miter"/>
     <use xlink:href="#m772116ca52" x="123.771026" y="110.737419" style="fill: #999999; stroke: #999999; stroke-linejoin: miter"/>
     <use xlink:href="#m772116ca52" x="145.023719" y="94.490869" style="fill: #999999; stroke: #999999; stroke-linejoin: miter"/>
     <use xlink:href="#m772116ca52" x="166.276412" y="87.121679" style="fill: #999999; stroke: #999999; stroke-linejoin: miter"/>
     <use xlink:href="#m772116ca52" x="187.529105" y="81.006481" style="fill: #999999; stroke: #999999; stroke-linejoin: miter"/>
     <use xlink:href="#m772116ca52" x="208.781798" y="74.041834" style="fill: #999999; stroke: #999999; stroke-linejoin: miter"/>
     <use xlink:href="#m772116ca52" x="230.03449" y="73.645271" style="fill: #999999; stroke: #999999; stroke-linejoin: miter"/>
    </g>
   </g>
   <g id="line2d_42">
    <path d="M 60.012947 236.034415 
L 81.26564 184.390295 
L 102.518333 216.739227 
L 123.771026 153.075359 
L 145.023719 139.067018 
L 166.276412 121.931204 
L 187.529105 122.465432 
L 208.781798 102.647592 
L 230.03449 105.189638 
" clip-path="url(#p10690ebb90)" style="fill: none; stroke-dasharray: 5.55,2.4; stroke-dashoffset: 0; stroke: #666666; stroke-width: 1.5"/>
    <defs>
     <path id="m3681e922b6" d="M 0 -3.5 
L -3.5 3.5 
L 3.5 3.5 
z
" style="stroke: #666666; stroke-linejoin: miter"/>
    </defs>
    <g clip-path="url(#p10690ebb90)">
     <use xlink:href="#m3681e922b6" x="60.012947" y="236.034415" style="fill: #666666; stroke: #666666; stroke-linejoin: miter"/>
     <use xlink:href="#m3681e922b6" x="81.26564" y="184.390295" style="fill: #666666; stroke: #666666; stroke-linejoin: miter"/>
     <use xlink:href="#m3681e922b6" x="102.518333" y="216.739227" style="fill: #666666; stroke: #666666; stroke-linejoin: miter"/>
     <use xlink:href="#m3681e922b6" x="123.771026" y="153.075359" style="fill: #666666; stroke: #666666; stroke-linejoin: miter"/>
     <use xlink:href="#m3681e922b6" x="145.023719" y="139.067018" style="fill: #666666; stroke: #666666; stroke-linejoin: miter"/>
     <use xlink:href="#m3681e922b6" x="166.276412" y="121.931204" style="fill: #666666; stroke: #666666; stroke-linejoin: miter"/>
     <use xlink:href="#m3681e922b6" x="187.529105" y="122.465432" style="fill: #666666; stroke: #666666; stroke-linejoin: miter"/>
     <use xlink:href="#m3681e922b6" x="208.781798" y="102.647592" style="fill: #666666; stroke: #666666; stroke-linejoin: miter"/>
     <use xlink:href="#m3681e922b6" x="230.03449" y="105.189638" style="fill: #666666; stroke: #666666; stroke-linejoin: miter"/>
    </g>
   </g>
   <g id="line2d_43">
    <path d="M 123.771026 236.409819 
L 145.023719 196.549251 
L 166.276412 171.287055 
L 187.529105 190.485262 
L 208.781798 149.711355 
L 230.03449 147.115526 
" clip-path="url(#p10690ebb90)" style="fill: none; stroke-dasharray: 5.55,2.4; stroke-dashoffset: 0; stroke: #333333; stroke-width: 1.5"/>
    <defs>
     <path id="m6c8f420e18" d="M -3.5 0 
L 3.5 0 
M 0 3.5 
L 0 -3.5 
" style="stroke: #333333"/>
    </defs>
    <g clip-path="url(#p10690ebb90)">
     <use xlink:href="#m6c8f420e18" x="123.771026" y="236.409819" style="fill: #333333; stroke: #333333"/>
     <use xlink:href="#m6c8f420e18" x="145.023719" y="196.549251" style="fill: #333333; stroke: #333333"/>
     <use xlink:href="#m6c8f420e18" x="166.276412" y="171.287055" style="fill: #333333; stroke: #333333"/>
     <use xlink:href="#m6c8f420e18" x="187.529105" y="190.485262" style="fill: #333333; stroke: #333333"/>
     <use xlink:href="#m6c8f420e18" x="208.781798" y="149.711355" style="fill: #333333; stroke: #333333"/>
     <use xlink:href="#m6c8f420e18" x="230.03449" y="147.115526" style="fill: #333333; stroke: #333333"/>
    </g>
   </g>
   <g id="line2d_44">
    <path d="M 208.781798 214.844263 
L 230.03449 204.311463 
" clip-path="url(#p10690ebb90)" style="fill: none; stroke-dasharray: 5.55,2.4; stroke-dashoffset: 0; stroke: #000000; stroke-width: 1.5"/>
    <defs>
     <path id="m93d4c295eb" d="M -3.5 3.5 
L 3.5 -3.5 
M -3.5 -3.5 
L 3.5 3.5 
" style="stroke: #000000"/>
    </defs>
    <g clip-path="url(#p10690ebb90)">
     <use xlink:href="#m93d4c295eb" x="208.781798" y="214.844263" style="stroke: #000000"/>
     <use xlink:href="#m93d4c295eb" x="230.03449" y="204.311463" style="stroke: #000000"/>
    </g>
   </g>
   <g id="patch_3">
    <path d="M 28.133908 245.635662 
L 28.133908 42.667123 
" style="fill: none; stroke: #000000; stroke-width: 0.8; stroke-linejoin: miter; stroke-linecap: square"/>
   </g>
   <g id="patch_4">
    <path d="M 240.660837 245.635662 
L 240.660837 42.667123 
" style="fill: none; stroke: #000000; stroke-width: 0.8; stroke-linejoin: miter; stroke-linecap: square"/>
   </g>
   <g id="patch_5">
    <path d="M 28.133908 245.635662 
L 240.660837 245.635662 
" style="fill: none; stroke: #000000; stroke-width: 0.8; stroke-linejoin: miter; stroke-linecap: square"/>
   </g>
   <g id="patch_6">
    <path d="M 28.133908 42.667123 
L 240.660837 42.667123 
" style="fill: none; stroke: #000000; stroke-width: 0.8; stroke-linejoin: miter; stroke-linecap: square"/>
   </g>
   <g id="text_15">
    <!-- Średnia liczba instancji wzorców o danej długości -->
    <g transform="translate(16.193132 36.667123)scale(0.11 -0.11)">
     <defs>
      <path id="CMR17-53" d="M 2803 4290 
C 2803 4404 2797 4411 2758 4411 
C 2720 4411 2707 4385 2682 4328 
L 2490 3907 
C 2246 4257 1875 4416 1472 4416 
C 819 4416 294 3901 294 3253 
C 294 3056 339 2776 557 2510 
C 794 2218 1018 2167 1530 2033 
C 1722 1982 2042 1899 2106 1874 
C 2470 1722 2662 1341 2662 985 
C 2662 527 2336 38 1779 38 
C 1094 38 454 419 410 1311 
C 403 1413 397 1419 352 1419 
C 301 1419 294 1413 294 1285 
L 294 -1 
C 294 -115 301 -122 339 -122 
C 384 -122 397 -90 486 108 
C 493 127 493 140 614 381 
C 934 -39 1472 -128 1779 -128 
C 2477 -128 2970 451 2970 1124 
C 2970 1454 2848 1708 2778 1823 
C 2509 2230 2221 2306 1914 2382 
C 1869 2402 1856 2402 1498 2490 
C 1152 2579 1005 2624 845 2796 
C 666 2992 602 3196 602 3399 
C 602 3812 934 4263 1478 4263 
C 2157 4263 2579 3786 2675 2993 
C 2694 2878 2701 2872 2746 2872 
C 2803 2872 2803 2891 2803 2999 
L 2803 4290 
z
" transform="scale(0.015625)"/>
      <path id="CMR17-64" d="M 1869 4326 
L 1869 4160 
C 2246 4160 2304 4122 2304 3820 
L 2304 2345 
C 2278 2377 2016 2790 1498 2790 
C 845 2790 211 2208 211 1364 
C 211 525 806 -64 1434 -64 
C 1978 -64 2259 337 2291 380 
L 2291 -63 
L 3066 -63 
L 3066 128 
C 2688 128 2630 166 2630 473 
L 2630 4396 
L 1869 4326 
z
M 2291 755 
C 2291 563 2176 390 2029 262 
C 1811 70 1594 38 1472 38 
C 1286 38 621 134 621 1356 
C 621 2612 1363 2688 1530 2688 
C 1824 2688 2061 2522 2208 2291 
C 2291 2157 2291 2138 2291 2023 
L 2291 755 
z
" transform="scale(0.015625)"/>
      <path id="CMR17-69" d="M 992 3909 
C 992 4049 877 4170 730 4170 
C 589 4170 467 4056 467 3909 
C 467 3769 582 3648 730 3648 
C 870 3648 992 3763 992 3909 
z
M 243 2706 
L 243 2541 
C 602 2541 653 2502 653 2197 
L 653 427 
C 653 184 627 153 218 153 
L 218 -13 
C 371 0 646 0 806 0 
C 960 0 1222 0 1370 -13 
L 1370 153 
C 992 153 979 191 979 420 
L 979 2776 
L 243 2706 
z
" transform="scale(0.015625)"/>
      <path id="CMR17-6c" d="M 979 4396 
L 218 4326 
L 218 4160 
C 595 4160 653 4122 653 3817 
L 653 426 
C 653 184 627 153 218 153 
L 218 -13 
C 371 0 653 0 813 0 
C 979 0 1261 0 1414 -13 
L 1414 153 
C 1005 153 979 178 979 426 
L 979 4396 
z
" transform="scale(0.015625)"/>
      <path id="CMR17-7a" d="M 2310 2605 
C 2362 2670 2362 2682 2362 2695 
C 2362 2752 2336 2752 2221 2752 
L 275 2752 
L 211 1760 
L 326 1760 
C 371 2381 442 2650 1178 2650 
L 1958 2650 
L 128 96 
C 128 0 134 0 269 0 
L 2291 0 
L 2381 1152 
L 2266 1152 
C 2214 442 2131 115 1350 115 
L 531 115 
L 2310 2605 
z
" transform="scale(0.015625)"/>
      <path id="CMR17-62" d="M 960 4396 
L 198 4326 
L 198 4160 
C 576 4160 634 4122 634 3817 
L 634 -13 
L 749 -13 
L 934 441 
C 1120 141 1395 -64 1766 -64 
C 2406 -64 3053 500 3053 1370 
C 3053 2188 2477 2790 1830 2790 
C 1434 2790 1152 2579 960 2330 
L 960 4396 
z
M 973 2004 
C 973 2118 973 2138 1062 2272 
C 1312 2657 1670 2688 1792 2688 
C 1984 2688 2643 2585 2643 1376 
C 2643 108 1888 38 1734 38 
C 1536 38 1248 114 1043 486 
C 973 608 973 621 973 735 
L 973 2004 
z
" transform="scale(0.015625)"/>
      <path id="CMR17-6a" d="M 1165 3963 
C 1165 4103 1050 4224 902 4224 
C 762 4224 640 4110 640 3963 
C 640 3823 755 3702 902 3702 
C 1043 3702 1165 3817 1165 3963 
z
M 365 2754 
L 365 2588 
C 787 2588 838 2543 838 2235 
L 838 -359 
C 838 -678 781 -1178 403 -1178 
C 358 -1178 186 -1178 45 -1082 
C 90 -1075 250 -1031 250 -851 
C 250 -729 166 -621 19 -621 
C -122 -621 -211 -717 -211 -858 
C -211 -1114 70 -1280 397 -1280 
C 838 -1280 1165 -877 1165 -332 
L 1165 2825 
L 365 2754 
z
" transform="scale(0.015625)"/>
      <path id="CMR17-77" d="M 3725 2183 
C 3853 2560 4109 2560 4205 2560 
L 4205 2732 
C 4077 2732 3949 2732 3821 2732 
C 3699 2732 3424 2732 3315 2738 
L 3315 2560 
C 3514 2560 3622 2445 3622 2286 
C 3622 2241 3610 2184 3597 2140 
L 2995 407 
L 2342 2275 
C 2330 2319 2310 2370 2310 2395 
C 2310 2560 2528 2560 2630 2560 
L 2630 2738 
C 2483 2732 2214 2732 2061 2732 
C 1901 2732 1734 2732 1587 2738 
L 1587 2560 
C 1939 2560 1939 2547 2074 2149 
L 1485 451 
L 851 2281 
C 819 2363 819 2376 819 2395 
C 819 2560 1037 2560 1139 2560 
L 1139 2738 
C 986 2732 717 2732 557 2732 
C 416 2732 198 2732 64 2738 
L 64 2560 
C 346 2560 416 2541 486 2331 
L 1274 49 
C 1299 -33 1318 -52 1370 -52 
C 1414 -52 1440 -39 1472 56 
L 2131 1980 
L 2797 56 
C 2829 -39 2854 -52 2899 -52 
C 2950 -52 2970 -33 2995 50 
L 3725 2183 
z
" transform="scale(0.015625)"/>
      <path id="CMR17-20" d="M 1517 2349 
L 1453 2502 
L 115 1946 
L 179 1792 
L 1517 2349 
z
" transform="scale(0.015625)"/>
     </defs>
     <use xlink:href="#CMR17-13" transform="translate(2.602454 25.175672)scale(0.996264)"/>
     <use xlink:href="#CMR17-53" transform="scale(0.996264)"/>
     <use xlink:href="#CMR17-72" transform="translate(50.89537 0)scale(0.996264)"/>
     <use xlink:href="#CMR17-65" transform="translate(86.176138 0)scale(0.996264)"/>
     <use xlink:href="#CMR17-64" transform="translate(126.661798 0)scale(0.996264)"/>
     <use xlink:href="#CMR17-6e" transform="translate(177.557168 0)scale(0.996264)"/>
     <use xlink:href="#CMR17-69" transform="translate(228.452538 0)scale(0.996264)"/>
     <use xlink:href="#CMR17-61" transform="translate(253.323596 0)scale(0.996264)"/>
     <use xlink:href="#CMR17-6c" transform="translate(329.09004 0)scale(0.996264)"/>
     <use xlink:href="#CMR17-69" transform="translate(353.961098 0)scale(0.996264)"/>
     <use xlink:href="#CMR17-63" transform="translate(378.832157 0)scale(0.996264)"/>
     <use xlink:href="#CMR17-7a" transform="translate(419.317817 0)scale(0.996264)"/>
     <use xlink:href="#CMR17-62" transform="translate(459.803477 0)scale(0.996264)"/>
     <use xlink:href="#CMR17-61" transform="translate(510.698847 0)scale(0.996264)"/>
     <use xlink:href="#CMR17-69" transform="translate(586.465291 0)scale(0.996264)"/>
     <use xlink:href="#CMR17-6e" transform="translate(611.336349 0)scale(0.996264)"/>
     <use xlink:href="#CMR17-73" transform="translate(662.231719 0)scale(0.996264)"/>
     <use xlink:href="#CMR17-74" transform="translate(698.033057 0)scale(0.996264)"/>
     <use xlink:href="#CMR17-61" transform="translate(733.313824 0)scale(0.996264)"/>
     <use xlink:href="#CMR17-6e" transform="translate(779.004301 0)scale(0.996264)"/>
     <use xlink:href="#CMR17-63" transform="translate(829.899671 0)scale(0.996264)"/>
     <use xlink:href="#CMR17-6a" transform="translate(870.385332 0)scale(0.996264)"/>
     <use xlink:href="#CMR17-69" transform="translate(897.858844 0)scale(0.996264)"/>
     <use xlink:href="#CMR17-77" transform="translate(952.805869 0)scale(0.996264)"/>
     <use xlink:href="#CMR17-7a" transform="translate(1019.31575 0)scale(0.996264)"/>
     <use xlink:href="#CMR17-6f" transform="translate(1059.80141 0)scale(0.996264)"/>
     <use xlink:href="#CMR17-72" transform="translate(1105.491887 0)scale(0.996264)"/>
     <use xlink:href="#CMR17-63" transform="translate(1140.772655 0)scale(0.996264)"/>
     <use xlink:href="#CMR17-13" transform="translate(1181.258315 0)scale(0.996264)"/>
     <use xlink:href="#CMR17-6f" transform="translate(1181.258315 0)scale(0.996264)"/>
     <use xlink:href="#CMR17-77" transform="translate(1226.948792 0)scale(0.996264)"/>
     <use xlink:href="#CMR17-6f" transform="translate(1323.534639 0)scale(0.996264)"/>
     <use xlink:href="#CMR17-64" transform="translate(1399.301083 0)scale(0.996264)"/>
     <use xlink:href="#CMR17-61" transform="translate(1450.196453 0)scale(0.996264)"/>
     <use xlink:href="#CMR17-6e" transform="translate(1495.88693 0)scale(0.996264)"/>
     <use xlink:href="#CMR17-65" transform="translate(1546.7823 0)scale(0.996264)"/>
     <use xlink:href="#CMR17-6a" transform="translate(1587.26796 0)scale(0.996264)"/>
     <use xlink:href="#CMR17-64" transform="translate(1644.817439 0)scale(0.996264)"/>
     <use xlink:href="#CMR17-20" transform="translate(1695.712809 0)scale(0.996264)"/>
     <use xlink:href="#CMR17-6c" transform="translate(1695.712793 0)scale(0.996264)"/>
     <use xlink:href="#CMR17-75" transform="translate(1720.583852 0)scale(0.996264)"/>
     <use xlink:href="#CMR17-67" transform="translate(1771.479222 0)scale(0.996264)"/>
     <use xlink:href="#CMR17-6f" transform="translate(1817.169699 0)scale(0.996264)"/>
     <use xlink:href="#CMR17-13" transform="translate(1857.915598 0)scale(0.996264)"/>
     <use xlink:href="#CMR17-73" transform="translate(1862.860176 0)scale(0.996264)"/>
     <use xlink:href="#CMR17-63" transform="translate(1898.661513 0)scale(0.996264)"/>
     <use xlink:href="#CMR17-69" transform="translate(1939.147174 0)scale(0.996264)"/>
    </g>
   </g>
  </g>
  <g id="axes_2">
   <g id="patch_7">
    <path d="M 286.755955 245.635662 
L 499.282884 245.635662 
L 499.282884 42.667123 
L 286.755955 42.667123 
z
" style="fill: #ffffff"/>
   </g>
   <g id="PathCollection_3">
    <g clip-path="url(#p7e6e279964)">
     <use xlink:href="#m8f788b164d" x="339.887688" y="236.409819" style="fill: #333333; stroke: #333333; stroke-width: 1.5"/>
    </g>
   </g>
   <g id="PathCollection_4">
    <g clip-path="url(#p7e6e279964)">
     <use xlink:href="#m362c8327f4" x="424.898459" y="236.409819" style="stroke: #000000; stroke-width: 1.5"/>
    </g>
   </g>
   <g id="matplotlib.axis_3">
    <g id="xtick_11">
     <g id="line2d_45">
      <g>
       <use xlink:href="#m4869601e8c" x="297.382302" y="245.635662" style="stroke: #000000; stroke-width: 0.8"/>
      </g>
     </g>
     <g id="text_16">
      <!-- $\mathdefault{40}$ -->
      <g transform="translate(292.400967 259.55416)scale(0.1 -0.1)">
       <use xlink:href="#CMR17-34" transform="scale(0.996264)"/>
       <use xlink:href="#CMR17-30" transform="translate(45.690477 0)scale(0.996264)"/>
      </g>
     </g>
    </g>
    <g id="xtick_12">
     <g id="line2d_46">
      <g>
       <use xlink:href="#m4869601e8c" x="318.634995" y="245.635662" style="stroke: #000000; stroke-width: 0.8"/>
      </g>
     </g>
     <g id="text_17">
      <!-- $\mathdefault{80}$ -->
      <g transform="translate(313.653659 259.55416)scale(0.1 -0.1)">
       <use xlink:href="#CMR17-38" transform="scale(0.996264)"/>
       <use xlink:href="#CMR17-30" transform="translate(45.690477 0)scale(0.996264)"/>
      </g>
     </g>
    </g>
    <g id="xtick_13">
     <g id="line2d_47">
      <g>
       <use xlink:href="#m4869601e8c" x="339.887688" y="245.635662" style="stroke: #000000; stroke-width: 0.8"/>
      </g>
     </g>
     <g id="text_18">
      <!-- $\mathdefault{120}$ -->
      <g transform="translate(332.415685 259.55416)scale(0.1 -0.1)">
       <use xlink:href="#CMR17-31" transform="scale(0.996264)"/>
       <use xlink:href="#CMR17-32" transform="translate(45.690477 0)scale(0.996264)"/>
       <use xlink:href="#CMR17-30" transform="translate(91.380954 0)scale(0.996264)"/>
      </g>
     </g>
    </g>
    <g id="xtick_14">
     <g id="line2d_48">
      <g>
       <use xlink:href="#m4869601e8c" x="361.14038" y="245.635662" style="stroke: #000000; stroke-width: 0.8"/>
      </g>
     </g>
     <g id="text_19">
      <!-- $\mathdefault{160}$ -->
      <g transform="translate(353.668378 259.55416)scale(0.1 -0.1)">
       <use xlink:href="#CMR17-31" transform="scale(0.996264)"/>
       <use xlink:href="#CMR17-36" transform="translate(45.690477 0)scale(0.996264)"/>
       <use xlink:href="#CMR17-30" transform="translate(91.380954 0)scale(0.996264)"/>
      </g>
     </g>
    </g>
    <g id="xtick_15">
     <g id="line2d_49">
      <g>
       <use xlink:href="#m4869601e8c" x="382.393073" y="245.635662" style="stroke: #000000; stroke-width: 0.8"/>
      </g>
     </g>
     <g id="text_20">
      <!-- $\mathdefault{200}$ -->
      <g transform="translate(374.92107 259.55416)scale(0.1 -0.1)">
       <use xlink:href="#CMR17-32" transform="scale(0.996264)"/>
       <use xlink:href="#CMR17-30" transform="translate(45.690477 0)scale(0.996264)"/>
       <use xlink:href="#CMR17-30" transform="translate(91.380954 0)scale(0.996264)"/>
      </g>
     </g>
    </g>
    <g id="xtick_16">
     <g id="line2d_50">
      <g>
       <use xlink:href="#m4869601e8c" x="403.645766" y="245.635662" style="stroke: #000000; stroke-width: 0.8"/>
      </g>
     </g>
     <g id="text_21">
      <!-- $\mathdefault{240}$ -->
      <g transform="translate(396.173763 259.55416)scale(0.1 -0.1)">
       <use xlink:href="#CMR17-32" transform="scale(0.996264)"/>
       <use xlink:href="#CMR17-34" transform="translate(45.690477 0)scale(0.996264)"/>
       <use xlink:href="#CMR17-30" transform="translate(91.380954 0)scale(0.996264)"/>
      </g>
     </g>
    </g>
    <g id="xtick_17">
     <g id="line2d_51">
      <g>
       <use xlink:href="#m4869601e8c" x="424.898459" y="245.635662" style="stroke: #000000; stroke-width: 0.8"/>
      </g>
     </g>
     <g id="text_22">
      <!-- $\mathdefault{280}$ -->
      <g transform="translate(417.426456 259.55416)scale(0.1 -0.1)">
       <use xlink:href="#CMR17-32" transform="scale(0.996264)"/>
       <use xlink:href="#CMR17-38" transform="translate(45.690477 0)scale(0.996264)"/>
       <use xlink:href="#CMR17-30" transform="translate(91.380954 0)scale(0.996264)"/>
      </g>
     </g>
    </g>
    <g id="xtick_18">
     <g id="line2d_52">
      <g>
       <use xlink:href="#m4869601e8c" x="446.151152" y="245.635662" style="stroke: #000000; stroke-width: 0.8"/>
      </g>
     </g>
     <g id="text_23">
      <!-- $\mathdefault{320}$ -->
      <g transform="translate(438.679149 259.55416)scale(0.1 -0.1)">
       <use xlink:href="#CMR17-33" transform="scale(0.996264)"/>
       <use xlink:href="#CMR17-32" transform="translate(45.690477 0)scale(0.996264)"/>
       <use xlink:href="#CMR17-30" transform="translate(91.380954 0)scale(0.996264)"/>
      </g>
     </g>
    </g>
    <g id="xtick_19">
     <g id="line2d_53">
      <g>
       <use xlink:href="#m4869601e8c" x="467.403845" y="245.635662" style="stroke: #000000; stroke-width: 0.8"/>
      </g>
     </g>
     <g id="text_24">
      <!-- $\mathdefault{360}$ -->
      <g transform="translate(459.931842 259.55416)scale(0.1 -0.1)">
       <use xlink:href="#CMR17-33" transform="scale(0.996264)"/>
       <use xlink:href="#CMR17-36" transform="translate(45.690477 0)scale(0.996264)"/>
       <use xlink:href="#CMR17-30" transform="translate(91.380954 0)scale(0.996264)"/>
      </g>
     </g>
    </g>
    <g id="xtick_20">
     <g id="line2d_54">
      <g>
       <use xlink:href="#m4869601e8c" x="488.656538" y="245.635662" style="stroke: #000000; stroke-width: 0.8"/>
      </g>
     </g>
     <g id="text_25">
      <!-- $\mathdefault{400}$ -->
      <g transform="translate(481.184535 259.55416)scale(0.1 -0.1)">
       <use xlink:href="#CMR17-34" transform="scale(0.996264)"/>
       <use xlink:href="#CMR17-30" transform="translate(45.690477 0)scale(0.996264)"/>
       <use xlink:href="#CMR17-30" transform="translate(91.380954 0)scale(0.996264)"/>
      </g>
     </g>
    </g>
    <g id="text_26">
     <!-- Wartość parametru generatora $TF_{waiting}$ -->
     <g transform="translate(303.896029 272.409837)scale(0.1 -0.1)">
      <use xlink:href="#CMR17-57" transform="scale(0.996264)"/>
      <use xlink:href="#CMR17-61" transform="translate(87.289395 0)scale(0.996264)"/>
      <use xlink:href="#CMR17-72" transform="translate(132.979872 0)scale(0.996264)"/>
      <use xlink:href="#CMR17-74" transform="translate(168.260639 0)scale(0.996264)"/>
      <use xlink:href="#CMR17-6f" transform="translate(203.541407 0)scale(0.996264)"/>
      <use xlink:href="#CMR17-13" transform="translate(244.287307 0)scale(0.996264)"/>
      <use xlink:href="#CMR17-73" transform="translate(249.231884 0)scale(0.996264)"/>
      <use xlink:href="#CMR17-13" transform="translate(282.430814 0)scale(0.996264)"/>
      <use xlink:href="#CMR17-63" transform="translate(285.033222 0)scale(0.996264)"/>
      <use xlink:href="#CMR17-70" transform="translate(355.594849 0)scale(0.996264)"/>
      <use xlink:href="#CMR17-61" transform="translate(406.490219 0)scale(0.996264)"/>
      <use xlink:href="#CMR17-72" transform="translate(452.180696 0)scale(0.996264)"/>
      <use xlink:href="#CMR17-61" transform="translate(487.461463 0)scale(0.996264)"/>
      <use xlink:href="#CMR17-6d" transform="translate(533.151941 0)scale(0.996264)"/>
      <use xlink:href="#CMR17-65" transform="translate(610.07153 0)scale(0.996264)"/>
      <use xlink:href="#CMR17-74" transform="translate(650.557191 0)scale(0.996264)"/>
      <use xlink:href="#CMR17-72" transform="translate(685.837959 0)scale(0.996264)"/>
      <use xlink:href="#CMR17-75" transform="translate(721.118727 0)scale(0.996264)"/>
      <use xlink:href="#CMR17-67" transform="translate(802.090063 0)scale(0.996264)"/>
      <use xlink:href="#CMR17-65" transform="translate(847.78054 0)scale(0.996264)"/>
      <use xlink:href="#CMR17-6e" transform="translate(888.2662 0)scale(0.996264)"/>
      <use xlink:href="#CMR17-65" transform="translate(939.16157 0)scale(0.996264)"/>
      <use xlink:href="#CMR17-72" transform="translate(979.64723 0)scale(0.996264)"/>
      <use xlink:href="#CMR17-61" transform="translate(1014.927998 0)scale(0.996264)"/>
      <use xlink:href="#CMR17-74" transform="translate(1060.618475 0)scale(0.996264)"/>
      <use xlink:href="#CMR17-6f" transform="translate(1095.899243 0)scale(0.996264)"/>
      <use xlink:href="#CMR17-72" transform="translate(1141.58972 0)scale(0.996264)"/>
      <use xlink:href="#CMR17-61" transform="translate(1176.870488 0)scale(0.996264)"/>
      <use xlink:href="#CMMI12-54" transform="translate(1252.636932 0)scale(0.996264)"/>
      <use xlink:href="#CMMI12-46" transform="translate(1323.360564 0)scale(0.996264)"/>
      <use xlink:href="#CMMI12-77" transform="translate(1386.508768 -14.943915)scale(0.697382)"/>
      <use xlink:href="#CMMI12-61" transform="translate(1437.197576 -14.943915)scale(0.697382)"/>
      <use xlink:href="#CMMI12-69" transform="translate(1473.042923 -14.943915)scale(0.697382)"/>
      <use xlink:href="#CMMI12-74" transform="translate(1496.33783 -14.943915)scale(0.697382)"/>
      <use xlink:href="#CMMI12-69" transform="translate(1520.996139 -14.943915)scale(0.697382)"/>
      <use xlink:href="#CMMI12-6e" transform="translate(1544.291047 -14.943915)scale(0.697382)"/>
      <use xlink:href="#CMMI12-67" transform="translate(1585.05189 -14.943915)scale(0.697382)"/>
     </g>
    </g>
   </g>
   <g id="matplotlib.axis_4">
    <g id="ytick_30">
     <g id="line2d_55">
      <g>
       <use xlink:href="#m1cfc0a81c0" x="286.755955" y="236.409819" style="stroke: #000000; stroke-width: 0.8"/>
      </g>
     </g>
     <g id="text_27">
      <!-- $\mathdefault{10^{-2}}$ -->
      <g transform="translate(259.595382 239.869068)scale(0.1 -0.1)">
       <defs>
        <path id="CMSY10-0" d="M 4218 1472 
C 4326 1472 4442 1472 4442 1600 
C 4442 1728 4326 1728 4218 1728 
L 755 1728 
C 646 1728 531 1728 531 1600 
C 531 1472 646 1472 755 1472 
L 4218 1472 
z
" transform="scale(0.015625)"/>
       </defs>
       <use xlink:href="#CMR17-31" transform="scale(0.996264)"/>
       <use xlink:href="#CMR17-30" transform="translate(45.690477 0)scale(0.996264)"/>
       <use xlink:href="#CMSY10-0" transform="translate(91.380954 36.153639)scale(0.697382)"/>
       <use xlink:href="#CMR17-32" transform="translate(145.621947 36.153639)scale(0.697382)"/>
      </g>
     </g>
    </g>
    <g id="ytick_31">
     <g id="line2d_56">
      <g>
       <use xlink:href="#m1cfc0a81c0" x="286.755955" y="170.952439" style="stroke: #000000; stroke-width: 0.8"/>
      </g>
     </g>
     <g id="text_28">
      <!-- $\mathdefault{10^{-1}}$ -->
      <g transform="translate(259.595382 174.411689)scale(0.1 -0.1)">
       <use xlink:href="#CMR17-31" transform="scale(0.996264)"/>
       <use xlink:href="#CMR17-30" transform="translate(45.690477 0)scale(0.996264)"/>
       <use xlink:href="#CMSY10-0" transform="translate(91.380954 36.153639)scale(0.697382)"/>
       <use xlink:href="#CMR17-31" transform="translate(145.621947 36.153639)scale(0.697382)"/>
      </g>
     </g>
    </g>
    <g id="ytick_32">
     <g id="line2d_57">
      <g>
       <use xlink:href="#m1cfc0a81c0" x="286.755955" y="105.49506" style="stroke: #000000; stroke-width: 0.8"/>
      </g>
     </g>
     <g id="text_29">
      <!-- $\mathdefault{10^{0}}$ -->
      <g transform="translate(265.822047 108.954309)scale(0.1 -0.1)">
       <use xlink:href="#CMR17-31" transform="scale(0.996264)"/>
       <use xlink:href="#CMR17-30" transform="translate(45.690477 0)scale(0.996264)"/>
       <use xlink:href="#CMR17-30" transform="translate(91.380954 36.153639)scale(0.697382)"/>
      </g>
     </g>
    </g>
    <g id="ytick_33">
     <g id="line2d_58">
      <g>
       <use xlink:href="#me01ff61046" x="286.755955" y="242.753295" style="stroke: #000000; stroke-width: 0.6"/>
      </g>
     </g>
    </g>
    <g id="ytick_34">
     <g id="line2d_59">
      <g>
       <use xlink:href="#me01ff61046" x="286.755955" y="239.404985" style="stroke: #000000; stroke-width: 0.6"/>
      </g>
     </g>
    </g>
    <g id="ytick_35">
     <g id="line2d_60">
      <g>
       <use xlink:href="#me01ff61046" x="286.755955" y="216.705184" style="stroke: #000000; stroke-width: 0.6"/>
      </g>
     </g>
    </g>
    <g id="ytick_36">
     <g id="line2d_61">
      <g>
       <use xlink:href="#me01ff61046" x="286.755955" y="205.178712" style="stroke: #000000; stroke-width: 0.6"/>
      </g>
     </g>
    </g>
    <g id="ytick_37">
     <g id="line2d_62">
      <g>
       <use xlink:href="#me01ff61046" x="286.755955" y="197.00055" style="stroke: #000000; stroke-width: 0.6"/>
      </g>
     </g>
    </g>
    <g id="ytick_38">
     <g id="line2d_63">
      <g>
       <use xlink:href="#me01ff61046" x="286.755955" y="190.657074" style="stroke: #000000; stroke-width: 0.6"/>
      </g>
     </g>
    </g>
    <g id="ytick_39">
     <g id="line2d_64">
      <g>
       <use xlink:href="#me01ff61046" x="286.755955" y="185.474077" style="stroke: #000000; stroke-width: 0.6"/>
      </g>
     </g>
    </g>
    <g id="ytick_40">
     <g id="line2d_65">
      <g>
       <use xlink:href="#me01ff61046" x="286.755955" y="181.091916" style="stroke: #000000; stroke-width: 0.6"/>
      </g>
     </g>
    </g>
    <g id="ytick_41">
     <g id="line2d_66">
      <g>
       <use xlink:href="#me01ff61046" x="286.755955" y="177.295915" style="stroke: #000000; stroke-width: 0.6"/>
      </g>
     </g>
    </g>
    <g id="ytick_42">
     <g id="line2d_67">
      <g>
       <use xlink:href="#me01ff61046" x="286.755955" y="173.947605" style="stroke: #000000; stroke-width: 0.6"/>
      </g>
     </g>
    </g>
    <g id="ytick_43">
     <g id="line2d_68">
      <g>
       <use xlink:href="#me01ff61046" x="286.755955" y="151.247805" style="stroke: #000000; stroke-width: 0.6"/>
      </g>
     </g>
    </g>
    <g id="ytick_44">
     <g id="line2d_69">
      <g>
       <use xlink:href="#me01ff61046" x="286.755955" y="139.721332" style="stroke: #000000; stroke-width: 0.6"/>
      </g>
     </g>
    </g>
    <g id="ytick_45">
     <g id="line2d_70">
      <g>
       <use xlink:href="#me01ff61046" x="286.755955" y="131.54317" style="stroke: #000000; stroke-width: 0.6"/>
      </g>
     </g>
    </g>
    <g id="ytick_46">
     <g id="line2d_71">
      <g>
       <use xlink:href="#me01ff61046" x="286.755955" y="125.199694" style="stroke: #000000; stroke-width: 0.6"/>
      </g>
     </g>
    </g>
    <g id="ytick_47">
     <g id="line2d_72">
      <g>
       <use xlink:href="#me01ff61046" x="286.755955" y="120.016697" style="stroke: #000000; stroke-width: 0.6"/>
      </g>
     </g>
    </g>
    <g id="ytick_48">
     <g id="line2d_73">
      <g>
       <use xlink:href="#me01ff61046" x="286.755955" y="115.634536" style="stroke: #000000; stroke-width: 0.6"/>
      </g>
     </g>
    </g>
    <g id="ytick_49">
     <g id="line2d_74">
      <g>
       <use xlink:href="#me01ff61046" x="286.755955" y="111.838535" style="stroke: #000000; stroke-width: 0.6"/>
      </g>
     </g>
    </g>
    <g id="ytick_50">
     <g id="line2d_75">
      <g>
       <use xlink:href="#me01ff61046" x="286.755955" y="108.490225" style="stroke: #000000; stroke-width: 0.6"/>
      </g>
     </g>
    </g>
    <g id="ytick_51">
     <g id="line2d_76">
      <g>
       <use xlink:href="#me01ff61046" x="286.755955" y="85.790425" style="stroke: #000000; stroke-width: 0.6"/>
      </g>
     </g>
    </g>
    <g id="ytick_52">
     <g id="line2d_77">
      <g>
       <use xlink:href="#me01ff61046" x="286.755955" y="74.263952" style="stroke: #000000; stroke-width: 0.6"/>
      </g>
     </g>
    </g>
    <g id="ytick_53">
     <g id="line2d_78">
      <g>
       <use xlink:href="#me01ff61046" x="286.755955" y="66.08579" style="stroke: #000000; stroke-width: 0.6"/>
      </g>
     </g>
    </g>
    <g id="ytick_54">
     <g id="line2d_79">
      <g>
       <use xlink:href="#me01ff61046" x="286.755955" y="59.742314" style="stroke: #000000; stroke-width: 0.6"/>
      </g>
     </g>
    </g>
    <g id="ytick_55">
     <g id="line2d_80">
      <g>
       <use xlink:href="#me01ff61046" x="286.755955" y="54.559318" style="stroke: #000000; stroke-width: 0.6"/>
      </g>
     </g>
    </g>
    <g id="ytick_56">
     <g id="line2d_81">
      <g>
       <use xlink:href="#me01ff61046" x="286.755955" y="50.177156" style="stroke: #000000; stroke-width: 0.6"/>
      </g>
     </g>
    </g>
    <g id="ytick_57">
     <g id="line2d_82">
      <g>
       <use xlink:href="#me01ff61046" x="286.755955" y="46.381155" style="stroke: #000000; stroke-width: 0.6"/>
      </g>
     </g>
    </g>
    <g id="ytick_58">
     <g id="line2d_83">
      <g>
       <use xlink:href="#me01ff61046" x="286.755955" y="43.032845" style="stroke: #000000; stroke-width: 0.6"/>
      </g>
     </g>
    </g>
   </g>
   <g id="line2d_84">
    <path d="M 297.382302 127.570048 
L 318.634995 102.528336 
L 339.887688 88.315699 
L 361.14038 73.058026 
L 382.393073 66.878504 
L 403.645766 59.515797 
L 424.898459 57.032858 
L 446.151152 54.089426 
L 467.403845 52.769084 
L 488.656538 51.892966 
" clip-path="url(#p7e6e279964)" style="fill: none; stroke-dasharray: 5.55,2.4; stroke-dashoffset: 0; stroke: #cccccc; stroke-width: 1.5"/>
    <g clip-path="url(#p7e6e279964)">
     <use xlink:href="#m757866c236" x="297.382302" y="127.570048" style="fill: #cccccc; stroke: #cccccc"/>
     <use xlink:href="#m757866c236" x="318.634995" y="102.528336" style="fill: #cccccc; stroke: #cccccc"/>
     <use xlink:href="#m757866c236" x="339.887688" y="88.315699" style="fill: #cccccc; stroke: #cccccc"/>
     <use xlink:href="#m757866c236" x="361.14038" y="73.058026" style="fill: #cccccc; stroke: #cccccc"/>
     <use xlink:href="#m757866c236" x="382.393073" y="66.878504" style="fill: #cccccc; stroke: #cccccc"/>
     <use xlink:href="#m757866c236" x="403.645766" y="59.515797" style="fill: #cccccc; stroke: #cccccc"/>
     <use xlink:href="#m757866c236" x="424.898459" y="57.032858" style="fill: #cccccc; stroke: #cccccc"/>
     <use xlink:href="#m757866c236" x="446.151152" y="54.089426" style="fill: #cccccc; stroke: #cccccc"/>
     <use xlink:href="#m757866c236" x="467.403845" y="52.769084" style="fill: #cccccc; stroke: #cccccc"/>
     <use xlink:href="#m757866c236" x="488.656538" y="51.892966" style="fill: #cccccc; stroke: #cccccc"/>
    </g>
   </g>
   <g id="line2d_85">
    <path d="M 318.634995 173.947605 
L 339.887688 139.721332 
L 361.14038 124.63675 
L 382.393073 109.129078 
L 403.645766 93.220444 
L 424.898459 85.507559 
L 446.151152 79.220432 
L 467.403845 72.876956 
L 488.656538 72.340567 
" clip-path="url(#p7e6e279964)" style="fill: none; stroke-dasharray: 5.55,2.4; stroke-dashoffset: 0; stroke: #999999; stroke-width: 1.5"/>
    <g clip-path="url(#p7e6e279964)">
     <use xlink:href="#m772116ca52" x="318.634995" y="173.947605" style="fill: #999999; stroke: #999999; stroke-linejoin: miter"/>
     <use xlink:href="#m772116ca52" x="339.887688" y="139.721332" style="fill: #999999; stroke: #999999; stroke-linejoin: miter"/>
     <use xlink:href="#m772116ca52" x="361.14038" y="124.63675" style="fill: #999999; stroke: #999999; stroke-linejoin: miter"/>
     <use xlink:href="#m772116ca52" x="382.393073" y="109.129078" style="fill: #999999; stroke: #999999; stroke-linejoin: miter"/>
     <use xlink:href="#m772116ca52" x="403.645766" y="93.220444" style="fill: #999999; stroke: #999999; stroke-linejoin: miter"/>
     <use xlink:href="#m772116ca52" x="424.898459" y="85.507559" style="fill: #999999; stroke: #999999; stroke-linejoin: miter"/>
     <use xlink:href="#m772116ca52" x="446.151152" y="79.220432" style="fill: #999999; stroke: #999999; stroke-linejoin: miter"/>
     <use xlink:href="#m772116ca52" x="467.403845" y="72.876956" style="fill: #999999; stroke: #999999; stroke-linejoin: miter"/>
     <use xlink:href="#m772116ca52" x="488.656538" y="72.340567" style="fill: #999999; stroke: #999999; stroke-linejoin: miter"/>
    </g>
   </g>
   <g id="line2d_86">
    <path d="M 318.634995 236.409819 
L 339.887688 185.474077 
L 361.14038 216.705184 
L 382.393073 151.247805 
L 403.645766 138.78919 
L 424.898459 120.494486 
L 446.151152 120.980443 
L 467.403845 101.521938 
L 488.656538 104.380102 
" clip-path="url(#p7e6e279964)" style="fill: none; stroke-dasharray: 5.55,2.4; stroke-dashoffset: 0; stroke: #666666; stroke-width: 1.5"/>
    <g clip-path="url(#p7e6e279964)">
     <use xlink:href="#m3681e922b6" x="318.634995" y="236.409819" style="fill: #666666; stroke: #666666; stroke-linejoin: miter"/>
     <use xlink:href="#m3681e922b6" x="339.887688" y="185.474077" style="fill: #666666; stroke: #666666; stroke-linejoin: miter"/>
     <use xlink:href="#m3681e922b6" x="361.14038" y="216.705184" style="fill: #666666; stroke: #666666; stroke-linejoin: miter"/>
     <use xlink:href="#m3681e922b6" x="382.393073" y="151.247805" style="fill: #666666; stroke: #666666; stroke-linejoin: miter"/>
     <use xlink:href="#m3681e922b6" x="403.645766" y="138.78919" style="fill: #666666; stroke: #666666; stroke-linejoin: miter"/>
     <use xlink:href="#m3681e922b6" x="424.898459" y="120.494486" style="fill: #666666; stroke: #666666; stroke-linejoin: miter"/>
     <use xlink:href="#m3681e922b6" x="446.151152" y="120.980443" style="fill: #666666; stroke: #666666; stroke-linejoin: miter"/>
     <use xlink:href="#m3681e922b6" x="467.403845" y="101.521938" style="fill: #666666; stroke: #666666; stroke-linejoin: miter"/>
     <use xlink:href="#m3681e922b6" x="488.656538" y="104.380102" style="fill: #666666; stroke: #666666; stroke-linejoin: miter"/>
    </g>
   </g>
   <g id="line2d_87">
    <path d="M 382.393073 236.409819 
L 403.645766 197.00055 
L 424.898459 170.952439 
L 446.151152 190.657074 
L 467.403845 149.860809 
L 488.656538 147.274683 
" clip-path="url(#p7e6e279964)" style="fill: none; stroke-dasharray: 5.55,2.4; stroke-dashoffset: 0; stroke: #333333; stroke-width: 1.5"/>
    <g clip-path="url(#p7e6e279964)">
     <use xlink:href="#m6c8f420e18" x="382.393073" y="236.409819" style="fill: #333333; stroke: #333333"/>
     <use xlink:href="#m6c8f420e18" x="403.645766" y="197.00055" style="fill: #333333; stroke: #333333"/>
     <use xlink:href="#m6c8f420e18" x="424.898459" y="170.952439" style="fill: #333333; stroke: #333333"/>
     <use xlink:href="#m6c8f420e18" x="446.151152" y="190.657074" style="fill: #333333; stroke: #333333"/>
     <use xlink:href="#m6c8f420e18" x="467.403845" y="149.860809" style="fill: #333333; stroke: #333333"/>
     <use xlink:href="#m6c8f420e18" x="488.656538" y="147.274683" style="fill: #333333; stroke: #333333"/>
    </g>
   </g>
   <g id="line2d_88">
    <path d="M 467.403845 216.705184 
L 488.656538 205.178712 
" clip-path="url(#p7e6e279964)" style="fill: none; stroke-dasharray: 5.55,2.4; stroke-dashoffset: 0; stroke: #000000; stroke-width: 1.5"/>
    <g clip-path="url(#p7e6e279964)">
     <use xlink:href="#m93d4c295eb" x="467.403845" y="216.705184" style="stroke: #000000"/>
     <use xlink:href="#m93d4c295eb" x="488.656538" y="205.178712" style="stroke: #000000"/>
    </g>
   </g>
   <g id="patch_8">
    <path d="M 286.755955 245.635662 
L 286.755955 42.667123 
" style="fill: none; stroke: #000000; stroke-width: 0.8; stroke-linejoin: miter; stroke-linecap: square"/>
   </g>
   <g id="patch_9">
    <path d="M 499.282884 245.635662 
L 499.282884 42.667123 
" style="fill: none; stroke: #000000; stroke-width: 0.8; stroke-linejoin: miter; stroke-linecap: square"/>
   </g>
   <g id="patch_10">
    <path d="M 286.755955 245.635662 
L 499.282884 245.635662 
" style="fill: none; stroke: #000000; stroke-width: 0.8; stroke-linejoin: miter; stroke-linecap: square"/>
   </g>
   <g id="patch_11">
    <path d="M 286.755955 42.667123 
L 499.282884 42.667123 
" style="fill: none; stroke: #000000; stroke-width: 0.8; stroke-linejoin: miter; stroke-linecap: square"/>
   </g>
   <g id="text_30">
    <!-- Średnia liczba wzorców o danej długości -->
    <g transform="translate(296.91569 36.667123)scale(0.11 -0.11)">
     <use xlink:href="#CMR17-13" transform="translate(2.602454 25.175672)scale(0.996264)"/>
     <use xlink:href="#CMR17-53" transform="scale(0.996264)"/>
     <use xlink:href="#CMR17-72" transform="translate(50.89537 0)scale(0.996264)"/>
     <use xlink:href="#CMR17-65" transform="translate(86.176138 0)scale(0.996264)"/>
     <use xlink:href="#CMR17-64" transform="translate(126.661798 0)scale(0.996264)"/>
     <use xlink:href="#CMR17-6e" transform="translate(177.557168 0)scale(0.996264)"/>
     <use xlink:href="#CMR17-69" transform="translate(228.452538 0)scale(0.996264)"/>
     <use xlink:href="#CMR17-61" transform="translate(253.323596 0)scale(0.996264)"/>
     <use xlink:href="#CMR17-6c" transform="translate(329.09004 0)scale(0.996264)"/>
     <use xlink:href="#CMR17-69" transform="translate(353.961098 0)scale(0.996264)"/>
     <use xlink:href="#CMR17-63" transform="translate(378.832157 0)scale(0.996264)"/>
     <use xlink:href="#CMR17-7a" transform="translate(419.317817 0)scale(0.996264)"/>
     <use xlink:href="#CMR17-62" transform="translate(459.803477 0)scale(0.996264)"/>
     <use xlink:href="#CMR17-61" transform="translate(510.698847 0)scale(0.996264)"/>
     <use xlink:href="#CMR17-77" transform="translate(586.465291 0)scale(0.996264)"/>
     <use xlink:href="#CMR17-7a" transform="translate(652.975171 0)scale(0.996264)"/>
     <use xlink:href="#CMR17-6f" transform="translate(693.460832 0)scale(0.996264)"/>
     <use xlink:href="#CMR17-72" transform="translate(739.151309 0)scale(0.996264)"/>
     <use xlink:href="#CMR17-63" transform="translate(774.432077 0)scale(0.996264)"/>
     <use xlink:href="#CMR17-13" transform="translate(814.917737 0)scale(0.996264)"/>
     <use xlink:href="#CMR17-6f" transform="translate(814.917737 0)scale(0.996264)"/>
     <use xlink:href="#CMR17-77" transform="translate(860.608214 0)scale(0.996264)"/>
     <use xlink:href="#CMR17-6f" transform="translate(957.194061 0)scale(0.996264)"/>
     <use xlink:href="#CMR17-64" transform="translate(1032.960505 0)scale(0.996264)"/>
     <use xlink:href="#CMR17-61" transform="translate(1083.855874 0)scale(0.996264)"/>
     <use xlink:href="#CMR17-6e" transform="translate(1129.546351 0)scale(0.996264)"/>
     <use xlink:href="#CMR17-65" transform="translate(1180.441721 0)scale(0.996264)"/>
     <use xlink:href="#CMR17-6a" transform="translate(1220.927382 0)scale(0.996264)"/>
     <use xlink:href="#CMR17-64" transform="translate(1278.47686 0)scale(0.996264)"/>
     <use xlink:href="#CMR17-20" transform="translate(1329.37223 0)scale(0.996264)"/>
     <use xlink:href="#CMR17-6c" transform="translate(1329.372215 0)scale(0.996264)"/>
     <use xlink:href="#CMR17-75" transform="translate(1354.243274 0)scale(0.996264)"/>
     <use xlink:href="#CMR17-67" transform="translate(1405.138643 0)scale(0.996264)"/>
     <use xlink:href="#CMR17-6f" transform="translate(1450.82912 0)scale(0.996264)"/>
     <use xlink:href="#CMR17-13" transform="translate(1491.57502 0)scale(0.996264)"/>
     <use xlink:href="#CMR17-73" transform="translate(1496.519598 0)scale(0.996264)"/>
     <use xlink:href="#CMR17-63" transform="translate(1532.320935 0)scale(0.996264)"/>
     <use xlink:href="#CMR17-69" transform="translate(1572.806596 0)scale(0.996264)"/>
    </g>
   </g>
   <g id="legend_1">
    <g id="patch_12">
     <path d="M 506.282884 192.431172 
L 544.792435 192.431172 
Q 546.792435 192.431172 546.792435 190.431172 
L 546.792435 97.871613 
Q 546.792435 95.871613 544.792435 95.871613 
L 506.282884 95.871613 
Q 504.282884 95.871613 504.282884 97.871613 
L 504.282884 190.431172 
Q 504.282884 192.431172 506.282884 192.431172 
z
" style="fill: #ffffff; opacity: 0.8; stroke: #cccccc; stroke-linejoin: miter"/>
    </g>
    <g id="text_31">
     <!-- \noindent Długość \\ \vspace{20mm} wzorca -->
     <g transform="translate(508.282884 106.790112)scale(0.1 -0.1)">
      <defs>
       <path id="CMR17-44" d="M 333 4352 
L 333 4186 
C 774 4186 845 4186 845 3900 
L 845 452 
C 845 166 774 166 333 166 
L 333 0 
L 2368 0 
C 3398 0 4224 943 4224 2141 
C 4224 3346 3411 4352 2368 4352 
L 333 4352 
z
M 1523 166 
C 1267 166 1254 197 1254 414 
L 1254 3938 
C 1254 4155 1267 4186 1523 4186 
L 2240 4186 
C 2771 4186 3750 3874 3750 2141 
C 3750 1242 3488 879 3366 707 
C 3213 510 2848 166 2240 166 
L 1523 166 
z
" transform="scale(0.015625)"/>
      </defs>
      <use xlink:href="#CMR17-44" transform="scale(0.996264)"/>
      <use xlink:href="#CMR17-20" transform="translate(70.393556 0)scale(0.996264)"/>
      <use xlink:href="#CMR17-6c" transform="translate(70.393541 0)scale(0.996264)"/>
      <use xlink:href="#CMR17-75" transform="translate(95.264599 0)scale(0.996264)"/>
      <use xlink:href="#CMR17-67" transform="translate(146.159969 0)scale(0.996264)"/>
      <use xlink:href="#CMR17-6f" transform="translate(191.850446 0)scale(0.996264)"/>
      <use xlink:href="#CMR17-13" transform="translate(232.596346 0)scale(0.996264)"/>
      <use xlink:href="#CMR17-73" transform="translate(237.540923 0)scale(0.996264)"/>
      <use xlink:href="#CMR17-13" transform="translate(270.739853 0)scale(0.996264)"/>
      <use xlink:href="#CMR17-63" transform="translate(273.342261 0)scale(0.996264)"/>
      <use xlink:href="#CMR17-77" transform="translate(30.075966 -63.262749)scale(0.996264)"/>
      <use xlink:href="#CMR17-7a" transform="translate(96.585847 -63.262749)scale(0.996264)"/>
      <use xlink:href="#CMR17-6f" transform="translate(137.071507 -63.262749)scale(0.996264)"/>
      <use xlink:href="#CMR17-72" transform="translate(182.761984 -63.262749)scale(0.996264)"/>
      <use xlink:href="#CMR17-63" transform="translate(218.042752 -63.262749)scale(0.996264)"/>
      <use xlink:href="#CMR17-61" transform="translate(258.528413 -63.262749)scale(0.996264)"/>
     </g>
    </g>
    <g id="line2d_89">
     <path d="M 509.046992 127.24528 
L 519.046992 127.24528 
L 529.046992 127.24528 
" style="fill: none; stroke-dasharray: 5.55,2.4; stroke-dashoffset: 0; stroke: #cccccc; stroke-width: 1.5"/>
     <g>
      <use xlink:href="#m757866c236" x="519.046992" y="127.24528" style="fill: #cccccc; stroke: #cccccc"/>
     </g>
    </g>
    <g id="text_32">
     <!-- $2$ -->
     <g transform="translate(537.046992 130.74528)scale(0.1 -0.1)">
      <use xlink:href="#CMR17-32" transform="scale(0.996264)"/>
     </g>
    </g>
    <g id="line2d_90">
     <path d="M 509.046992 141.182458 
L 519.046992 141.182458 
L 529.046992 141.182458 
" style="fill: none; stroke-dasharray: 5.55,2.4; stroke-dashoffset: 0; stroke: #999999; stroke-width: 1.5"/>
     <g>
      <use xlink:href="#m772116ca52" x="519.046992" y="141.182458" style="fill: #999999; stroke: #999999; stroke-linejoin: miter"/>
     </g>
    </g>
    <g id="text_33">
     <!-- $3$ -->
     <g transform="translate(537.046992 144.682458)scale(0.1 -0.1)">
      <use xlink:href="#CMR17-33" transform="scale(0.996264)"/>
     </g>
    </g>
    <g id="line2d_91">
     <path d="M 509.046992 155.119637 
L 519.046992 155.119637 
L 529.046992 155.119637 
" style="fill: none; stroke-dasharray: 5.55,2.4; stroke-dashoffset: 0; stroke: #666666; stroke-width: 1.5"/>
     <g>
      <use xlink:href="#m3681e922b6" x="519.046992" y="155.119637" style="fill: #666666; stroke: #666666; stroke-linejoin: miter"/>
     </g>
    </g>
    <g id="text_34">
     <!-- $4$ -->
     <g transform="translate(537.046992 158.619637)scale(0.1 -0.1)">
      <use xlink:href="#CMR17-34" transform="scale(0.996264)"/>
     </g>
    </g>
    <g id="PathCollection_5">
     <g>
      <use xlink:href="#m8f788b164d" x="519.046992" y="169.931815" style="fill: #333333; stroke: #333333; stroke-width: 1.5"/>
     </g>
    </g>
    <g id="text_35">
     <!-- $5$ -->
     <g transform="translate(537.046992 172.556815)scale(0.1 -0.1)">
      <defs>
       <path id="CMR17-35" d="M 730 3692 
C 794 3666 1056 3584 1325 3584 
C 1920 3584 2246 3911 2432 4100 
C 2432 4157 2432 4192 2394 4192 
C 2387 4192 2374 4192 2323 4163 
C 2099 4058 1837 3973 1517 3973 
C 1325 3973 1037 3999 723 4139 
C 653 4171 640 4171 634 4171 
C 602 4171 595 4164 595 4037 
L 595 2203 
C 595 2089 595 2057 659 2057 
C 691 2057 704 2070 736 2114 
C 941 2401 1222 2522 1542 2522 
C 1766 2522 2246 2382 2246 1289 
C 2246 1085 2246 715 2054 421 
C 1894 159 1645 25 1370 25 
C 947 25 518 320 403 814 
C 429 807 480 795 506 795 
C 589 795 749 840 749 1038 
C 749 1210 627 1280 506 1280 
C 358 1280 262 1190 262 1011 
C 262 454 704 -128 1382 -128 
C 2042 -128 2669 440 2669 1264 
C 2669 2030 2170 2624 1549 2624 
C 1222 2624 947 2503 730 2274 
L 730 3692 
z
" transform="scale(0.015625)"/>
      </defs>
      <use xlink:href="#CMR17-35" transform="scale(0.996264)"/>
     </g>
    </g>
    <g id="PathCollection_6">
     <g>
      <use xlink:href="#m362c8327f4" x="519.046992" y="183.868993" style="stroke: #000000; stroke-width: 1.5"/>
     </g>
    </g>
    <g id="text_36">
     <!-- $6$ -->
     <g transform="translate(537.046992 186.493993)scale(0.1 -0.1)">
      <use xlink:href="#CMR17-36" transform="scale(0.996264)"/>
     </g>
    </g>
   </g>
  </g>
  <g id="text_37">
   <!-- Generator oparty na wyznaczaniu celu podróży -->
   <g transform="translate(135.320116 16.885876)scale(0.14 -0.14)">
    <defs>
     <path id="CMR17-47" d="M 3974 1233 
C 3974 1473 3994 1505 4390 1505 
L 4390 1670 
C 4237 1664 3891 1664 3718 1664 
C 3539 1664 3040 1664 2797 1664 
L 2797 1505 
L 2989 1505 
C 3539 1505 3552 1434 3552 1201 
L 3552 774 
C 3552 63 2720 63 2522 63 
C 1862 63 781 511 781 2160 
C 781 3808 1843 4250 2464 4250 
C 3187 4250 3712 3626 3834 2741 
C 3846 2664 3846 2651 3904 2651 
C 3974 2651 3974 2664 3974 2779 
L 3974 4288 
C 3974 4402 3968 4409 3930 4409 
C 3904 4409 3898 4402 3853 4326 
L 3571 3791 
C 3258 4187 2874 4416 2381 4416 
C 1286 4416 294 3456 294 2148 
C 294 845 1267 -128 2394 -128 
C 2912 -128 3418 56 3616 417 
C 3725 158 3904 -20 3936 -20 
C 3968 -20 3974 -13 3974 100 
L 3974 1233 
z
" transform="scale(0.015625)"/>
     <path id="CMR17-79" d="M 2496 2197 
C 2656 2586 2944 2586 3034 2586 
L 3034 2752 
C 2912 2752 2752 2752 2630 2752 
C 2496 2752 2285 2752 2157 2758 
L 2157 2592 
C 2400 2573 2406 2394 2406 2343 
C 2406 2280 2394 2248 2362 2171 
L 1664 449 
L 902 2306 
C 870 2382 870 2426 870 2433 
C 870 2573 1018 2586 1171 2586 
L 1171 2758 
C 1018 2752 742 2752 582 2752 
C 410 2752 205 2752 64 2758 
L 64 2586 
C 410 2586 448 2554 531 2350 
L 1485 15 
C 1197 -738 1030 -1178 627 -1178 
C 557 -1178 397 -1159 282 -1044 
C 429 -1031 493 -942 493 -833 
C 493 -725 416 -629 288 -629 
C 147 -629 77 -725 77 -840 
C 77 -1095 339 -1280 627 -1280 
C 998 -1280 1229 -922 1357 -604 
L 2496 2197 
z
" transform="scale(0.015625)"/>
     <path id="CMR17-5f" d="M 1056 3909 
C 1056 4062 934 4170 800 4170 
C 646 4170 538 4049 538 3909 
C 538 3756 659 3648 794 3648 
C 947 3648 1056 3769 1056 3909 
z
" transform="scale(0.015625)"/>
    </defs>
    <use xlink:href="#CMR17-47" transform="scale(0.996264)"/>
    <use xlink:href="#CMR17-65" transform="translate(72.355346 0)scale(0.996264)"/>
    <use xlink:href="#CMR17-6e" transform="translate(112.841006 0)scale(0.996264)"/>
    <use xlink:href="#CMR17-65" transform="translate(163.736376 0)scale(0.996264)"/>
    <use xlink:href="#CMR17-72" transform="translate(204.222037 0)scale(0.996264)"/>
    <use xlink:href="#CMR17-61" transform="translate(239.502804 0)scale(0.996264)"/>
    <use xlink:href="#CMR17-74" transform="translate(285.193282 0)scale(0.996264)"/>
    <use xlink:href="#CMR17-6f" transform="translate(320.474049 0)scale(0.996264)"/>
    <use xlink:href="#CMR17-72" transform="translate(366.164526 0)scale(0.996264)"/>
    <use xlink:href="#CMR17-6f" transform="translate(431.521261 0)scale(0.996264)"/>
    <use xlink:href="#CMR17-70" transform="translate(477.211738 0)scale(0.996264)"/>
    <use xlink:href="#CMR17-61" transform="translate(528.107108 0)scale(0.996264)"/>
    <use xlink:href="#CMR17-72" transform="translate(573.797585 0)scale(0.996264)"/>
    <use xlink:href="#CMR17-74" transform="translate(609.078352 0)scale(0.996264)"/>
    <use xlink:href="#CMR17-79" transform="translate(641.756666 0)scale(0.996264)"/>
    <use xlink:href="#CMR17-6e" transform="translate(720.125548 0)scale(0.996264)"/>
    <use xlink:href="#CMR17-61" transform="translate(771.020918 0)scale(0.996264)"/>
    <use xlink:href="#CMR17-77" transform="translate(846.787362 0)scale(0.996264)"/>
    <use xlink:href="#CMR17-79" transform="translate(913.297242 0)scale(0.996264)"/>
    <use xlink:href="#CMR17-7a" transform="translate(961.590158 0)scale(0.996264)"/>
    <use xlink:href="#CMR17-6e" transform="translate(1002.075819 0)scale(0.996264)"/>
    <use xlink:href="#CMR17-61" transform="translate(1052.971188 0)scale(0.996264)"/>
    <use xlink:href="#CMR17-63" transform="translate(1098.661665 0)scale(0.996264)"/>
    <use xlink:href="#CMR17-7a" transform="translate(1139.147326 0)scale(0.996264)"/>
    <use xlink:href="#CMR17-61" transform="translate(1179.632986 0)scale(0.996264)"/>
    <use xlink:href="#CMR17-6e" transform="translate(1225.323464 0)scale(0.996264)"/>
    <use xlink:href="#CMR17-69" transform="translate(1276.218833 0)scale(0.996264)"/>
    <use xlink:href="#CMR17-75" transform="translate(1301.089892 0)scale(0.996264)"/>
    <use xlink:href="#CMR17-63" transform="translate(1382.061228 0)scale(0.996264)"/>
    <use xlink:href="#CMR17-65" transform="translate(1422.546888 0)scale(0.996264)"/>
    <use xlink:href="#CMR17-6c" transform="translate(1463.032549 0)scale(0.996264)"/>
    <use xlink:href="#CMR17-75" transform="translate(1487.903607 0)scale(0.996264)"/>
    <use xlink:href="#CMR17-70" transform="translate(1568.874943 0)scale(0.996264)"/>
    <use xlink:href="#CMR17-6f" transform="translate(1622.372752 0)scale(0.996264)"/>
    <use xlink:href="#CMR17-64" transform="translate(1670.665668 0)scale(0.996264)"/>
    <use xlink:href="#CMR17-72" transform="translate(1721.561038 0)scale(0.996264)"/>
    <use xlink:href="#CMR17-13" transform="translate(1756.841805 0)scale(0.996264)"/>
    <use xlink:href="#CMR17-6f" transform="translate(1756.841805 0)scale(0.996264)"/>
    <use xlink:href="#CMR17-5f" transform="translate(1810.339583 0)scale(0.996264)"/>
    <use xlink:href="#CMR17-7a" transform="translate(1802.532283 0)scale(0.996264)"/>
    <use xlink:href="#CMR17-79" transform="translate(1843.017943 0)scale(0.996264)"/>
   </g>
  </g>
 </g>
 <defs>
  <clipPath id="p10690ebb90">
   <rect x="28.133908" y="42.667123" width="212.526929" height="202.968539"/>
  </clipPath>
  <clipPath id="p7e6e279964">
   <rect x="286.755955" y="42.667123" width="212.526929" height="202.968539"/>
  </clipPath>
 </defs>
</svg>
