<?xml version="1.0" encoding="utf-8" standalone="no"?>
<!DOCTYPE svg PUBLIC "-//W3C//DTD SVG 1.1//EN"
  "http://www.w3.org/Graphics/SVG/1.1/DTD/svg11.dtd">
<svg xmlns:xlink="http://www.w3.org/1999/xlink" width="554.95819pt" height="493.68979pt" viewBox="0 0 554.95819 493.68979" xmlns="http://www.w3.org/2000/svg" version="1.1">
 <metadata>
  <rdf:RDF xmlns:dc="http://purl.org/dc/elements/1.1/" xmlns:cc="http://creativecommons.org/ns#" xmlns:rdf="http://www.w3.org/1999/02/22-rdf-syntax-ns#">
   <cc:Work>
    <dc:type rdf:resource="http://purl.org/dc/dcmitype/StillImage"/>
    <dc:date>2022-08-31T17:35:03.141490</dc:date>
    <dc:format>image/svg+xml</dc:format>
    <dc:creator>
     <cc:Agent>
      <dc:title>Matplotlib v3.5.1, https://matplotlib.org/</dc:title>
     </cc:Agent>
    </dc:creator>
   </cc:Work>
  </rdf:RDF>
 </metadata>
 <defs>
  <style type="text/css">*{stroke-linejoin: round; stroke-linecap: butt}</style>
 </defs>
 <g id="figure_1">
  <g id="patch_1">
   <path d="M 0 493.68979 
L 554.95819 493.68979 
L 554.95819 0 
L 0 0 
z
" style="fill: #ffffff"/>
  </g>
  <g id="axes_1">
   <g id="patch_2">
    <path d="M 7.2 231.96979 
L 264.43819 231.96979 
L 264.43819 21.50218 
L 7.2 21.50218 
z
" style="fill: #ffffff"/>
   </g>
   <g id="line2d_1">
    <path d="M 64.370089 149.19855 
L 79.706197 105.520745 
" clip-path="url(#pc0f99029ef)" style="fill: none; stroke: #808080; stroke-linecap: square"/>
   </g>
   <g id="line2d_2">
    <path d="M 64.370089 149.19855 
L 56.983833 116.808695 
" clip-path="url(#pc0f99029ef)" style="fill: none; stroke: #808080; stroke-linecap: square"/>
   </g>
   <g id="line2d_3">
    <path d="M 64.370089 149.19855 
L 53.981431 173.704358 
" clip-path="url(#pc0f99029ef)" style="fill: none; stroke: #808080; stroke-linecap: square"/>
   </g>
   <g id="line2d_4">
    <path d="M 64.370089 149.19855 
L 94.642814 157.126561 
" clip-path="url(#pc0f99029ef)" style="fill: none; stroke: #808080; stroke-linecap: square"/>
   </g>
   <g id="line2d_5">
    <path d="M 79.706197 105.520745 
L 56.983833 116.808695 
" clip-path="url(#pc0f99029ef)" style="fill: none; stroke: #808080; stroke-linecap: square"/>
   </g>
   <g id="line2d_6">
    <path d="M 53.981431 173.704358 
L 94.642814 157.126561 
" clip-path="url(#pc0f99029ef)" style="fill: none; stroke: #808080; stroke-linecap: square"/>
   </g>
   <g id="line2d_7">
    <path d="M 110.09869 175.655182 
L 94.642814 157.126561 
" clip-path="url(#pc0f99029ef)" style="fill: none; stroke: #808080; stroke-linecap: square"/>
   </g>
   <g id="line2d_8">
    <path d="M 219.835426 72.457429 
L 211.944388 81.767534 
" clip-path="url(#pc0f99029ef)" style="fill: none; stroke: #808080; stroke-linecap: square"/>
   </g>
   <g id="line2d_9">
    <path d="M 219.835426 72.457429 
L 202.128529 34.020442 
" clip-path="url(#pc0f99029ef)" style="fill: none; stroke: #808080; stroke-linecap: square"/>
   </g>
   <g id="line2d_10">
    <path d="M 219.835426 72.457429 
L 208.68235 112.248494 
" clip-path="url(#pc0f99029ef)" style="fill: none; stroke: #808080; stroke-linecap: square"/>
   </g>
   <g id="line2d_11">
    <path d="M 219.835426 72.457429 
L 181.476032 54.282358 
" clip-path="url(#pc0f99029ef)" style="fill: none; stroke: #808080; stroke-linecap: square"/>
   </g>
   <g id="line2d_12">
    <path d="M 211.944388 81.767534 
L 208.68235 112.248494 
" clip-path="url(#pc0f99029ef)" style="fill: none; stroke: #808080; stroke-linecap: square"/>
   </g>
   <g id="line2d_13">
    <path d="M 211.944388 81.767534 
L 181.476032 54.282358 
" clip-path="url(#pc0f99029ef)" style="fill: none; stroke: #808080; stroke-linecap: square"/>
   </g>
   <g id="line2d_14">
    <path d="M 202.128529 34.020442 
L 181.476032 54.282358 
" clip-path="url(#pc0f99029ef)" style="fill: none; stroke: #808080; stroke-linecap: square"/>
   </g>
   <g id="line2d_15">
    <path d="M 181.476032 54.282358 
L 156.61934 85.707815 
" clip-path="url(#pc0f99029ef)" style="fill: none; stroke: #808080; stroke-linecap: square"/>
   </g>
   <g id="PathCollection_1">
    <defs>
     <path id="mbc54b8e892" d="M 0 3 
C 0.795609 3 1.55874 2.683901 2.12132 2.12132 
C 2.683901 1.55874 3 0.795609 3 0 
C 3 -0.795609 2.683901 -1.55874 2.12132 -2.12132 
C 1.55874 -2.683901 0.795609 -3 0 -3 
C -0.795609 -3 -1.55874 -2.683901 -2.12132 -2.12132 
C -2.683901 -1.55874 -3 -0.795609 -3 0 
C -3 0.795609 -2.683901 1.55874 -2.12132 2.12132 
C -1.55874 2.683901 -0.795609 3 0 3 
z
" style="stroke: #0000ff"/>
    </defs>
    <g clip-path="url(#pc0f99029ef)">
     <use xlink:href="#mbc54b8e892" x="64.370089" y="149.19855" style="fill: #0000ff; stroke: #0000ff"/>
    </g>
   </g>
   <g id="PathCollection_2">
    <defs>
     <path id="mc8830128f7" d="M -2.99994 2.99994 
L 3.00006 2.99994 
L 3.00006 -3.00006 
L -2.99994 -3.00006 
z
" style="stroke: #0000ff"/>
    </defs>
    <g clip-path="url(#pc0f99029ef)">
     <use xlink:href="#mc8830128f7" x="79.706197" y="105.520745" style="fill: #0000ff; stroke: #0000ff"/>
    </g>
   </g>
   <g id="PathCollection_3">
    <defs>
     <path id="me70f4eaa18" d="M 0 -3 
L -3 3 
L 3 3 
z
" style="stroke: #0000ff"/>
    </defs>
    <g clip-path="url(#pc0f99029ef)">
     <use xlink:href="#me70f4eaa18" x="56.983833" y="116.808695" style="fill: #0000ff; stroke: #0000ff"/>
    </g>
   </g>
   <g id="PathCollection_4">
    <g clip-path="url(#pc0f99029ef)">
     <use xlink:href="#mbc54b8e892" x="53.981431" y="173.704358" style="fill: #0000ff; stroke: #0000ff"/>
    </g>
   </g>
   <g id="PathCollection_5">
    <g clip-path="url(#pc0f99029ef)">
     <use xlink:href="#mc8830128f7" x="110.09869" y="175.655182" style="fill: #0000ff; stroke: #0000ff"/>
    </g>
   </g>
   <g id="PathCollection_6">
    <g clip-path="url(#pc0f99029ef)">
     <use xlink:href="#me70f4eaa18" x="94.642814" y="157.126561" style="fill: #0000ff; stroke: #0000ff"/>
    </g>
   </g>
   <g id="PathCollection_7">
    <g clip-path="url(#pc0f99029ef)">
     <use xlink:href="#mbc54b8e892" x="219.835426" y="72.457429" style="fill: #0000ff; stroke: #0000ff"/>
    </g>
   </g>
   <g id="PathCollection_8">
    <g clip-path="url(#pc0f99029ef)">
     <use xlink:href="#mc8830128f7" x="211.944388" y="81.767534" style="fill: #0000ff; stroke: #0000ff"/>
    </g>
   </g>
   <g id="PathCollection_9">
    <g clip-path="url(#pc0f99029ef)">
     <use xlink:href="#me70f4eaa18" x="202.128529" y="34.020442" style="fill: #0000ff; stroke: #0000ff"/>
    </g>
   </g>
   <g id="PathCollection_10">
    <g clip-path="url(#pc0f99029ef)">
     <use xlink:href="#me70f4eaa18" x="162.53065" y="202.657884" style="fill: #0000ff; stroke: #0000ff"/>
    </g>
   </g>
   <g id="PathCollection_11">
    <g clip-path="url(#pc0f99029ef)">
     <use xlink:href="#me70f4eaa18" x="208.68235" y="112.248494" style="fill: #0000ff; stroke: #0000ff"/>
    </g>
   </g>
   <g id="PathCollection_12">
    <defs>
     <path id="m2a4b763021" d="M -3 0 
L 3 0 
M 0 3 
L 0 -3 
" style="stroke: #0000ff"/>
    </defs>
    <g clip-path="url(#pc0f99029ef)">
     <use xlink:href="#m2a4b763021" x="181.476032" y="54.282358" style="fill: #0000ff; stroke: #0000ff"/>
    </g>
   </g>
   <g id="PathCollection_13">
    <g clip-path="url(#pc0f99029ef)">
     <use xlink:href="#m2a4b763021" x="156.61934" y="85.707815" style="fill: #0000ff; stroke: #0000ff"/>
    </g>
   </g>
   <g id="matplotlib.axis_1">
    <g id="xtick_1"/>
    <g id="xtick_2"/>
    <g id="xtick_3"/>
    <g id="xtick_4"/>
   </g>
   <g id="matplotlib.axis_2">
    <g id="ytick_1"/>
    <g id="ytick_2"/>
    <g id="ytick_3"/>
    <g id="ytick_4"/>
    <g id="ytick_5"/>
    <g id="ytick_6"/>
    <g id="ytick_7"/>
    <g id="ytick_8"/>
    <g id="ytick_9"/>
    <g id="ytick_10"/>
   </g>
   <g id="patch_3">
    <path d="M 7.2 231.96979 
L 7.2 21.50218 
" style="fill: none; stroke: #000000; stroke-width: 0.8; stroke-linejoin: miter; stroke-linecap: square"/>
   </g>
   <g id="patch_4">
    <path d="M 264.43819 231.96979 
L 264.43819 21.50218 
" style="fill: none; stroke: #000000; stroke-width: 0.8; stroke-linejoin: miter; stroke-linecap: square"/>
   </g>
   <g id="patch_5">
    <path d="M 7.2 231.96979 
L 264.43819 231.96979 
" style="fill: none; stroke: #000000; stroke-width: 0.8; stroke-linejoin: miter; stroke-linecap: square"/>
   </g>
   <g id="patch_6">
    <path d="M 7.2 21.50218 
L 264.43819 21.50218 
" style="fill: none; stroke: #000000; stroke-width: 0.8; stroke-linejoin: miter; stroke-linecap: square"/>
   </g>
   <g id="text_1">
    <!-- A.0 -->
    <g transform="translate(74.669938 152.844772)scale(0.12 -0.12)">
     <defs>
      <path id="CMR17-41" d="M 2323 4378 
C 2291 4461 2278 4480 2214 4480 
C 2150 4480 2138 4461 2106 4378 
L 749 566 
C 627 223 371 153 147 153 
L 147 -13 
C 262 0 518 0 640 0 
C 800 0 1056 0 1210 -13 
L 1210 153 
C 909 153 864 361 864 439 
C 864 497 877 530 890 569 
L 1229 1536 
L 2906 1536 
L 3290 442 
C 3322 365 3322 352 3322 327 
C 3322 153 3046 153 2925 153 
L 2925 0 
C 3110 0 3443 0 3642 0 
C 3808 0 4128 0 4282 -13 
L 4282 153 
C 3942 153 3827 153 3744 387 
L 2323 4378 
z
M 2067 3893 
L 2848 1702 
L 1286 1702 
L 2067 3893 
z
" transform="scale(0.015625)"/>
      <path id="CMR17-2e" d="M 1062 261 
C 1062 420 934 522 800 522 
C 672 522 538 420 538 261 
C 538 102 666 0 800 0 
C 928 0 1062 102 1062 261 
z
" transform="scale(0.015625)"/>
      <path id="CMR17-30" d="M 2688 2025 
C 2688 2416 2682 3080 2413 3591 
C 2176 4039 1798 4198 1466 4198 
C 1158 4198 768 4058 525 3597 
C 269 3118 243 2524 243 2025 
C 243 1661 250 1106 448 619 
C 723 -39 1216 -128 1466 -128 
C 1760 -128 2208 -7 2470 600 
C 2662 1042 2688 1559 2688 2025 
z
M 1466 -26 
C 1056 -26 813 325 723 812 
C 653 1188 653 1738 653 2096 
C 653 2588 653 2997 736 3387 
C 858 3929 1216 4096 1466 4096 
C 1728 4096 2067 3923 2189 3400 
C 2272 3036 2278 2607 2278 2096 
C 2278 1680 2278 1169 2202 792 
C 2067 95 1690 -26 1466 -26 
z
" transform="scale(0.015625)"/>
     </defs>
     <use xlink:href="#CMR17-41" transform="scale(0.996264)"/>
     <use xlink:href="#CMR17-2e" transform="translate(69.07243 0)scale(0.996264)"/>
     <use xlink:href="#CMR17-30" transform="translate(93.943488 0)scale(0.996264)"/>
    </g>
   </g>
   <g id="text_2">
    <!-- B.0 -->
    <g transform="translate(89.308399 111.593512)scale(0.12 -0.12)">
     <defs>
      <path id="CMR17-42" d="M 333 4352 
L 333 4186 
C 774 4186 845 4186 845 3900 
L 845 452 
C 845 166 774 166 333 166 
L 333 0 
L 2534 0 
C 3354 0 3885 583 3885 1164 
C 3885 1741 3360 2233 2675 2233 
C 3290 2356 3718 2771 3718 3264 
C 3718 3802 3194 4352 2368 4352 
L 333 4352 
z
M 1248 2304 
L 1248 3937 
C 1248 4155 1261 4186 1517 4186 
L 2336 4186 
C 2970 4186 3251 3674 3251 3277 
C 3251 2791 2861 2304 2170 2304 
L 1248 2304 
z
M 1517 166 
C 1261 166 1248 197 1248 413 
L 1248 2202 
L 2432 2202 
C 3091 2202 3411 1625 3411 1162 
C 3411 699 3046 166 2349 166 
L 1517 166 
z
" transform="scale(0.015625)"/>
     </defs>
     <use xlink:href="#CMR17-42" transform="scale(0.996264)"/>
     <use xlink:href="#CMR17-2e" transform="translate(65.188754 0)scale(0.996264)"/>
     <use xlink:href="#CMR17-30" transform="translate(90.059813 0)scale(0.996264)"/>
    </g>
   </g>
   <g id="text_3">
    <!-- C.0 -->
    <g transform="translate(67.619057 122.254354)scale(0.12 -0.12)">
     <defs>
      <path id="CMR17-43" d="M 3974 4289 
C 3974 4403 3968 4410 3930 4410 
C 3904 4410 3898 4403 3853 4327 
L 3571 3792 
C 3258 4187 2874 4416 2381 4416 
C 1286 4416 294 3456 294 2148 
C 294 826 1286 -128 2387 -128 
C 3366 -128 3974 730 3974 1461 
C 3974 1524 3974 1550 3917 1550 
C 3866 1550 3866 1531 3859 1474 
C 3808 585 3168 38 2477 38 
C 1824 38 781 495 781 2147 
C 781 3805 1843 4250 2464 4250 
C 3187 4250 3712 3628 3834 2745 
C 3846 2668 3846 2655 3904 2655 
C 3974 2655 3974 2668 3974 2783 
L 3974 4289 
z
" transform="scale(0.015625)"/>
     </defs>
     <use xlink:href="#CMR17-43" transform="scale(0.996264)"/>
     <use xlink:href="#CMR17-2e" transform="translate(66.509881 0)scale(0.996264)"/>
     <use xlink:href="#CMR17-30" transform="translate(91.380939 0)scale(0.996264)"/>
    </g>
   </g>
   <g id="text_4">
    <!-- A.1 -->
    <g transform="translate(64.753492 175.989146)scale(0.12 -0.12)">
     <defs>
      <path id="CMR17-31" d="M 1702 4058 
C 1702 4192 1696 4192 1606 4192 
C 1357 3916 979 3827 621 3827 
C 602 3827 570 3827 563 3808 
C 557 3795 557 3782 557 3648 
C 755 3648 1088 3686 1344 3839 
L 1344 461 
C 1344 236 1331 160 781 160 
L 589 160 
L 589 0 
C 896 0 1216 0 1523 0 
C 1830 0 2150 0 2458 0 
L 2458 160 
L 2266 160 
C 1715 160 1702 230 1702 458 
L 1702 4058 
z
" transform="scale(0.015625)"/>
     </defs>
     <use xlink:href="#CMR17-41" transform="scale(0.996264)"/>
     <use xlink:href="#CMR17-2e" transform="translate(69.07243 0)scale(0.996264)"/>
     <use xlink:href="#CMR17-31" transform="translate(93.943488 0)scale(0.996264)"/>
    </g>
   </g>
   <g id="text_5">
    <!-- B.1 -->
    <g transform="translate(118.319415 177.831591)scale(0.12 -0.12)">
     <use xlink:href="#CMR17-42" transform="scale(0.996264)"/>
     <use xlink:href="#CMR17-2e" transform="translate(65.188754 0)scale(0.996264)"/>
     <use xlink:href="#CMR17-31" transform="translate(90.059813 0)scale(0.996264)"/>
    </g>
   </g>
   <g id="text_6">
    <!-- C.1 -->
    <g transform="translate(103.566266 160.332338)scale(0.12 -0.12)">
     <use xlink:href="#CMR17-43" transform="scale(0.996264)"/>
     <use xlink:href="#CMR17-2e" transform="translate(66.509881 0)scale(0.996264)"/>
     <use xlink:href="#CMR17-31" transform="translate(91.380939 0)scale(0.996264)"/>
    </g>
   </g>
   <g id="text_7">
    <!-- A.2 -->
    <g transform="translate(223.068669 80.367047)scale(0.12 -0.12)">
     <defs>
      <path id="CMR17-32" d="M 2669 989 
L 2554 989 
C 2490 536 2438 459 2413 420 
C 2381 369 1920 369 1830 369 
L 602 369 
C 832 619 1280 1072 1824 1597 
C 2214 1967 2669 2402 2669 3035 
C 2669 3790 2067 4224 1395 4224 
C 691 4224 262 3604 262 3030 
C 262 2780 448 2748 525 2748 
C 589 2748 781 2787 781 3010 
C 781 3207 614 3264 525 3264 
C 486 3264 448 3258 422 3245 
C 544 3790 915 4058 1306 4058 
C 1862 4058 2227 3617 2227 3035 
C 2227 2479 1901 2000 1536 1584 
L 262 146 
L 262 0 
L 2515 0 
L 2669 989 
z
" transform="scale(0.015625)"/>
     </defs>
     <use xlink:href="#CMR17-41" transform="scale(0.996264)"/>
     <use xlink:href="#CMR17-2e" transform="translate(69.07243 0)scale(0.996264)"/>
     <use xlink:href="#CMR17-32" transform="translate(93.943488 0)scale(0.996264)"/>
    </g>
   </g>
   <g id="text_8">
    <!-- B.2 -->
    <g transform="translate(215.535763 99.316303)scale(0.12 -0.12)">
     <use xlink:href="#CMR17-42" transform="scale(0.996264)"/>
     <use xlink:href="#CMR17-2e" transform="translate(65.188754 0)scale(0.996264)"/>
     <use xlink:href="#CMR17-32" transform="translate(90.059813 0)scale(0.996264)"/>
    </g>
   </g>
   <g id="text_9">
    <!-- C.2 -->
    <g transform="translate(206.166266 44.065449)scale(0.12 -0.12)">
     <use xlink:href="#CMR17-43" transform="scale(0.996264)"/>
     <use xlink:href="#CMR17-2e" transform="translate(66.509881 0)scale(0.996264)"/>
     <use xlink:href="#CMR17-32" transform="translate(91.380939 0)scale(0.996264)"/>
    </g>
   </g>
   <g id="text_10">
    <!-- C.3 -->
    <g transform="translate(168.368291 203.334143)scale(0.12 -0.12)">
     <defs>
      <path id="CMR17-33" d="M 1414 2157 
C 1984 2157 2234 1662 2234 1090 
C 2234 320 1824 25 1453 25 
C 1114 25 563 194 390 693 
C 422 680 454 680 486 680 
C 640 680 755 782 755 948 
C 755 1133 614 1216 486 1216 
C 378 1216 211 1165 211 926 
C 211 335 787 -128 1466 -128 
C 2176 -128 2720 430 2720 1085 
C 2720 1707 2208 2157 1600 2227 
C 2086 2328 2554 2756 2554 3329 
C 2554 3820 2048 4179 1472 4179 
C 890 4179 378 3829 378 3329 
C 378 3110 544 3072 627 3072 
C 762 3072 877 3155 877 3321 
C 877 3486 762 3569 627 3569 
C 602 3569 570 3569 544 3557 
C 730 3959 1235 4032 1459 4032 
C 1683 4032 2106 3925 2106 3320 
C 2106 3143 2080 2828 1862 2550 
C 1670 2304 1453 2304 1242 2284 
C 1210 2284 1062 2269 1037 2269 
C 992 2263 966 2257 966 2208 
C 966 2163 973 2157 1101 2157 
L 1414 2157 
z
" transform="scale(0.015625)"/>
     </defs>
     <use xlink:href="#CMR17-43" transform="scale(0.996264)"/>
     <use xlink:href="#CMR17-2e" transform="translate(66.509881 0)scale(0.996264)"/>
     <use xlink:href="#CMR17-33" transform="translate(91.380939 0)scale(0.996264)"/>
    </g>
   </g>
   <g id="text_11">
    <!-- C.4 -->
    <g transform="translate(212.422187 117.947497)scale(0.12 -0.12)">
     <defs>
      <path id="CMR17-34" d="M 2150 4122 
C 2150 4256 2144 4256 2029 4256 
L 128 1254 
L 128 1088 
L 1779 1088 
L 1779 457 
C 1779 224 1766 160 1318 160 
L 1197 160 
L 1197 0 
C 1402 0 1747 0 1965 0 
C 2182 0 2528 0 2733 0 
L 2733 160 
L 2611 160 
C 2163 160 2150 224 2150 457 
L 2150 1088 
L 2803 1088 
L 2803 1254 
L 2150 1254 
L 2150 4122 
z
M 1798 3703 
L 1798 1254 
L 256 1254 
L 1798 3703 
z
" transform="scale(0.015625)"/>
     </defs>
     <use xlink:href="#CMR17-43" transform="scale(0.996264)"/>
     <use xlink:href="#CMR17-2e" transform="translate(66.509881 0)scale(0.996264)"/>
     <use xlink:href="#CMR17-34" transform="translate(91.380939 0)scale(0.996264)"/>
    </g>
   </g>
   <g id="text_12">
    <!-- D.0 -->
    <g transform="translate(186.453071 63.201702)scale(0.12 -0.12)">
     <defs>
      <path id="CMR17-44" d="M 333 4352 
L 333 4186 
C 774 4186 845 4186 845 3900 
L 845 452 
C 845 166 774 166 333 166 
L 333 0 
L 2368 0 
C 3398 0 4224 943 4224 2141 
C 4224 3346 3411 4352 2368 4352 
L 333 4352 
z
M 1523 166 
C 1267 166 1254 197 1254 414 
L 1254 3938 
C 1254 4155 1267 4186 1523 4186 
L 2240 4186 
C 2771 4186 3750 3874 3750 2141 
C 3750 1242 3488 879 3366 707 
C 3213 510 2848 166 2240 166 
L 1523 166 
z
" transform="scale(0.015625)"/>
     </defs>
     <use xlink:href="#CMR17-44" transform="scale(0.996264)"/>
     <use xlink:href="#CMR17-2e" transform="translate(70.393556 0)scale(0.996264)"/>
     <use xlink:href="#CMR17-30" transform="translate(95.264614 0)scale(0.996264)"/>
    </g>
   </g>
   <g id="text_13">
    <!-- D.1 -->
    <g transform="translate(162.726228 92.8813)scale(0.12 -0.12)">
     <use xlink:href="#CMR17-44" transform="scale(0.996264)"/>
     <use xlink:href="#CMR17-2e" transform="translate(70.393556 0)scale(0.996264)"/>
     <use xlink:href="#CMR17-31" transform="translate(95.264614 0)scale(0.996264)"/>
    </g>
   </g>
   <g id="text_14">
    <!-- moment czasowy: $0$ -->
    <g transform="translate(85.548412 15.50218)scale(0.12 -0.12)">
     <defs>
      <path id="CMR17-6d" d="M 4326 1933 
C 4326 2252 4269 2790 3507 2790 
C 3072 2790 2771 2496 2656 2151 
L 2650 2151 
C 2573 2676 2195 2790 1837 2790 
C 1331 2790 1069 2400 973 2144 
L 966 2144 
L 966 2790 
L 211 2720 
L 211 2554 
C 589 2554 646 2515 646 2208 
L 646 428 
C 646 184 621 153 211 153 
L 211 -13 
C 365 0 646 0 813 0 
C 979 0 1267 0 1421 -13 
L 1421 153 
C 1011 153 986 178 986 428 
L 986 1658 
C 986 2247 1344 2688 1792 2688 
C 2266 2688 2317 2266 2317 1958 
L 2317 428 
C 2317 184 2291 153 1882 153 
L 1882 -13 
C 2035 0 2317 0 2483 0 
C 2650 0 2938 0 3091 -13 
L 3091 153 
C 2682 153 2656 178 2656 428 
L 2656 1658 
C 2656 2247 3014 2688 3462 2688 
C 3936 2688 3987 2266 3987 1958 
L 3987 428 
C 3987 184 3962 153 3552 153 
L 3552 -13 
C 3706 0 3987 0 4154 0 
C 4320 0 4608 0 4762 -13 
L 4762 153 
C 4352 153 4326 178 4326 428 
L 4326 1933 
z
" transform="scale(0.015625)"/>
      <path id="CMR17-6f" d="M 2758 1356 
C 2758 2176 2163 2816 1466 2816 
C 768 2816 173 2176 173 1356 
C 173 551 768 -64 1466 -64 
C 2163 -64 2758 551 2758 1356 
z
M 1466 51 
C 1165 51 909 230 762 480 
C 602 767 582 1126 582 1408 
C 582 1677 595 2010 762 2298 
C 890 2509 1139 2714 1466 2714 
C 1754 2714 1997 2554 2150 2330 
C 2349 2029 2349 1607 2349 1408 
C 2349 1158 2336 775 2163 467 
C 1984 173 1709 51 1466 51 
z
" transform="scale(0.015625)"/>
      <path id="CMR17-65" d="M 2438 1472 
C 2464 1498 2464 1511 2464 1576 
C 2464 2238 2118 2816 1389 2816 
C 710 2816 173 2169 173 1383 
C 173 551 781 -64 1459 -64 
C 2176 -64 2458 607 2458 740 
C 2458 784 2419 784 2406 784 
C 2362 784 2355 771 2330 696 
C 2189 265 1837 51 1504 51 
C 1229 51 954 203 781 480 
C 582 803 582 1176 582 1472 
L 2438 1472 
z
M 589 1568 
C 634 2505 1126 2714 1382 2714 
C 1818 2714 2112 2297 2118 1568 
L 589 1568 
z
" transform="scale(0.015625)"/>
      <path id="CMR17-6e" d="M 2656 1933 
C 2656 2259 2592 2790 1837 2790 
C 1331 2790 1069 2400 973 2144 
L 966 2144 
L 966 2790 
L 211 2720 
L 211 2554 
C 589 2554 646 2515 646 2208 
L 646 428 
C 646 184 621 153 211 153 
L 211 -13 
C 365 0 646 0 813 0 
C 979 0 1267 0 1421 -13 
L 1421 153 
C 1011 153 986 178 986 428 
L 986 1658 
C 986 2247 1344 2688 1792 2688 
C 2266 2688 2317 2266 2317 1958 
L 2317 428 
C 2317 184 2291 153 1882 153 
L 1882 -13 
C 2035 0 2317 0 2483 0 
C 2650 0 2938 0 3091 -13 
L 3091 153 
C 2682 153 2656 178 2656 428 
L 2656 1933 
z
" transform="scale(0.015625)"/>
      <path id="CMR17-74" d="M 966 2560 
L 1862 2560 
L 1862 2725 
L 966 2725 
L 966 3904 
L 851 3904 
C 838 3245 614 2668 70 2668 
L 70 2560 
L 627 2560 
L 627 771 
C 627 650 627 -64 1370 -64 
C 1747 -64 1965 306 1965 777 
L 1965 1140 
L 1850 1140 
L 1850 783 
C 1850 344 1677 51 1408 51 
C 1222 51 966 178 966 758 
L 966 2560 
z
" transform="scale(0.015625)"/>
      <path id="CMR17-63" d="M 2234 2240 
C 2112 2240 1933 2240 1933 2017 
C 1933 1838 2080 1787 2163 1787 
C 2208 1787 2394 1807 2394 2024 
C 2394 2467 1958 2803 1466 2803 
C 787 2803 211 2178 211 1363 
C 211 516 813 -64 1466 -64 
C 2259 -64 2458 677 2458 748 
C 2458 774 2451 793 2406 793 
C 2362 793 2355 787 2330 703 
C 2163 180 1798 51 1523 51 
C 1114 51 621 427 621 1369 
C 621 2338 1094 2688 1472 2688 
C 1722 2688 2093 2573 2234 2240 
z
" transform="scale(0.015625)"/>
      <path id="CMR17-7a" d="M 2310 2605 
C 2362 2670 2362 2682 2362 2695 
C 2362 2752 2336 2752 2221 2752 
L 275 2752 
L 211 1760 
L 326 1760 
C 371 2381 442 2650 1178 2650 
L 1958 2650 
L 128 96 
C 128 0 134 0 269 0 
L 2291 0 
L 2381 1152 
L 2266 1152 
C 2214 442 2131 115 1350 115 
L 531 115 
L 2310 2605 
z
" transform="scale(0.015625)"/>
      <path id="CMR17-61" d="M 2304 1653 
C 2304 2072 2304 2294 2035 2543 
C 1798 2752 1523 2816 1306 2816 
C 800 2816 435 2407 435 1971 
C 435 1728 627 1728 666 1728 
C 749 1728 896 1778 896 1954 
C 896 2112 774 2181 666 2181 
C 640 2181 608 2174 589 2168 
C 723 2592 1069 2714 1293 2714 
C 1613 2714 1965 2429 1965 1885 
L 1965 1600 
C 1587 1600 1133 1549 774 1357 
C 371 1133 256 813 256 570 
C 256 77 832 -64 1171 -64 
C 1523 -64 1850 139 1990 511 
C 2003 233 2182 -18 2464 -18 
C 2598 -18 2938 70 2938 567 
L 2938 920 
L 2822 920 
L 2822 562 
C 2822 178 2650 128 2566 128 
C 2304 128 2304 458 2304 738 
L 2304 1653 
z
M 1965 870 
C 1965 317 1568 38 1216 38 
C 896 38 646 275 646 570 
C 646 761 730 1100 1101 1305 
C 1408 1478 1760 1504 1965 1504 
L 1965 870 
z
" transform="scale(0.015625)"/>
      <path id="CMR17-73" d="M 1978 2697 
C 1978 2813 1971 2819 1933 2819 
C 1907 2819 1901 2813 1824 2717 
C 1805 2691 1747 2626 1728 2601 
C 1523 2819 1235 2819 1126 2819 
C 416 2819 160 2447 160 2076 
C 160 1498 813 1365 998 1325 
C 1402 1243 1542 1217 1677 1101 
C 1760 1025 1901 884 1901 654 
C 1901 384 1747 38 1158 38 
C 602 38 403 460 288 1021 
C 269 1110 269 1117 218 1117 
C 166 1117 160 1110 160 983 
L 160 63 
C 160 -51 166 -58 205 -58 
C 237 -58 243 -51 275 0 
C 314 57 410 211 448 276 
C 576 103 800 -64 1158 -64 
C 1792 -64 2131 283 2131 784 
C 2131 1112 1958 1285 1875 1362 
C 1683 1561 1459 1606 1190 1657 
C 838 1735 390 1825 390 2217 
C 390 2383 480 2737 1126 2737 
C 1811 2737 1850 2094 1862 1888 
C 1869 1856 1901 1849 1920 1849 
C 1978 1849 1978 1869 1978 1978 
L 1978 2697 
z
" transform="scale(0.015625)"/>
      <path id="CMR17-77" d="M 3725 2183 
C 3853 2560 4109 2560 4205 2560 
L 4205 2732 
C 4077 2732 3949 2732 3821 2732 
C 3699 2732 3424 2732 3315 2738 
L 3315 2560 
C 3514 2560 3622 2445 3622 2286 
C 3622 2241 3610 2184 3597 2140 
L 2995 407 
L 2342 2275 
C 2330 2319 2310 2370 2310 2395 
C 2310 2560 2528 2560 2630 2560 
L 2630 2738 
C 2483 2732 2214 2732 2061 2732 
C 1901 2732 1734 2732 1587 2738 
L 1587 2560 
C 1939 2560 1939 2547 2074 2149 
L 1485 451 
L 851 2281 
C 819 2363 819 2376 819 2395 
C 819 2560 1037 2560 1139 2560 
L 1139 2738 
C 986 2732 717 2732 557 2732 
C 416 2732 198 2732 64 2738 
L 64 2560 
C 346 2560 416 2541 486 2331 
L 1274 49 
C 1299 -33 1318 -52 1370 -52 
C 1414 -52 1440 -39 1472 56 
L 2131 1980 
L 2797 56 
C 2829 -39 2854 -52 2899 -52 
C 2950 -52 2970 -33 2995 50 
L 3725 2183 
z
" transform="scale(0.015625)"/>
      <path id="CMR17-79" d="M 2496 2197 
C 2656 2586 2944 2586 3034 2586 
L 3034 2752 
C 2912 2752 2752 2752 2630 2752 
C 2496 2752 2285 2752 2157 2758 
L 2157 2592 
C 2400 2573 2406 2394 2406 2343 
C 2406 2280 2394 2248 2362 2171 
L 1664 449 
L 902 2306 
C 870 2382 870 2426 870 2433 
C 870 2573 1018 2586 1171 2586 
L 1171 2758 
C 1018 2752 742 2752 582 2752 
C 410 2752 205 2752 64 2758 
L 64 2586 
C 410 2586 448 2554 531 2350 
L 1485 15 
C 1197 -738 1030 -1178 627 -1178 
C 557 -1178 397 -1159 282 -1044 
C 429 -1031 493 -942 493 -833 
C 493 -725 416 -629 288 -629 
C 147 -629 77 -725 77 -840 
C 77 -1095 339 -1280 627 -1280 
C 998 -1280 1229 -922 1357 -604 
L 2496 2197 
z
" transform="scale(0.015625)"/>
      <path id="CMR17-3a" d="M 1062 2491 
C 1062 2650 934 2752 800 2752 
C 672 2752 538 2650 538 2491 
C 538 2332 666 2230 800 2230 
C 928 2230 1062 2332 1062 2491 
z
M 1062 261 
C 1062 420 934 522 800 522 
C 672 522 538 420 538 261 
C 538 102 666 0 800 0 
C 928 0 1062 102 1062 261 
z
" transform="scale(0.015625)"/>
     </defs>
     <use xlink:href="#CMR17-6d" transform="scale(0.996264)"/>
     <use xlink:href="#CMR17-6f" transform="translate(76.91959 0)scale(0.996264)"/>
     <use xlink:href="#CMR17-6d" transform="translate(122.610067 0)scale(0.996264)"/>
     <use xlink:href="#CMR17-65" transform="translate(199.529657 0)scale(0.996264)"/>
     <use xlink:href="#CMR17-6e" transform="translate(240.015317 0)scale(0.996264)"/>
     <use xlink:href="#CMR17-74" transform="translate(288.308233 0)scale(0.996264)"/>
     <use xlink:href="#CMR17-63" transform="translate(353.664967 0)scale(0.996264)"/>
     <use xlink:href="#CMR17-7a" transform="translate(394.150628 0)scale(0.996264)"/>
     <use xlink:href="#CMR17-61" transform="translate(434.636288 0)scale(0.996264)"/>
     <use xlink:href="#CMR17-73" transform="translate(480.326765 0)scale(0.996264)"/>
     <use xlink:href="#CMR17-6f" transform="translate(516.128103 0)scale(0.996264)"/>
     <use xlink:href="#CMR17-77" transform="translate(559.216126 0)scale(0.996264)"/>
     <use xlink:href="#CMR17-79" transform="translate(625.726007 0)scale(0.996264)"/>
     <use xlink:href="#CMR17-3a" transform="translate(674.018923 0)scale(0.996264)"/>
     <use xlink:href="#CMR17-30" transform="translate(739.375642 0)scale(0.996264)"/>
    </g>
   </g>
  </g>
  <g id="axes_2">
   <g id="patch_7">
    <path d="M 290.52 231.96979 
L 547.75819 231.96979 
L 547.75819 21.50218 
L 290.52 21.50218 
z
" style="fill: #ffffff"/>
   </g>
   <g id="line2d_16">
    <path d="M 357.511408 135.808706 
L 337.281179 107.603883 
" clip-path="url(#p487442ce1d)" style="fill: none; stroke: #808080; stroke-linecap: square"/>
   </g>
   <g id="line2d_17">
    <path d="M 357.511408 135.808706 
L 388.329174 157.376245 
" clip-path="url(#p487442ce1d)" style="fill: none; stroke: #808080; stroke-linecap: square"/>
   </g>
   <g id="line2d_18">
    <path d="M 357.511408 135.808706 
L 365.809853 155.815055 
" clip-path="url(#p487442ce1d)" style="fill: none; stroke: #808080; stroke-linecap: square"/>
   </g>
   <g id="line2d_19">
    <path d="M 347.508338 87.227917 
L 337.281179 107.603883 
" clip-path="url(#p487442ce1d)" style="fill: none; stroke: #808080; stroke-linecap: square"/>
   </g>
   <g id="line2d_20">
    <path d="M 337.102784 181.305828 
L 365.809853 155.815055 
" clip-path="url(#p487442ce1d)" style="fill: none; stroke: #808080; stroke-linecap: square"/>
   </g>
   <g id="line2d_21">
    <path d="M 388.329174 157.376245 
L 365.809853 155.815055 
" clip-path="url(#p487442ce1d)" style="fill: none; stroke: #808080; stroke-linecap: square"/>
   </g>
   <g id="line2d_22">
    <path d="M 509.851103 66.252025 
L 508.612501 79.980395 
" clip-path="url(#p487442ce1d)" style="fill: none; stroke: #808080; stroke-linecap: square"/>
   </g>
   <g id="line2d_23">
    <path d="M 509.851103 66.252025 
L 477.589142 39.62986 
" clip-path="url(#p487442ce1d)" style="fill: none; stroke: #808080; stroke-linecap: square"/>
   </g>
   <g id="line2d_24">
    <path d="M 509.851103 66.252025 
L 486.724407 94.316115 
" clip-path="url(#p487442ce1d)" style="fill: none; stroke: #808080; stroke-linecap: square"/>
   </g>
   <g id="line2d_25">
    <path d="M 508.612501 79.980395 
L 486.724407 94.316115 
" clip-path="url(#p487442ce1d)" style="fill: none; stroke: #808080; stroke-linecap: square"/>
   </g>
   <g id="line2d_26">
    <path d="M 486.724407 94.316115 
L 450.890753 109.924651 
" clip-path="url(#p487442ce1d)" style="fill: none; stroke: #808080; stroke-linecap: square"/>
   </g>
   <g id="line2d_27">
    <path d="M 441.202169 70.904798 
L 450.890753 109.924651 
" clip-path="url(#p487442ce1d)" style="fill: none; stroke: #808080; stroke-linecap: square"/>
   </g>
   <g id="PathCollection_14">
    <g clip-path="url(#p487442ce1d)">
     <use xlink:href="#mbc54b8e892" x="357.511408" y="135.808706" style="fill: #0000ff; stroke: #0000ff"/>
    </g>
   </g>
   <g id="PathCollection_15">
    <g clip-path="url(#p487442ce1d)">
     <use xlink:href="#mc8830128f7" x="347.508338" y="87.227917" style="fill: #0000ff; stroke: #0000ff"/>
    </g>
   </g>
   <g id="PathCollection_16">
    <g clip-path="url(#p487442ce1d)">
     <use xlink:href="#me70f4eaa18" x="337.281179" y="107.603883" style="fill: #0000ff; stroke: #0000ff"/>
    </g>
   </g>
   <g id="PathCollection_17">
    <g clip-path="url(#p487442ce1d)">
     <use xlink:href="#mbc54b8e892" x="337.102784" y="181.305828" style="fill: #0000ff; stroke: #0000ff"/>
    </g>
   </g>
   <g id="PathCollection_18">
    <g clip-path="url(#p487442ce1d)">
     <use xlink:href="#mc8830128f7" x="388.329174" y="157.376245" style="fill: #0000ff; stroke: #0000ff"/>
    </g>
   </g>
   <g id="PathCollection_19">
    <g clip-path="url(#p487442ce1d)">
     <use xlink:href="#me70f4eaa18" x="365.809853" y="155.815055" style="fill: #0000ff; stroke: #0000ff"/>
    </g>
   </g>
   <g id="PathCollection_20">
    <g clip-path="url(#p487442ce1d)">
     <use xlink:href="#mbc54b8e892" x="509.851103" y="66.252025" style="fill: #0000ff; stroke: #0000ff"/>
    </g>
   </g>
   <g id="PathCollection_21">
    <g clip-path="url(#p487442ce1d)">
     <use xlink:href="#mc8830128f7" x="508.612501" y="79.980395" style="fill: #0000ff; stroke: #0000ff"/>
    </g>
   </g>
   <g id="PathCollection_22">
    <g clip-path="url(#p487442ce1d)">
     <use xlink:href="#me70f4eaa18" x="477.589142" y="39.62986" style="fill: #0000ff; stroke: #0000ff"/>
    </g>
   </g>
   <g id="PathCollection_23">
    <g clip-path="url(#p487442ce1d)">
     <use xlink:href="#me70f4eaa18" x="464.546523" y="191.460212" style="fill: #0000ff; stroke: #0000ff"/>
    </g>
   </g>
   <g id="PathCollection_24">
    <g clip-path="url(#p487442ce1d)">
     <use xlink:href="#me70f4eaa18" x="486.724407" y="94.316115" style="fill: #0000ff; stroke: #0000ff"/>
    </g>
   </g>
   <g id="PathCollection_25">
    <g clip-path="url(#p487442ce1d)">
     <use xlink:href="#m2a4b763021" x="441.202169" y="70.904798" style="fill: #0000ff; stroke: #0000ff"/>
    </g>
   </g>
   <g id="PathCollection_26">
    <g clip-path="url(#p487442ce1d)">
     <use xlink:href="#m2a4b763021" x="450.890753" y="109.924651" style="fill: #0000ff; stroke: #0000ff"/>
    </g>
   </g>
   <g id="matplotlib.axis_3">
    <g id="xtick_5"/>
    <g id="xtick_6"/>
    <g id="xtick_7"/>
    <g id="xtick_8"/>
   </g>
   <g id="matplotlib.axis_4">
    <g id="ytick_11"/>
    <g id="ytick_12"/>
    <g id="ytick_13"/>
    <g id="ytick_14"/>
    <g id="ytick_15"/>
    <g id="ytick_16"/>
    <g id="ytick_17"/>
    <g id="ytick_18"/>
    <g id="ytick_19"/>
    <g id="ytick_20"/>
   </g>
   <g id="patch_8">
    <path d="M 290.52 231.96979 
L 290.52 21.50218 
" style="fill: none; stroke: #000000; stroke-width: 0.8; stroke-linejoin: miter; stroke-linecap: square"/>
   </g>
   <g id="patch_9">
    <path d="M 547.75819 231.96979 
L 547.75819 21.50218 
" style="fill: none; stroke: #000000; stroke-width: 0.8; stroke-linejoin: miter; stroke-linecap: square"/>
   </g>
   <g id="patch_10">
    <path d="M 290.52 231.96979 
L 547.75819 231.96979 
" style="fill: none; stroke: #000000; stroke-width: 0.8; stroke-linejoin: miter; stroke-linecap: square"/>
   </g>
   <g id="patch_11">
    <path d="M 290.52 21.50218 
L 547.75819 21.50218 
" style="fill: none; stroke: #000000; stroke-width: 0.8; stroke-linejoin: miter; stroke-linecap: square"/>
   </g>
   <g id="text_15">
    <!-- A.0 -->
    <g transform="translate(357.511408 140.198808)scale(0.12 -0.12)">
     <use xlink:href="#CMR17-41" transform="scale(0.996264)"/>
     <use xlink:href="#CMR17-2e" transform="translate(69.07243 0)scale(0.996264)"/>
     <use xlink:href="#CMR17-30" transform="translate(93.943488 0)scale(0.996264)"/>
    </g>
   </g>
   <g id="text_16">
    <!-- B.0 -->
    <g transform="translate(347.508338 94.316953)scale(0.12 -0.12)">
     <use xlink:href="#CMR17-42" transform="scale(0.996264)"/>
     <use xlink:href="#CMR17-2e" transform="translate(65.188754 0)scale(0.996264)"/>
     <use xlink:href="#CMR17-30" transform="translate(90.059813 0)scale(0.996264)"/>
    </g>
   </g>
   <g id="text_17">
    <!-- C.0 -->
    <g transform="translate(337.281179 113.56092)scale(0.12 -0.12)">
     <use xlink:href="#CMR17-43" transform="scale(0.996264)"/>
     <use xlink:href="#CMR17-2e" transform="translate(66.509881 0)scale(0.996264)"/>
     <use xlink:href="#CMR17-30" transform="translate(91.380939 0)scale(0.996264)"/>
    </g>
   </g>
   <g id="text_18">
    <!-- A.1 -->
    <g transform="translate(337.102784 183.168313)scale(0.12 -0.12)">
     <use xlink:href="#CMR17-41" transform="scale(0.996264)"/>
     <use xlink:href="#CMR17-2e" transform="translate(69.07243 0)scale(0.996264)"/>
     <use xlink:href="#CMR17-31" transform="translate(93.943488 0)scale(0.996264)"/>
    </g>
   </g>
   <g id="text_19">
    <!-- B.1 -->
    <g transform="translate(388.329174 160.568151)scale(0.12 -0.12)">
     <use xlink:href="#CMR17-42" transform="scale(0.996264)"/>
     <use xlink:href="#CMR17-2e" transform="translate(65.188754 0)scale(0.996264)"/>
     <use xlink:href="#CMR17-31" transform="translate(90.059813 0)scale(0.996264)"/>
    </g>
   </g>
   <g id="text_20">
    <!-- C.1 -->
    <g transform="translate(365.809853 159.093694)scale(0.12 -0.12)">
     <use xlink:href="#CMR17-43" transform="scale(0.996264)"/>
     <use xlink:href="#CMR17-2e" transform="translate(66.509881 0)scale(0.996264)"/>
     <use xlink:href="#CMR17-31" transform="translate(91.380939 0)scale(0.996264)"/>
    </g>
   </g>
   <g id="text_21">
    <!-- A.2 -->
    <g transform="translate(509.851103 74.506388)scale(0.12 -0.12)">
     <use xlink:href="#CMR17-41" transform="scale(0.996264)"/>
     <use xlink:href="#CMR17-2e" transform="translate(69.07243 0)scale(0.996264)"/>
     <use xlink:href="#CMR17-32" transform="translate(93.943488 0)scale(0.996264)"/>
    </g>
   </g>
   <g id="text_22">
    <!-- B.2 -->
    <g transform="translate(508.612501 87.47207)scale(0.12 -0.12)">
     <use xlink:href="#CMR17-42" transform="scale(0.996264)"/>
     <use xlink:href="#CMR17-2e" transform="translate(65.188754 0)scale(0.996264)"/>
     <use xlink:href="#CMR17-32" transform="translate(90.059813 0)scale(0.996264)"/>
    </g>
   </g>
   <g id="text_23">
    <!-- C.2 -->
    <g transform="translate(477.589142 49.363232)scale(0.12 -0.12)">
     <use xlink:href="#CMR17-43" transform="scale(0.996264)"/>
     <use xlink:href="#CMR17-2e" transform="translate(66.509881 0)scale(0.996264)"/>
     <use xlink:href="#CMR17-32" transform="translate(91.380939 0)scale(0.996264)"/>
    </g>
   </g>
   <g id="text_24">
    <!-- C.3 -->
    <g transform="translate(464.546523 192.758564)scale(0.12 -0.12)">
     <use xlink:href="#CMR17-43" transform="scale(0.996264)"/>
     <use xlink:href="#CMR17-2e" transform="translate(66.509881 0)scale(0.996264)"/>
     <use xlink:href="#CMR17-33" transform="translate(91.380939 0)scale(0.996264)"/>
    </g>
   </g>
   <g id="text_25">
    <!-- C.4 -->
    <g transform="translate(486.724407 101.011362)scale(0.12 -0.12)">
     <use xlink:href="#CMR17-43" transform="scale(0.996264)"/>
     <use xlink:href="#CMR17-2e" transform="translate(66.509881 0)scale(0.996264)"/>
     <use xlink:href="#CMR17-34" transform="translate(91.380939 0)scale(0.996264)"/>
    </g>
   </g>
   <g id="text_26">
    <!-- D.0 -->
    <g transform="translate(441.202169 78.900673)scale(0.12 -0.12)">
     <use xlink:href="#CMR17-44" transform="scale(0.996264)"/>
     <use xlink:href="#CMR17-2e" transform="translate(70.393556 0)scale(0.996264)"/>
     <use xlink:href="#CMR17-30" transform="translate(95.264614 0)scale(0.996264)"/>
    </g>
   </g>
   <g id="text_27">
    <!-- D.1 -->
    <g transform="translate(450.890753 115.752756)scale(0.12 -0.12)">
     <use xlink:href="#CMR17-44" transform="scale(0.996264)"/>
     <use xlink:href="#CMR17-2e" transform="translate(70.393556 0)scale(0.996264)"/>
     <use xlink:href="#CMR17-31" transform="translate(95.264614 0)scale(0.996264)"/>
    </g>
   </g>
   <g id="text_28">
    <!-- moment czasowy: $1$ -->
    <g transform="translate(368.868412 15.50218)scale(0.12 -0.12)">
     <use xlink:href="#CMR17-6d" transform="scale(0.996264)"/>
     <use xlink:href="#CMR17-6f" transform="translate(76.91959 0)scale(0.996264)"/>
     <use xlink:href="#CMR17-6d" transform="translate(122.610067 0)scale(0.996264)"/>
     <use xlink:href="#CMR17-65" transform="translate(199.529657 0)scale(0.996264)"/>
     <use xlink:href="#CMR17-6e" transform="translate(240.015317 0)scale(0.996264)"/>
     <use xlink:href="#CMR17-74" transform="translate(288.308233 0)scale(0.996264)"/>
     <use xlink:href="#CMR17-63" transform="translate(353.664967 0)scale(0.996264)"/>
     <use xlink:href="#CMR17-7a" transform="translate(394.150628 0)scale(0.996264)"/>
     <use xlink:href="#CMR17-61" transform="translate(434.636288 0)scale(0.996264)"/>
     <use xlink:href="#CMR17-73" transform="translate(480.326765 0)scale(0.996264)"/>
     <use xlink:href="#CMR17-6f" transform="translate(516.128103 0)scale(0.996264)"/>
     <use xlink:href="#CMR17-77" transform="translate(559.216126 0)scale(0.996264)"/>
     <use xlink:href="#CMR17-79" transform="translate(625.726007 0)scale(0.996264)"/>
     <use xlink:href="#CMR17-3a" transform="translate(674.018923 0)scale(0.996264)"/>
     <use xlink:href="#CMR17-31" transform="translate(739.375642 0)scale(0.996264)"/>
    </g>
   </g>
  </g>
  <g id="axes_3">
   <g id="patch_12">
    <path d="M 7.2 486.48979 
L 264.43819 486.48979 
L 264.43819 276.02218 
L 7.2 276.02218 
z
" style="fill: #ffffff"/>
   </g>
   <g id="line2d_28">
    <path d="M 76.364801 378.333443 
L 45.968274 359.937089 
" clip-path="url(#pbdb1726868)" style="fill: none; stroke: #808080; stroke-linecap: square"/>
   </g>
   <g id="line2d_29">
    <path d="M 76.364801 378.333443 
L 71.391791 415.625205 
" clip-path="url(#pbdb1726868)" style="fill: none; stroke: #808080; stroke-linecap: square"/>
   </g>
   <g id="line2d_30">
    <path d="M 76.364801 378.333443 
L 102.006257 372.157833 
" clip-path="url(#pbdb1726868)" style="fill: none; stroke: #808080; stroke-linecap: square"/>
   </g>
   <g id="line2d_31">
    <path d="M 76.364801 378.333443 
L 78.225534 388.161895 
" clip-path="url(#pbdb1726868)" style="fill: none; stroke: #808080; stroke-linecap: square"/>
   </g>
   <g id="line2d_32">
    <path d="M 41.812731 339.098656 
L 45.968274 359.937089 
" clip-path="url(#pbdb1726868)" style="fill: none; stroke: #808080; stroke-linecap: square"/>
   </g>
   <g id="line2d_33">
    <path d="M 45.968274 359.937089 
L 78.225534 388.161895 
" clip-path="url(#pbdb1726868)" style="fill: none; stroke: #808080; stroke-linecap: square"/>
   </g>
   <g id="line2d_34">
    <path d="M 71.391791 415.625205 
L 78.225534 388.161895 
" clip-path="url(#pbdb1726868)" style="fill: none; stroke: #808080; stroke-linecap: square"/>
   </g>
   <g id="line2d_35">
    <path d="M 102.006257 372.157833 
L 78.225534 388.161895 
" clip-path="url(#pbdb1726868)" style="fill: none; stroke: #808080; stroke-linecap: square"/>
   </g>
   <g id="line2d_36">
    <path d="M 230.877528 311.005182 
L 237.798381 325.758599 
" clip-path="url(#pbdb1726868)" style="fill: none; stroke: #808080; stroke-linecap: square"/>
   </g>
   <g id="line2d_37">
    <path d="M 230.877528 311.005182 
L 190.515125 301.116724 
" clip-path="url(#pbdb1726868)" style="fill: none; stroke: #808080; stroke-linecap: square"/>
   </g>
   <g id="line2d_38">
    <path d="M 230.877528 311.005182 
L 190.563685 334.409028 
" clip-path="url(#pbdb1726868)" style="fill: none; stroke: #808080; stroke-linecap: square"/>
   </g>
   <g id="line2d_39">
    <path d="M 190.515125 301.116724 
L 190.563685 334.409028 
" clip-path="url(#pbdb1726868)" style="fill: none; stroke: #808080; stroke-linecap: square"/>
   </g>
   <g id="line2d_40">
    <path d="M 190.563685 334.409028 
L 152.218638 353.665283 
" clip-path="url(#pbdb1726868)" style="fill: none; stroke: #808080; stroke-linecap: square"/>
   </g>
   <g id="line2d_41">
    <path d="M 152.218638 353.665283 
L 175.977554 385.176003 
" clip-path="url(#pbdb1726868)" style="fill: none; stroke: #808080; stroke-linecap: square"/>
   </g>
   <g id="PathCollection_27">
    <g clip-path="url(#pbdb1726868)">
     <use xlink:href="#mbc54b8e892" x="76.364801" y="378.333443" style="fill: #0000ff; stroke: #0000ff"/>
    </g>
   </g>
   <g id="PathCollection_28">
    <g clip-path="url(#pbdb1726868)">
     <use xlink:href="#mc8830128f7" x="41.812731" y="339.098656" style="fill: #0000ff; stroke: #0000ff"/>
    </g>
   </g>
   <g id="PathCollection_29">
    <g clip-path="url(#pbdb1726868)">
     <use xlink:href="#me70f4eaa18" x="45.968274" y="359.937089" style="fill: #0000ff; stroke: #0000ff"/>
    </g>
   </g>
   <g id="PathCollection_30">
    <g clip-path="url(#pbdb1726868)">
     <use xlink:href="#mbc54b8e892" x="71.391791" y="415.625205" style="fill: #0000ff; stroke: #0000ff"/>
    </g>
   </g>
   <g id="PathCollection_31">
    <g clip-path="url(#pbdb1726868)">
     <use xlink:href="#mc8830128f7" x="102.006257" y="372.157833" style="fill: #0000ff; stroke: #0000ff"/>
    </g>
   </g>
   <g id="PathCollection_32">
    <g clip-path="url(#pbdb1726868)">
     <use xlink:href="#me70f4eaa18" x="78.225534" y="388.161895" style="fill: #0000ff; stroke: #0000ff"/>
    </g>
   </g>
   <g id="PathCollection_33">
    <g clip-path="url(#pbdb1726868)">
     <use xlink:href="#mbc54b8e892" x="230.877528" y="311.005182" style="fill: #0000ff; stroke: #0000ff"/>
    </g>
   </g>
   <g id="PathCollection_34">
    <g clip-path="url(#pbdb1726868)">
     <use xlink:href="#mc8830128f7" x="237.798381" y="325.758599" style="fill: #0000ff; stroke: #0000ff"/>
    </g>
   </g>
   <g id="PathCollection_35">
    <g clip-path="url(#pbdb1726868)">
     <use xlink:href="#me70f4eaa18" x="190.515125" y="301.116724" style="fill: #0000ff; stroke: #0000ff"/>
    </g>
   </g>
   <g id="PathCollection_36">
    <g clip-path="url(#pbdb1726868)">
     <use xlink:href="#me70f4eaa18" x="181.647692" y="444.404102" style="fill: #0000ff; stroke: #0000ff"/>
    </g>
   </g>
   <g id="PathCollection_37">
    <g clip-path="url(#pbdb1726868)">
     <use xlink:href="#me70f4eaa18" x="190.563685" y="334.409028" style="fill: #0000ff; stroke: #0000ff"/>
    </g>
   </g>
   <g id="PathCollection_38">
    <g clip-path="url(#pbdb1726868)">
     <use xlink:href="#m2a4b763021" x="152.218638" y="353.665283" style="fill: #0000ff; stroke: #0000ff"/>
    </g>
   </g>
   <g id="PathCollection_39">
    <g clip-path="url(#pbdb1726868)">
     <use xlink:href="#m2a4b763021" x="175.977554" y="385.176003" style="fill: #0000ff; stroke: #0000ff"/>
    </g>
   </g>
   <g id="matplotlib.axis_5">
    <g id="xtick_9"/>
    <g id="xtick_10"/>
    <g id="xtick_11"/>
    <g id="xtick_12"/>
   </g>
   <g id="matplotlib.axis_6">
    <g id="ytick_21"/>
    <g id="ytick_22"/>
    <g id="ytick_23"/>
    <g id="ytick_24"/>
    <g id="ytick_25"/>
    <g id="ytick_26"/>
    <g id="ytick_27"/>
    <g id="ytick_28"/>
    <g id="ytick_29"/>
    <g id="ytick_30"/>
   </g>
   <g id="patch_13">
    <path d="M 7.2 486.48979 
L 7.2 276.02218 
" style="fill: none; stroke: #000000; stroke-width: 0.8; stroke-linejoin: miter; stroke-linecap: square"/>
   </g>
   <g id="patch_14">
    <path d="M 264.43819 486.48979 
L 264.43819 276.02218 
" style="fill: none; stroke: #000000; stroke-width: 0.8; stroke-linejoin: miter; stroke-linecap: square"/>
   </g>
   <g id="patch_15">
    <path d="M 7.2 486.48979 
L 264.43819 486.48979 
" style="fill: none; stroke: #000000; stroke-width: 0.8; stroke-linejoin: miter; stroke-linecap: square"/>
   </g>
   <g id="patch_16">
    <path d="M 7.2 276.02218 
L 264.43819 276.02218 
" style="fill: none; stroke: #000000; stroke-width: 0.8; stroke-linejoin: miter; stroke-linecap: square"/>
   </g>
   <g id="text_29">
    <!-- A.0 -->
    <g transform="translate(69.051762 376.008848)scale(0.12 -0.12)">
     <use xlink:href="#CMR17-41" transform="scale(0.996264)"/>
     <use xlink:href="#CMR17-2e" transform="translate(69.07243 0)scale(0.996264)"/>
     <use xlink:href="#CMR17-30" transform="translate(93.943488 0)scale(0.996264)"/>
    </g>
   </g>
   <g id="text_30">
    <!-- B.0 -->
    <g transform="translate(53.137363 336.77406)scale(0.12 -0.12)">
     <use xlink:href="#CMR17-42" transform="scale(0.996264)"/>
     <use xlink:href="#CMR17-2e" transform="translate(65.188754 0)scale(0.996264)"/>
     <use xlink:href="#CMR17-30" transform="translate(90.059813 0)scale(0.996264)"/>
    </g>
   </g>
   <g id="text_31">
    <!-- C.0 -->
    <g transform="translate(57.104205 357.612493)scale(0.12 -0.12)">
     <use xlink:href="#CMR17-43" transform="scale(0.996264)"/>
     <use xlink:href="#CMR17-2e" transform="translate(66.509881 0)scale(0.996264)"/>
     <use xlink:href="#CMR17-30" transform="translate(91.380939 0)scale(0.996264)"/>
    </g>
   </g>
   <g id="text_32">
    <!-- A.1 -->
    <g transform="translate(81.372472 413.300609)scale(0.12 -0.12)">
     <use xlink:href="#CMR17-41" transform="scale(0.996264)"/>
     <use xlink:href="#CMR17-2e" transform="translate(69.07243 0)scale(0.996264)"/>
     <use xlink:href="#CMR17-31" transform="translate(93.943488 0)scale(0.996264)"/>
    </g>
   </g>
   <g id="text_33">
    <!-- B.1 -->
    <g transform="translate(110.59482 369.833237)scale(0.12 -0.12)">
     <use xlink:href="#CMR17-42" transform="scale(0.996264)"/>
     <use xlink:href="#CMR17-2e" transform="translate(65.188754 0)scale(0.996264)"/>
     <use xlink:href="#CMR17-31" transform="translate(90.059813 0)scale(0.996264)"/>
    </g>
   </g>
   <g id="text_34">
    <!-- C.1 -->
    <g transform="translate(87.895226 385.837299)scale(0.12 -0.12)">
     <use xlink:href="#CMR17-43" transform="scale(0.996264)"/>
     <use xlink:href="#CMR17-2e" transform="translate(66.509881 0)scale(0.996264)"/>
     <use xlink:href="#CMR17-31" transform="translate(91.380939 0)scale(0.996264)"/>
    </g>
   </g>
   <g id="text_35">
    <!-- A.2 -->
    <g transform="translate(233.608857 308.680586)scale(0.12 -0.12)">
     <use xlink:href="#CMR17-41" transform="scale(0.996264)"/>
     <use xlink:href="#CMR17-2e" transform="translate(69.07243 0)scale(0.996264)"/>
     <use xlink:href="#CMR17-32" transform="translate(93.943488 0)scale(0.996264)"/>
    </g>
   </g>
   <g id="text_36">
    <!-- B.2 -->
    <g transform="translate(240.214574 323.434003)scale(0.12 -0.12)">
     <use xlink:href="#CMR17-42" transform="scale(0.996264)"/>
     <use xlink:href="#CMR17-2e" transform="translate(65.188754 0)scale(0.996264)"/>
     <use xlink:href="#CMR17-32" transform="translate(90.059813 0)scale(0.996264)"/>
    </g>
   </g>
   <g id="text_37">
    <!-- C.2 -->
    <g transform="translate(195.080745 298.792128)scale(0.12 -0.12)">
     <use xlink:href="#CMR17-43" transform="scale(0.996264)"/>
     <use xlink:href="#CMR17-2e" transform="translate(66.509881 0)scale(0.996264)"/>
     <use xlink:href="#CMR17-32" transform="translate(91.380939 0)scale(0.996264)"/>
    </g>
   </g>
   <g id="text_38">
    <!-- C.3 -->
    <g transform="translate(186.616377 442.079506)scale(0.12 -0.12)">
     <use xlink:href="#CMR17-43" transform="scale(0.996264)"/>
     <use xlink:href="#CMR17-2e" transform="translate(66.509881 0)scale(0.996264)"/>
     <use xlink:href="#CMR17-33" transform="translate(91.380939 0)scale(0.996264)"/>
    </g>
   </g>
   <g id="text_39">
    <!-- C.4 -->
    <g transform="translate(195.127097 332.084433)scale(0.12 -0.12)">
     <use xlink:href="#CMR17-43" transform="scale(0.996264)"/>
     <use xlink:href="#CMR17-2e" transform="translate(66.509881 0)scale(0.996264)"/>
     <use xlink:href="#CMR17-34" transform="translate(91.380939 0)scale(0.996264)"/>
    </g>
   </g>
   <g id="text_40">
    <!-- D.0 -->
    <g transform="translate(158.525558 351.340687)scale(0.12 -0.12)">
     <use xlink:href="#CMR17-44" transform="scale(0.996264)"/>
     <use xlink:href="#CMR17-2e" transform="translate(70.393556 0)scale(0.996264)"/>
     <use xlink:href="#CMR17-30" transform="translate(95.264614 0)scale(0.996264)"/>
    </g>
   </g>
   <g id="text_41">
    <!-- D.1 -->
    <g transform="translate(181.204524 382.851407)scale(0.12 -0.12)">
     <use xlink:href="#CMR17-44" transform="scale(0.996264)"/>
     <use xlink:href="#CMR17-2e" transform="translate(70.393556 0)scale(0.996264)"/>
     <use xlink:href="#CMR17-31" transform="translate(95.264614 0)scale(0.996264)"/>
    </g>
   </g>
   <g id="text_42">
    <!-- moment czasowy: $2$ -->
    <g transform="translate(85.548412 270.02218)scale(0.12 -0.12)">
     <use xlink:href="#CMR17-6d" transform="scale(0.996264)"/>
     <use xlink:href="#CMR17-6f" transform="translate(76.91959 0)scale(0.996264)"/>
     <use xlink:href="#CMR17-6d" transform="translate(122.610067 0)scale(0.996264)"/>
     <use xlink:href="#CMR17-65" transform="translate(199.529657 0)scale(0.996264)"/>
     <use xlink:href="#CMR17-6e" transform="translate(240.015317 0)scale(0.996264)"/>
     <use xlink:href="#CMR17-74" transform="translate(288.308233 0)scale(0.996264)"/>
     <use xlink:href="#CMR17-63" transform="translate(353.664967 0)scale(0.996264)"/>
     <use xlink:href="#CMR17-7a" transform="translate(394.150628 0)scale(0.996264)"/>
     <use xlink:href="#CMR17-61" transform="translate(434.636288 0)scale(0.996264)"/>
     <use xlink:href="#CMR17-73" transform="translate(480.326765 0)scale(0.996264)"/>
     <use xlink:href="#CMR17-6f" transform="translate(516.128103 0)scale(0.996264)"/>
     <use xlink:href="#CMR17-77" transform="translate(559.216126 0)scale(0.996264)"/>
     <use xlink:href="#CMR17-79" transform="translate(625.726007 0)scale(0.996264)"/>
     <use xlink:href="#CMR17-3a" transform="translate(674.018923 0)scale(0.996264)"/>
     <use xlink:href="#CMR17-32" transform="translate(739.375642 0)scale(0.996264)"/>
    </g>
   </g>
  </g>
  <g id="axes_4">
   <g id="patch_17">
    <path d="M 290.52 486.48979 
L 547.75819 486.48979 
L 547.75819 276.02218 
L 290.52 276.02218 
z
" style="fill: #ffffff"/>
   </g>
   <g id="line2d_42">
    <path d="M 358.828455 370.132117 
L 323.537235 365.760319 
" clip-path="url(#paa8e8206a9)" style="fill: none; stroke: #808080; stroke-linecap: square"/>
   </g>
   <g id="line2d_43">
    <path d="M 358.828455 370.132117 
L 387.00904 377.89387 
" clip-path="url(#paa8e8206a9)" style="fill: none; stroke: #808080; stroke-linecap: square"/>
   </g>
   <g id="line2d_44">
    <path d="M 358.828455 370.132117 
L 369.305323 355.153476 
" clip-path="url(#paa8e8206a9)" style="fill: none; stroke: #808080; stroke-linecap: square"/>
   </g>
   <g id="line2d_45">
    <path d="M 308.294048 351.886937 
L 323.537235 365.760319 
" clip-path="url(#paa8e8206a9)" style="fill: none; stroke: #808080; stroke-linecap: square"/>
   </g>
   <g id="line2d_46">
    <path d="M 387.00904 377.89387 
L 369.305323 355.153476 
" clip-path="url(#paa8e8206a9)" style="fill: none; stroke: #808080; stroke-linecap: square"/>
   </g>
   <g id="line2d_47">
    <path d="M 387.707394 326.694198 
L 369.305323 355.153476 
" clip-path="url(#paa8e8206a9)" style="fill: none; stroke: #808080; stroke-linecap: square"/>
   </g>
   <g id="line2d_48">
    <path d="M 514.119924 298.733763 
L 529.006485 310.691398 
" clip-path="url(#paa8e8206a9)" style="fill: none; stroke: #808080; stroke-linecap: square"/>
   </g>
   <g id="line2d_49">
    <path d="M 514.119924 298.733763 
L 473.508339 307.267055 
" clip-path="url(#paa8e8206a9)" style="fill: none; stroke: #808080; stroke-linecap: square"/>
   </g>
   <g id="line2d_50">
    <path d="M 473.508339 307.267055 
L 455.581983 326.619599 
" clip-path="url(#paa8e8206a9)" style="fill: none; stroke: #808080; stroke-linecap: square"/>
   </g>
   <g id="line2d_51">
    <path d="M 450.836289 378.000636 
L 463.539541 398.276875 
" clip-path="url(#paa8e8206a9)" style="fill: none; stroke: #808080; stroke-linecap: square"/>
   </g>
   <g id="PathCollection_40">
    <g clip-path="url(#paa8e8206a9)">
     <use xlink:href="#mbc54b8e892" x="358.828455" y="370.132117" style="fill: #0000ff; stroke: #0000ff"/>
    </g>
   </g>
   <g id="PathCollection_41">
    <g clip-path="url(#paa8e8206a9)">
     <use xlink:href="#mc8830128f7" x="308.294048" y="351.886937" style="fill: #0000ff; stroke: #0000ff"/>
    </g>
   </g>
   <g id="PathCollection_42">
    <g clip-path="url(#paa8e8206a9)">
     <use xlink:href="#me70f4eaa18" x="323.537235" y="365.760319" style="fill: #0000ff; stroke: #0000ff"/>
    </g>
   </g>
   <g id="PathCollection_43">
    <g clip-path="url(#paa8e8206a9)">
     <use xlink:href="#mbc54b8e892" x="387.00904" y="377.89387" style="fill: #0000ff; stroke: #0000ff"/>
    </g>
   </g>
   <g id="PathCollection_44">
    <g clip-path="url(#paa8e8206a9)">
     <use xlink:href="#mc8830128f7" x="387.707394" y="326.694198" style="fill: #0000ff; stroke: #0000ff"/>
    </g>
   </g>
   <g id="PathCollection_45">
    <g clip-path="url(#paa8e8206a9)">
     <use xlink:href="#me70f4eaa18" x="369.305323" y="355.153476" style="fill: #0000ff; stroke: #0000ff"/>
    </g>
   </g>
   <g id="PathCollection_46">
    <g clip-path="url(#paa8e8206a9)">
     <use xlink:href="#mbc54b8e892" x="514.119924" y="298.733763" style="fill: #0000ff; stroke: #0000ff"/>
    </g>
   </g>
   <g id="PathCollection_47">
    <g clip-path="url(#paa8e8206a9)">
     <use xlink:href="#mc8830128f7" x="529.006485" y="310.691398" style="fill: #0000ff; stroke: #0000ff"/>
    </g>
   </g>
   <g id="PathCollection_48">
    <g clip-path="url(#paa8e8206a9)">
     <use xlink:href="#me70f4eaa18" x="473.508339" y="307.267055" style="fill: #0000ff; stroke: #0000ff"/>
    </g>
   </g>
   <g id="PathCollection_49">
    <g clip-path="url(#paa8e8206a9)">
     <use xlink:href="#me70f4eaa18" x="447.710073" y="454.526448" style="fill: #0000ff; stroke: #0000ff"/>
    </g>
   </g>
   <g id="PathCollection_50">
    <g clip-path="url(#paa8e8206a9)">
     <use xlink:href="#me70f4eaa18" x="455.581983" y="326.619599" style="fill: #0000ff; stroke: #0000ff"/>
    </g>
   </g>
   <g id="PathCollection_51">
    <g clip-path="url(#paa8e8206a9)">
     <use xlink:href="#m2a4b763021" x="450.836289" y="378.000636" style="fill: #0000ff; stroke: #0000ff"/>
    </g>
   </g>
   <g id="PathCollection_52">
    <g clip-path="url(#paa8e8206a9)">
     <use xlink:href="#m2a4b763021" x="463.539541" y="398.276875" style="fill: #0000ff; stroke: #0000ff"/>
    </g>
   </g>
   <g id="matplotlib.axis_7">
    <g id="xtick_13"/>
    <g id="xtick_14"/>
    <g id="xtick_15"/>
    <g id="xtick_16"/>
   </g>
   <g id="matplotlib.axis_8">
    <g id="ytick_31"/>
    <g id="ytick_32"/>
    <g id="ytick_33"/>
    <g id="ytick_34"/>
    <g id="ytick_35"/>
    <g id="ytick_36"/>
    <g id="ytick_37"/>
    <g id="ytick_38"/>
    <g id="ytick_39"/>
    <g id="ytick_40"/>
   </g>
   <g id="patch_18">
    <path d="M 290.52 486.48979 
L 290.52 276.02218 
" style="fill: none; stroke: #000000; stroke-width: 0.8; stroke-linejoin: miter; stroke-linecap: square"/>
   </g>
   <g id="patch_19">
    <path d="M 547.75819 486.48979 
L 547.75819 276.02218 
" style="fill: none; stroke: #000000; stroke-width: 0.8; stroke-linejoin: miter; stroke-linecap: square"/>
   </g>
   <g id="patch_20">
    <path d="M 290.52 486.48979 
L 547.75819 486.48979 
" style="fill: none; stroke: #000000; stroke-width: 0.8; stroke-linejoin: miter; stroke-linecap: square"/>
   </g>
   <g id="patch_21">
    <path d="M 290.52 276.02218 
L 547.75819 276.02218 
" style="fill: none; stroke: #000000; stroke-width: 0.8; stroke-linejoin: miter; stroke-linecap: square"/>
   </g>
   <g id="text_43">
    <!-- A.0 -->
    <g transform="translate(359.158109 366.974037)scale(0.12 -0.12)">
     <use xlink:href="#CMR17-41" transform="scale(0.996264)"/>
     <use xlink:href="#CMR17-2e" transform="translate(69.07243 0)scale(0.996264)"/>
     <use xlink:href="#CMR17-30" transform="translate(93.943488 0)scale(0.996264)"/>
    </g>
   </g>
   <g id="text_44">
    <!-- B.0 -->
    <g transform="translate(308.614747 348.728857)scale(0.12 -0.12)">
     <use xlink:href="#CMR17-42" transform="scale(0.996264)"/>
     <use xlink:href="#CMR17-2e" transform="translate(65.188754 0)scale(0.996264)"/>
     <use xlink:href="#CMR17-30" transform="translate(90.059813 0)scale(0.996264)"/>
    </g>
   </g>
   <g id="text_45">
    <!-- C.0 -->
    <g transform="translate(323.86097 362.602239)scale(0.12 -0.12)">
     <use xlink:href="#CMR17-43" transform="scale(0.996264)"/>
     <use xlink:href="#CMR17-2e" transform="translate(66.509881 0)scale(0.996264)"/>
     <use xlink:href="#CMR17-30" transform="translate(91.380939 0)scale(0.996264)"/>
    </g>
   </g>
   <g id="text_46">
    <!-- A.1 -->
    <g transform="translate(387.338693 374.73579)scale(0.12 -0.12)">
     <use xlink:href="#CMR17-41" transform="scale(0.996264)"/>
     <use xlink:href="#CMR17-2e" transform="translate(69.07243 0)scale(0.996264)"/>
     <use xlink:href="#CMR17-31" transform="translate(93.943488 0)scale(0.996264)"/>
    </g>
   </g>
   <g id="text_47">
    <!-- B.1 -->
    <g transform="translate(388.028093 323.536118)scale(0.12 -0.12)">
     <use xlink:href="#CMR17-42" transform="scale(0.996264)"/>
     <use xlink:href="#CMR17-2e" transform="translate(65.188754 0)scale(0.996264)"/>
     <use xlink:href="#CMR17-31" transform="translate(90.059813 0)scale(0.996264)"/>
    </g>
   </g>
   <g id="text_48">
    <!-- C.1 -->
    <g transform="translate(369.629057 351.995396)scale(0.12 -0.12)">
     <use xlink:href="#CMR17-43" transform="scale(0.996264)"/>
     <use xlink:href="#CMR17-2e" transform="translate(66.509881 0)scale(0.996264)"/>
     <use xlink:href="#CMR17-31" transform="translate(91.380939 0)scale(0.996264)"/>
    </g>
   </g>
   <g id="text_49">
    <!-- A.2 -->
    <g transform="translate(514.449577 295.575683)scale(0.12 -0.12)">
     <use xlink:href="#CMR17-41" transform="scale(0.996264)"/>
     <use xlink:href="#CMR17-2e" transform="translate(69.07243 0)scale(0.996264)"/>
     <use xlink:href="#CMR17-32" transform="translate(93.943488 0)scale(0.996264)"/>
    </g>
   </g>
   <g id="text_50">
    <!-- B.2 -->
    <g transform="translate(529.327184 307.533319)scale(0.12 -0.12)">
     <use xlink:href="#CMR17-42" transform="scale(0.996264)"/>
     <use xlink:href="#CMR17-2e" transform="translate(65.188754 0)scale(0.996264)"/>
     <use xlink:href="#CMR17-32" transform="translate(90.059813 0)scale(0.996264)"/>
    </g>
   </g>
   <g id="text_51">
    <!-- C.2 -->
    <g transform="translate(473.832074 304.108975)scale(0.12 -0.12)">
     <use xlink:href="#CMR17-43" transform="scale(0.996264)"/>
     <use xlink:href="#CMR17-2e" transform="translate(66.509881 0)scale(0.996264)"/>
     <use xlink:href="#CMR17-32" transform="translate(91.380939 0)scale(0.996264)"/>
    </g>
   </g>
   <g id="text_52">
    <!-- C.3 -->
    <g transform="translate(448.033808 451.368368)scale(0.12 -0.12)">
     <use xlink:href="#CMR17-43" transform="scale(0.996264)"/>
     <use xlink:href="#CMR17-2e" transform="translate(66.509881 0)scale(0.996264)"/>
     <use xlink:href="#CMR17-33" transform="translate(91.380939 0)scale(0.996264)"/>
    </g>
   </g>
   <g id="text_53">
    <!-- C.4 -->
    <g transform="translate(455.905717 323.461519)scale(0.12 -0.12)">
     <use xlink:href="#CMR17-43" transform="scale(0.996264)"/>
     <use xlink:href="#CMR17-2e" transform="translate(66.509881 0)scale(0.996264)"/>
     <use xlink:href="#CMR17-34" transform="translate(91.380939 0)scale(0.996264)"/>
    </g>
   </g>
   <g id="text_54">
    <!-- D.0 -->
    <g transform="translate(451.168978 374.842556)scale(0.12 -0.12)">
     <use xlink:href="#CMR17-44" transform="scale(0.996264)"/>
     <use xlink:href="#CMR17-2e" transform="translate(70.393556 0)scale(0.996264)"/>
     <use xlink:href="#CMR17-30" transform="translate(95.264614 0)scale(0.996264)"/>
    </g>
   </g>
   <g id="text_55">
    <!-- D.1 -->
    <g transform="translate(463.87223 395.118795)scale(0.12 -0.12)">
     <use xlink:href="#CMR17-44" transform="scale(0.996264)"/>
     <use xlink:href="#CMR17-2e" transform="translate(70.393556 0)scale(0.996264)"/>
     <use xlink:href="#CMR17-31" transform="translate(95.264614 0)scale(0.996264)"/>
    </g>
   </g>
   <g id="text_56">
    <!-- moment czasowy: $3$ -->
    <g transform="translate(368.868412 270.02218)scale(0.12 -0.12)">
     <use xlink:href="#CMR17-6d" transform="scale(0.996264)"/>
     <use xlink:href="#CMR17-6f" transform="translate(76.91959 0)scale(0.996264)"/>
     <use xlink:href="#CMR17-6d" transform="translate(122.610067 0)scale(0.996264)"/>
     <use xlink:href="#CMR17-65" transform="translate(199.529657 0)scale(0.996264)"/>
     <use xlink:href="#CMR17-6e" transform="translate(240.015317 0)scale(0.996264)"/>
     <use xlink:href="#CMR17-74" transform="translate(288.308233 0)scale(0.996264)"/>
     <use xlink:href="#CMR17-63" transform="translate(353.664967 0)scale(0.996264)"/>
     <use xlink:href="#CMR17-7a" transform="translate(394.150628 0)scale(0.996264)"/>
     <use xlink:href="#CMR17-61" transform="translate(434.636288 0)scale(0.996264)"/>
     <use xlink:href="#CMR17-73" transform="translate(480.326765 0)scale(0.996264)"/>
     <use xlink:href="#CMR17-6f" transform="translate(516.128103 0)scale(0.996264)"/>
     <use xlink:href="#CMR17-77" transform="translate(559.216126 0)scale(0.996264)"/>
     <use xlink:href="#CMR17-79" transform="translate(625.726007 0)scale(0.996264)"/>
     <use xlink:href="#CMR17-3a" transform="translate(674.018923 0)scale(0.996264)"/>
     <use xlink:href="#CMR17-33" transform="translate(739.375642 0)scale(0.996264)"/>
    </g>
   </g>
  </g>
 </g>
 <defs>
  <clipPath id="pc0f99029ef">
   <rect x="7.2" y="21.50218" width="257.23819" height="210.46761"/>
  </clipPath>
  <clipPath id="p487442ce1d">
   <rect x="290.52" y="21.50218" width="257.23819" height="210.46761"/>
  </clipPath>
  <clipPath id="pbdb1726868">
   <rect x="7.2" y="276.02218" width="257.23819" height="210.46761"/>
  </clipPath>
  <clipPath id="paa8e8206a9">
   <rect x="290.52" y="276.02218" width="257.23819" height="210.46761"/>
  </clipPath>
 </defs>
</svg>
