<?xml version="1.0" encoding="utf-8" standalone="no"?>
<!DOCTYPE svg PUBLIC "-//W3C//DTD SVG 1.1//EN"
  "http://www.w3.org/Graphics/SVG/1.1/DTD/svg11.dtd">
<svg xmlns:xlink="http://www.w3.org/1999/xlink" width="479.160621pt" height="479.160621pt" viewBox="0 0 479.160621 479.160621" xmlns="http://www.w3.org/2000/svg" version="1.1">
 <metadata>
  <rdf:RDF xmlns:dc="http://purl.org/dc/elements/1.1/" xmlns:cc="http://creativecommons.org/ns#" xmlns:rdf="http://www.w3.org/1999/02/22-rdf-syntax-ns#">
   <cc:Work>
    <dc:type rdf:resource="http://purl.org/dc/dcmitype/StillImage"/>
    <dc:date>2022-08-31T17:34:51.237926</dc:date>
    <dc:format>image/svg+xml</dc:format>
    <dc:creator>
     <cc:Agent>
      <dc:title>Matplotlib v3.5.1, https://matplotlib.org/</dc:title>
     </cc:Agent>
    </dc:creator>
   </cc:Work>
  </rdf:RDF>
 </metadata>
 <defs>
  <style type="text/css">*{stroke-linejoin: round; stroke-linecap: butt}</style>
 </defs>
 <g id="figure_1">
  <g id="patch_1">
   <path d="M 0 479.160621 
L 479.160621 479.160621 
L 479.160621 0 
L 0 0 
z
" style="fill: #ffffff"/>
  </g>
  <g id="axes_1">
   <g id="patch_2">
    <path d="M 7.2 471.960621 
L 471.960621 471.960621 
L 471.960621 7.2 
L 7.2 7.2 
z
" style="fill: #ffffff"/>
   </g>
   <g id="line2d_1">
    <path d="M 113.384765 51.979268 
L 104.572021 11.833942 
" clip-path="url(#p61df15ba51)" style="fill: none; stroke: #808080; stroke-linecap: square"/>
   </g>
   <g id="line2d_2">
    <path d="M 113.384765 51.979268 
L 30.64055 24.815496 
" clip-path="url(#p61df15ba51)" style="fill: none; stroke: #808080; stroke-linecap: square"/>
   </g>
   <g id="line2d_3">
    <path d="M 113.384765 51.979268 
L 139.351081 135.631741 
" clip-path="url(#p61df15ba51)" style="fill: none; stroke: #808080; stroke-linecap: square"/>
   </g>
   <g id="line2d_4">
    <path d="M 113.384765 51.979268 
L 92.444836 161.827183 
" clip-path="url(#p61df15ba51)" style="fill: none; stroke: #808080; stroke-linecap: square"/>
   </g>
   <g id="line2d_5">
    <path d="M 104.572021 11.833942 
L 30.64055 24.815496 
" clip-path="url(#p61df15ba51)" style="fill: none; stroke: #808080; stroke-linecap: square"/>
   </g>
   <g id="line2d_6">
    <path d="M 139.351081 135.631741 
L 92.444836 161.827183 
" clip-path="url(#p61df15ba51)" style="fill: none; stroke: #808080; stroke-linecap: square"/>
   </g>
   <g id="line2d_7">
    <path d="M 218.441069 227.883029 
L 239.473509 198.235694 
" clip-path="url(#p61df15ba51)" style="fill: none; stroke: #808080; stroke-linecap: square"/>
   </g>
   <g id="line2d_8">
    <path d="M 218.441069 227.883029 
L 310.994963 278.421146 
" clip-path="url(#p61df15ba51)" style="fill: none; stroke: #808080; stroke-linecap: square"/>
   </g>
   <g id="line2d_9">
    <path d="M 239.473509 198.235694 
L 310.994963 278.421146 
" clip-path="url(#p61df15ba51)" style="fill: none; stroke: #808080; stroke-linecap: square"/>
   </g>
   <g id="line2d_10">
    <path d="M 239.473509 198.235694 
L 329.105244 147.015448 
" clip-path="url(#p61df15ba51)" style="fill: none; stroke: #808080; stroke-linecap: square"/>
   </g>
   <g id="line2d_11">
    <path d="M 466.498615 139.418889 
L 446.462715 160.336487 
" clip-path="url(#p61df15ba51)" style="fill: none; stroke: #808080; stroke-linecap: square"/>
   </g>
   <g id="line2d_12">
    <path d="M 466.498615 139.418889 
L 380.174279 119.679809 
" clip-path="url(#p61df15ba51)" style="fill: none; stroke: #808080; stroke-linecap: square"/>
   </g>
   <g id="line2d_13">
    <path d="M 466.498615 139.418889 
L 460.448338 44.852373 
" clip-path="url(#p61df15ba51)" style="fill: none; stroke: #808080; stroke-linecap: square"/>
   </g>
   <g id="line2d_14">
    <path d="M 446.462715 160.336487 
L 380.174279 119.679809 
" clip-path="url(#p61df15ba51)" style="fill: none; stroke: #808080; stroke-linecap: square"/>
   </g>
   <g id="line2d_15">
    <path d="M 92.444836 161.827183 
L 23.122467 236.461999 
" clip-path="url(#p61df15ba51)" style="fill: none; stroke: #808080; stroke-linecap: square"/>
   </g>
   <g id="line2d_16">
    <path d="M 23.122467 236.461999 
L 24.753312 343.814267 
" clip-path="url(#p61df15ba51)" style="fill: none; stroke: #808080; stroke-linecap: square"/>
   </g>
   <g id="line2d_17">
    <path d="M 320.470014 434.926984 
L 246.690916 463.331178 
" clip-path="url(#p61df15ba51)" style="fill: none; stroke: #808080; stroke-linecap: square"/>
   </g>
   <g id="line2d_18">
    <path d="M 310.994963 278.421146 
L 396.234826 313.338379 
" clip-path="url(#p61df15ba51)" style="fill: none; stroke: #808080; stroke-linecap: square"/>
   </g>
   <g id="line2d_19">
    <path d="M 329.105244 147.015448 
L 380.174279 119.679809 
" clip-path="url(#p61df15ba51)" style="fill: none; stroke: #808080; stroke-linecap: square"/>
   </g>
   <g id="line2d_20">
    <path d="M 24.753312 343.814267 
L 36.912588 365.350693 
" clip-path="url(#p61df15ba51)" style="fill: none; stroke: #808080; stroke-linecap: square"/>
   </g>
   <g id="line2d_21">
    <path d="M 380.174279 119.679809 
L 460.448338 44.852373 
" clip-path="url(#p61df15ba51)" style="fill: none; stroke: #808080; stroke-linecap: square"/>
   </g>
   <g id="PathCollection_1">
    <defs>
     <path id="mefbad4c334" d="M 0 5 
C 1.326016 5 2.597899 4.473168 3.535534 3.535534 
C 4.473168 2.597899 5 1.326016 5 0 
C 5 -1.326016 4.473168 -2.597899 3.535534 -3.535534 
C 2.597899 -4.473168 1.326016 -5 0 -5 
C -1.326016 -5 -2.597899 -4.473168 -3.535534 -3.535534 
C -4.473168 -2.597899 -5 -1.326016 -5 0 
C -5 1.326016 -4.473168 2.597899 -3.535534 3.535534 
C -2.597899 4.473168 -1.326016 5 0 5 
z
" style="stroke: #0000ff; stroke-width: 1.5"/>
    </defs>
    <g clip-path="url(#p61df15ba51)">
     <use xlink:href="#mefbad4c334" x="113.384765" y="51.979268" style="fill: #0000ff; stroke: #0000ff; stroke-width: 1.5"/>
    </g>
   </g>
   <g id="PathCollection_2">
    <defs>
     <path id="m08975a0e02" d="M -4.9999 4.9999 
L 5.0001 4.9999 
L 5.0001 -5.0001 
L -4.9999 -5.0001 
z
" style="stroke: #0000ff; stroke-width: 1.5"/>
    </defs>
    <g clip-path="url(#p61df15ba51)">
     <use xlink:href="#m08975a0e02" x="104.572021" y="11.833942" style="fill: #0000ff; stroke: #0000ff; stroke-width: 1.5"/>
    </g>
   </g>
   <g id="PathCollection_3">
    <defs>
     <path id="mbccf990853" d="M 0 -5 
L -5 5 
L 5 5 
z
" style="stroke: #0000ff; stroke-width: 1.5"/>
    </defs>
    <g clip-path="url(#p61df15ba51)">
     <use xlink:href="#mbccf990853" x="30.64055" y="24.815496" style="fill: #0000ff; stroke: #0000ff; stroke-width: 1.5"/>
    </g>
   </g>
   <g id="PathCollection_4">
    <g clip-path="url(#p61df15ba51)">
     <use xlink:href="#mefbad4c334" x="139.351081" y="135.631741" style="fill: #0000ff; stroke: #0000ff; stroke-width: 1.5"/>
    </g>
   </g>
   <g id="PathCollection_5">
    <g clip-path="url(#p61df15ba51)">
     <use xlink:href="#m08975a0e02" x="218.441069" y="227.883029" style="fill: #0000ff; stroke: #0000ff; stroke-width: 1.5"/>
    </g>
   </g>
   <g id="PathCollection_6">
    <g clip-path="url(#p61df15ba51)">
     <use xlink:href="#mbccf990853" x="239.473509" y="198.235694" style="fill: #0000ff; stroke: #0000ff; stroke-width: 1.5"/>
    </g>
   </g>
   <g id="PathCollection_7">
    <defs>
     <path id="mf79a238159" d="M -5 0 
L 5 0 
M 0 5 
L 0 -5 
" style="stroke: #0000ff; stroke-width: 1.5"/>
    </defs>
    <g clip-path="url(#p61df15ba51)">
     <use xlink:href="#mf79a238159" x="466.498615" y="139.418889" style="fill: #0000ff; stroke: #0000ff; stroke-width: 1.5"/>
    </g>
   </g>
   <g id="PathCollection_8">
    <defs>
     <path id="mf3a0eaf2e4" d="M -5 5 
L 5 -5 
M -5 -5 
L 5 5 
" style="stroke: #0000ff; stroke-width: 1.5"/>
    </defs>
    <g clip-path="url(#p61df15ba51)">
     <use xlink:href="#mf3a0eaf2e4" x="446.462715" y="160.336487" style="fill: #0000ff; stroke: #0000ff; stroke-width: 1.5"/>
    </g>
   </g>
   <g id="PathCollection_9">
    <g clip-path="url(#p61df15ba51)">
     <use xlink:href="#mf79a238159" x="92.444836" y="161.827183" style="fill: #0000ff; stroke: #0000ff; stroke-width: 1.5"/>
    </g>
   </g>
   <g id="PathCollection_10">
    <g clip-path="url(#p61df15ba51)">
     <use xlink:href="#mf3a0eaf2e4" x="23.122467" y="236.461999" style="fill: #0000ff; stroke: #0000ff; stroke-width: 1.5"/>
    </g>
   </g>
   <g id="PathCollection_11">
    <g clip-path="url(#p61df15ba51)">
     <use xlink:href="#mf79a238159" x="320.470014" y="434.926984" style="fill: #0000ff; stroke: #0000ff; stroke-width: 1.5"/>
    </g>
   </g>
   <g id="PathCollection_12">
    <g clip-path="url(#p61df15ba51)">
     <use xlink:href="#mf3a0eaf2e4" x="246.690916" y="463.331178" style="fill: #0000ff; stroke: #0000ff; stroke-width: 1.5"/>
    </g>
   </g>
   <g id="PathCollection_13">
    <g clip-path="url(#p61df15ba51)">
     <use xlink:href="#mefbad4c334" x="310.994963" y="278.421146" style="fill: #0000ff; stroke: #0000ff; stroke-width: 1.5"/>
    </g>
   </g>
   <g id="PathCollection_14">
    <g clip-path="url(#p61df15ba51)">
     <use xlink:href="#mefbad4c334" x="396.234826" y="313.338379" style="fill: #0000ff; stroke: #0000ff; stroke-width: 1.5"/>
    </g>
   </g>
   <g id="PathCollection_15">
    <g clip-path="url(#p61df15ba51)">
     <use xlink:href="#mf79a238159" x="329.105244" y="147.015448" style="fill: #0000ff; stroke: #0000ff; stroke-width: 1.5"/>
    </g>
   </g>
   <g id="PathCollection_16">
    <g clip-path="url(#p61df15ba51)">
     <use xlink:href="#mf79a238159" x="24.753312" y="343.814267" style="fill: #0000ff; stroke: #0000ff; stroke-width: 1.5"/>
    </g>
   </g>
   <g id="PathCollection_17">
    <defs>
     <path id="mf653da3fcb" d="M 0 0 
L 0 -5 
M 0 0 
L -4 2.5 
M 0 0 
L 4 2.5 
" style="stroke: #0000ff; stroke-width: 1.5"/>
    </defs>
    <g clip-path="url(#p61df15ba51)">
     <use xlink:href="#mf653da3fcb" x="36.912588" y="365.350693" style="fill: #0000ff; stroke: #0000ff; stroke-width: 1.5"/>
    </g>
   </g>
   <g id="PathCollection_18">
    <g clip-path="url(#p61df15ba51)">
     <use xlink:href="#mf653da3fcb" x="380.174279" y="119.679809" style="fill: #0000ff; stroke: #0000ff; stroke-width: 1.5"/>
    </g>
   </g>
   <g id="PathCollection_19">
    <g clip-path="url(#p61df15ba51)">
     <use xlink:href="#mf653da3fcb" x="460.448338" y="44.852373" style="fill: #0000ff; stroke: #0000ff; stroke-width: 1.5"/>
    </g>
   </g>
   <g id="matplotlib.axis_1">
    <g id="xtick_1"/>
    <g id="xtick_2"/>
    <g id="xtick_3"/>
    <g id="xtick_4"/>
    <g id="xtick_5"/>
    <g id="xtick_6"/>
    <g id="xtick_7"/>
    <g id="xtick_8"/>
    <g id="xtick_9"/>
   </g>
   <g id="matplotlib.axis_2">
    <g id="ytick_1"/>
    <g id="ytick_2"/>
    <g id="ytick_3"/>
    <g id="ytick_4"/>
    <g id="ytick_5"/>
    <g id="ytick_6"/>
    <g id="ytick_7"/>
    <g id="ytick_8"/>
    <g id="ytick_9"/>
   </g>
   <g id="patch_3">
    <path d="M 7.2 471.960621 
L 7.2 7.2 
" style="fill: none; stroke: #000000; stroke-width: 0.8; stroke-linejoin: miter; stroke-linecap: square"/>
   </g>
   <g id="patch_4">
    <path d="M 471.960621 471.960621 
L 471.960621 7.2 
" style="fill: none; stroke: #000000; stroke-width: 0.8; stroke-linejoin: miter; stroke-linecap: square"/>
   </g>
   <g id="patch_5">
    <path d="M 7.2 471.960621 
L 471.960621 471.960621 
" style="fill: none; stroke: #000000; stroke-width: 0.8; stroke-linejoin: miter; stroke-linecap: square"/>
   </g>
   <g id="patch_6">
    <path d="M 7.2 7.2 
L 471.960621 7.2 
" style="fill: none; stroke: #000000; stroke-width: 0.8; stroke-linejoin: miter; stroke-linecap: square"/>
   </g>
   <g id="text_1">
    <!-- A.0 -->
    <g transform="translate(113.784864 47.627444)scale(0.16 -0.16)">
     <defs>
      <path id="CMR17-41" d="M 2323 4378 
C 2291 4461 2278 4480 2214 4480 
C 2150 4480 2138 4461 2106 4378 
L 749 566 
C 627 223 371 153 147 153 
L 147 -13 
C 262 0 518 0 640 0 
C 800 0 1056 0 1210 -13 
L 1210 153 
C 909 153 864 361 864 439 
C 864 497 877 530 890 569 
L 1229 1536 
L 2906 1536 
L 3290 442 
C 3322 365 3322 352 3322 327 
C 3322 153 3046 153 2925 153 
L 2925 0 
C 3110 0 3443 0 3642 0 
C 3808 0 4128 0 4282 -13 
L 4282 153 
C 3942 153 3827 153 3744 387 
L 2323 4378 
z
M 2067 3893 
L 2848 1702 
L 1286 1702 
L 2067 3893 
z
" transform="scale(0.015625)"/>
      <path id="CMR17-2e" d="M 1062 261 
C 1062 420 934 522 800 522 
C 672 522 538 420 538 261 
C 538 102 666 0 800 0 
C 928 0 1062 102 1062 261 
z
" transform="scale(0.015625)"/>
      <path id="CMR17-30" d="M 2688 2025 
C 2688 2416 2682 3080 2413 3591 
C 2176 4039 1798 4198 1466 4198 
C 1158 4198 768 4058 525 3597 
C 269 3118 243 2524 243 2025 
C 243 1661 250 1106 448 619 
C 723 -39 1216 -128 1466 -128 
C 1760 -128 2208 -7 2470 600 
C 2662 1042 2688 1559 2688 2025 
z
M 1466 -26 
C 1056 -26 813 325 723 812 
C 653 1188 653 1738 653 2096 
C 653 2588 653 2997 736 3387 
C 858 3929 1216 4096 1466 4096 
C 1728 4096 2067 3923 2189 3400 
C 2272 3036 2278 2607 2278 2096 
C 2278 1680 2278 1169 2202 792 
C 2067 95 1690 -26 1466 -26 
z
" transform="scale(0.015625)"/>
     </defs>
     <use xlink:href="#CMR17-41" transform="scale(0.996264)"/>
     <use xlink:href="#CMR17-2e" transform="translate(69.07243 0)scale(0.996264)"/>
     <use xlink:href="#CMR17-30" transform="translate(93.943488 0)scale(0.996264)"/>
    </g>
   </g>
   <g id="text_2">
    <!-- B.0 -->
    <g transform="translate(104.961252 24.155878)scale(0.16 -0.16)">
     <defs>
      <path id="CMR17-42" d="M 333 4352 
L 333 4186 
C 774 4186 845 4186 845 3900 
L 845 452 
C 845 166 774 166 333 166 
L 333 0 
L 2534 0 
C 3354 0 3885 583 3885 1164 
C 3885 1741 3360 2233 2675 2233 
C 3290 2356 3718 2771 3718 3264 
C 3718 3802 3194 4352 2368 4352 
L 333 4352 
z
M 1248 2304 
L 1248 3937 
C 1248 4155 1261 4186 1517 4186 
L 2336 4186 
C 2970 4186 3251 3674 3251 3277 
C 3251 2791 2861 2304 2170 2304 
L 1248 2304 
z
M 1517 166 
C 1261 166 1248 197 1248 413 
L 1248 2202 
L 2432 2202 
C 3091 2202 3411 1625 3411 1162 
C 3411 699 3046 166 2349 166 
L 1517 166 
z
" transform="scale(0.015625)"/>
     </defs>
     <use xlink:href="#CMR17-42" transform="scale(0.996264)"/>
     <use xlink:href="#CMR17-2e" transform="translate(65.188754 0)scale(0.996264)"/>
     <use xlink:href="#CMR17-30" transform="translate(90.059813 0)scale(0.996264)"/>
    </g>
   </g>
   <g id="text_3">
    <!-- C.0 -->
    <g transform="translate(31.033466 20.463673)scale(0.16 -0.16)">
     <defs>
      <path id="CMR17-43" d="M 3974 4289 
C 3974 4403 3968 4410 3930 4410 
C 3904 4410 3898 4403 3853 4327 
L 3571 3792 
C 3258 4187 2874 4416 2381 4416 
C 1286 4416 294 3456 294 2148 
C 294 826 1286 -128 2387 -128 
C 3366 -128 3974 730 3974 1461 
C 3974 1524 3974 1550 3917 1550 
C 3866 1550 3866 1531 3859 1474 
C 3808 585 3168 38 2477 38 
C 1824 38 781 495 781 2147 
C 781 3805 1843 4250 2464 4250 
C 3187 4250 3712 3628 3834 2745 
C 3846 2668 3846 2655 3904 2655 
C 3974 2655 3974 2668 3974 2783 
L 3974 4289 
z
" transform="scale(0.015625)"/>
     </defs>
     <use xlink:href="#CMR17-43" transform="scale(0.996264)"/>
     <use xlink:href="#CMR17-2e" transform="translate(66.509881 0)scale(0.996264)"/>
     <use xlink:href="#CMR17-30" transform="translate(91.380939 0)scale(0.996264)"/>
    </g>
   </g>
   <g id="text_4">
    <!-- A.1 -->
    <g transform="translate(139.75118 131.279917)scale(0.16 -0.16)">
     <defs>
      <path id="CMR17-31" d="M 1702 4058 
C 1702 4192 1696 4192 1606 4192 
C 1357 3916 979 3827 621 3827 
C 602 3827 570 3827 563 3808 
C 557 3795 557 3782 557 3648 
C 755 3648 1088 3686 1344 3839 
L 1344 461 
C 1344 236 1331 160 781 160 
L 589 160 
L 589 0 
C 896 0 1216 0 1523 0 
C 1830 0 2150 0 2458 0 
L 2458 160 
L 2266 160 
C 1715 160 1702 230 1702 458 
L 1702 4058 
z
" transform="scale(0.015625)"/>
     </defs>
     <use xlink:href="#CMR17-41" transform="scale(0.996264)"/>
     <use xlink:href="#CMR17-2e" transform="translate(69.07243 0)scale(0.996264)"/>
     <use xlink:href="#CMR17-31" transform="translate(93.943488 0)scale(0.996264)"/>
    </g>
   </g>
   <g id="text_5">
    <!-- B.1 -->
    <g transform="translate(218.8303 223.531206)scale(0.16 -0.16)">
     <use xlink:href="#CMR17-42" transform="scale(0.996264)"/>
     <use xlink:href="#CMR17-2e" transform="translate(65.188754 0)scale(0.996264)"/>
     <use xlink:href="#CMR17-31" transform="translate(90.059813 0)scale(0.996264)"/>
    </g>
   </g>
   <g id="text_6">
    <!-- C.1 -->
    <g transform="translate(239.866424 193.88387)scale(0.16 -0.16)">
     <use xlink:href="#CMR17-43" transform="scale(0.996264)"/>
     <use xlink:href="#CMR17-2e" transform="translate(66.509881 0)scale(0.996264)"/>
     <use xlink:href="#CMR17-31" transform="translate(91.380939 0)scale(0.996264)"/>
    </g>
   </g>
   <g id="text_7">
    <!-- D.0 -->
    <g transform="translate(442.03529 135.067066)scale(0.16 -0.16)">
     <defs>
      <path id="CMR17-44" d="M 333 4352 
L 333 4186 
C 774 4186 845 4186 845 3900 
L 845 452 
C 845 166 774 166 333 166 
L 333 0 
L 2368 0 
C 3398 0 4224 943 4224 2141 
C 4224 3346 3411 4352 2368 4352 
L 333 4352 
z
M 1523 166 
C 1267 166 1254 197 1254 414 
L 1254 3938 
C 1254 4155 1267 4186 1523 4186 
L 2240 4186 
C 2771 4186 3750 3874 3750 2141 
C 3750 1242 3488 879 3366 707 
C 3213 510 2848 166 2240 166 
L 1523 166 
z
" transform="scale(0.015625)"/>
     </defs>
     <use xlink:href="#CMR17-44" transform="scale(0.996264)"/>
     <use xlink:href="#CMR17-2e" transform="translate(70.393556 0)scale(0.996264)"/>
     <use xlink:href="#CMR17-30" transform="translate(95.264614 0)scale(0.996264)"/>
    </g>
   </g>
   <g id="text_8">
    <!-- E.0 -->
    <g transform="translate(446.84467 155.984663)scale(0.16 -0.16)">
     <defs>
      <path id="CMR17-45" d="M 3885 1615 
L 3770 1615 
C 3629 676 3546 166 2419 166 
L 1530 166 
C 1274 166 1261 197 1261 414 
L 1261 2176 
L 1862 2176 
C 2464 2176 2522 1960 2522 1430 
L 2637 1430 
L 2637 3081 
L 2522 3081 
C 2522 2557 2464 2342 1862 2342 
L 1261 2342 
L 1261 3913 
C 1261 4128 1274 4160 1530 4160 
L 2406 4160 
C 3398 4160 3514 3769 3603 2929 
L 3718 2929 
L 3565 4325 
L 326 4325 
L 326 4160 
C 768 4160 838 4160 838 3874 
L 838 451 
C 838 166 768 166 326 166 
L 326 0 
L 3654 0 
L 3885 1615 
z
" transform="scale(0.015625)"/>
     </defs>
     <use xlink:href="#CMR17-45" transform="scale(0.996264)"/>
     <use xlink:href="#CMR17-2e" transform="translate(62.586301 0)scale(0.996264)"/>
     <use xlink:href="#CMR17-30" transform="translate(87.457359 0)scale(0.996264)"/>
    </g>
   </g>
   <g id="text_9">
    <!-- D.1 -->
    <g transform="translate(92.84862 157.475359)scale(0.16 -0.16)">
     <use xlink:href="#CMR17-44" transform="scale(0.996264)"/>
     <use xlink:href="#CMR17-2e" transform="translate(70.393556 0)scale(0.996264)"/>
     <use xlink:href="#CMR17-31" transform="translate(95.264614 0)scale(0.996264)"/>
    </g>
   </g>
   <g id="text_10">
    <!-- E.1 -->
    <g transform="translate(23.504421 232.110175)scale(0.16 -0.16)">
     <use xlink:href="#CMR17-45" transform="scale(0.996264)"/>
     <use xlink:href="#CMR17-2e" transform="translate(62.586301 0)scale(0.996264)"/>
     <use xlink:href="#CMR17-31" transform="translate(87.457359 0)scale(0.996264)"/>
    </g>
   </g>
   <g id="text_11">
    <!-- D.2 -->
    <g transform="translate(320.873798 430.575161)scale(0.16 -0.16)">
     <defs>
      <path id="CMR17-32" d="M 2669 989 
L 2554 989 
C 2490 536 2438 459 2413 420 
C 2381 369 1920 369 1830 369 
L 602 369 
C 832 619 1280 1072 1824 1597 
C 2214 1967 2669 2402 2669 3035 
C 2669 3790 2067 4224 1395 4224 
C 691 4224 262 3604 262 3030 
C 262 2780 448 2748 525 2748 
C 589 2748 781 2787 781 3010 
C 781 3207 614 3264 525 3264 
C 486 3264 448 3258 422 3245 
C 544 3790 915 4058 1306 4058 
C 1862 4058 2227 3617 2227 3035 
C 2227 2479 1901 2000 1536 1584 
L 262 146 
L 262 0 
L 2515 0 
L 2669 989 
z
" transform="scale(0.015625)"/>
     </defs>
     <use xlink:href="#CMR17-44" transform="scale(0.996264)"/>
     <use xlink:href="#CMR17-2e" transform="translate(70.393556 0)scale(0.996264)"/>
     <use xlink:href="#CMR17-32" transform="translate(95.264614 0)scale(0.996264)"/>
    </g>
   </g>
   <g id="text_12">
    <!-- E.2 -->
    <g transform="translate(247.072871 458.979355)scale(0.16 -0.16)">
     <use xlink:href="#CMR17-45" transform="scale(0.996264)"/>
     <use xlink:href="#CMR17-2e" transform="translate(62.586301 0)scale(0.996264)"/>
     <use xlink:href="#CMR17-32" transform="translate(87.457359 0)scale(0.996264)"/>
    </g>
   </g>
   <g id="text_13">
    <!-- A.2 -->
    <g transform="translate(311.395062 274.069322)scale(0.16 -0.16)">
     <use xlink:href="#CMR17-41" transform="scale(0.996264)"/>
     <use xlink:href="#CMR17-2e" transform="translate(69.07243 0)scale(0.996264)"/>
     <use xlink:href="#CMR17-32" transform="translate(93.943488 0)scale(0.996264)"/>
    </g>
   </g>
   <g id="text_14">
    <!-- A.3 -->
    <g transform="translate(396.634925 308.986555)scale(0.16 -0.16)">
     <defs>
      <path id="CMR17-33" d="M 1414 2157 
C 1984 2157 2234 1662 2234 1090 
C 2234 320 1824 25 1453 25 
C 1114 25 563 194 390 693 
C 422 680 454 680 486 680 
C 640 680 755 782 755 948 
C 755 1133 614 1216 486 1216 
C 378 1216 211 1165 211 926 
C 211 335 787 -128 1466 -128 
C 2176 -128 2720 430 2720 1085 
C 2720 1707 2208 2157 1600 2227 
C 2086 2328 2554 2756 2554 3329 
C 2554 3820 2048 4179 1472 4179 
C 890 4179 378 3829 378 3329 
C 378 3110 544 3072 627 3072 
C 762 3072 877 3155 877 3321 
C 877 3486 762 3569 627 3569 
C 602 3569 570 3569 544 3557 
C 730 3959 1235 4032 1459 4032 
C 1683 4032 2106 3925 2106 3320 
C 2106 3143 2080 2828 1862 2550 
C 1670 2304 1453 2304 1242 2284 
C 1210 2284 1062 2269 1037 2269 
C 992 2263 966 2257 966 2208 
C 966 2163 973 2157 1101 2157 
L 1414 2157 
z
" transform="scale(0.015625)"/>
     </defs>
     <use xlink:href="#CMR17-41" transform="scale(0.996264)"/>
     <use xlink:href="#CMR17-2e" transform="translate(69.07243 0)scale(0.996264)"/>
     <use xlink:href="#CMR17-33" transform="translate(93.943488 0)scale(0.996264)"/>
    </g>
   </g>
   <g id="text_15">
    <!-- D.3 -->
    <g transform="translate(329.509027 142.663624)scale(0.16 -0.16)">
     <use xlink:href="#CMR17-44" transform="scale(0.996264)"/>
     <use xlink:href="#CMR17-2e" transform="translate(70.393556 0)scale(0.996264)"/>
     <use xlink:href="#CMR17-33" transform="translate(95.264614 0)scale(0.996264)"/>
    </g>
   </g>
   <g id="text_16">
    <!-- D.4 -->
    <g transform="translate(25.157095 339.462443)scale(0.16 -0.16)">
     <defs>
      <path id="CMR17-34" d="M 2150 4122 
C 2150 4256 2144 4256 2029 4256 
L 128 1254 
L 128 1088 
L 1779 1088 
L 1779 457 
C 1779 224 1766 160 1318 160 
L 1197 160 
L 1197 0 
C 1402 0 1747 0 1965 0 
C 2182 0 2528 0 2733 0 
L 2733 160 
L 2611 160 
C 2163 160 2150 224 2150 457 
L 2150 1088 
L 2803 1088 
L 2803 1254 
L 2150 1254 
L 2150 4122 
z
M 1798 3703 
L 1798 1254 
L 256 1254 
L 1798 3703 
z
" transform="scale(0.015625)"/>
     </defs>
     <use xlink:href="#CMR17-44" transform="scale(0.996264)"/>
     <use xlink:href="#CMR17-2e" transform="translate(70.393556 0)scale(0.996264)"/>
     <use xlink:href="#CMR17-34" transform="translate(95.264614 0)scale(0.996264)"/>
    </g>
   </g>
   <g id="text_17">
    <!-- F.0 -->
    <g transform="translate(37.287267 360.998869)scale(0.16 -0.16)">
     <defs>
      <path id="CMR17-46" d="M 3482 4325 
L 326 4325 
L 326 4160 
C 768 4160 838 4160 838 3874 
L 838 446 
C 838 160 768 160 326 160 
L 326 0 
C 512 0 870 0 1069 0 
C 1331 0 1638 0 1901 0 
L 1901 160 
L 1760 160 
C 1274 160 1261 223 1261 452 
L 1261 2075 
L 1837 2075 
C 2432 2075 2490 1865 2490 1332 
L 2605 1332 
L 2605 2987 
L 2490 2987 
C 2490 2450 2432 2240 1837 2240 
L 1261 2240 
L 1261 3911 
C 1261 4128 1274 4160 1530 4160 
L 2355 4160 
C 3322 4160 3430 3765 3520 2916 
L 3635 2916 
L 3482 4325 
z
" transform="scale(0.015625)"/>
     </defs>
     <use xlink:href="#CMR17-46" transform="scale(0.996264)"/>
     <use xlink:href="#CMR17-2e" transform="translate(59.983847 0)scale(0.996264)"/>
     <use xlink:href="#CMR17-30" transform="translate(84.854905 0)scale(0.996264)"/>
    </g>
   </g>
   <g id="text_18">
    <!-- F.1 -->
    <g transform="translate(380.548958 115.327985)scale(0.16 -0.16)">
     <use xlink:href="#CMR17-46" transform="scale(0.996264)"/>
     <use xlink:href="#CMR17-2e" transform="translate(59.983847 0)scale(0.996264)"/>
     <use xlink:href="#CMR17-31" transform="translate(84.854905 0)scale(0.996264)"/>
    </g>
   </g>
   <g id="text_19">
    <!-- F.2 -->
    <g transform="translate(437.748337 40.500549)scale(0.16 -0.16)">
     <use xlink:href="#CMR17-46" transform="scale(0.996264)"/>
     <use xlink:href="#CMR17-2e" transform="translate(59.983847 0)scale(0.996264)"/>
     <use xlink:href="#CMR17-32" transform="translate(84.854905 0)scale(0.996264)"/>
    </g>
   </g>
  </g>
 </g>
 <defs>
  <clipPath id="p61df15ba51">
   <rect x="7.2" y="7.2" width="464.760621" height="464.760621"/>
  </clipPath>
 </defs>
</svg>
