<?xml version="1.0" encoding="utf-8" standalone="no"?>
<!DOCTYPE svg PUBLIC "-//W3C//DTD SVG 1.1//EN"
  "http://www.w3.org/Graphics/SVG/1.1/DTD/svg11.dtd">
<svg xmlns:xlink="http://www.w3.org/1999/xlink" width="554.791837pt" height="205.88665pt" viewBox="0 0 554.791837 205.88665" xmlns="http://www.w3.org/2000/svg" version="1.1">
 <metadata>
  <rdf:RDF xmlns:dc="http://purl.org/dc/elements/1.1/" xmlns:cc="http://creativecommons.org/ns#" xmlns:rdf="http://www.w3.org/1999/02/22-rdf-syntax-ns#">
   <cc:Work>
    <dc:type rdf:resource="http://purl.org/dc/dcmitype/StillImage"/>
    <dc:date>2022-08-20T22:04:33.861602</dc:date>
    <dc:format>image/svg+xml</dc:format>
    <dc:creator>
     <cc:Agent>
      <dc:title>Matplotlib v3.5.1, https://matplotlib.org/</dc:title>
     </cc:Agent>
    </dc:creator>
   </cc:Work>
  </rdf:RDF>
 </metadata>
 <defs>
  <style type="text/css">*{stroke-linejoin: round; stroke-linecap: butt}</style>
 </defs>
 <g id="figure_1">
  <g id="patch_1">
   <path d="M 0 205.88665 
L 554.791837 205.88665 
L 554.791837 0 
L 0 0 
z
" style="fill: #ffffff"/>
  </g>
  <g id="axes_1">
   <g id="patch_2">
    <path d="M 37.018347 169.975297 
L 269.269287 169.975297 
L 269.269287 21.50218 
L 37.018347 21.50218 
z
" style="fill: #ffffff"/>
   </g>
   <g id="patch_3">
    <path d="M 56.564255 124.496527 
C 58.948179 124.496527 61.234783 123.549384 62.920472 121.863696 
C 64.60616 120.178008 65.553303 117.891403 65.553303 115.50748 
C 65.553303 113.123557 64.60616 110.836952 62.920472 109.151264 
C 61.234783 107.465575 58.948179 106.518433 56.564255 106.518433 
C 54.180332 106.518433 51.893727 107.465575 50.208039 109.151264 
C 48.522351 110.836952 47.575208 113.123557 47.575208 115.50748 
C 47.575208 117.891403 48.522351 120.178008 50.208039 121.863696 
C 51.893727 123.549384 54.180332 124.496527 56.564255 124.496527 
z
" clip-path="url(#pc555150331)" style="fill: #f2f2f2; stroke: #f2f2f2; stroke-linejoin: miter"/>
   </g>
   <g id="patch_4">
    <path d="M 82.877942 154.303663 
C 85.261865 154.303663 87.54847 153.35652 89.234158 151.670832 
C 90.919847 149.985144 91.866989 147.698539 91.866989 145.314616 
C 91.866989 142.930693 90.919847 140.644088 89.234158 138.9584 
C 87.54847 137.272711 85.261865 136.325569 82.877942 136.325569 
C 80.494019 136.325569 78.207414 137.272711 76.521726 138.9584 
C 74.836038 140.644088 73.888895 142.930693 73.888895 145.314616 
C 73.888895 147.698539 74.836038 149.985144 76.521726 151.670832 
C 78.207414 153.35652 80.494019 154.303663 82.877942 154.303663 
z
" clip-path="url(#pc555150331)" style="fill: #f2f2f2; stroke: #f2f2f2; stroke-linejoin: miter"/>
   </g>
   <g id="patch_5">
    <path d="M 149.504252 163.226519 
C 151.888175 163.226519 154.17478 162.279376 155.860468 160.593688 
C 157.546156 158.907999 158.493299 156.621395 158.493299 154.237471 
C 158.493299 151.853548 157.546156 149.566943 155.860468 147.881255 
C 154.17478 146.195567 151.888175 145.248424 149.504252 145.248424 
C 147.120329 145.248424 144.833724 146.195567 143.148035 147.881255 
C 141.462347 149.566943 140.515204 151.853548 140.515204 154.237471 
C 140.515204 156.621395 141.462347 158.907999 143.148035 160.593688 
C 144.833724 162.279376 147.120329 163.226519 149.504252 163.226519 
z
" clip-path="url(#pc555150331)" style="fill: #f2f2f2; stroke: #f2f2f2; stroke-linejoin: miter"/>
   </g>
   <g id="patch_6">
    <path d="M 218.002567 152.470937 
C 220.38649 152.470937 222.673095 151.523794 224.358783 149.838106 
C 226.044471 148.152417 226.991614 145.865813 226.991614 143.481889 
C 226.991614 141.097966 226.044471 138.811361 224.358783 137.125673 
C 222.673095 135.439985 220.38649 134.492842 218.002567 134.492842 
C 215.618643 134.492842 213.332038 135.439985 211.64635 137.125673 
C 209.960662 138.811361 209.013519 141.097966 209.013519 143.481889 
C 209.013519 145.865813 209.960662 148.152417 211.64635 149.838106 
C 213.332038 151.523794 215.618643 152.470937 218.002567 152.470937 
z
" clip-path="url(#pc555150331)" style="fill: #f2f2f2; stroke: #f2f2f2; stroke-linejoin: miter"/>
   </g>
   <g id="patch_7">
    <path d="M 249.723379 88.392853 
C 252.107302 88.392853 254.393907 87.44571 256.079595 85.760022 
C 257.765284 84.074334 258.712426 81.787729 258.712426 79.403806 
C 258.712426 77.019882 257.765284 74.733278 256.079595 73.047589 
C 254.393907 71.361901 252.107302 70.414758 249.723379 70.414758 
C 247.339456 70.414758 245.052851 71.361901 243.367163 73.047589 
C 241.681475 74.733278 240.734332 77.019882 240.734332 79.403806 
C 240.734332 81.787729 241.681475 84.074334 243.367163 85.760022 
C 245.052851 87.44571 247.339456 88.392853 249.723379 88.392853 
z
" clip-path="url(#pc555150331)" style="fill: #f2f2f2; stroke: #f2f2f2; stroke-linejoin: miter"/>
   </g>
   <g id="patch_8">
    <path d="M 56.564255 124.496527 
C 58.948179 124.496527 61.234783 123.549384 62.920472 121.863696 
C 64.60616 120.178008 65.553303 117.891403 65.553303 115.50748 
C 65.553303 113.123557 64.60616 110.836952 62.920472 109.151264 
C 61.234783 107.465575 58.948179 106.518433 56.564255 106.518433 
C 54.180332 106.518433 51.893727 107.465575 50.208039 109.151264 
C 48.522351 110.836952 47.575208 113.123557 47.575208 115.50748 
C 47.575208 117.891403 48.522351 120.178008 50.208039 121.863696 
C 51.893727 123.549384 54.180332 124.496527 56.564255 124.496527 
L 56.564255 124.496527 
z
" clip-path="url(#pc555150331)" style="fill: none; stroke: #b2b2b2; stroke-linejoin: miter"/>
   </g>
   <g id="patch_9">
    <path d="M 82.877942 154.303663 
C 85.261865 154.303663 87.54847 153.35652 89.234158 151.670832 
C 90.919847 149.985144 91.866989 147.698539 91.866989 145.314616 
C 91.866989 142.930693 90.919847 140.644088 89.234158 138.9584 
C 87.54847 137.272711 85.261865 136.325569 82.877942 136.325569 
C 80.494019 136.325569 78.207414 137.272711 76.521726 138.9584 
C 74.836038 140.644088 73.888895 142.930693 73.888895 145.314616 
C 73.888895 147.698539 74.836038 149.985144 76.521726 151.670832 
C 78.207414 153.35652 80.494019 154.303663 82.877942 154.303663 
L 82.877942 154.303663 
z
" clip-path="url(#pc555150331)" style="fill: none; stroke: #b2b2b2; stroke-linejoin: miter"/>
   </g>
   <g id="patch_10">
    <path d="M 149.504252 163.226519 
C 151.888175 163.226519 154.17478 162.279376 155.860468 160.593688 
C 157.546156 158.907999 158.493299 156.621395 158.493299 154.237471 
C 158.493299 151.853548 157.546156 149.566943 155.860468 147.881255 
C 154.17478 146.195567 151.888175 145.248424 149.504252 145.248424 
C 147.120329 145.248424 144.833724 146.195567 143.148035 147.881255 
C 141.462347 149.566943 140.515204 151.853548 140.515204 154.237471 
C 140.515204 156.621395 141.462347 158.907999 143.148035 160.593688 
C 144.833724 162.279376 147.120329 163.226519 149.504252 163.226519 
L 149.504252 163.226519 
z
" clip-path="url(#pc555150331)" style="fill: none; stroke: #b2b2b2; stroke-linejoin: miter"/>
   </g>
   <g id="patch_11">
    <path d="M 218.002567 152.470937 
C 220.38649 152.470937 222.673095 151.523794 224.358783 149.838106 
C 226.044471 148.152417 226.991614 145.865813 226.991614 143.481889 
C 226.991614 141.097966 226.044471 138.811361 224.358783 137.125673 
C 222.673095 135.439985 220.38649 134.492842 218.002567 134.492842 
C 215.618643 134.492842 213.332038 135.439985 211.64635 137.125673 
C 209.960662 138.811361 209.013519 141.097966 209.013519 143.481889 
C 209.013519 145.865813 209.960662 148.152417 211.64635 149.838106 
C 213.332038 151.523794 215.618643 152.470937 218.002567 152.470937 
L 218.002567 152.470937 
z
" clip-path="url(#pc555150331)" style="fill: none; stroke: #b2b2b2; stroke-linejoin: miter"/>
   </g>
   <g id="patch_12">
    <path d="M 249.723379 88.392853 
C 252.107302 88.392853 254.393907 87.44571 256.079595 85.760022 
C 257.765284 84.074334 258.712426 81.787729 258.712426 79.403806 
C 258.712426 77.019882 257.765284 74.733278 256.079595 73.047589 
C 254.393907 71.361901 252.107302 70.414758 249.723379 70.414758 
C 247.339456 70.414758 245.052851 71.361901 243.367163 73.047589 
C 241.681475 74.733278 240.734332 77.019882 240.734332 79.403806 
C 240.734332 81.787729 241.681475 84.074334 243.367163 85.760022 
C 245.052851 87.44571 247.339456 88.392853 249.723379 88.392853 
L 249.723379 88.392853 
z
" clip-path="url(#pc555150331)" style="fill: none; stroke: #b2b2b2; stroke-linejoin: miter"/>
   </g>
   <g id="matplotlib.axis_1">
    <g id="xtick_1">
     <g id="line2d_1">
      <defs>
       <path id="m0d7e81854d" d="M 0 0 
L 0 3.5 
" style="stroke: #000000; stroke-width: 0.8"/>
      </defs>
      <g>
       <use xlink:href="#m0d7e81854d" x="61.089273" y="169.975297" style="stroke: #000000; stroke-width: 0.8"/>
      </g>
     </g>
     <g id="text_1">
      <!-- $\mathdefault{−60}$ -->
      <g transform="translate(52.233566 183.893795)scale(0.1 -0.1)">
       <defs>
        <path id="CMSY10-0" d="M 4218 1472 
C 4326 1472 4442 1472 4442 1600 
C 4442 1728 4326 1728 4218 1728 
L 755 1728 
C 646 1728 531 1728 531 1600 
C 531 1472 646 1472 755 1472 
L 4218 1472 
z
" transform="scale(0.015625)"/>
        <path id="CMR17-36" d="M 678 2176 
C 678 3690 1395 4032 1811 4032 
C 1946 4032 2272 4009 2400 3776 
C 2298 3776 2106 3776 2106 3553 
C 2106 3381 2246 3323 2336 3323 
C 2394 3323 2566 3348 2566 3560 
C 2566 3954 2246 4179 1805 4179 
C 1043 4179 243 3390 243 1984 
C 243 253 966 -128 1478 -128 
C 2099 -128 2688 427 2688 1283 
C 2688 2081 2170 2662 1517 2662 
C 1126 2662 838 2407 678 1960 
L 678 2176 
z
M 1478 25 
C 691 25 691 1200 691 1436 
C 691 1896 909 2560 1504 2560 
C 1613 2560 1926 2560 2138 2120 
C 2253 1870 2253 1609 2253 1289 
C 2253 944 2253 690 2118 434 
C 1978 171 1773 25 1478 25 
z
" transform="scale(0.015625)"/>
        <path id="CMR17-30" d="M 2688 2025 
C 2688 2416 2682 3080 2413 3591 
C 2176 4039 1798 4198 1466 4198 
C 1158 4198 768 4058 525 3597 
C 269 3118 243 2524 243 2025 
C 243 1661 250 1106 448 619 
C 723 -39 1216 -128 1466 -128 
C 1760 -128 2208 -7 2470 600 
C 2662 1042 2688 1559 2688 2025 
z
M 1466 -26 
C 1056 -26 813 325 723 812 
C 653 1188 653 1738 653 2096 
C 653 2588 653 2997 736 3387 
C 858 3929 1216 4096 1466 4096 
C 1728 4096 2067 3923 2189 3400 
C 2272 3036 2278 2607 2278 2096 
C 2278 1680 2278 1169 2202 792 
C 2067 95 1690 -26 1466 -26 
z
" transform="scale(0.015625)"/>
       </defs>
       <use xlink:href="#CMSY10-0" transform="scale(0.996264)"/>
       <use xlink:href="#CMR17-36" transform="translate(77.487468 0)scale(0.996264)"/>
       <use xlink:href="#CMR17-30" transform="translate(123.177945 0)scale(0.996264)"/>
      </g>
     </g>
    </g>
    <g id="xtick_2">
     <g id="line2d_2">
      <g>
       <use xlink:href="#m0d7e81854d" x="97.045463" y="169.975297" style="stroke: #000000; stroke-width: 0.8"/>
      </g>
     </g>
     <g id="text_2">
      <!-- $\mathdefault{−40}$ -->
      <g transform="translate(88.189756 183.893795)scale(0.1 -0.1)">
       <defs>
        <path id="CMR17-34" d="M 2150 4122 
C 2150 4256 2144 4256 2029 4256 
L 128 1254 
L 128 1088 
L 1779 1088 
L 1779 457 
C 1779 224 1766 160 1318 160 
L 1197 160 
L 1197 0 
C 1402 0 1747 0 1965 0 
C 2182 0 2528 0 2733 0 
L 2733 160 
L 2611 160 
C 2163 160 2150 224 2150 457 
L 2150 1088 
L 2803 1088 
L 2803 1254 
L 2150 1254 
L 2150 4122 
z
M 1798 3703 
L 1798 1254 
L 256 1254 
L 1798 3703 
z
" transform="scale(0.015625)"/>
       </defs>
       <use xlink:href="#CMSY10-0" transform="scale(0.996264)"/>
       <use xlink:href="#CMR17-34" transform="translate(77.487468 0)scale(0.996264)"/>
       <use xlink:href="#CMR17-30" transform="translate(123.177945 0)scale(0.996264)"/>
      </g>
     </g>
    </g>
    <g id="xtick_3">
     <g id="line2d_3">
      <g>
       <use xlink:href="#m0d7e81854d" x="133.001652" y="169.975297" style="stroke: #000000; stroke-width: 0.8"/>
      </g>
     </g>
     <g id="text_3">
      <!-- $\mathdefault{−20}$ -->
      <g transform="translate(124.145945 183.893795)scale(0.1 -0.1)">
       <defs>
        <path id="CMR17-32" d="M 2669 989 
L 2554 989 
C 2490 536 2438 459 2413 420 
C 2381 369 1920 369 1830 369 
L 602 369 
C 832 619 1280 1072 1824 1597 
C 2214 1967 2669 2402 2669 3035 
C 2669 3790 2067 4224 1395 4224 
C 691 4224 262 3604 262 3030 
C 262 2780 448 2748 525 2748 
C 589 2748 781 2787 781 3010 
C 781 3207 614 3264 525 3264 
C 486 3264 448 3258 422 3245 
C 544 3790 915 4058 1306 4058 
C 1862 4058 2227 3617 2227 3035 
C 2227 2479 1901 2000 1536 1584 
L 262 146 
L 262 0 
L 2515 0 
L 2669 989 
z
" transform="scale(0.015625)"/>
       </defs>
       <use xlink:href="#CMSY10-0" transform="scale(0.996264)"/>
       <use xlink:href="#CMR17-32" transform="translate(77.487468 0)scale(0.996264)"/>
       <use xlink:href="#CMR17-30" transform="translate(123.177945 0)scale(0.996264)"/>
      </g>
     </g>
    </g>
    <g id="xtick_4">
     <g id="line2d_4">
      <g>
       <use xlink:href="#m0d7e81854d" x="168.957841" y="169.975297" style="stroke: #000000; stroke-width: 0.8"/>
      </g>
     </g>
     <g id="text_4">
      <!-- $\mathdefault{0}$ -->
      <g transform="translate(166.467173 183.893795)scale(0.1 -0.1)">
       <use xlink:href="#CMR17-30" transform="scale(0.996264)"/>
      </g>
     </g>
    </g>
    <g id="xtick_5">
     <g id="line2d_5">
      <g>
       <use xlink:href="#m0d7e81854d" x="204.91403" y="169.975297" style="stroke: #000000; stroke-width: 0.8"/>
      </g>
     </g>
     <g id="text_5">
      <!-- $\mathdefault{20}$ -->
      <g transform="translate(199.932695 183.893795)scale(0.1 -0.1)">
       <use xlink:href="#CMR17-32" transform="scale(0.996264)"/>
       <use xlink:href="#CMR17-30" transform="translate(45.690477 0)scale(0.996264)"/>
      </g>
     </g>
    </g>
    <g id="xtick_6">
     <g id="line2d_6">
      <g>
       <use xlink:href="#m0d7e81854d" x="240.870219" y="169.975297" style="stroke: #000000; stroke-width: 0.8"/>
      </g>
     </g>
     <g id="text_6">
      <!-- $\mathdefault{40}$ -->
      <g transform="translate(235.888884 183.893795)scale(0.1 -0.1)">
       <use xlink:href="#CMR17-34" transform="scale(0.996264)"/>
       <use xlink:href="#CMR17-30" transform="translate(45.690477 0)scale(0.996264)"/>
      </g>
     </g>
    </g>
    <g id="text_7">
     <!-- x -->
     <g transform="translate(150.514775 196.749472)scale(0.1 -0.1)">
      <defs>
       <path id="CMR17-78" d="M 1664 1477 
C 1856 1726 2074 2006 2253 2216 
C 2464 2458 2707 2560 2989 2560 
L 2989 2726 
C 2880 2726 2656 2726 2541 2726 
C 2368 2726 2170 2726 2022 2732 
L 2022 2566 
C 2112 2553 2163 2489 2163 2400 
C 2163 2285 2099 2215 2067 2171 
L 1594 1573 
L 1030 2306 
C 973 2376 973 2388 973 2420 
C 973 2497 1037 2560 1146 2560 
L 1146 2732 
C 992 2726 717 2726 557 2726 
C 384 2726 179 2726 38 2732 
L 38 2560 
C 384 2560 461 2534 614 2343 
L 1350 1395 
C 1363 1382 1395 1344 1395 1325 
C 1395 1299 838 619 768 530 
C 480 185 179 160 6 160 
L 6 0 
C 115 0 339 0 454 0 
C 582 0 864 0 979 -6 
L 979 160 
C 941 166 838 179 838 325 
C 838 440 890 510 947 586 
L 1478 1236 
L 2035 512 
C 2086 442 2163 346 2163 301 
C 2163 211 2086 160 1984 160 
L 1984 -6 
C 2138 0 2413 0 2573 0 
C 2746 0 2950 0 3091 -6 
L 3091 160 
C 2771 160 2675 172 2522 370 
L 1664 1477 
z
" transform="scale(0.015625)"/>
      </defs>
      <use xlink:href="#CMR17-78" transform="scale(0.996264)"/>
     </g>
    </g>
   </g>
   <g id="matplotlib.axis_2">
    <g id="ytick_1">
     <g id="line2d_7">
      <defs>
       <path id="m5ca0b0120d" d="M 0 0 
L -3.5 0 
" style="stroke: #000000; stroke-width: 0.8"/>
      </defs>
      <g>
       <use xlink:href="#m5ca0b0120d" x="37.018347" y="140.871982" style="stroke: #000000; stroke-width: 0.8"/>
      </g>
     </g>
     <g id="text_8">
      <!-- $\mathdefault{0}$ -->
      <g transform="translate(25.037012 144.331232)scale(0.1 -0.1)">
       <use xlink:href="#CMR17-30" transform="scale(0.996264)"/>
      </g>
     </g>
    </g>
    <g id="ytick_2">
     <g id="line2d_8">
      <g>
       <use xlink:href="#m5ca0b0120d" x="37.018347" y="104.915793" style="stroke: #000000; stroke-width: 0.8"/>
      </g>
     </g>
     <g id="text_9">
      <!-- $\mathdefault{20}$ -->
      <g transform="translate(20.055677 108.375042)scale(0.1 -0.1)">
       <use xlink:href="#CMR17-32" transform="scale(0.996264)"/>
       <use xlink:href="#CMR17-30" transform="translate(45.690477 0)scale(0.996264)"/>
      </g>
     </g>
    </g>
    <g id="ytick_3">
     <g id="line2d_9">
      <g>
       <use xlink:href="#m5ca0b0120d" x="37.018347" y="68.959604" style="stroke: #000000; stroke-width: 0.8"/>
      </g>
     </g>
     <g id="text_10">
      <!-- $\mathdefault{40}$ -->
      <g transform="translate(20.055677 72.418853)scale(0.1 -0.1)">
       <use xlink:href="#CMR17-34" transform="scale(0.996264)"/>
       <use xlink:href="#CMR17-30" transform="translate(45.690477 0)scale(0.996264)"/>
      </g>
     </g>
    </g>
    <g id="ytick_4">
     <g id="line2d_10">
      <g>
       <use xlink:href="#m5ca0b0120d" x="37.018347" y="33.003415" style="stroke: #000000; stroke-width: 0.8"/>
      </g>
     </g>
     <g id="text_11">
      <!-- $\mathdefault{60}$ -->
      <g transform="translate(20.055677 36.462664)scale(0.1 -0.1)">
       <use xlink:href="#CMR17-36" transform="scale(0.996264)"/>
       <use xlink:href="#CMR17-30" transform="translate(45.690477 0)scale(0.996264)"/>
      </g>
     </g>
    </g>
    <g id="text_12">
     <!-- y -->
     <g transform="translate(14.118498 98.36778)rotate(-90)scale(0.1 -0.1)">
      <defs>
       <path id="CMR17-79" d="M 2496 2197 
C 2656 2586 2944 2586 3034 2586 
L 3034 2752 
C 2912 2752 2752 2752 2630 2752 
C 2496 2752 2285 2752 2157 2758 
L 2157 2592 
C 2400 2573 2406 2394 2406 2343 
C 2406 2280 2394 2248 2362 2171 
L 1664 449 
L 902 2306 
C 870 2382 870 2426 870 2433 
C 870 2573 1018 2586 1171 2586 
L 1171 2758 
C 1018 2752 742 2752 582 2752 
C 410 2752 205 2752 64 2758 
L 64 2586 
C 410 2586 448 2554 531 2350 
L 1485 15 
C 1197 -738 1030 -1178 627 -1178 
C 557 -1178 397 -1159 282 -1044 
C 429 -1031 493 -942 493 -833 
C 493 -725 416 -629 288 -629 
C 147 -629 77 -725 77 -840 
C 77 -1095 339 -1280 627 -1280 
C 998 -1280 1229 -922 1357 -604 
L 2496 2197 
z
" transform="scale(0.015625)"/>
      </defs>
      <use xlink:href="#CMR17-79" transform="scale(0.996264)"/>
     </g>
    </g>
   </g>
   <g id="line2d_11">
    <path d="M 56.564255 115.50748 
L 82.877942 145.314616 
L 149.504252 154.237471 
L 218.002567 143.481889 
L 249.723379 79.403806 
L 223.544584 28.250958 
" clip-path="url(#pc555150331)" style="fill: none; stroke: #0000ff; stroke-opacity: 0.8; stroke-linecap: square"/>
   </g>
   <g id="line2d_12">
    <path d="M 56.564255 115.50748 
L 82.877942 145.314616 
L 149.504252 154.237471 
L 218.002567 143.481889 
L 249.723379 79.403806 
L 224.972564 30.38421 
" clip-path="url(#pc555150331)" style="fill: none; stroke: #fe0100; stroke-opacity: 0.8; stroke-linecap: square"/>
   </g>
   <g id="line2d_13">
    <path d="M 56.564255 115.50748 
L 82.877942 145.314616 
L 149.504252 154.237471 
L 218.002567 143.481889 
L 249.723379 79.403806 
L 227.371737 32.463518 
" clip-path="url(#pc555150331)" style="fill: none; stroke: #00ff00; stroke-opacity: 0.8; stroke-linecap: square"/>
   </g>
   <g id="PathCollection_1">
    <defs>
     <path id="m52c594c906" d="M 0 0.866025 
C 0.229673 0.866025 0.449969 0.774776 0.612372 0.612372 
C 0.774776 0.449969 0.866025 0.229673 0.866025 0 
C 0.866025 -0.229673 0.774776 -0.449969 0.612372 -0.612372 
C 0.449969 -0.774776 0.229673 -0.866025 0 -0.866025 
C -0.229673 -0.866025 -0.449969 -0.774776 -0.612372 -0.612372 
C -0.774776 -0.449969 -0.866025 -0.229673 -0.866025 0 
C -0.866025 0.229673 -0.774776 0.449969 -0.612372 0.612372 
C -0.449969 0.774776 -0.229673 0.866025 0 0.866025 
z
" style="stroke: #0000ff; stroke-opacity: 0.8"/>
    </defs>
    <g clip-path="url(#pc555150331)">
     <use xlink:href="#m52c594c906" x="56.564255" y="115.50748" style="fill: #0000ff; fill-opacity: 0.8; stroke: #0000ff; stroke-opacity: 0.8"/>
     <use xlink:href="#m52c594c906" x="82.877942" y="145.314616" style="fill: #0000ff; fill-opacity: 0.8; stroke: #0000ff; stroke-opacity: 0.8"/>
     <use xlink:href="#m52c594c906" x="149.504252" y="154.237471" style="fill: #0000ff; fill-opacity: 0.8; stroke: #0000ff; stroke-opacity: 0.8"/>
     <use xlink:href="#m52c594c906" x="218.002567" y="143.481889" style="fill: #0000ff; fill-opacity: 0.8; stroke: #0000ff; stroke-opacity: 0.8"/>
     <use xlink:href="#m52c594c906" x="249.723379" y="79.403806" style="fill: #0000ff; fill-opacity: 0.8; stroke: #0000ff; stroke-opacity: 0.8"/>
    </g>
   </g>
   <g id="PathCollection_2">
    <defs>
     <path id="m87e8a93831" d="M 0 0.866025 
C 0.229673 0.866025 0.449969 0.774776 0.612372 0.612372 
C 0.774776 0.449969 0.866025 0.229673 0.866025 0 
C 0.866025 -0.229673 0.774776 -0.449969 0.612372 -0.612372 
C 0.449969 -0.774776 0.229673 -0.866025 0 -0.866025 
C -0.229673 -0.866025 -0.449969 -0.774776 -0.612372 -0.612372 
C -0.774776 -0.449969 -0.866025 -0.229673 -0.866025 0 
C -0.866025 0.229673 -0.774776 0.449969 -0.612372 0.612372 
C -0.449969 0.774776 -0.229673 0.866025 0 0.866025 
z
" style="stroke: #fe0100; stroke-opacity: 0.8"/>
    </defs>
    <g clip-path="url(#pc555150331)">
     <use xlink:href="#m87e8a93831" x="56.564255" y="115.50748" style="fill: #fe0100; fill-opacity: 0.8; stroke: #fe0100; stroke-opacity: 0.8"/>
     <use xlink:href="#m87e8a93831" x="82.877942" y="145.314616" style="fill: #fe0100; fill-opacity: 0.8; stroke: #fe0100; stroke-opacity: 0.8"/>
     <use xlink:href="#m87e8a93831" x="149.504252" y="154.237471" style="fill: #fe0100; fill-opacity: 0.8; stroke: #fe0100; stroke-opacity: 0.8"/>
     <use xlink:href="#m87e8a93831" x="218.002567" y="143.481889" style="fill: #fe0100; fill-opacity: 0.8; stroke: #fe0100; stroke-opacity: 0.8"/>
     <use xlink:href="#m87e8a93831" x="249.723379" y="79.403806" style="fill: #fe0100; fill-opacity: 0.8; stroke: #fe0100; stroke-opacity: 0.8"/>
    </g>
   </g>
   <g id="PathCollection_3">
    <defs>
     <path id="m0e743a5c17" d="M 0 0.866025 
C 0.229673 0.866025 0.449969 0.774776 0.612372 0.612372 
C 0.774776 0.449969 0.866025 0.229673 0.866025 0 
C 0.866025 -0.229673 0.774776 -0.449969 0.612372 -0.612372 
C 0.449969 -0.774776 0.229673 -0.866025 0 -0.866025 
C -0.229673 -0.866025 -0.449969 -0.774776 -0.612372 -0.612372 
C -0.774776 -0.449969 -0.866025 -0.229673 -0.866025 0 
C -0.866025 0.229673 -0.774776 0.449969 -0.612372 0.612372 
C -0.449969 0.774776 -0.229673 0.866025 0 0.866025 
z
" style="stroke: #00ff00; stroke-opacity: 0.8"/>
    </defs>
    <g clip-path="url(#pc555150331)">
     <use xlink:href="#m0e743a5c17" x="56.564255" y="115.50748" style="fill: #00ff00; fill-opacity: 0.8; stroke: #00ff00; stroke-opacity: 0.8"/>
     <use xlink:href="#m0e743a5c17" x="82.877942" y="145.314616" style="fill: #00ff00; fill-opacity: 0.8; stroke: #00ff00; stroke-opacity: 0.8"/>
     <use xlink:href="#m0e743a5c17" x="149.504252" y="154.237471" style="fill: #00ff00; fill-opacity: 0.8; stroke: #00ff00; stroke-opacity: 0.8"/>
     <use xlink:href="#m0e743a5c17" x="218.002567" y="143.481889" style="fill: #00ff00; fill-opacity: 0.8; stroke: #00ff00; stroke-opacity: 0.8"/>
     <use xlink:href="#m0e743a5c17" x="249.723379" y="79.403806" style="fill: #00ff00; fill-opacity: 0.8; stroke: #00ff00; stroke-opacity: 0.8"/>
    </g>
   </g>
   <g id="PathCollection_4">
    <defs>
     <path id="m88739fe699" d="M -2.738613 0 
L 2.738613 0 
M 0 2.738613 
L 0 -2.738613 
" style="stroke: #0000ff"/>
    </defs>
    <g clip-path="url(#pc555150331)">
     <use xlink:href="#m88739fe699" x="223.544584" y="28.250958" style="fill: #0000ff; stroke: #0000ff"/>
    </g>
   </g>
   <g id="PathCollection_5">
    <defs>
     <path id="m222b19511f" d="M 0 -2.738613 
L -0.614857 -0.846278 
L -2.604576 -0.846278 
L -0.994859 0.323249 
L -1.609716 2.215584 
L -0 1.046057 
L 1.609716 2.215584 
L 0.994859 0.323249 
L 2.604576 -0.846278 
L 0.614857 -0.846278 
z
" style="stroke: #fe0100"/>
    </defs>
    <g clip-path="url(#pc555150331)">
     <use xlink:href="#m222b19511f" x="224.972564" y="30.38421" style="fill: #fe0100; stroke: #fe0100"/>
    </g>
   </g>
   <g id="PathCollection_6">
    <defs>
     <path id="m6529037179" d="M -2.738613 2.738613 
L 2.738613 -2.738613 
M -2.738613 -2.738613 
L 2.738613 2.738613 
" style="stroke: #00ff00"/>
    </defs>
    <g clip-path="url(#pc555150331)">
     <use xlink:href="#m6529037179" x="227.371737" y="32.463518" style="fill: #00ff00; stroke: #00ff00"/>
    </g>
   </g>
   <g id="patch_13">
    <path d="M 37.018347 169.975297 
L 37.018347 21.50218 
" style="fill: none; stroke: #000000; stroke-width: 0.8; stroke-linejoin: miter; stroke-linecap: square"/>
   </g>
   <g id="patch_14">
    <path d="M 269.269287 169.975297 
L 269.269287 21.50218 
" style="fill: none; stroke: #000000; stroke-width: 0.8; stroke-linejoin: miter; stroke-linecap: square"/>
   </g>
   <g id="patch_15">
    <path d="M 37.018347 169.975297 
L 269.269287 169.975297 
" style="fill: none; stroke: #000000; stroke-width: 0.8; stroke-linejoin: miter; stroke-linecap: square"/>
   </g>
   <g id="patch_16">
    <path d="M 37.018347 21.50218 
L 269.269287 21.50218 
" style="fill: none; stroke: #000000; stroke-width: 0.8; stroke-linejoin: miter; stroke-linecap: square"/>
   </g>
   <g id="text_13">
    <!-- Przed przemieszczeniem środków okregów -->
    <g transform="translate(45.531122 15.50218)scale(0.12 -0.12)">
     <defs>
      <path id="CMR17-50" d="M 1267 2042 
L 2291 2042 
C 3117 2042 3718 2578 3718 3184 
C 3718 3791 3130 4352 2291 4352 
L 333 4352 
L 333 4186 
C 774 4186 845 4186 845 3899 
L 845 446 
C 845 160 774 160 333 160 
L 333 0 
C 518 0 858 0 1056 0 
C 1254 0 1594 0 1779 0 
L 1779 160 
C 1338 160 1267 160 1267 446 
L 1267 2042 
z
M 1254 2176 
L 1254 3938 
C 1254 4155 1267 4186 1523 4186 
L 2170 4186 
C 2995 4186 3232 3714 3232 3184 
C 3232 2604 2950 2176 2170 2176 
L 1254 2176 
z
" transform="scale(0.015625)"/>
      <path id="CMR17-72" d="M 960 1497 
C 960 2112 1222 2688 1702 2688 
C 1747 2688 1792 2682 1837 2662 
C 1837 2662 1696 2617 1696 2452 
C 1696 2298 1818 2234 1914 2234 
C 1990 2234 2131 2279 2131 2458 
C 2131 2663 1926 2790 1709 2790 
C 1222 2790 1011 2317 947 2093 
L 941 2093 
L 941 2790 
L 198 2720 
L 198 2554 
C 576 2554 634 2515 634 2208 
L 634 428 
C 634 184 608 153 198 153 
L 198 -13 
C 352 0 646 0 813 0 
C 998 0 1325 0 1498 -13 
L 1498 153 
C 1037 153 960 153 960 440 
L 960 1497 
z
" transform="scale(0.015625)"/>
      <path id="CMR17-7a" d="M 2310 2605 
C 2362 2670 2362 2682 2362 2695 
C 2362 2752 2336 2752 2221 2752 
L 275 2752 
L 211 1760 
L 326 1760 
C 371 2381 442 2650 1178 2650 
L 1958 2650 
L 128 96 
C 128 0 134 0 269 0 
L 2291 0 
L 2381 1152 
L 2266 1152 
C 2214 442 2131 115 1350 115 
L 531 115 
L 2310 2605 
z
" transform="scale(0.015625)"/>
      <path id="CMR17-65" d="M 2438 1472 
C 2464 1498 2464 1511 2464 1576 
C 2464 2238 2118 2816 1389 2816 
C 710 2816 173 2169 173 1383 
C 173 551 781 -64 1459 -64 
C 2176 -64 2458 607 2458 740 
C 2458 784 2419 784 2406 784 
C 2362 784 2355 771 2330 696 
C 2189 265 1837 51 1504 51 
C 1229 51 954 203 781 480 
C 582 803 582 1176 582 1472 
L 2438 1472 
z
M 589 1568 
C 634 2505 1126 2714 1382 2714 
C 1818 2714 2112 2297 2118 1568 
L 589 1568 
z
" transform="scale(0.015625)"/>
      <path id="CMR17-64" d="M 1869 4326 
L 1869 4160 
C 2246 4160 2304 4122 2304 3820 
L 2304 2345 
C 2278 2377 2016 2790 1498 2790 
C 845 2790 211 2208 211 1364 
C 211 525 806 -64 1434 -64 
C 1978 -64 2259 337 2291 380 
L 2291 -63 
L 3066 -63 
L 3066 128 
C 2688 128 2630 166 2630 473 
L 2630 4396 
L 1869 4326 
z
M 2291 755 
C 2291 563 2176 390 2029 262 
C 1811 70 1594 38 1472 38 
C 1286 38 621 134 621 1356 
C 621 2612 1363 2688 1530 2688 
C 1824 2688 2061 2522 2208 2291 
C 2291 2157 2291 2138 2291 2023 
L 2291 755 
z
" transform="scale(0.015625)"/>
      <path id="CMR17-70" d="M 1408 -1063 
C 998 -1063 973 -1037 973 -789 
L 973 402 
C 1158 134 1427 -38 1766 -38 
C 2406 -38 3053 523 3053 1388 
C 3053 2191 2496 2802 1837 2802 
C 1453 2802 1139 2592 960 2338 
L 960 2802 
L 198 2732 
L 198 2567 
C 576 2567 634 2528 634 2223 
L 634 -789 
C 634 -1031 608 -1063 198 -1063 
L 198 -1228 
C 352 -1216 634 -1216 800 -1216 
C 966 -1216 1254 -1216 1408 -1228 
L 1408 -1063 
z
M 973 2012 
C 973 2102 973 2235 1222 2471 
C 1254 2497 1472 2688 1792 2688 
C 2259 2688 2643 2108 2643 1382 
C 2643 656 2234 64 1728 64 
C 1498 64 1248 172 1056 472 
C 973 612 973 650 973 752 
L 973 2012 
z
" transform="scale(0.015625)"/>
      <path id="CMR17-6d" d="M 4326 1933 
C 4326 2252 4269 2790 3507 2790 
C 3072 2790 2771 2496 2656 2151 
L 2650 2151 
C 2573 2676 2195 2790 1837 2790 
C 1331 2790 1069 2400 973 2144 
L 966 2144 
L 966 2790 
L 211 2720 
L 211 2554 
C 589 2554 646 2515 646 2208 
L 646 428 
C 646 184 621 153 211 153 
L 211 -13 
C 365 0 646 0 813 0 
C 979 0 1267 0 1421 -13 
L 1421 153 
C 1011 153 986 178 986 428 
L 986 1658 
C 986 2247 1344 2688 1792 2688 
C 2266 2688 2317 2266 2317 1958 
L 2317 428 
C 2317 184 2291 153 1882 153 
L 1882 -13 
C 2035 0 2317 0 2483 0 
C 2650 0 2938 0 3091 -13 
L 3091 153 
C 2682 153 2656 178 2656 428 
L 2656 1658 
C 2656 2247 3014 2688 3462 2688 
C 3936 2688 3987 2266 3987 1958 
L 3987 428 
C 3987 184 3962 153 3552 153 
L 3552 -13 
C 3706 0 3987 0 4154 0 
C 4320 0 4608 0 4762 -13 
L 4762 153 
C 4352 153 4326 178 4326 428 
L 4326 1933 
z
" transform="scale(0.015625)"/>
      <path id="CMR17-69" d="M 992 3909 
C 992 4049 877 4170 730 4170 
C 589 4170 467 4056 467 3909 
C 467 3769 582 3648 730 3648 
C 870 3648 992 3763 992 3909 
z
M 243 2706 
L 243 2541 
C 602 2541 653 2502 653 2197 
L 653 427 
C 653 184 627 153 218 153 
L 218 -13 
C 371 0 646 0 806 0 
C 960 0 1222 0 1370 -13 
L 1370 153 
C 992 153 979 191 979 420 
L 979 2776 
L 243 2706 
z
" transform="scale(0.015625)"/>
      <path id="CMR17-73" d="M 1978 2697 
C 1978 2813 1971 2819 1933 2819 
C 1907 2819 1901 2813 1824 2717 
C 1805 2691 1747 2626 1728 2601 
C 1523 2819 1235 2819 1126 2819 
C 416 2819 160 2447 160 2076 
C 160 1498 813 1365 998 1325 
C 1402 1243 1542 1217 1677 1101 
C 1760 1025 1901 884 1901 654 
C 1901 384 1747 38 1158 38 
C 602 38 403 460 288 1021 
C 269 1110 269 1117 218 1117 
C 166 1117 160 1110 160 983 
L 160 63 
C 160 -51 166 -58 205 -58 
C 237 -58 243 -51 275 0 
C 314 57 410 211 448 276 
C 576 103 800 -64 1158 -64 
C 1792 -64 2131 283 2131 784 
C 2131 1112 1958 1285 1875 1362 
C 1683 1561 1459 1606 1190 1657 
C 838 1735 390 1825 390 2217 
C 390 2383 480 2737 1126 2737 
C 1811 2737 1850 2094 1862 1888 
C 1869 1856 1901 1849 1920 1849 
C 1978 1849 1978 1869 1978 1978 
L 1978 2697 
z
" transform="scale(0.015625)"/>
      <path id="CMR17-63" d="M 2234 2240 
C 2112 2240 1933 2240 1933 2017 
C 1933 1838 2080 1787 2163 1787 
C 2208 1787 2394 1807 2394 2024 
C 2394 2467 1958 2803 1466 2803 
C 787 2803 211 2178 211 1363 
C 211 516 813 -64 1466 -64 
C 2259 -64 2458 677 2458 748 
C 2458 774 2451 793 2406 793 
C 2362 793 2355 787 2330 703 
C 2163 180 1798 51 1523 51 
C 1114 51 621 427 621 1369 
C 621 2338 1094 2688 1472 2688 
C 1722 2688 2093 2573 2234 2240 
z
" transform="scale(0.015625)"/>
      <path id="CMR17-6e" d="M 2656 1933 
C 2656 2259 2592 2790 1837 2790 
C 1331 2790 1069 2400 973 2144 
L 966 2144 
L 966 2790 
L 211 2720 
L 211 2554 
C 589 2554 646 2515 646 2208 
L 646 428 
C 646 184 621 153 211 153 
L 211 -13 
C 365 0 646 0 813 0 
C 979 0 1267 0 1421 -13 
L 1421 153 
C 1011 153 986 178 986 428 
L 986 1658 
C 986 2247 1344 2688 1792 2688 
C 2266 2688 2317 2266 2317 1958 
L 2317 428 
C 2317 184 2291 153 1882 153 
L 1882 -13 
C 2035 0 2317 0 2483 0 
C 2650 0 2938 0 3091 -13 
L 3091 153 
C 2682 153 2656 178 2656 428 
L 2656 1933 
z
" transform="scale(0.015625)"/>
      <path id="CMR17-13" d="M 2221 4091 
C 2298 4161 2317 4174 2317 4244 
C 2317 4339 2234 4416 2144 4416 
C 2067 4416 2042 4384 1978 4308 
L 1254 3390 
C 1210 3333 1210 3327 1210 3320 
C 1210 3314 1267 3256 1280 3244 
L 2221 4091 
z
" transform="scale(0.015625)"/>
      <path id="CMR17-6f" d="M 2758 1356 
C 2758 2176 2163 2816 1466 2816 
C 768 2816 173 2176 173 1356 
C 173 551 768 -64 1466 -64 
C 2163 -64 2758 551 2758 1356 
z
M 1466 51 
C 1165 51 909 230 762 480 
C 602 767 582 1126 582 1408 
C 582 1677 595 2010 762 2298 
C 890 2509 1139 2714 1466 2714 
C 1754 2714 1997 2554 2150 2330 
C 2349 2029 2349 1607 2349 1408 
C 2349 1158 2336 775 2163 467 
C 1984 173 1709 51 1466 51 
z
" transform="scale(0.015625)"/>
      <path id="CMR17-6b" d="M 1670 1673 
C 1664 1686 1632 1724 1632 1743 
C 1632 1756 2086 2171 2144 2222 
C 2509 2528 2739 2560 2906 2560 
L 2906 2733 
C 2867 2733 2854 2733 2848 2720 
L 2534 2720 
C 2355 2720 2080 2720 1907 2733 
L 1907 2566 
C 1997 2559 2061 2508 2061 2419 
C 2061 2291 1933 2170 1926 2170 
L 960 1289 
L 960 4396 
L 198 4326 
L 198 4160 
C 576 4160 634 4122 634 3817 
L 634 426 
C 634 184 608 153 198 153 
L 198 -13 
C 352 0 634 0 794 0 
C 954 0 1235 0 1389 -13 
L 1389 153 
C 979 153 954 178 954 428 
L 954 1130 
L 1395 1532 
L 2042 574 
C 2118 459 2182 369 2182 286 
C 2182 172 2067 153 1990 153 
L 1990 -13 
C 2144 0 2419 0 2579 0 
C 2694 0 2931 0 3040 0 
L 3040 153 
C 2739 153 2669 210 2477 491 
L 1670 1673 
z
" transform="scale(0.015625)"/>
      <path id="CMR17-77" d="M 3725 2183 
C 3853 2560 4109 2560 4205 2560 
L 4205 2732 
C 4077 2732 3949 2732 3821 2732 
C 3699 2732 3424 2732 3315 2738 
L 3315 2560 
C 3514 2560 3622 2445 3622 2286 
C 3622 2241 3610 2184 3597 2140 
L 2995 407 
L 2342 2275 
C 2330 2319 2310 2370 2310 2395 
C 2310 2560 2528 2560 2630 2560 
L 2630 2738 
C 2483 2732 2214 2732 2061 2732 
C 1901 2732 1734 2732 1587 2738 
L 1587 2560 
C 1939 2560 1939 2547 2074 2149 
L 1485 451 
L 851 2281 
C 819 2363 819 2376 819 2395 
C 819 2560 1037 2560 1139 2560 
L 1139 2738 
C 986 2732 717 2732 557 2732 
C 416 2732 198 2732 64 2738 
L 64 2560 
C 346 2560 416 2541 486 2331 
L 1274 49 
C 1299 -33 1318 -52 1370 -52 
C 1414 -52 1440 -39 1472 56 
L 2131 1980 
L 2797 56 
C 2829 -39 2854 -52 2899 -52 
C 2950 -52 2970 -33 2995 50 
L 3725 2183 
z
" transform="scale(0.015625)"/>
      <path id="CMR17-67" d="M 710 1164 
C 832 1068 1043 960 1299 960 
C 1805 960 2240 1357 2240 1888 
C 2240 2054 2189 2310 1997 2509 
C 2176 2692 2438 2752 2586 2752 
C 2611 2752 2650 2752 2682 2734 
C 2656 2728 2598 2703 2598 2605 
C 2598 2527 2656 2471 2739 2471 
C 2835 2471 2886 2533 2886 2614 
C 2886 2731 2790 2854 2586 2854 
C 2330 2854 2106 2738 1926 2580 
C 1734 2753 1504 2816 1299 2816 
C 794 2816 358 2419 358 1888 
C 358 1522 570 1292 634 1228 
C 442 1004 442 743 442 711 
C 442 545 506 302 723 168 
C 390 85 128 -169 128 -486 
C 128 -943 736 -1280 1466 -1280 
C 2170 -1280 2803 -956 2803 -479 
C 2803 384 1856 384 1363 384 
C 1216 384 954 384 922 391 
C 723 423 589 602 589 826 
C 589 883 589 1024 710 1164 
z
M 1299 1068 
C 736 1068 736 1760 736 1889 
C 736 2016 736 2708 1299 2708 
C 1862 2708 1862 2016 1862 1889 
C 1862 1760 1862 1068 1299 1068 
z
M 1466 -1171 
C 826 -1171 384 -835 384 -486 
C 384 -289 493 -105 634 -4 
C 794 104 858 104 1293 104 
C 1818 104 2547 104 2547 -486 
C 2547 -835 2106 -1171 1466 -1171 
z
" transform="scale(0.015625)"/>
     </defs>
     <use xlink:href="#CMR17-50" transform="scale(0.996264)"/>
     <use xlink:href="#CMR17-72" transform="translate(62.586301 0)scale(0.996264)"/>
     <use xlink:href="#CMR17-7a" transform="translate(97.867068 0)scale(0.996264)"/>
     <use xlink:href="#CMR17-65" transform="translate(138.352729 0)scale(0.996264)"/>
     <use xlink:href="#CMR17-64" transform="translate(178.838389 0)scale(0.996264)"/>
     <use xlink:href="#CMR17-70" transform="translate(259.809725 0)scale(0.996264)"/>
     <use xlink:href="#CMR17-72" transform="translate(310.705095 0)scale(0.996264)"/>
     <use xlink:href="#CMR17-7a" transform="translate(345.985863 0)scale(0.996264)"/>
     <use xlink:href="#CMR17-65" transform="translate(386.471523 0)scale(0.996264)"/>
     <use xlink:href="#CMR17-6d" transform="translate(426.957184 0)scale(0.996264)"/>
     <use xlink:href="#CMR17-69" transform="translate(503.876774 0)scale(0.996264)"/>
     <use xlink:href="#CMR17-65" transform="translate(528.747832 0)scale(0.996264)"/>
     <use xlink:href="#CMR17-73" transform="translate(569.233493 0)scale(0.996264)"/>
     <use xlink:href="#CMR17-7a" transform="translate(605.03483 0)scale(0.996264)"/>
     <use xlink:href="#CMR17-63" transform="translate(645.520491 0)scale(0.996264)"/>
     <use xlink:href="#CMR17-7a" transform="translate(686.006151 0)scale(0.996264)"/>
     <use xlink:href="#CMR17-65" transform="translate(726.491812 0)scale(0.996264)"/>
     <use xlink:href="#CMR17-6e" transform="translate(766.977472 0)scale(0.996264)"/>
     <use xlink:href="#CMR17-69" transform="translate(817.872842 0)scale(0.996264)"/>
     <use xlink:href="#CMR17-65" transform="translate(842.7439 0)scale(0.996264)"/>
     <use xlink:href="#CMR17-6d" transform="translate(883.229561 0)scale(0.996264)"/>
     <use xlink:href="#CMR17-13" transform="translate(985.28054 0)scale(0.996264)"/>
     <use xlink:href="#CMR17-73" transform="translate(990.225117 0)scale(0.996264)"/>
     <use xlink:href="#CMR17-72" transform="translate(1026.026455 0)scale(0.996264)"/>
     <use xlink:href="#CMR17-6f" transform="translate(1061.307223 0)scale(0.996264)"/>
     <use xlink:href="#CMR17-64" transform="translate(1109.600138 0)scale(0.996264)"/>
     <use xlink:href="#CMR17-6b" transform="translate(1160.495508 0)scale(0.996264)"/>
     <use xlink:href="#CMR17-13" transform="translate(1208.788424 0)scale(0.996264)"/>
     <use xlink:href="#CMR17-6f" transform="translate(1208.788424 0)scale(0.996264)"/>
     <use xlink:href="#CMR17-77" transform="translate(1254.478901 0)scale(0.996264)"/>
     <use xlink:href="#CMR17-6f" transform="translate(1351.064748 0)scale(0.996264)"/>
     <use xlink:href="#CMR17-6b" transform="translate(1396.755225 0)scale(0.996264)"/>
     <use xlink:href="#CMR17-72" transform="translate(1445.048141 0)scale(0.996264)"/>
     <use xlink:href="#CMR17-65" transform="translate(1480.328909 0)scale(0.996264)"/>
     <use xlink:href="#CMR17-67" transform="translate(1520.814569 0)scale(0.996264)"/>
     <use xlink:href="#CMR17-13" transform="translate(1566.505046 0)scale(0.996264)"/>
     <use xlink:href="#CMR17-6f" transform="translate(1566.505046 0)scale(0.996264)"/>
     <use xlink:href="#CMR17-77" transform="translate(1612.195524 0)scale(0.996264)"/>
    </g>
   </g>
  </g>
  <g id="axes_2">
   <g id="patch_17">
    <path d="M 315.340897 169.975297 
L 547.591837 169.975297 
L 547.591837 21.50218 
L 315.340897 21.50218 
z
" style="fill: #ffffff"/>
   </g>
   <g id="patch_18">
    <path d="M 334.886805 124.496527 
C 337.270729 124.496527 339.557333 123.549384 341.243022 121.863696 
C 342.92871 120.178008 343.875853 117.891403 343.875853 115.50748 
C 343.875853 113.123557 342.92871 110.836952 341.243022 109.151264 
C 339.557333 107.465575 337.270729 106.518433 334.886805 106.518433 
C 332.502882 106.518433 330.216277 107.465575 328.530589 109.151264 
C 326.844901 110.836952 325.897758 113.123557 325.897758 115.50748 
C 325.897758 117.891403 326.844901 120.178008 328.530589 121.863696 
C 330.216277 123.549384 332.502882 124.496527 334.886805 124.496527 
z
" clip-path="url(#pecb7e23b98)" style="fill: #f2f2f2; stroke: #f2f2f2; stroke-linejoin: miter"/>
   </g>
   <g id="patch_19">
    <path d="M 361.200492 154.303663 
C 363.584415 154.303663 365.87102 153.35652 367.556708 151.670832 
C 369.242397 149.985144 370.189539 147.698539 370.189539 145.314616 
C 370.189539 142.930693 369.242397 140.644088 367.556708 138.9584 
C 365.87102 137.272711 363.584415 136.325569 361.200492 136.325569 
C 358.816569 136.325569 356.529964 137.272711 354.844276 138.9584 
C 353.158588 140.644088 352.211445 142.930693 352.211445 145.314616 
C 352.211445 147.698539 353.158588 149.985144 354.844276 151.670832 
C 356.529964 153.35652 358.816569 154.303663 361.200492 154.303663 
z
" clip-path="url(#pecb7e23b98)" style="fill: #f2f2f2; stroke: #f2f2f2; stroke-linejoin: miter"/>
   </g>
   <g id="patch_20">
    <path d="M 427.826802 163.226519 
C 430.210725 163.226519 432.49733 162.279376 434.183018 160.593688 
C 435.868706 158.907999 436.815849 156.621395 436.815849 154.237471 
C 436.815849 151.853548 435.868706 149.566943 434.183018 147.881255 
C 432.49733 146.195567 430.210725 145.248424 427.826802 145.248424 
C 425.442879 145.248424 423.156274 146.195567 421.470585 147.881255 
C 419.784897 149.566943 418.837754 151.853548 418.837754 154.237471 
C 418.837754 156.621395 419.784897 158.907999 421.470585 160.593688 
C 423.156274 162.279376 425.442879 163.226519 427.826802 163.226519 
z
" clip-path="url(#pecb7e23b98)" style="fill: #f2f2f2; stroke: #f2f2f2; stroke-linejoin: miter"/>
   </g>
   <g id="patch_21">
    <path d="M 496.325117 152.470937 
C 498.70904 152.470937 500.995645 151.523794 502.681333 149.838106 
C 504.367021 148.152417 505.314164 145.865813 505.314164 143.481889 
C 505.314164 141.097966 504.367021 138.811361 502.681333 137.125673 
C 500.995645 135.439985 498.70904 134.492842 496.325117 134.492842 
C 493.941193 134.492842 491.654588 135.439985 489.9689 137.125673 
C 488.283212 138.811361 487.336069 141.097966 487.336069 143.481889 
C 487.336069 145.865813 488.283212 148.152417 489.9689 149.838106 
C 491.654588 151.523794 493.941193 152.470937 496.325117 152.470937 
z
" clip-path="url(#pecb7e23b98)" style="fill: #f2f2f2; stroke: #f2f2f2; stroke-linejoin: miter"/>
   </g>
   <g id="patch_22">
    <path d="M 528.045929 88.392853 
C 530.429852 88.392853 532.716457 87.44571 534.402145 85.760022 
C 536.087834 84.074334 537.034976 81.787729 537.034976 79.403806 
C 537.034976 77.019882 536.087834 74.733278 534.402145 73.047589 
C 532.716457 71.361901 530.429852 70.414758 528.045929 70.414758 
C 525.662006 70.414758 523.375401 71.361901 521.689713 73.047589 
C 520.004025 74.733278 519.056882 77.019882 519.056882 79.403806 
C 519.056882 81.787729 520.004025 84.074334 521.689713 85.760022 
C 523.375401 87.44571 525.662006 88.392853 528.045929 88.392853 
z
" clip-path="url(#pecb7e23b98)" style="fill: #f2f2f2; stroke: #f2f2f2; stroke-linejoin: miter"/>
   </g>
   <g id="patch_23">
    <path d="M 334.886805 124.496527 
C 337.270729 124.496527 339.557333 123.549384 341.243022 121.863696 
C 342.92871 120.178008 343.875853 117.891403 343.875853 115.50748 
C 343.875853 113.123557 342.92871 110.836952 341.243022 109.151264 
C 339.557333 107.465575 337.270729 106.518433 334.886805 106.518433 
C 332.502882 106.518433 330.216277 107.465575 328.530589 109.151264 
C 326.844901 110.836952 325.897758 113.123557 325.897758 115.50748 
C 325.897758 117.891403 326.844901 120.178008 328.530589 121.863696 
C 330.216277 123.549384 332.502882 124.496527 334.886805 124.496527 
L 334.886805 124.496527 
z
" clip-path="url(#pecb7e23b98)" style="fill: none; stroke: #b2b2b2; stroke-linejoin: miter"/>
   </g>
   <g id="patch_24">
    <path d="M 361.200492 154.303663 
C 363.584415 154.303663 365.87102 153.35652 367.556708 151.670832 
C 369.242397 149.985144 370.189539 147.698539 370.189539 145.314616 
C 370.189539 142.930693 369.242397 140.644088 367.556708 138.9584 
C 365.87102 137.272711 363.584415 136.325569 361.200492 136.325569 
C 358.816569 136.325569 356.529964 137.272711 354.844276 138.9584 
C 353.158588 140.644088 352.211445 142.930693 352.211445 145.314616 
C 352.211445 147.698539 353.158588 149.985144 354.844276 151.670832 
C 356.529964 153.35652 358.816569 154.303663 361.200492 154.303663 
L 361.200492 154.303663 
z
" clip-path="url(#pecb7e23b98)" style="fill: none; stroke: #b2b2b2; stroke-linejoin: miter"/>
   </g>
   <g id="patch_25">
    <path d="M 427.826802 163.226519 
C 430.210725 163.226519 432.49733 162.279376 434.183018 160.593688 
C 435.868706 158.907999 436.815849 156.621395 436.815849 154.237471 
C 436.815849 151.853548 435.868706 149.566943 434.183018 147.881255 
C 432.49733 146.195567 430.210725 145.248424 427.826802 145.248424 
C 425.442879 145.248424 423.156274 146.195567 421.470585 147.881255 
C 419.784897 149.566943 418.837754 151.853548 418.837754 154.237471 
C 418.837754 156.621395 419.784897 158.907999 421.470585 160.593688 
C 423.156274 162.279376 425.442879 163.226519 427.826802 163.226519 
L 427.826802 163.226519 
z
" clip-path="url(#pecb7e23b98)" style="fill: none; stroke: #b2b2b2; stroke-linejoin: miter"/>
   </g>
   <g id="patch_26">
    <path d="M 496.325117 152.470937 
C 498.70904 152.470937 500.995645 151.523794 502.681333 149.838106 
C 504.367021 148.152417 505.314164 145.865813 505.314164 143.481889 
C 505.314164 141.097966 504.367021 138.811361 502.681333 137.125673 
C 500.995645 135.439985 498.70904 134.492842 496.325117 134.492842 
C 493.941193 134.492842 491.654588 135.439985 489.9689 137.125673 
C 488.283212 138.811361 487.336069 141.097966 487.336069 143.481889 
C 487.336069 145.865813 488.283212 148.152417 489.9689 149.838106 
C 491.654588 151.523794 493.941193 152.470937 496.325117 152.470937 
L 496.325117 152.470937 
z
" clip-path="url(#pecb7e23b98)" style="fill: none; stroke: #b2b2b2; stroke-linejoin: miter"/>
   </g>
   <g id="patch_27">
    <path d="M 528.045929 88.392853 
C 530.429852 88.392853 532.716457 87.44571 534.402145 85.760022 
C 536.087834 84.074334 537.034976 81.787729 537.034976 79.403806 
C 537.034976 77.019882 536.087834 74.733278 534.402145 73.047589 
C 532.716457 71.361901 530.429852 70.414758 528.045929 70.414758 
C 525.662006 70.414758 523.375401 71.361901 521.689713 73.047589 
C 520.004025 74.733278 519.056882 77.019882 519.056882 79.403806 
C 519.056882 81.787729 520.004025 84.074334 521.689713 85.760022 
C 523.375401 87.44571 525.662006 88.392853 528.045929 88.392853 
L 528.045929 88.392853 
z
" clip-path="url(#pecb7e23b98)" style="fill: none; stroke: #b2b2b2; stroke-linejoin: miter"/>
   </g>
   <g id="matplotlib.axis_3">
    <g id="xtick_7">
     <g id="line2d_14">
      <g>
       <use xlink:href="#m0d7e81854d" x="339.411823" y="169.975297" style="stroke: #000000; stroke-width: 0.8"/>
      </g>
     </g>
     <g id="text_14">
      <!-- $\mathdefault{−60}$ -->
      <g transform="translate(330.556116 183.893795)scale(0.1 -0.1)">
       <use xlink:href="#CMSY10-0" transform="scale(0.996264)"/>
       <use xlink:href="#CMR17-36" transform="translate(77.487468 0)scale(0.996264)"/>
       <use xlink:href="#CMR17-30" transform="translate(123.177945 0)scale(0.996264)"/>
      </g>
     </g>
    </g>
    <g id="xtick_8">
     <g id="line2d_15">
      <g>
       <use xlink:href="#m0d7e81854d" x="375.368013" y="169.975297" style="stroke: #000000; stroke-width: 0.8"/>
      </g>
     </g>
     <g id="text_15">
      <!-- $\mathdefault{−40}$ -->
      <g transform="translate(366.512306 183.893795)scale(0.1 -0.1)">
       <use xlink:href="#CMSY10-0" transform="scale(0.996264)"/>
       <use xlink:href="#CMR17-34" transform="translate(77.487468 0)scale(0.996264)"/>
       <use xlink:href="#CMR17-30" transform="translate(123.177945 0)scale(0.996264)"/>
      </g>
     </g>
    </g>
    <g id="xtick_9">
     <g id="line2d_16">
      <g>
       <use xlink:href="#m0d7e81854d" x="411.324202" y="169.975297" style="stroke: #000000; stroke-width: 0.8"/>
      </g>
     </g>
     <g id="text_16">
      <!-- $\mathdefault{−20}$ -->
      <g transform="translate(402.468495 183.893795)scale(0.1 -0.1)">
       <use xlink:href="#CMSY10-0" transform="scale(0.996264)"/>
       <use xlink:href="#CMR17-32" transform="translate(77.487468 0)scale(0.996264)"/>
       <use xlink:href="#CMR17-30" transform="translate(123.177945 0)scale(0.996264)"/>
      </g>
     </g>
    </g>
    <g id="xtick_10">
     <g id="line2d_17">
      <g>
       <use xlink:href="#m0d7e81854d" x="447.280391" y="169.975297" style="stroke: #000000; stroke-width: 0.8"/>
      </g>
     </g>
     <g id="text_17">
      <!-- $\mathdefault{0}$ -->
      <g transform="translate(444.789723 183.893795)scale(0.1 -0.1)">
       <use xlink:href="#CMR17-30" transform="scale(0.996264)"/>
      </g>
     </g>
    </g>
    <g id="xtick_11">
     <g id="line2d_18">
      <g>
       <use xlink:href="#m0d7e81854d" x="483.23658" y="169.975297" style="stroke: #000000; stroke-width: 0.8"/>
      </g>
     </g>
     <g id="text_18">
      <!-- $\mathdefault{20}$ -->
      <g transform="translate(478.255245 183.893795)scale(0.1 -0.1)">
       <use xlink:href="#CMR17-32" transform="scale(0.996264)"/>
       <use xlink:href="#CMR17-30" transform="translate(45.690477 0)scale(0.996264)"/>
      </g>
     </g>
    </g>
    <g id="xtick_12">
     <g id="line2d_19">
      <g>
       <use xlink:href="#m0d7e81854d" x="519.192769" y="169.975297" style="stroke: #000000; stroke-width: 0.8"/>
      </g>
     </g>
     <g id="text_19">
      <!-- $\mathdefault{40}$ -->
      <g transform="translate(514.211434 183.893795)scale(0.1 -0.1)">
       <use xlink:href="#CMR17-34" transform="scale(0.996264)"/>
       <use xlink:href="#CMR17-30" transform="translate(45.690477 0)scale(0.996264)"/>
      </g>
     </g>
    </g>
    <g id="text_20">
     <!-- x -->
     <g transform="translate(428.837325 196.749472)scale(0.1 -0.1)">
      <use xlink:href="#CMR17-78" transform="scale(0.996264)"/>
     </g>
    </g>
   </g>
   <g id="matplotlib.axis_4">
    <g id="ytick_5">
     <g id="line2d_20">
      <g>
       <use xlink:href="#m5ca0b0120d" x="315.340897" y="140.871982" style="stroke: #000000; stroke-width: 0.8"/>
      </g>
     </g>
     <g id="text_21">
      <!-- $\mathdefault{0}$ -->
      <g transform="translate(303.359562 144.331232)scale(0.1 -0.1)">
       <use xlink:href="#CMR17-30" transform="scale(0.996264)"/>
      </g>
     </g>
    </g>
    <g id="ytick_6">
     <g id="line2d_21">
      <g>
       <use xlink:href="#m5ca0b0120d" x="315.340897" y="104.915793" style="stroke: #000000; stroke-width: 0.8"/>
      </g>
     </g>
     <g id="text_22">
      <!-- $\mathdefault{20}$ -->
      <g transform="translate(298.378227 108.375042)scale(0.1 -0.1)">
       <use xlink:href="#CMR17-32" transform="scale(0.996264)"/>
       <use xlink:href="#CMR17-30" transform="translate(45.690477 0)scale(0.996264)"/>
      </g>
     </g>
    </g>
    <g id="ytick_7">
     <g id="line2d_22">
      <g>
       <use xlink:href="#m5ca0b0120d" x="315.340897" y="68.959604" style="stroke: #000000; stroke-width: 0.8"/>
      </g>
     </g>
     <g id="text_23">
      <!-- $\mathdefault{40}$ -->
      <g transform="translate(298.378227 72.418853)scale(0.1 -0.1)">
       <use xlink:href="#CMR17-34" transform="scale(0.996264)"/>
       <use xlink:href="#CMR17-30" transform="translate(45.690477 0)scale(0.996264)"/>
      </g>
     </g>
    </g>
    <g id="ytick_8">
     <g id="line2d_23">
      <g>
       <use xlink:href="#m5ca0b0120d" x="315.340897" y="33.003415" style="stroke: #000000; stroke-width: 0.8"/>
      </g>
     </g>
     <g id="text_24">
      <!-- $\mathdefault{60}$ -->
      <g transform="translate(298.378227 36.462664)scale(0.1 -0.1)">
       <use xlink:href="#CMR17-36" transform="scale(0.996264)"/>
       <use xlink:href="#CMR17-30" transform="translate(45.690477 0)scale(0.996264)"/>
      </g>
     </g>
    </g>
    <g id="text_25">
     <!-- y -->
     <g transform="translate(292.441048 98.36778)rotate(-90)scale(0.1 -0.1)">
      <use xlink:href="#CMR17-79" transform="scale(0.996264)"/>
     </g>
    </g>
   </g>
   <g id="line2d_24">
    <path d="M 328.942902 110.415494 
L 364.775388 139.92302 
L 430.553491 153.222728 
L 495.759932 137.372652 
L 522.071431 75.126385 
L 501.867134 28.250958 
" clip-path="url(#pecb7e23b98)" style="fill: none; stroke: #0000ff; stroke-opacity: 0.8; stroke-linecap: square"/>
   </g>
   <g id="line2d_25">
    <path d="M 331.250098 111.915904 
L 368.177149 146.681496 
L 427.245935 147.026627 
L 497.472011 137.730704 
L 523.164964 71.891919 
L 503.295114 30.38421 
" clip-path="url(#pecb7e23b98)" style="fill: none; stroke: #fe0100; stroke-opacity: 0.8; stroke-linecap: square"/>
   </g>
   <g id="line2d_26">
    <path d="M 333.170331 117.549795 
L 366.303598 146.118494 
L 429.066224 149.810752 
L 502.127931 140.605549 
L 528.606569 86.415334 
L 505.694287 32.463518 
" clip-path="url(#pecb7e23b98)" style="fill: none; stroke: #00ff00; stroke-opacity: 0.8; stroke-linecap: square"/>
   </g>
   <g id="PathCollection_7">
    <g clip-path="url(#pecb7e23b98)">
     <use xlink:href="#m52c594c906" x="328.942902" y="110.415494" style="fill: #0000ff; fill-opacity: 0.8; stroke: #0000ff; stroke-opacity: 0.8"/>
     <use xlink:href="#m52c594c906" x="364.775388" y="139.92302" style="fill: #0000ff; fill-opacity: 0.8; stroke: #0000ff; stroke-opacity: 0.8"/>
     <use xlink:href="#m52c594c906" x="430.553491" y="153.222728" style="fill: #0000ff; fill-opacity: 0.8; stroke: #0000ff; stroke-opacity: 0.8"/>
     <use xlink:href="#m52c594c906" x="495.759932" y="137.372652" style="fill: #0000ff; fill-opacity: 0.8; stroke: #0000ff; stroke-opacity: 0.8"/>
     <use xlink:href="#m52c594c906" x="522.071431" y="75.126385" style="fill: #0000ff; fill-opacity: 0.8; stroke: #0000ff; stroke-opacity: 0.8"/>
    </g>
   </g>
   <g id="PathCollection_8">
    <g clip-path="url(#pecb7e23b98)">
     <use xlink:href="#m87e8a93831" x="331.250098" y="111.915904" style="fill: #fe0100; fill-opacity: 0.8; stroke: #fe0100; stroke-opacity: 0.8"/>
     <use xlink:href="#m87e8a93831" x="368.177149" y="146.681496" style="fill: #fe0100; fill-opacity: 0.8; stroke: #fe0100; stroke-opacity: 0.8"/>
     <use xlink:href="#m87e8a93831" x="427.245935" y="147.026627" style="fill: #fe0100; fill-opacity: 0.8; stroke: #fe0100; stroke-opacity: 0.8"/>
     <use xlink:href="#m87e8a93831" x="497.472011" y="137.730704" style="fill: #fe0100; fill-opacity: 0.8; stroke: #fe0100; stroke-opacity: 0.8"/>
     <use xlink:href="#m87e8a93831" x="523.164964" y="71.891919" style="fill: #fe0100; fill-opacity: 0.8; stroke: #fe0100; stroke-opacity: 0.8"/>
    </g>
   </g>
   <g id="PathCollection_9">
    <g clip-path="url(#pecb7e23b98)">
     <use xlink:href="#m0e743a5c17" x="333.170331" y="117.549795" style="fill: #00ff00; fill-opacity: 0.8; stroke: #00ff00; stroke-opacity: 0.8"/>
     <use xlink:href="#m0e743a5c17" x="366.303598" y="146.118494" style="fill: #00ff00; fill-opacity: 0.8; stroke: #00ff00; stroke-opacity: 0.8"/>
     <use xlink:href="#m0e743a5c17" x="429.066224" y="149.810752" style="fill: #00ff00; fill-opacity: 0.8; stroke: #00ff00; stroke-opacity: 0.8"/>
     <use xlink:href="#m0e743a5c17" x="502.127931" y="140.605549" style="fill: #00ff00; fill-opacity: 0.8; stroke: #00ff00; stroke-opacity: 0.8"/>
     <use xlink:href="#m0e743a5c17" x="528.606569" y="86.415334" style="fill: #00ff00; fill-opacity: 0.8; stroke: #00ff00; stroke-opacity: 0.8"/>
    </g>
   </g>
   <g id="PathCollection_10">
    <g clip-path="url(#pecb7e23b98)">
     <use xlink:href="#m88739fe699" x="501.867134" y="28.250958" style="fill: #0000ff; stroke: #0000ff"/>
    </g>
   </g>
   <g id="PathCollection_11">
    <g clip-path="url(#pecb7e23b98)">
     <use xlink:href="#m222b19511f" x="503.295114" y="30.38421" style="fill: #fe0100; stroke: #fe0100"/>
    </g>
   </g>
   <g id="PathCollection_12">
    <g clip-path="url(#pecb7e23b98)">
     <use xlink:href="#m6529037179" x="505.694287" y="32.463518" style="fill: #00ff00; stroke: #00ff00"/>
    </g>
   </g>
   <g id="patch_28">
    <path d="M 315.340897 169.975297 
L 315.340897 21.50218 
" style="fill: none; stroke: #000000; stroke-width: 0.8; stroke-linejoin: miter; stroke-linecap: square"/>
   </g>
   <g id="patch_29">
    <path d="M 547.591837 169.975297 
L 547.591837 21.50218 
" style="fill: none; stroke: #000000; stroke-width: 0.8; stroke-linejoin: miter; stroke-linecap: square"/>
   </g>
   <g id="patch_30">
    <path d="M 315.340897 169.975297 
L 547.591837 169.975297 
" style="fill: none; stroke: #000000; stroke-width: 0.8; stroke-linejoin: miter; stroke-linecap: square"/>
   </g>
   <g id="patch_31">
    <path d="M 315.340897 21.50218 
L 547.591837 21.50218 
" style="fill: none; stroke: #000000; stroke-width: 0.8; stroke-linejoin: miter; stroke-linecap: square"/>
   </g>
   <g id="text_26">
    <!-- Po przemieszczeniu środków okregów -->
    <g transform="translate(336.047402 15.50218)scale(0.12 -0.12)">
     <defs>
      <path id="CMR17-75" d="M 1882 2693 
L 1882 2528 
C 2259 2528 2317 2489 2317 2186 
L 2317 1032 
C 2317 500 2029 38 1555 38 
C 1030 38 986 348 986 678 
L 986 2763 
L 211 2693 
L 211 2528 
C 467 2528 640 2528 646 2274 
L 646 1058 
C 646 633 646 361 813 183 
C 896 101 1056 -64 1517 -64 
C 2061 -64 2272 377 2323 506 
L 2330 506 
L 2330 -63 
L 3091 -63 
L 3091 128 
C 2714 128 2656 166 2656 473 
L 2656 2763 
L 1882 2693 
z
" transform="scale(0.015625)"/>
     </defs>
     <use xlink:href="#CMR17-50" transform="scale(0.996264)"/>
     <use xlink:href="#CMR17-6f" transform="translate(59.983847 0)scale(0.996264)"/>
     <use xlink:href="#CMR17-70" transform="translate(135.75029 0)scale(0.996264)"/>
     <use xlink:href="#CMR17-72" transform="translate(186.64566 0)scale(0.996264)"/>
     <use xlink:href="#CMR17-7a" transform="translate(221.926428 0)scale(0.996264)"/>
     <use xlink:href="#CMR17-65" transform="translate(262.412088 0)scale(0.996264)"/>
     <use xlink:href="#CMR17-6d" transform="translate(302.897749 0)scale(0.996264)"/>
     <use xlink:href="#CMR17-69" transform="translate(379.817338 0)scale(0.996264)"/>
     <use xlink:href="#CMR17-65" transform="translate(404.688397 0)scale(0.996264)"/>
     <use xlink:href="#CMR17-73" transform="translate(445.174057 0)scale(0.996264)"/>
     <use xlink:href="#CMR17-7a" transform="translate(480.975395 0)scale(0.996264)"/>
     <use xlink:href="#CMR17-63" transform="translate(521.461055 0)scale(0.996264)"/>
     <use xlink:href="#CMR17-7a" transform="translate(561.946716 0)scale(0.996264)"/>
     <use xlink:href="#CMR17-65" transform="translate(602.432376 0)scale(0.996264)"/>
     <use xlink:href="#CMR17-6e" transform="translate(642.918037 0)scale(0.996264)"/>
     <use xlink:href="#CMR17-69" transform="translate(693.813407 0)scale(0.996264)"/>
     <use xlink:href="#CMR17-75" transform="translate(718.684465 0)scale(0.996264)"/>
     <use xlink:href="#CMR17-13" transform="translate(794.711224 0)scale(0.996264)"/>
     <use xlink:href="#CMR17-73" transform="translate(799.655801 0)scale(0.996264)"/>
     <use xlink:href="#CMR17-72" transform="translate(835.457139 0)scale(0.996264)"/>
     <use xlink:href="#CMR17-6f" transform="translate(870.737907 0)scale(0.996264)"/>
     <use xlink:href="#CMR17-64" transform="translate(919.030823 0)scale(0.996264)"/>
     <use xlink:href="#CMR17-6b" transform="translate(969.926192 0)scale(0.996264)"/>
     <use xlink:href="#CMR17-13" transform="translate(1018.219108 0)scale(0.996264)"/>
     <use xlink:href="#CMR17-6f" transform="translate(1018.219108 0)scale(0.996264)"/>
     <use xlink:href="#CMR17-77" transform="translate(1063.909585 0)scale(0.996264)"/>
     <use xlink:href="#CMR17-6f" transform="translate(1160.495432 0)scale(0.996264)"/>
     <use xlink:href="#CMR17-6b" transform="translate(1206.185909 0)scale(0.996264)"/>
     <use xlink:href="#CMR17-72" transform="translate(1254.478825 0)scale(0.996264)"/>
     <use xlink:href="#CMR17-65" transform="translate(1289.759593 0)scale(0.996264)"/>
     <use xlink:href="#CMR17-67" transform="translate(1330.245253 0)scale(0.996264)"/>
     <use xlink:href="#CMR17-13" transform="translate(1375.935731 0)scale(0.996264)"/>
     <use xlink:href="#CMR17-6f" transform="translate(1375.935731 0)scale(0.996264)"/>
     <use xlink:href="#CMR17-77" transform="translate(1421.626208 0)scale(0.996264)"/>
    </g>
   </g>
  </g>
 </g>
 <defs>
  <clipPath id="pc555150331">
   <rect x="37.018347" y="21.50218" width="232.25094" height="148.473117"/>
  </clipPath>
  <clipPath id="pecb7e23b98">
   <rect x="315.340897" y="21.50218" width="232.25094" height="148.473117"/>
  </clipPath>
 </defs>
</svg>
