<?xml version="1.0" encoding="utf-8" standalone="no"?>
<!DOCTYPE svg PUBLIC "-//W3C//DTD SVG 1.1//EN"
  "http://www.w3.org/Graphics/SVG/1.1/DTD/svg11.dtd">
<svg xmlns:xlink="http://www.w3.org/1999/xlink" width="570.012584pt" height="289.066724pt" viewBox="0 0 570.012584 289.066724" xmlns="http://www.w3.org/2000/svg" version="1.1">
 <metadata>
  <rdf:RDF xmlns:dc="http://purl.org/dc/elements/1.1/" xmlns:cc="http://creativecommons.org/ns#" xmlns:rdf="http://www.w3.org/1999/02/22-rdf-syntax-ns#">
   <cc:Work>
    <dc:type rdf:resource="http://purl.org/dc/dcmitype/StillImage"/>
    <dc:date>2022-08-20T22:04:28.236797</dc:date>
    <dc:format>image/svg+xml</dc:format>
    <dc:creator>
     <cc:Agent>
      <dc:title>Matplotlib v3.5.1, https://matplotlib.org/</dc:title>
     </cc:Agent>
    </dc:creator>
   </cc:Work>
  </rdf:RDF>
 </metadata>
 <defs>
  <style type="text/css">*{stroke-linejoin: round; stroke-linecap: butt}</style>
 </defs>
 <g id="figure_1">
  <g id="patch_1">
   <path d="M 0 289.066724 
L 570.012584 289.066724 
L 570.012584 0 
L 0 0 
z
" style="fill: #ffffff"/>
  </g>
  <g id="axes_1">
   <g id="patch_2">
    <path d="M 44.767091 253.155371 
L 277.018031 253.155371 
L 277.018031 20.904431 
L 44.767091 20.904431 
z
" style="fill: #ffffff"/>
   </g>
   <g id="matplotlib.axis_1">
    <g id="xtick_1">
     <g id="line2d_1">
      <defs>
       <path id="md01587efc0" d="M 0 0 
L 0 3.5 
" style="stroke: #000000; stroke-width: 0.8"/>
      </defs>
      <g>
       <use xlink:href="#md01587efc0" x="44.767091" y="253.155371" style="stroke: #000000; stroke-width: 0.8"/>
      </g>
     </g>
     <g id="text_1">
      <!-- $\mathdefault{40}$ -->
      <g transform="translate(39.785756 267.073869)scale(0.1 -0.1)">
       <defs>
        <path id="CMR17-34" d="M 2150 4122 
C 2150 4256 2144 4256 2029 4256 
L 128 1254 
L 128 1088 
L 1779 1088 
L 1779 457 
C 1779 224 1766 160 1318 160 
L 1197 160 
L 1197 0 
C 1402 0 1747 0 1965 0 
C 2182 0 2528 0 2733 0 
L 2733 160 
L 2611 160 
C 2163 160 2150 224 2150 457 
L 2150 1088 
L 2803 1088 
L 2803 1254 
L 2150 1254 
L 2150 4122 
z
M 1798 3703 
L 1798 1254 
L 256 1254 
L 1798 3703 
z
" transform="scale(0.015625)"/>
        <path id="CMR17-30" d="M 2688 2025 
C 2688 2416 2682 3080 2413 3591 
C 2176 4039 1798 4198 1466 4198 
C 1158 4198 768 4058 525 3597 
C 269 3118 243 2524 243 2025 
C 243 1661 250 1106 448 619 
C 723 -39 1216 -128 1466 -128 
C 1760 -128 2208 -7 2470 600 
C 2662 1042 2688 1559 2688 2025 
z
M 1466 -26 
C 1056 -26 813 325 723 812 
C 653 1188 653 1738 653 2096 
C 653 2588 653 2997 736 3387 
C 858 3929 1216 4096 1466 4096 
C 1728 4096 2067 3923 2189 3400 
C 2272 3036 2278 2607 2278 2096 
C 2278 1680 2278 1169 2202 792 
C 2067 95 1690 -26 1466 -26 
z
" transform="scale(0.015625)"/>
       </defs>
       <use xlink:href="#CMR17-34" transform="scale(0.996264)"/>
       <use xlink:href="#CMR17-30" transform="translate(45.690477 0)scale(0.996264)"/>
      </g>
     </g>
    </g>
    <g id="xtick_2">
     <g id="line2d_2">
      <g>
       <use xlink:href="#md01587efc0" x="77.945797" y="253.155371" style="stroke: #000000; stroke-width: 0.8"/>
      </g>
     </g>
     <g id="text_2">
      <!-- $\mathdefault{60}$ -->
      <g transform="translate(72.964461 267.073869)scale(0.1 -0.1)">
       <defs>
        <path id="CMR17-36" d="M 678 2176 
C 678 3690 1395 4032 1811 4032 
C 1946 4032 2272 4009 2400 3776 
C 2298 3776 2106 3776 2106 3553 
C 2106 3381 2246 3323 2336 3323 
C 2394 3323 2566 3348 2566 3560 
C 2566 3954 2246 4179 1805 4179 
C 1043 4179 243 3390 243 1984 
C 243 253 966 -128 1478 -128 
C 2099 -128 2688 427 2688 1283 
C 2688 2081 2170 2662 1517 2662 
C 1126 2662 838 2407 678 1960 
L 678 2176 
z
M 1478 25 
C 691 25 691 1200 691 1436 
C 691 1896 909 2560 1504 2560 
C 1613 2560 1926 2560 2138 2120 
C 2253 1870 2253 1609 2253 1289 
C 2253 944 2253 690 2118 434 
C 1978 171 1773 25 1478 25 
z
" transform="scale(0.015625)"/>
       </defs>
       <use xlink:href="#CMR17-36" transform="scale(0.996264)"/>
       <use xlink:href="#CMR17-30" transform="translate(45.690477 0)scale(0.996264)"/>
      </g>
     </g>
    </g>
    <g id="xtick_3">
     <g id="line2d_3">
      <g>
       <use xlink:href="#md01587efc0" x="111.124502" y="253.155371" style="stroke: #000000; stroke-width: 0.8"/>
      </g>
     </g>
     <g id="text_3">
      <!-- $\mathdefault{80}$ -->
      <g transform="translate(106.143167 267.073869)scale(0.1 -0.1)">
       <defs>
        <path id="CMR17-38" d="M 1741 2264 
C 2144 2467 2554 2773 2554 3263 
C 2554 3841 1990 4179 1472 4179 
C 890 4179 378 3759 378 3180 
C 378 3021 416 2747 666 2505 
C 730 2442 998 2251 1171 2130 
C 883 1983 211 1634 211 934 
C 211 279 838 -128 1459 -128 
C 2144 -128 2720 362 2720 1010 
C 2720 1590 2330 1857 2074 2029 
L 1741 2264 
z
M 902 2822 
C 851 2854 595 3051 595 3351 
C 595 3739 998 4032 1459 4032 
C 1965 4032 2336 3676 2336 3262 
C 2336 2669 1670 2331 1638 2331 
C 1632 2331 1626 2331 1574 2370 
L 902 2822 
z
M 2080 1519 
C 2176 1449 2483 1240 2483 851 
C 2483 381 2010 25 1472 25 
C 890 25 448 438 448 940 
C 448 1443 838 1862 1280 2060 
L 2080 1519 
z
" transform="scale(0.015625)"/>
       </defs>
       <use xlink:href="#CMR17-38" transform="scale(0.996264)"/>
       <use xlink:href="#CMR17-30" transform="translate(45.690477 0)scale(0.996264)"/>
      </g>
     </g>
    </g>
    <g id="xtick_4">
     <g id="line2d_4">
      <g>
       <use xlink:href="#md01587efc0" x="144.303208" y="253.155371" style="stroke: #000000; stroke-width: 0.8"/>
      </g>
     </g>
     <g id="text_4">
      <!-- $\mathdefault{100}$ -->
      <g transform="translate(136.831205 267.073869)scale(0.1 -0.1)">
       <defs>
        <path id="CMR17-31" d="M 1702 4058 
C 1702 4192 1696 4192 1606 4192 
C 1357 3916 979 3827 621 3827 
C 602 3827 570 3827 563 3808 
C 557 3795 557 3782 557 3648 
C 755 3648 1088 3686 1344 3839 
L 1344 461 
C 1344 236 1331 160 781 160 
L 589 160 
L 589 0 
C 896 0 1216 0 1523 0 
C 1830 0 2150 0 2458 0 
L 2458 160 
L 2266 160 
C 1715 160 1702 230 1702 458 
L 1702 4058 
z
" transform="scale(0.015625)"/>
       </defs>
       <use xlink:href="#CMR17-31" transform="scale(0.996264)"/>
       <use xlink:href="#CMR17-30" transform="translate(45.690477 0)scale(0.996264)"/>
       <use xlink:href="#CMR17-30" transform="translate(91.380954 0)scale(0.996264)"/>
      </g>
     </g>
    </g>
    <g id="xtick_5">
     <g id="line2d_5">
      <g>
       <use xlink:href="#md01587efc0" x="177.481914" y="253.155371" style="stroke: #000000; stroke-width: 0.8"/>
      </g>
     </g>
     <g id="text_5">
      <!-- $\mathdefault{120}$ -->
      <g transform="translate(170.009911 267.073869)scale(0.1 -0.1)">
       <defs>
        <path id="CMR17-32" d="M 2669 989 
L 2554 989 
C 2490 536 2438 459 2413 420 
C 2381 369 1920 369 1830 369 
L 602 369 
C 832 619 1280 1072 1824 1597 
C 2214 1967 2669 2402 2669 3035 
C 2669 3790 2067 4224 1395 4224 
C 691 4224 262 3604 262 3030 
C 262 2780 448 2748 525 2748 
C 589 2748 781 2787 781 3010 
C 781 3207 614 3264 525 3264 
C 486 3264 448 3258 422 3245 
C 544 3790 915 4058 1306 4058 
C 1862 4058 2227 3617 2227 3035 
C 2227 2479 1901 2000 1536 1584 
L 262 146 
L 262 0 
L 2515 0 
L 2669 989 
z
" transform="scale(0.015625)"/>
       </defs>
       <use xlink:href="#CMR17-31" transform="scale(0.996264)"/>
       <use xlink:href="#CMR17-32" transform="translate(45.690477 0)scale(0.996264)"/>
       <use xlink:href="#CMR17-30" transform="translate(91.380954 0)scale(0.996264)"/>
      </g>
     </g>
    </g>
    <g id="xtick_6">
     <g id="line2d_6">
      <g>
       <use xlink:href="#md01587efc0" x="210.66062" y="253.155371" style="stroke: #000000; stroke-width: 0.8"/>
      </g>
     </g>
     <g id="text_6">
      <!-- $\mathdefault{140}$ -->
      <g transform="translate(203.188617 267.073869)scale(0.1 -0.1)">
       <use xlink:href="#CMR17-31" transform="scale(0.996264)"/>
       <use xlink:href="#CMR17-34" transform="translate(45.690477 0)scale(0.996264)"/>
       <use xlink:href="#CMR17-30" transform="translate(91.380954 0)scale(0.996264)"/>
      </g>
     </g>
    </g>
    <g id="xtick_7">
     <g id="line2d_7">
      <g>
       <use xlink:href="#md01587efc0" x="243.839325" y="253.155371" style="stroke: #000000; stroke-width: 0.8"/>
      </g>
     </g>
     <g id="text_7">
      <!-- $\mathdefault{160}$ -->
      <g transform="translate(236.367322 267.073869)scale(0.1 -0.1)">
       <use xlink:href="#CMR17-31" transform="scale(0.996264)"/>
       <use xlink:href="#CMR17-36" transform="translate(45.690477 0)scale(0.996264)"/>
       <use xlink:href="#CMR17-30" transform="translate(91.380954 0)scale(0.996264)"/>
      </g>
     </g>
    </g>
    <g id="xtick_8">
     <g id="line2d_8">
      <g>
       <use xlink:href="#md01587efc0" x="277.018031" y="253.155371" style="stroke: #000000; stroke-width: 0.8"/>
      </g>
     </g>
     <g id="text_8">
      <!-- $\mathdefault{180}$ -->
      <g transform="translate(269.546028 267.073869)scale(0.1 -0.1)">
       <use xlink:href="#CMR17-31" transform="scale(0.996264)"/>
       <use xlink:href="#CMR17-38" transform="translate(45.690477 0)scale(0.996264)"/>
       <use xlink:href="#CMR17-30" transform="translate(91.380954 0)scale(0.996264)"/>
      </g>
     </g>
    </g>
    <g id="text_9">
     <!-- x -->
     <g transform="translate(158.263519 279.929546)scale(0.1 -0.1)">
      <defs>
       <path id="CMR17-78" d="M 1664 1477 
C 1856 1726 2074 2006 2253 2216 
C 2464 2458 2707 2560 2989 2560 
L 2989 2726 
C 2880 2726 2656 2726 2541 2726 
C 2368 2726 2170 2726 2022 2732 
L 2022 2566 
C 2112 2553 2163 2489 2163 2400 
C 2163 2285 2099 2215 2067 2171 
L 1594 1573 
L 1030 2306 
C 973 2376 973 2388 973 2420 
C 973 2497 1037 2560 1146 2560 
L 1146 2732 
C 992 2726 717 2726 557 2726 
C 384 2726 179 2726 38 2732 
L 38 2560 
C 384 2560 461 2534 614 2343 
L 1350 1395 
C 1363 1382 1395 1344 1395 1325 
C 1395 1299 838 619 768 530 
C 480 185 179 160 6 160 
L 6 0 
C 115 0 339 0 454 0 
C 582 0 864 0 979 -6 
L 979 160 
C 941 166 838 179 838 325 
C 838 440 890 510 947 586 
L 1478 1236 
L 2035 512 
C 2086 442 2163 346 2163 301 
C 2163 211 2086 160 1984 160 
L 1984 -6 
C 2138 0 2413 0 2573 0 
C 2746 0 2950 0 3091 -6 
L 3091 160 
C 2771 160 2675 172 2522 370 
L 1664 1477 
z
" transform="scale(0.015625)"/>
      </defs>
      <use xlink:href="#CMR17-78" transform="scale(0.996264)"/>
     </g>
    </g>
   </g>
   <g id="matplotlib.axis_2">
    <g id="ytick_1">
     <g id="line2d_9">
      <defs>
       <path id="md429dd9d88" d="M 0 0 
L -3.5 0 
" style="stroke: #000000; stroke-width: 0.8"/>
      </defs>
      <g>
       <use xlink:href="#md429dd9d88" x="44.767091" y="253.155371" style="stroke: #000000; stroke-width: 0.8"/>
      </g>
     </g>
     <g id="text_10">
      <!-- $\mathdefault{−20}$ -->
      <g transform="translate(20.055677 256.61462)scale(0.1 -0.1)">
       <defs>
        <path id="CMSY10-0" d="M 4218 1472 
C 4326 1472 4442 1472 4442 1600 
C 4442 1728 4326 1728 4218 1728 
L 755 1728 
C 646 1728 531 1728 531 1600 
C 531 1472 646 1472 755 1472 
L 4218 1472 
z
" transform="scale(0.015625)"/>
       </defs>
       <use xlink:href="#CMSY10-0" transform="scale(0.996264)"/>
       <use xlink:href="#CMR17-32" transform="translate(77.487468 0)scale(0.996264)"/>
       <use xlink:href="#CMR17-30" transform="translate(123.177945 0)scale(0.996264)"/>
      </g>
     </g>
    </g>
    <g id="ytick_2">
     <g id="line2d_10">
      <g>
       <use xlink:href="#md429dd9d88" x="44.767091" y="219.976665" style="stroke: #000000; stroke-width: 0.8"/>
      </g>
     </g>
     <g id="text_11">
      <!-- $\mathdefault{0}$ -->
      <g transform="translate(32.785756 223.435914)scale(0.1 -0.1)">
       <use xlink:href="#CMR17-30" transform="scale(0.996264)"/>
      </g>
     </g>
    </g>
    <g id="ytick_3">
     <g id="line2d_11">
      <g>
       <use xlink:href="#md429dd9d88" x="44.767091" y="186.797959" style="stroke: #000000; stroke-width: 0.8"/>
      </g>
     </g>
     <g id="text_12">
      <!-- $\mathdefault{20}$ -->
      <g transform="translate(27.80442 190.257208)scale(0.1 -0.1)">
       <use xlink:href="#CMR17-32" transform="scale(0.996264)"/>
       <use xlink:href="#CMR17-30" transform="translate(45.690477 0)scale(0.996264)"/>
      </g>
     </g>
    </g>
    <g id="ytick_4">
     <g id="line2d_12">
      <g>
       <use xlink:href="#md429dd9d88" x="44.767091" y="153.619253" style="stroke: #000000; stroke-width: 0.8"/>
      </g>
     </g>
     <g id="text_13">
      <!-- $\mathdefault{40}$ -->
      <g transform="translate(27.80442 157.078503)scale(0.1 -0.1)">
       <use xlink:href="#CMR17-34" transform="scale(0.996264)"/>
       <use xlink:href="#CMR17-30" transform="translate(45.690477 0)scale(0.996264)"/>
      </g>
     </g>
    </g>
    <g id="ytick_5">
     <g id="line2d_13">
      <g>
       <use xlink:href="#md429dd9d88" x="44.767091" y="120.440548" style="stroke: #000000; stroke-width: 0.8"/>
      </g>
     </g>
     <g id="text_14">
      <!-- $\mathdefault{60}$ -->
      <g transform="translate(27.80442 123.899797)scale(0.1 -0.1)">
       <use xlink:href="#CMR17-36" transform="scale(0.996264)"/>
       <use xlink:href="#CMR17-30" transform="translate(45.690477 0)scale(0.996264)"/>
      </g>
     </g>
    </g>
    <g id="ytick_6">
     <g id="line2d_14">
      <g>
       <use xlink:href="#md429dd9d88" x="44.767091" y="87.261842" style="stroke: #000000; stroke-width: 0.8"/>
      </g>
     </g>
     <g id="text_15">
      <!-- $\mathdefault{80}$ -->
      <g transform="translate(27.80442 90.721091)scale(0.1 -0.1)">
       <use xlink:href="#CMR17-38" transform="scale(0.996264)"/>
       <use xlink:href="#CMR17-30" transform="translate(45.690477 0)scale(0.996264)"/>
      </g>
     </g>
    </g>
    <g id="ytick_7">
     <g id="line2d_15">
      <g>
       <use xlink:href="#md429dd9d88" x="44.767091" y="54.083136" style="stroke: #000000; stroke-width: 0.8"/>
      </g>
     </g>
     <g id="text_16">
      <!-- $\mathdefault{100}$ -->
      <g transform="translate(22.823085 57.542385)scale(0.1 -0.1)">
       <use xlink:href="#CMR17-31" transform="scale(0.996264)"/>
       <use xlink:href="#CMR17-30" transform="translate(45.690477 0)scale(0.996264)"/>
       <use xlink:href="#CMR17-30" transform="translate(91.380954 0)scale(0.996264)"/>
      </g>
     </g>
    </g>
    <g id="ytick_8">
     <g id="line2d_16">
      <g>
       <use xlink:href="#md429dd9d88" x="44.767091" y="20.904431" style="stroke: #000000; stroke-width: 0.8"/>
      </g>
     </g>
     <g id="text_17">
      <!-- $\mathdefault{120}$ -->
      <g transform="translate(22.823085 24.36368)scale(0.1 -0.1)">
       <use xlink:href="#CMR17-31" transform="scale(0.996264)"/>
       <use xlink:href="#CMR17-32" transform="translate(45.690477 0)scale(0.996264)"/>
       <use xlink:href="#CMR17-30" transform="translate(91.380954 0)scale(0.996264)"/>
      </g>
     </g>
    </g>
    <g id="text_18">
     <!-- y -->
     <g transform="translate(14.118498 139.658942)rotate(-90)scale(0.1 -0.1)">
      <defs>
       <path id="CMR17-79" d="M 2496 2197 
C 2656 2586 2944 2586 3034 2586 
L 3034 2752 
C 2912 2752 2752 2752 2630 2752 
C 2496 2752 2285 2752 2157 2758 
L 2157 2592 
C 2400 2573 2406 2394 2406 2343 
C 2406 2280 2394 2248 2362 2171 
L 1664 449 
L 902 2306 
C 870 2382 870 2426 870 2433 
C 870 2573 1018 2586 1171 2586 
L 1171 2758 
C 1018 2752 742 2752 582 2752 
C 410 2752 205 2752 64 2758 
L 64 2586 
C 410 2586 448 2554 531 2350 
L 1485 15 
C 1197 -738 1030 -1178 627 -1178 
C 557 -1178 397 -1159 282 -1044 
C 429 -1031 493 -942 493 -833 
C 493 -725 416 -629 288 -629 
C 147 -629 77 -725 77 -840 
C 77 -1095 339 -1280 627 -1280 
C 998 -1280 1229 -922 1357 -604 
L 2496 2197 
z
" transform="scale(0.015625)"/>
      </defs>
      <use xlink:href="#CMR17-79" transform="scale(0.996264)"/>
     </g>
    </g>
   </g>
   <g id="line2d_17">
    <path d="M 93.17793 66.679905 
L 99.12001 62.693744 
L 105.306983 59.232305 
L 111.691667 56.309905 
L 118.226142 53.936548 
L 124.862141 52.117918 
L 131.551445 50.855379 
L 138.246284 50.146022 
L 144.899708 49.982751 
L 151.465965 50.354404 
L 157.900862 51.245896 
L 164.162105 52.638409 
L 170.209616 54.509602 
L 176.005836 56.833857 
L 181.516003 59.582535 
L 186.708386 62.724281 
L 191.554509 66.225323 
L 196.029341 70.049809 
L 200.111438 74.160137 
L 203.783074 78.517322 
L 207.030315 83.081347 
L 209.843081 87.811532 
L 212.215155 92.666907 
L 214.14416 97.606566 
L 215.631511 102.590037 
L 216.682332 107.577625 
L 217.305322 112.530754 
L 217.512619 117.412297 
L 217.319609 122.186874 
L 216.744723 126.821143 
L 215.809205 131.284065 
L 214.536851 135.547144 
L 212.953736 139.584633 
L 211.087918 143.373721 
L 208.969129 146.89469 
L 206.62846 150.131027 
L 204.098016 153.069524 
L 201.410599 155.700328 
L 198.599364 158.016965 
L 195.697476 160.016333 
L 192.73779 161.698658 
L 189.752519 163.067421 
L 186.772922 164.129247 
L 183.829004 164.893779 
L 180.949228 165.373508 
L 178.160256 165.583583 
L 175.486696 165.5416 
L 172.950889 165.267365 
L 170.572707 164.782629 
L 168.369387 164.110828 
L 166.355393 163.276785 
L 164.542303 162.306414 
L 162.938735 161.226409 
L 161.550292 160.063938 
L 160.379553 158.846318 
L 159.426087 157.60071 
L 158.686496 156.353801 
L 158.1545 155.131504 
L 157.821044 153.958665 
L 157.674431 152.858783 
L 157.700487 151.853743 
L 157.882758 150.963577 
L 158.202714 150.206226 
L 158.639989 149.597356 
L 159.172633 149.150163 
L 159.777387 148.875234 
L 160.42996 148.780423 
L 161.105329 148.870754 
L 161.778041 149.148363 
L 162.422516 149.612468 
L 163.013365 150.259367 
L 163.525693 151.082468 
L 163.935397 152.072356 
L 164.219469 153.216884 
L 164.356285 154.501293 
L 164.325864 155.90837 
L 164.110132 157.418623 
L 163.693159 159.010483 
L 163.061368 160.660531 
L 162.203739 162.343755 
L 161.111958 164.033802 
L 159.780572 165.703273 
L 158.207088 167.32402 
L 156.392059 168.867442 
L 154.339131 170.30481 
L 152.055063 171.607588 
L 149.549705 172.747741 
L 146.835959 173.698069 
L 143.929699 174.432508 
L 140.849655 174.926442 
L 137.617281 175.157001 
L 134.25658 175.103333 
L 130.793907 174.746871 
L 127.257749 174.07158 
L 123.678477 173.064173 
L 120.088068 171.714316 
L 116.519829 170.01479 
L 113.008084 167.961636 
L 109.587856 165.554276 
L 106.294529 162.795578 
L 103.163524 159.691915 
L 100.229943 156.253185 
L 97.528224 152.492775 
L 95.091805 148.427531 
L 92.952774 144.077657 
L 91.141549 139.466603 
L 89.686548 134.620916 
L 88.61389 129.570053 
L 87.947103 124.346181 
L 87.706861 118.983923 
L 87.910727 113.520107 
L 88.572951 107.99347 
L 89.704255 102.444353 
L 91.311687 96.914369 
L 93.398485 91.446057 
L 95.963969 86.082535 
L 99.003483 80.867119 
L 102.508369 75.842964 
L 106.465955 71.052681 
L 110.85961 66.53796 
L 115.668814 62.339198 
L 120.869267 58.495139 
L 126.433039 55.042515 
L 132.328739 52.015705 
L 138.521737 49.44641 
L 144.974393 47.36335 
L 151.646337 45.791978 
L 158.494757 44.754225 
L 165.474723 44.268273 
L 172.539524 44.348348 
L 179.641031 45.004561 
L 186.730073 46.242763 
L 193.756817 48.064456 
L 200.671173 50.466722 
L 207.423187 53.442198 
L 213.963455 56.979086 
L 220.243516 61.061204 
L 226.216257 65.66806 
L 231.8363 70.774988 
L 237.060375 76.353294 
L 241.847697 82.370451 
L 246.160294 88.790327 
L 249.963341 95.573431 
L 253.225462 102.677211 
L 255.918992 110.056358 
L 258.020231 117.663143 
L 259.509653 125.44778 
L 260.372085 133.3588 
L 260.596856 141.343443 
L 260.177895 149.348066 
L 259.113814 157.318551 
L 257.407933 165.200734 
L 255.068278 172.940816 
L 252.107537 180.485788 
L 248.542976 187.783848 
L 244.396324 194.784795 
L 239.693616 201.44044 
L 234.464996 207.704966 
L 228.744501 213.535304 
L 222.569796 218.891456 
L 215.981897 223.736814 
L 209.024846 228.038452 
L 201.745382 231.767368 
L 194.192573 234.898726 
L 186.417442 237.412028 
L 178.472567 239.291285 
L 170.411681 240.525122 
L 162.289243 241.10687 
L 154.160034 241.034605 
L 146.078715 240.31115 
L 138.099414 238.944047 
L 130.275314 236.945473 
L 122.658233 234.332142 
L 115.298239 231.125156 
L 108.243264 227.349818 
L 101.53874 223.03542 
L 95.227266 218.214998 
L 89.348288 212.925054 
L 83.937811 207.205252 
L 79.028139 201.098089 
L 74.647651 194.64855 
L 70.820597 187.903734 
L 67.56695 180.912473 
L 64.90228 173.724942 
L 62.837657 166.392244 
L 61.379617 158.966008 
L 60.530138 151.497979 
L 60.286674 144.039607 
L 60.642217 136.641637 
L 61.585393 129.353725 
L 63.100604 122.224051 
L 65.168189 115.298948 
L 67.764637 108.622555 
L 70.862812 102.23649 
L 74.432212 96.179546 
L 78.439264 90.487414 
L 82.847627 85.192435 
L 87.618526 80.323373 
L 92.711099 75.905244 
L 98.082756 71.959154 
L 98.082756 71.959154 
" clip-path="url(#pb2deb540d8)" style="fill: none; stroke: #000000; stroke-linecap: square"/>
   </g>
   <g id="line2d_18">
    <path d="M 90.524692 67.495228 
L 96.401123 63.252378 
L 102.54722 59.529164 
L 108.916173 56.342279 
L 115.460206 53.704144 
L 122.130964 51.622854 
L 128.879914 50.102164 
L 135.658739 49.14152 
L 142.419724 48.736116 
L 149.116141 48.876993 
L 155.702608 49.551171 
L 162.135449 50.741812 
L 168.373024 52.428413 
L 174.376045 54.587038 
L 180.107859 57.190559 
L 185.534721 60.208942 
L 190.626018 63.609541 
L 195.354481 67.357416 
L 199.696361 71.415666 
L 203.63156 75.745777 
L 207.143746 80.307982 
L 210.220423 85.061618 
L 212.852969 89.965498 
L 215.036634 94.978277 
L 216.770516 100.058816 
L 218.057487 105.166533 
L 218.9041 110.261762 
L 219.320451 115.306077 
L 219.320023 120.262617 
L 218.919493 125.096383 
L 218.138514 129.774519 
L 216.999478 134.266562 
L 215.527241 138.544686 
L 213.748852 142.583883 
L 211.693249 146.362156 
L 209.390942 149.860652 
L 206.873692 153.063772 
L 204.174179 155.95925 
L 201.325666 158.538202 
L 198.36166 160.795137 
L 195.315583 162.727931 
L 192.220431 164.337785 
L 189.108467 165.629129 
L 186.010902 166.60951 
L 182.9576 167.289456 
L 179.976802 167.682292 
L 177.094864 167.803948 
L 174.336025 167.672736 
L 171.722192 167.309109 
L 169.272747 166.735396 
L 167.004397 165.975528 
L 164.931038 165.054741 
L 163.063659 163.99928 
L 161.410267 162.836087 
L 159.975855 161.592488 
L 158.762392 160.295877 
L 157.768852 158.973409 
L 156.991271 157.651685 
L 156.422827 156.356457 
L 156.053964 155.112337 
L 155.872538 153.942527 
L 155.863981 152.868557 
L 156.011502 151.910047 
L 156.296308 151.084493 
L 156.697839 150.407067 
L 157.194026 149.890451 
L 157.761573 149.544703 
L 158.376227 149.377132 
L 159.01309 149.392228 
L 159.646911 149.591597 
L 160.252396 149.97395 
L 160.804515 150.535105 
L 161.278803 151.268036 
L 161.651668 152.162934 
L 161.900671 153.207317 
L 162.004811 154.386158 
L 161.944789 155.682043 
L 161.703256 157.07536 
L 161.265037 158.544496 
L 160.617345 160.066087 
L 159.749956 161.615255 
L 158.655372 163.165885 
L 157.328942 164.690908 
L 155.768969 166.162597 
L 153.976775 167.552881 
L 151.956741 168.833646 
L 149.716314 169.977064 
L 147.26598 170.955899 
L 144.619214 171.74383 
L 141.792381 172.315756 
L 138.804629 172.648094 
L 135.677732 172.719063 
L 132.435913 172.508962 
L 129.105651 172.000424 
L 125.715432 171.178644 
L 122.29552 170.03159 
L 118.877666 168.5502 
L 115.494821 166.728528 
L 112.180834 164.563885 
L 108.970124 162.056927 
L 105.897358 159.211737 
L 102.997105 156.035849 
L 100.303501 152.540267 
L 97.84991 148.739416 
L 95.668577 144.651094 
L 93.790304 140.296367 
L 92.244122 135.699446 
L 91.056979 130.887523 
L 90.253449 125.890585 
L 89.855447 120.741192 
L 89.881979 115.474226 
L 90.348904 110.126638 
L 91.268729 104.737133 
L 92.65043 99.345867 
L 94.499295 93.994122 
L 96.816818 88.723948 
L 99.600602 83.577815 
L 102.844313 78.598243 
L 106.537666 73.827437 
L 110.666436 69.306912 
L 115.212512 65.077116 
L 120.153998 61.177079 
L 125.465316 57.644039 
L 131.117383 54.513111 
L 137.077782 51.816941 
L 143.310997 49.585406 
L 149.778657 47.845314 
L 156.439809 46.620132 
L 163.251232 45.92975 
L 170.167748 45.790256 
L 177.142582 46.213761 
L 184.127715 47.20824 
L 191.074261 48.777412 
L 197.93286 50.92066 
L 204.654068 53.632983 
L 211.188761 56.904979 
L 217.488528 60.722879 
L 223.506079 65.068601 
L 229.195623 69.919857 
L 234.513262 75.250283 
L 239.417355 81.02961 
L 243.868868 87.223872 
L 247.831709 93.795637 
L 251.273044 100.704274 
L 254.16358 107.906255 
L 256.477818 115.355465 
L 258.194293 123.003553 
L 259.295765 130.800295 
L 259.769381 138.693972 
L 259.606805 146.631768 
L 258.804312 154.560178 
L 257.362838 162.425418 
L 255.288003 170.173843 
L 252.590078 177.752371 
L 249.283938 185.108891 
L 245.388955 192.192672 
L 240.928871 198.954768 
L 235.93162 205.348396 
L 230.429131 211.329305 
L 224.457085 216.856128 
L 218.054647 221.890703 
L 211.264172 226.398378 
L 204.130879 230.348277 
L 196.702506 233.713545 
L 189.028941 236.471558 
L 181.16184 238.604093 
L 173.154221 240.09747 
L 165.060065 240.942654 
L 156.93389 241.135323 
L 148.83033 240.675884 
L 140.803719 239.569472 
L 132.907666 237.825891 
L 125.194649 235.459533 
L 117.715608 232.489246 
L 110.51956 228.938179 
L 103.653222 224.833578 
L 97.16067 220.206572 
L 91.082996 215.091895 
L 85.45802 209.527617 
L 80.319995 203.55482 
L 75.699383 197.217261 
L 71.622622 190.56102 
L 68.111963 183.634124 
L 65.185313 176.486157 
L 62.856131 169.167865 
L 61.133363 161.730747 
L 60.021402 154.226643 
L 59.52009 146.707333 
L 59.624771 139.22412 
L 60.326354 131.827435 
L 61.611444 124.566447 
L 63.462477 117.488688 
L 65.857913 110.639686 
L 68.77245 104.062634 
L 72.177259 97.798065 
L 76.040266 91.883561 
L 80.326442 86.353487 
L 84.998126 81.238754 
L 90.015359 76.566612 
L 95.336239 72.360482 
L 95.336239 72.360482 
" clip-path="url(#pb2deb540d8)" style="fill: none; stroke: #0078dd; stroke-linecap: square"/>
   </g>
   <g id="line2d_19">
    <path d="M 94.514751 66.406998 
L 100.476762 62.549539 
L 106.671305 59.218118 
L 113.051125 56.425863 
L 119.56835 54.181597 
L 126.174871 52.489825 
L 132.822736 51.350752 
L 139.464552 50.76035 
L 146.053851 50.710438 
L 152.545469 51.188817 
L 158.895891 52.179433 
L 165.063592 53.662566 
L 171.009347 55.615045 
L 176.696526 58.010513 
L 182.091357 60.819686 
L 187.163162 64.010653 
L 191.884563 67.549197 
L 196.231667 71.399119 
L 200.184191 75.522592 
L 203.725592 79.880506 
L 206.843122 84.43284 
L 209.527882 89.13902 
L 211.774822 93.958295 
L 213.582705 98.850087 
L 214.95405 103.77436 
L 215.895038 108.69196 
L 216.415368 113.564948 
L 216.528114 118.356925 
L 216.249523 123.033331 
L 215.598807 127.561717 
L 214.597898 131.912007 
L 213.271191 136.056733 
L 211.645256 139.971224 
L 209.748539 143.633793 
L 207.611055 147.025873 
L 205.264065 150.132127 
L 202.739731 152.94053 
L 200.070803 155.442417 
L 197.29026 157.632485 
L 194.430995 159.508789 
L 191.525471 161.072674 
L 188.605408 162.328699 
L 185.70147 163.284517 
L 182.842976 163.950741 
L 180.057607 164.340751 
L 177.371165 164.47052 
L 174.807325 164.358373 
L 172.387428 164.024751 
L 170.130289 163.491954 
L 168.052045 162.783851 
L 166.166018 161.925597 
L 164.482621 160.943325 
L 163.009289 159.863839 
L 161.75044 158.714303 
L 160.70747 157.521915 
L 159.878786 156.313607 
L 159.259852 155.115723 
L 158.84329 153.953733 
L 158.61899 152.851933 
L 158.574264 151.833172 
L 158.694009 150.918601 
L 158.960915 150.127422 
L 159.355682 149.476678 
L 159.857263 148.981061 
L 160.443122 148.652738 
L 161.089515 148.501211 
L 161.771772 148.533208 
L 162.4646 148.752601 
L 163.142382 149.160349 
L 163.7795 149.754483 
L 164.350628 150.530117 
L 164.831048 151.479486 
L 165.196951 152.592026 
L 165.425728 153.854469 
L 165.496257 155.250984 
L 165.389163 156.763337 
L 165.087069 158.371076 
L 164.574833 160.051743 
L 163.839749 161.781112 
L 162.87173 163.533444 
L 161.663475 165.281761 
L 160.210589 166.998134 
L 158.511687 168.65398 
L 156.568465 170.220385 
L 154.385737 171.66841 
L 151.971444 172.969418 
L 149.336622 174.095395 
L 146.495355 175.019266 
L 143.464676 175.715211 
L 140.264451 176.158965 
L 136.917227 176.328112 
L 133.448055 176.202361 
L 129.884278 175.763803 
L 126.255306 174.99715 
L 122.59235 173.889948 
L 118.928156 172.432772 
L 115.2967 170.61938 
L 111.732884 168.446853 
L 108.272199 165.915698 
L 104.950408 163.029911 
L 101.803184 159.797027 
L 98.865779 156.228113 
L 96.172665 152.337752 
L 93.757202 148.143967 
L 91.651288 143.668137 
L 89.885038 138.934858 
L 88.486459 133.971791 
L 87.481159 128.809463 
L 86.892053 123.481054 
L 86.739103 118.022144 
L 87.03908 112.470439 
L 87.805355 106.865477 
L 89.047705 101.248312 
L 90.772167 95.661176 
L 92.980906 90.147134 
L 95.672139 84.749713 
L 98.840063 79.512545 
L 102.474844 74.478981 
L 106.562633 69.691715 
L 111.085609 65.19241 
L 116.022076 61.021328 
L 121.346573 57.216955 
L 127.030039 53.815663 
L 133.039995 50.851363 
L 139.340765 48.355188 
L 145.893734 46.35519 
L 152.657613 44.876065 
L 159.588754 43.938906 
L 166.641472 43.560974 
L 173.768395 43.755518 
L 180.920829 44.531597 
L 188.049134 45.893976 
L 195.103124 47.843026 
L 202.032459 50.374664 
L 208.787048 53.480352 
L 215.317465 57.147105 
L 221.575339 61.357554 
L 227.513756 66.090044 
L 233.087653 71.318761 
L 238.254183 77.0139 
L 242.973079 83.141873 
L 247.206999 89.665533 
L 250.921831 96.544448 
L 254.087002 103.735192 
L 256.675734 111.191662 
L 258.665278 118.865427 
L 260.03713 126.706089 
L 260.777186 134.661669 
L 260.875889 142.679002 
L 260.328318 150.704144 
L 259.134256 158.682793 
L 257.298208 166.56071 
L 254.829383 174.284134 
L 251.741652 181.800209 
L 248.053434 189.057394 
L 243.787586 196.005865 
L 238.971226 202.597906 
L 233.635539 208.788284 
L 227.815533 214.534601 
L 221.549783 219.797626 
L 214.880131 224.541604 
L 207.851367 228.734526 
L 200.510882 232.348387 
L 192.9083 235.359393 
L 185.095096 237.748147 
L 177.124199 239.499792 
L 169.049574 240.604118 
L 160.925811 241.055636 
L 152.807698 240.853607 
L 144.749795 240.002039 
L 136.806023 238.509636 
L 129.029233 236.389723 
L 121.470817 233.660117 
L 114.180308 230.342978 
L 107.205002 226.464613 
L 100.589608 222.055254 
L 94.375912 217.148802 
L 88.60247 211.782543 
L 83.304324 205.996835 
L 78.512756 199.834778 
L 74.255065 193.341855 
L 70.554387 186.565561 
L 67.429542 179.555016 
L 64.894925 172.360567 
L 62.960424 165.033383 
L 61.631384 157.625043 
L 60.908614 150.187129 
L 60.788409 142.770814 
L 61.262639 135.426462 
L 62.31885 128.203242 
L 63.940413 121.148741 
L 66.106699 114.308607 
L 68.793296 107.726207 
L 71.972246 101.442305 
L 75.612313 95.494758 
L 79.67928 89.918265 
L 84.13626 84.744106 
L 88.944035 79.999952 
L 94.061404 75.709679 
L 99.445558 71.893225 
L 99.445558 71.893225 
" clip-path="url(#pb2deb540d8)" style="fill: none; stroke: #00bc00; stroke-linecap: square"/>
   </g>
   <g id="line2d_20">
    <path d="M 90.877638 70.386739 
L 96.476769 66.164369 
L 102.344876 62.435099 
L 108.437684 59.215683 
L 114.709931 56.518836 
L 121.115739 54.353188 
L 127.608989 52.723262 
L 134.143696 51.629501 
L 140.674367 51.06831 
L 147.156369 51.03215 
L 153.546281 51.509655 
L 159.802212 52.485777 
L 165.88414 53.941971 
L 171.754188 55.856395 
L 177.37692 58.204152 
L 182.719581 60.957535 
L 187.752327 64.086314 
L 192.448425 67.558022 
L 196.784417 71.33828 
L 200.74026 75.391103 
L 204.299436 79.679252 
L 207.449017 84.16456 
L 210.179719 88.808287 
L 212.485898 93.571456 
L 214.365535 98.415201 
L 215.820174 103.301104 
L 216.854838 108.191512 
L 217.477913 113.049872 
L 217.700998 117.841014 
L 217.538733 122.531445 
L 217.0086 127.089617 
L 216.130703 131.48616 
L 214.927522 135.694116 
L 213.423656 139.689121 
L 211.645536 143.449575 
L 209.621147 146.956792 
L 207.379718 150.195088 
L 204.951417 153.151883 
L 202.367031 155.817731 
L 199.657667 158.186349 
L 196.854419 160.254596 
L 193.988079 162.022439 
L 191.08882 163.492866 
L 188.185915 164.671799 
L 185.307455 165.56795 
L 182.480088 166.192677 
L 179.728776 166.559795 
L 177.076561 166.685383 
L 174.544382 166.587552 
L 172.150877 166.28621 
L 169.912244 165.802803 
L 167.842106 165.160053 
L 165.951424 164.381669 
L 164.248416 163.492068 
L 162.73853 162.516085 
L 161.424421 161.478677 
L 160.305978 160.404632 
L 159.380378 159.31829 
L 158.642146 158.243258 
L 158.083275 157.202146 
L 157.693351 156.2163 
L 157.459705 155.305578 
L 157.367597 154.488111 
L 157.400419 153.780109 
L 157.539904 153.195674 
L 157.766375 152.746642 
L 158.05899 152.442451 
L 158.396003 152.290038 
L 158.755044 152.293748 
L 159.113394 152.455295 
L 159.448269 152.773732 
L 159.737104 153.245464 
L 159.957836 153.864273 
L 160.089178 154.621395 
L 160.110897 155.505602 
L 160.00406 156.503326 
L 159.751291 157.598804 
L 159.336996 158.774247 
L 158.747576 160.010033 
L 157.971621 161.28492 
L 157.000077 162.576278 
L 155.82639 163.86034 
L 154.446635 165.11247 
L 152.8596 166.307424 
L 151.066851 167.419652 
L 149.072776 168.423577 
L 146.884586 169.293889 
L 144.512292 170.005845 
L 141.968653 170.535553 
L 139.269099 170.860266 
L 136.431618 170.958651 
L 133.476612 170.81106 
L 130.42674 170.399787 
L 127.306729 169.709292 
L 124.143156 168.726429 
L 120.964215 167.440638 
L 117.799461 165.844118 
L 114.679541 163.931973 
L 111.635906 161.702336 
L 108.700514 159.156459 
L 105.905522 156.298776 
L 103.282969 153.13694 
L 100.86446 149.681819 
L 98.680854 145.947476 
L 96.761935 141.951099 
L 95.136114 137.712919 
L 93.83012 133.256083 
L 92.868714 128.606511 
L 92.274414 123.792703 
L 92.067228 118.845556 
L 92.264424 113.798113 
L 92.880305 108.685314 
L 93.926022 103.543733 
L 95.409402 98.411264 
L 97.334809 93.326831 
L 99.703035 88.33005 
L 102.511227 83.460899 
L 105.752825 78.759376 
L 109.417564 74.265149 
L 113.49148 70.017215 
L 117.956962 66.053539 
L 122.792848 62.410723 
L 127.974522 59.123665 
L 133.474082 56.225236 
L 139.260501 53.745968 
L 145.29985 51.713757 
L 151.555519 50.153595 
L 157.988494 49.087314 
L 164.557625 48.533351 
L 171.219949 48.506554 
L 177.931003 49.018007 
L 184.645172 50.074883 
L 191.316039 51.680331 
L 197.896757 53.833408 
L 204.340413 56.529017 
L 210.60041 59.757916 
L 216.630844 63.506721 
L 222.386875 67.757985 
L 227.825099 72.490279 
L 232.903904 77.67832 
L 237.583825 83.293141 
L 241.827873 89.302273 
L 245.601848 95.669968 
L 248.874633 102.357461 
L 251.618471 109.323233 
L 253.809201 116.523322 
L 255.426486 123.911651 
L 256.453984 131.440357 
L 256.879517 139.060167 
L 256.695193 146.72076 
L 255.897479 154.371156 
L 254.487271 161.960103 
L 252.469901 169.436478 
L 249.855119 176.749672 
L 246.657042 183.849993 
L 242.894057 190.689048 
L 238.588702 197.220117 
L 233.767504 203.398523 
L 228.460786 209.181976 
L 222.702444 214.53091 
L 216.529699 219.408781 
L 209.98281 223.782365 
L 203.10478 227.622011 
L 195.941018 230.901865 
L 188.539003 233.600084 
L 180.947916 235.698985 
L 173.218261 237.185202 
L 165.401484 238.049759 
L 157.549576 238.28816 
L 149.714675 237.900396 
L 141.948666 236.890945 
L 134.302783 235.268734 
L 126.827224 233.047043 
L 119.570764 230.243406 
L 112.580394 226.879448 
L 105.900958 222.98072 
L 99.574827 218.576464 
L 93.641579 213.699393 
L 88.137714 208.385409 
L 83.096386 202.673311 
L 78.547172 196.604485 
L 74.515865 190.222559 
L 71.024294 183.573062 
L 68.090198 176.703051 
L 65.727103 169.660738 
L 63.944263 162.495108 
L 62.746618 155.255529 
L 62.134791 147.991369 
L 62.105133 140.751604 
L 62.649778 133.584451 
L 63.756759 126.536987 
L 65.410137 119.654796 
L 67.590172 112.981626 
L 70.273523 106.559068 
L 73.433471 100.426247 
L 77.040169 94.619543 
L 81.060927 89.172342 
L 85.4605 84.114795 
L 90.201408 79.473635 
L 95.244271 75.272002 
L 95.244271 75.272002 
" clip-path="url(#pb2deb540d8)" style="fill: none; stroke: #ffc900; stroke-linecap: square"/>
   </g>
   <g id="line2d_21">
    <path d="M 92.212059 67.1804 
L 98.11082 63.099868 
L 104.263669 59.540358 
L 110.623735 56.517078 
L 117.143322 54.040956 
L 123.774299 52.118608 
L 130.468494 50.752346 
L 137.178091 49.940203 
L 143.856004 49.676024 
L 150.456262 49.949561 
L 156.93436 50.746628 
L 163.247607 52.049263 
L 169.355457 53.835948 
L 175.2198 56.08183 
L 180.805249 58.75899 
L 186.079389 61.836719 
L 191.013005 65.281835 
L 195.580259 69.058989 
L 199.758873 73.131013 
L 203.530237 77.45927 
L 206.879511 82.004007 
L 209.795684 86.724724 
L 212.271595 91.58053 
L 214.303923 96.530521 
L 215.893144 101.534127 
L 217.043449 106.551469 
L 217.762633 111.543704 
L 218.061958 116.473347 
L 217.955968 121.304578 
L 217.462307 126.00354 
L 216.601474 130.538606 
L 215.396586 134.88062 
L 213.873105 139.003118 
L 212.058543 142.882513 
L 209.982168 146.498262 
L 207.674679 149.832994 
L 205.167885 152.872601 
L 202.494371 155.60631 
L 199.687161 158.026708 
L 196.779389 160.129748 
L 193.803961 161.914713 
L 190.793232 163.384145 
L 187.778696 164.543755 
L 184.790675 165.402296 
L 181.858032 165.971399 
L 179.007915 166.2654 
L 176.265485 166.301132 
L 173.653712 166.097688 
L 171.193161 165.676183 
L 168.901818 165.059469 
L 166.79495 164.271867 
L 164.884981 163.338872 
L 163.181412 162.286837 
L 161.690756 161.142673 
L 160.416526 159.933533 
L 159.359229 158.686496 
L 158.516418 157.428265 
L 157.882753 156.184857 
L 157.450103 154.981309 
L 157.207674 153.8414 
L 157.142169 152.787382 
L 157.237966 151.839728 
L 157.477323 151.016908 
L 157.840606 150.335182 
L 158.306545 149.80841 
L 158.852484 149.447905 
L 159.454669 149.262299 
L 160.088536 149.257445 
L 160.72901 149.436346 
L 161.350807 149.799119 
L 161.928742 150.342986 
L 162.438038 151.062292 
L 162.85462 151.94857 
L 163.15542 152.990613 
L 163.318658 154.174602 
L 163.324111 155.484233 
L 163.153383 156.900906 
L 162.790129 158.403903 
L 162.220288 159.970617 
L 161.432271 161.576789 
L 160.417132 163.196775 
L 159.168717 164.803812 
L 157.68378 166.370316 
L 155.962066 167.868189 
L 154.006372 169.269111 
L 151.82257 170.544881 
L 149.419595 171.66771 
L 146.809418 172.61055 
L 144.006969 173.347413 
L 141.030031 173.853659 
L 137.899119 174.106303 
L 134.637314 174.084294 
L 131.270067 173.768774 
L 127.824997 173.143339 
L 124.331643 172.194247 
L 120.821203 170.91063 
L 117.326251 169.284664 
L 113.880447 167.311727 
L 110.51821 164.990503 
L 107.274397 162.323078 
L 104.18398 159.314995 
L 101.281688 155.975277 
L 98.601674 152.316412 
L 96.17718 148.35432 
L 94.040185 144.108264 
L 92.221087 139.600751 
L 90.748378 134.85738 
L 89.648336 129.906683 
L 88.944742 124.779906 
L 88.6586 119.510792 
L 88.807898 114.13532 
L 89.407374 108.691422 
L 90.468331 103.218683 
L 91.998455 97.758022 
L 94.001684 92.351348 
L 96.478104 87.041212 
L 99.423873 81.87045 
L 102.831178 76.881808 
L 106.688246 72.117569 
L 110.979355 67.619191 
L 115.684924 63.42692 
L 120.781596 59.579441 
L 126.242383 56.113519 
L 132.036837 53.063653 
L 138.131247 50.461752 
L 144.488874 48.336835 
L 151.070212 46.714735 
L 157.833277 45.617848 
L 164.733914 45.064892 
L 171.726135 45.070705 
L 178.762476 45.646073 
L 185.794354 46.797587 
L 192.772461 48.527536 
L 199.647149 50.833839 
L 206.368825 53.710007 
L 212.888362 57.145146 
L 219.157489 61.124001 
L 225.12919 65.627023 
L 230.758096 70.630492 
L 236.000863 76.106655 
L 240.816526 82.023916 
L 245.166862 88.347053 
L 249.0167 95.037457 
L 252.334235 102.053422 
L 255.091299 109.350436 
L 257.263615 116.881519 
L 258.831009 124.597579 
L 259.777597 132.447765 
L 260.091939 140.379878 
L 259.767149 148.340749 
L 258.800984 156.27666 
L 257.195866 164.133763 
L 254.958908 171.858485 
L 252.10186 179.397961 
L 248.641044 186.700435 
L 244.597245 193.71567 
L 239.995557 200.395341 
L 234.865207 206.693419 
L 229.239334 212.566523 
L 223.154745 217.974267 
L 216.65163 222.879576 
L 209.773263 227.248974 
L 202.565662 231.052847 
L 195.077242 234.26567 
L 187.35844 236.866205 
L 179.461321 238.837667 
L 171.439179 240.167843 
L 163.346126 240.849186 
L 155.23667 240.878865 
L 147.165294 240.258773 
L 139.186038 238.995507 
L 131.352081 237.100303 
L 123.715333 234.588932 
L 116.326039 231.481565 
L 109.232399 227.802599 
L 102.480197 223.580448 
L 96.112469 218.847307 
L 90.16917 213.638882 
L 84.686893 207.994096 
L 79.698598 201.954762 
L 75.233373 195.565243 
L 71.316248 188.872098 
L 67.968016 181.923684 
L 65.205104 174.769786 
L 63.03948 167.4612 
L 61.478601 160.049338 
L 60.52538 152.585811 
L 60.17822 145.122028 
L 60.431052 137.708787 
L 61.273442 130.39588 
L 62.690709 123.231715 
L 64.664085 116.262939 
L 67.170919 109.53409 
L 70.184886 103.087263 
L 73.676258 96.961807 
L 77.612168 91.194036 
L 81.956926 85.816977 
L 86.672337 80.860147 
L 91.71804 76.349357 
L 97.051879 72.30656 
L 97.051879 72.30656 
" clip-path="url(#pb2deb540d8)" style="fill: none; stroke: #cccccc; stroke-linecap: square"/>
   </g>
   <g id="patch_3">
    <path d="M 44.767091 253.155371 
L 44.767091 20.904431 
" style="fill: none; stroke: #000000; stroke-width: 0.8; stroke-linejoin: miter; stroke-linecap: square"/>
   </g>
   <g id="patch_4">
    <path d="M 277.018031 253.155371 
L 277.018031 20.904431 
" style="fill: none; stroke: #000000; stroke-width: 0.8; stroke-linejoin: miter; stroke-linecap: square"/>
   </g>
   <g id="patch_5">
    <path d="M 44.767091 253.155371 
L 277.018031 253.155371 
" style="fill: none; stroke: #000000; stroke-width: 0.8; stroke-linejoin: miter; stroke-linecap: square"/>
   </g>
   <g id="patch_6">
    <path d="M 44.767091 20.904431 
L 277.018031 20.904431 
" style="fill: none; stroke: #000000; stroke-width: 0.8; stroke-linejoin: miter; stroke-linecap: square"/>
   </g>
   <g id="text_19">
    <!-- $r_{displacement} = 0.0$ -->
    <g transform="translate(117.778573 14.904431)scale(0.12 -0.12)">
     <defs>
      <path id="CMMI12-72" d="M 2490 2612 
C 2291 2574 2189 2433 2189 2293 
C 2189 2139 2310 2088 2400 2088 
C 2579 2088 2726 2242 2726 2433 
C 2726 2638 2528 2816 2208 2816 
C 1952 2816 1658 2701 1389 2312 
C 1344 2650 1088 2816 832 2816 
C 582 2816 454 2625 378 2484 
C 269 2254 173 1871 173 1839 
C 173 1814 198 1782 243 1782 
C 294 1782 301 1788 339 1935 
C 435 2318 557 2689 813 2689 
C 966 2689 1011 2580 1011 2395 
C 1011 2254 947 2005 902 1807 
L 723 1118 
C 698 996 627 709 595 594 
C 550 428 480 128 480 96 
C 480 6 550 -64 646 -64 
C 717 -64 838 -19 877 109 
C 896 160 1133 1124 1171 1271 
C 1203 1411 1242 1546 1274 1686 
C 1299 1775 1325 1878 1344 1961 
C 1363 2018 1536 2331 1696 2472 
C 1773 2542 1939 2689 2202 2689 
C 2304 2689 2406 2670 2490 2612 
z
" transform="scale(0.015625)"/>
      <path id="CMMI12-64" d="M 3219 4257 
C 3226 4282 3238 4320 3238 4352 
C 3238 4416 3174 4416 3162 4416 
C 3155 4416 2842 4388 2810 4380 
C 2701 4373 2605 4358 2490 4358 
C 2330 4345 2285 4339 2285 4224 
C 2285 4160 2336 4160 2426 4160 
C 2739 4160 2746 4103 2746 4040 
C 2746 4002 2733 3952 2726 3933 
L 2336 2395 
C 2266 2561 2093 2816 1760 2816 
C 1037 2816 256 1884 256 939 
C 256 307 627 -64 1062 -64 
C 1414 -64 1715 211 1894 422 
C 1958 45 2259 -64 2451 -64 
C 2643 -64 2797 51 2912 281 
C 3014 498 3104 888 3104 913 
C 3104 945 3078 971 3040 971 
C 2982 971 2976 939 2950 843 
C 2854 466 2733 64 2470 64 
C 2285 64 2272 229 2272 357 
C 2272 382 2272 515 2317 694 
L 3219 4257 
z
M 1926 760 
C 1894 651 1894 639 1805 517 
C 1664 338 1382 64 1082 64 
C 819 64 672 300 672 677 
C 672 1028 870 1743 992 2012 
C 1210 2459 1510 2689 1760 2689 
C 2182 2689 2266 2165 2266 2114 
C 2266 2108 2246 2024 2240 2012 
L 1926 760 
z
" transform="scale(0.015625)"/>
      <path id="CMMI12-69" d="M 1811 913 
C 1811 945 1786 971 1747 971 
C 1690 971 1683 952 1651 843 
C 1485 262 1222 64 1011 64 
C 934 64 845 83 845 275 
C 845 447 922 639 992 830 
L 1440 2018 
C 1459 2069 1504 2184 1504 2305 
C 1504 2574 1312 2816 998 2816 
C 410 2816 173 1890 173 1839 
C 173 1814 198 1782 243 1782 
C 301 1782 307 1807 333 1896 
C 486 2428 730 2682 979 2682 
C 1037 2682 1146 2682 1146 2478 
C 1146 2312 1062 2101 1011 1961 
L 563 773 
C 525 671 486 568 486 453 
C 486 166 685 -64 992 -64 
C 1581 -64 1811 869 1811 913 
z
M 1760 4013 
C 1760 4109 1683 4224 1542 4224 
C 1395 4224 1229 4083 1229 3917 
C 1229 3758 1363 3707 1440 3707 
C 1613 3707 1760 3873 1760 4013 
z
" transform="scale(0.015625)"/>
      <path id="CMMI12-73" d="M 1459 1280 
C 1568 1261 1741 1223 1779 1216 
C 1862 1192 2150 1090 2150 783 
C 2150 586 1971 70 1229 70 
C 1094 70 614 70 486 436 
C 742 404 870 603 870 745 
C 870 880 781 950 653 950 
C 512 950 326 841 326 552 
C 326 173 710 -64 1222 -64 
C 2195 -64 2483 651 2483 984 
C 2483 1079 2483 1258 2278 1462 
C 2118 1616 1965 1648 1619 1718 
C 1446 1756 1171 1814 1171 2101 
C 1171 2229 1286 2689 1894 2689 
C 2163 2689 2426 2589 2490 2368 
C 2208 2368 2195 2125 2195 2119 
C 2195 1984 2317 1946 2374 1946 
C 2464 1946 2643 2015 2643 2281 
C 2643 2545 2400 2816 1901 2816 
C 1062 2816 838 2160 838 1899 
C 838 1414 1312 1312 1459 1280 
z
" transform="scale(0.015625)"/>
      <path id="CMMI12-70" d="M 275 -789 
C 230 -980 205 -1031 -58 -1031 
C -134 -1031 -198 -1031 -198 -1152 
C -198 -1165 -192 -1216 -122 -1216 
C -38 -1216 51 -1216 134 -1216 
L 410 -1216 
C 544 -1216 870 -1216 1005 -1216 
C 1043 -1216 1120 -1216 1120 -1101 
C 1120 -1031 1075 -1031 966 -1031 
C 672 -1031 653 -987 653 -937 
C 653 -861 941 219 979 364 
C 1050 185 1222 -64 1555 -64 
C 2278 -64 3059 875 3059 1814 
C 3059 2401 2726 2816 2246 2816 
C 1837 2816 1491 2420 1421 2331 
C 1370 2650 1120 2816 864 2816 
C 678 2816 531 2727 410 2484 
C 294 2254 205 1865 205 1839 
C 205 1814 230 1782 275 1782 
C 326 1782 333 1788 371 1935 
C 467 2312 589 2689 845 2689 
C 992 2689 1043 2587 1043 2397 
C 1043 2245 1024 2181 998 2067 
L 275 -789 
z
M 1382 1993 
C 1427 2171 1606 2357 1709 2446 
C 1779 2510 1990 2689 2234 2689 
C 2515 2689 2643 2408 2643 2076 
C 2643 1769 2464 1047 2304 715 
C 2144 370 1850 64 1555 64 
C 1120 64 1050 613 1050 639 
C 1050 658 1062 709 1069 741 
L 1382 1993 
z
" transform="scale(0.015625)"/>
      <path id="CMMI12-6c" d="M 1626 4257 
C 1632 4282 1645 4320 1645 4352 
C 1645 4416 1581 4416 1568 4416 
C 1562 4416 1331 4393 1216 4377 
C 1107 4377 1011 4358 896 4358 
C 742 4345 698 4339 698 4224 
C 698 4160 762 4160 826 4160 
C 1152 4160 1152 4102 1152 4039 
C 1152 4014 1152 4001 1120 3887 
L 326 731 
C 307 661 294 610 294 509 
C 294 191 531 -64 858 -64 
C 1069 -64 1210 76 1312 274 
C 1421 483 1510 884 1510 909 
C 1510 941 1485 967 1446 967 
C 1389 967 1382 935 1357 840 
C 1242 401 1126 64 870 64 
C 678 64 678 267 678 357 
C 678 382 678 515 723 694 
L 1626 4257 
z
" transform="scale(0.015625)"/>
      <path id="CMMI12-61" d="M 1926 760 
C 1894 651 1894 639 1805 517 
C 1664 338 1382 64 1082 64 
C 819 64 672 300 672 677 
C 672 1028 870 1743 992 2012 
C 1210 2459 1510 2689 1760 2689 
C 2182 2689 2266 2165 2266 2114 
C 2266 2108 2246 2024 2240 2012 
L 1926 760 
z
M 2336 2395 
C 2266 2561 2093 2816 1760 2816 
C 1037 2816 256 1884 256 939 
C 256 307 627 -64 1062 -64 
C 1414 -64 1715 211 1894 422 
C 1958 45 2259 -64 2451 -64 
C 2643 -64 2797 51 2912 281 
C 3014 498 3104 888 3104 913 
C 3104 945 3078 971 3040 971 
C 2982 971 2976 939 2950 843 
C 2854 466 2733 64 2470 64 
C 2285 64 2272 230 2272 358 
C 2272 505 2291 575 2349 824 
C 2394 984 2426 1124 2477 1309 
C 2714 2267 2771 2497 2771 2535 
C 2771 2625 2701 2695 2605 2695 
C 2400 2695 2349 2472 2336 2395 
z
" transform="scale(0.015625)"/>
      <path id="CMMI12-63" d="M 2502 2431 
C 2381 2431 2323 2431 2234 2355 
C 2195 2323 2125 2227 2125 2125 
C 2125 1997 2221 1920 2342 1920 
C 2496 1920 2669 2044 2669 2292 
C 2669 2588 2374 2816 1933 2816 
C 1094 2816 256 1903 256 996 
C 256 441 602 -64 1254 -64 
C 2125 -64 2675 622 2675 706 
C 2675 744 2637 776 2611 776 
C 2592 776 2586 770 2528 713 
C 2118 162 1510 64 1267 64 
C 826 64 685 446 685 764 
C 685 988 794 1605 1024 2039 
C 1190 2338 1536 2682 1939 2682 
C 2022 2682 2374 2682 2502 2431 
z
" transform="scale(0.015625)"/>
      <path id="CMMI12-65" d="M 1146 1479 
C 1318 1479 1754 1479 2061 1595 
C 2547 1783 2592 2158 2592 2274 
C 2592 2558 2349 2816 1926 2816 
C 1254 2816 288 2210 288 1073 
C 288 402 672 -64 1254 -64 
C 2125 -64 2675 609 2675 692 
C 2675 730 2637 762 2611 762 
C 2592 762 2586 756 2528 699 
C 2118 159 1510 64 1267 64 
C 902 64 710 350 710 822 
C 710 911 710 1071 806 1479 
L 1146 1479 
z
M 838 1600 
C 1114 2592 1722 2689 1926 2689 
C 2208 2689 2400 2522 2400 2277 
C 2400 1600 1376 1600 1107 1600 
L 838 1600 
z
" transform="scale(0.015625)"/>
      <path id="CMMI12-6d" d="M 1318 1871 
C 1331 1910 1491 2229 1728 2433 
C 1894 2586 2112 2689 2362 2689 
C 2618 2689 2707 2497 2707 2242 
C 2707 2203 2707 2076 2630 1775 
L 2470 1118 
C 2419 926 2298 453 2285 383 
C 2259 287 2221 121 2221 96 
C 2221 6 2291 -64 2387 -64 
C 2579 -64 2611 83 2669 313 
L 3053 1839 
C 3066 1890 3398 2689 4102 2689 
C 4358 2689 4448 2497 4448 2242 
C 4448 1884 4198 1188 4058 805 
C 4000 651 3968 568 3968 453 
C 3968 166 4166 -64 4474 -64 
C 5069 -64 5293 875 5293 913 
C 5293 945 5267 971 5229 971 
C 5171 971 5165 952 5133 843 
C 4986 332 4749 64 4493 64 
C 4429 64 4326 64 4326 269 
C 4326 436 4403 640 4429 710 
C 4544 1018 4832 1773 4832 2145 
C 4832 2528 4608 2816 4122 2816 
C 3693 2816 3347 2574 3091 2197 
C 3072 2542 2861 2816 2381 2816 
C 1811 2816 1510 2415 1395 2255 
C 1376 2618 1114 2816 832 2816 
C 646 2816 499 2727 378 2484 
C 262 2254 173 1865 173 1839 
C 173 1814 198 1782 243 1782 
C 294 1782 301 1788 339 1935 
C 435 2312 557 2689 813 2689 
C 960 2689 1011 2586 1011 2395 
C 1011 2254 947 2005 902 1807 
L 723 1118 
C 698 996 627 709 595 594 
C 550 428 480 128 480 96 
C 480 6 550 -64 646 -64 
C 723 -64 813 -26 864 70 
C 877 102 934 326 966 453 
L 1107 1028 
L 1318 1871 
z
" transform="scale(0.015625)"/>
      <path id="CMMI12-6e" d="M 1318 1871 
C 1331 1910 1491 2229 1728 2433 
C 1894 2586 2112 2689 2362 2689 
C 2618 2689 2707 2497 2707 2242 
C 2707 1878 2445 1150 2317 805 
C 2259 651 2227 568 2227 453 
C 2227 166 2426 -64 2733 -64 
C 3328 -64 3552 875 3552 913 
C 3552 945 3526 971 3488 971 
C 3430 971 3424 952 3392 843 
C 3245 319 3002 64 2752 64 
C 2688 64 2586 64 2586 269 
C 2586 429 2656 621 2694 710 
C 2822 1063 3091 1780 3091 2145 
C 3091 2528 2867 2816 2381 2816 
C 1811 2816 1510 2415 1395 2255 
C 1376 2618 1114 2816 832 2816 
C 627 2816 486 2695 378 2478 
C 262 2248 173 1865 173 1839 
C 173 1814 198 1782 243 1782 
C 294 1782 301 1788 339 1935 
C 442 2325 557 2689 813 2689 
C 960 2689 1011 2586 1011 2395 
C 1011 2254 947 2005 902 1807 
L 723 1118 
C 698 996 627 709 595 594 
C 550 428 480 128 480 96 
C 480 6 550 -64 646 -64 
C 723 -64 813 -26 864 70 
C 877 102 934 326 966 453 
L 1107 1028 
L 1318 1871 
z
" transform="scale(0.015625)"/>
      <path id="CMMI12-74" d="M 1286 2566 
L 1875 2566 
C 1997 2566 2061 2566 2061 2681 
C 2061 2752 2022 2752 1894 2752 
L 1331 2752 
L 1568 3692 
C 1594 3781 1594 3794 1594 3840 
C 1594 3943 1510 4000 1427 4000 
C 1376 4000 1229 3981 1178 3775 
L 928 2752 
L 326 2752 
C 198 2752 141 2752 141 2630 
C 141 2566 186 2566 307 2566 
L 877 2566 
L 454 881 
C 403 658 384 594 384 511 
C 384 211 595 -64 954 -64 
C 1600 -64 1946 868 1946 912 
C 1946 951 1920 970 1882 970 
C 1869 970 1843 970 1830 944 
C 1824 938 1818 931 1773 829 
C 1638 511 1344 64 973 64 
C 781 64 768 224 768 364 
C 768 370 768 492 787 568 
L 1286 2566 
z
" transform="scale(0.015625)"/>
      <path id="CMR17-3d" d="M 4115 2017 
C 4211 2017 4307 2017 4307 2125 
C 4307 2240 4198 2240 4090 2240 
L 512 2240 
C 403 2240 294 2240 294 2125 
C 294 2017 390 2017 486 2017 
L 4115 2017 
z
M 4090 896 
C 4198 896 4307 896 4307 1011 
C 4307 1119 4211 1119 4115 1119 
L 486 1119 
C 390 1119 294 1119 294 1011 
C 294 896 403 896 512 896 
L 4090 896 
z
" transform="scale(0.015625)"/>
      <path id="CMMI12-3a" d="M 1178 307 
C 1178 492 1024 619 870 619 
C 685 619 557 466 557 313 
C 557 128 710 0 864 0 
C 1050 0 1178 153 1178 307 
z
" transform="scale(0.015625)"/>
     </defs>
     <use xlink:href="#CMMI12-72" transform="scale(0.996264)"/>
     <use xlink:href="#CMMI12-64" transform="translate(43.960894 -14.943915)scale(0.697382)"/>
     <use xlink:href="#CMMI12-69" transform="translate(79.443101 -14.943915)scale(0.697382)"/>
     <use xlink:href="#CMMI12-73" transform="translate(102.738008 -14.943915)scale(0.697382)"/>
     <use xlink:href="#CMMI12-70" transform="translate(134.902897 -14.943915)scale(0.697382)"/>
     <use xlink:href="#CMMI12-6c" transform="translate(169.174403 -14.943915)scale(0.697382)"/>
     <use xlink:href="#CMMI12-61" transform="translate(191.048187 -14.943915)scale(0.697382)"/>
     <use xlink:href="#CMMI12-63" transform="translate(226.893534 -14.943915)scale(0.697382)"/>
     <use xlink:href="#CMMI12-65" transform="translate(256.281665 -14.943915)scale(0.697382)"/>
     <use xlink:href="#CMMI12-6d" transform="translate(287.929922 -14.943915)scale(0.697382)"/>
     <use xlink:href="#CMMI12-65" transform="translate(347.658713 -14.943915)scale(0.697382)"/>
     <use xlink:href="#CMMI12-6e" transform="translate(379.306969 -14.943915)scale(0.697382)"/>
     <use xlink:href="#CMMI12-74" transform="translate(420.067812 -14.943915)scale(0.697382)"/>
     <use xlink:href="#CMR17-3d" transform="translate(472.898262 0)scale(0.996264)"/>
     <use xlink:href="#CMR17-30" transform="translate(572.28706 0)scale(0.996264)"/>
     <use xlink:href="#CMMI12-3a" transform="translate(617.977537 0)scale(0.996264)"/>
     <use xlink:href="#CMR17-30" transform="translate(645.074714 0)scale(0.996264)"/>
    </g>
   </g>
  </g>
  <g id="axes_2">
   <g id="patch_7">
    <path d="M 323.089641 253.155371 
L 555.340581 253.155371 
L 555.340581 20.904431 
L 323.089641 20.904431 
z
" style="fill: #ffffff"/>
   </g>
   <g id="matplotlib.axis_3">
    <g id="xtick_9">
     <g id="line2d_22">
      <g>
       <use xlink:href="#md01587efc0" x="323.089641" y="253.155371" style="stroke: #000000; stroke-width: 0.8"/>
      </g>
     </g>
     <g id="text_20">
      <!-- $\mathdefault{40}$ -->
      <g transform="translate(318.108306 267.073869)scale(0.1 -0.1)">
       <use xlink:href="#CMR17-34" transform="scale(0.996264)"/>
       <use xlink:href="#CMR17-30" transform="translate(45.690477 0)scale(0.996264)"/>
      </g>
     </g>
    </g>
    <g id="xtick_10">
     <g id="line2d_23">
      <g>
       <use xlink:href="#md01587efc0" x="356.268347" y="253.155371" style="stroke: #000000; stroke-width: 0.8"/>
      </g>
     </g>
     <g id="text_21">
      <!-- $\mathdefault{60}$ -->
      <g transform="translate(351.287011 267.073869)scale(0.1 -0.1)">
       <use xlink:href="#CMR17-36" transform="scale(0.996264)"/>
       <use xlink:href="#CMR17-30" transform="translate(45.690477 0)scale(0.996264)"/>
      </g>
     </g>
    </g>
    <g id="xtick_11">
     <g id="line2d_24">
      <g>
       <use xlink:href="#md01587efc0" x="389.447052" y="253.155371" style="stroke: #000000; stroke-width: 0.8"/>
      </g>
     </g>
     <g id="text_22">
      <!-- $\mathdefault{80}$ -->
      <g transform="translate(384.465717 267.073869)scale(0.1 -0.1)">
       <use xlink:href="#CMR17-38" transform="scale(0.996264)"/>
       <use xlink:href="#CMR17-30" transform="translate(45.690477 0)scale(0.996264)"/>
      </g>
     </g>
    </g>
    <g id="xtick_12">
     <g id="line2d_25">
      <g>
       <use xlink:href="#md01587efc0" x="422.625758" y="253.155371" style="stroke: #000000; stroke-width: 0.8"/>
      </g>
     </g>
     <g id="text_23">
      <!-- $\mathdefault{100}$ -->
      <g transform="translate(415.153755 267.073869)scale(0.1 -0.1)">
       <use xlink:href="#CMR17-31" transform="scale(0.996264)"/>
       <use xlink:href="#CMR17-30" transform="translate(45.690477 0)scale(0.996264)"/>
       <use xlink:href="#CMR17-30" transform="translate(91.380954 0)scale(0.996264)"/>
      </g>
     </g>
    </g>
    <g id="xtick_13">
     <g id="line2d_26">
      <g>
       <use xlink:href="#md01587efc0" x="455.804464" y="253.155371" style="stroke: #000000; stroke-width: 0.8"/>
      </g>
     </g>
     <g id="text_24">
      <!-- $\mathdefault{120}$ -->
      <g transform="translate(448.332461 267.073869)scale(0.1 -0.1)">
       <use xlink:href="#CMR17-31" transform="scale(0.996264)"/>
       <use xlink:href="#CMR17-32" transform="translate(45.690477 0)scale(0.996264)"/>
       <use xlink:href="#CMR17-30" transform="translate(91.380954 0)scale(0.996264)"/>
      </g>
     </g>
    </g>
    <g id="xtick_14">
     <g id="line2d_27">
      <g>
       <use xlink:href="#md01587efc0" x="488.98317" y="253.155371" style="stroke: #000000; stroke-width: 0.8"/>
      </g>
     </g>
     <g id="text_25">
      <!-- $\mathdefault{140}$ -->
      <g transform="translate(481.511167 267.073869)scale(0.1 -0.1)">
       <use xlink:href="#CMR17-31" transform="scale(0.996264)"/>
       <use xlink:href="#CMR17-34" transform="translate(45.690477 0)scale(0.996264)"/>
       <use xlink:href="#CMR17-30" transform="translate(91.380954 0)scale(0.996264)"/>
      </g>
     </g>
    </g>
    <g id="xtick_15">
     <g id="line2d_28">
      <g>
       <use xlink:href="#md01587efc0" x="522.161875" y="253.155371" style="stroke: #000000; stroke-width: 0.8"/>
      </g>
     </g>
     <g id="text_26">
      <!-- $\mathdefault{160}$ -->
      <g transform="translate(514.689872 267.073869)scale(0.1 -0.1)">
       <use xlink:href="#CMR17-31" transform="scale(0.996264)"/>
       <use xlink:href="#CMR17-36" transform="translate(45.690477 0)scale(0.996264)"/>
       <use xlink:href="#CMR17-30" transform="translate(91.380954 0)scale(0.996264)"/>
      </g>
     </g>
    </g>
    <g id="xtick_16">
     <g id="line2d_29">
      <g>
       <use xlink:href="#md01587efc0" x="555.340581" y="253.155371" style="stroke: #000000; stroke-width: 0.8"/>
      </g>
     </g>
     <g id="text_27">
      <!-- $\mathdefault{180}$ -->
      <g transform="translate(547.868578 267.073869)scale(0.1 -0.1)">
       <use xlink:href="#CMR17-31" transform="scale(0.996264)"/>
       <use xlink:href="#CMR17-38" transform="translate(45.690477 0)scale(0.996264)"/>
       <use xlink:href="#CMR17-30" transform="translate(91.380954 0)scale(0.996264)"/>
      </g>
     </g>
    </g>
    <g id="text_28">
     <!-- x -->
     <g transform="translate(436.586069 279.929546)scale(0.1 -0.1)">
      <use xlink:href="#CMR17-78" transform="scale(0.996264)"/>
     </g>
    </g>
   </g>
   <g id="matplotlib.axis_4">
    <g id="ytick_9">
     <g id="line2d_30">
      <g>
       <use xlink:href="#md429dd9d88" x="323.089641" y="253.155371" style="stroke: #000000; stroke-width: 0.8"/>
      </g>
     </g>
     <g id="text_29">
      <!-- $\mathdefault{−20}$ -->
      <g transform="translate(298.378227 256.61462)scale(0.1 -0.1)">
       <use xlink:href="#CMSY10-0" transform="scale(0.996264)"/>
       <use xlink:href="#CMR17-32" transform="translate(77.487468 0)scale(0.996264)"/>
       <use xlink:href="#CMR17-30" transform="translate(123.177945 0)scale(0.996264)"/>
      </g>
     </g>
    </g>
    <g id="ytick_10">
     <g id="line2d_31">
      <g>
       <use xlink:href="#md429dd9d88" x="323.089641" y="219.976665" style="stroke: #000000; stroke-width: 0.8"/>
      </g>
     </g>
     <g id="text_30">
      <!-- $\mathdefault{0}$ -->
      <g transform="translate(311.108306 223.435914)scale(0.1 -0.1)">
       <use xlink:href="#CMR17-30" transform="scale(0.996264)"/>
      </g>
     </g>
    </g>
    <g id="ytick_11">
     <g id="line2d_32">
      <g>
       <use xlink:href="#md429dd9d88" x="323.089641" y="186.797959" style="stroke: #000000; stroke-width: 0.8"/>
      </g>
     </g>
     <g id="text_31">
      <!-- $\mathdefault{20}$ -->
      <g transform="translate(306.12697 190.257208)scale(0.1 -0.1)">
       <use xlink:href="#CMR17-32" transform="scale(0.996264)"/>
       <use xlink:href="#CMR17-30" transform="translate(45.690477 0)scale(0.996264)"/>
      </g>
     </g>
    </g>
    <g id="ytick_12">
     <g id="line2d_33">
      <g>
       <use xlink:href="#md429dd9d88" x="323.089641" y="153.619253" style="stroke: #000000; stroke-width: 0.8"/>
      </g>
     </g>
     <g id="text_32">
      <!-- $\mathdefault{40}$ -->
      <g transform="translate(306.12697 157.078503)scale(0.1 -0.1)">
       <use xlink:href="#CMR17-34" transform="scale(0.996264)"/>
       <use xlink:href="#CMR17-30" transform="translate(45.690477 0)scale(0.996264)"/>
      </g>
     </g>
    </g>
    <g id="ytick_13">
     <g id="line2d_34">
      <g>
       <use xlink:href="#md429dd9d88" x="323.089641" y="120.440548" style="stroke: #000000; stroke-width: 0.8"/>
      </g>
     </g>
     <g id="text_33">
      <!-- $\mathdefault{60}$ -->
      <g transform="translate(306.12697 123.899797)scale(0.1 -0.1)">
       <use xlink:href="#CMR17-36" transform="scale(0.996264)"/>
       <use xlink:href="#CMR17-30" transform="translate(45.690477 0)scale(0.996264)"/>
      </g>
     </g>
    </g>
    <g id="ytick_14">
     <g id="line2d_35">
      <g>
       <use xlink:href="#md429dd9d88" x="323.089641" y="87.261842" style="stroke: #000000; stroke-width: 0.8"/>
      </g>
     </g>
     <g id="text_34">
      <!-- $\mathdefault{80}$ -->
      <g transform="translate(306.12697 90.721091)scale(0.1 -0.1)">
       <use xlink:href="#CMR17-38" transform="scale(0.996264)"/>
       <use xlink:href="#CMR17-30" transform="translate(45.690477 0)scale(0.996264)"/>
      </g>
     </g>
    </g>
    <g id="ytick_15">
     <g id="line2d_36">
      <g>
       <use xlink:href="#md429dd9d88" x="323.089641" y="54.083136" style="stroke: #000000; stroke-width: 0.8"/>
      </g>
     </g>
     <g id="text_35">
      <!-- $\mathdefault{100}$ -->
      <g transform="translate(301.145635 57.542385)scale(0.1 -0.1)">
       <use xlink:href="#CMR17-31" transform="scale(0.996264)"/>
       <use xlink:href="#CMR17-30" transform="translate(45.690477 0)scale(0.996264)"/>
       <use xlink:href="#CMR17-30" transform="translate(91.380954 0)scale(0.996264)"/>
      </g>
     </g>
    </g>
    <g id="ytick_16">
     <g id="line2d_37">
      <g>
       <use xlink:href="#md429dd9d88" x="323.089641" y="20.904431" style="stroke: #000000; stroke-width: 0.8"/>
      </g>
     </g>
     <g id="text_36">
      <!-- $\mathdefault{120}$ -->
      <g transform="translate(301.145635 24.36368)scale(0.1 -0.1)">
       <use xlink:href="#CMR17-31" transform="scale(0.996264)"/>
       <use xlink:href="#CMR17-32" transform="translate(45.690477 0)scale(0.996264)"/>
       <use xlink:href="#CMR17-30" transform="translate(91.380954 0)scale(0.996264)"/>
      </g>
     </g>
    </g>
    <g id="text_37">
     <!-- y -->
     <g transform="translate(292.441048 139.658942)rotate(-90)scale(0.1 -0.1)">
      <use xlink:href="#CMR17-79" transform="scale(0.996264)"/>
     </g>
    </g>
   </g>
   <g id="line2d_38">
    <path d="M 371.50048 66.679905 
L 377.403187 63.019514 
L 383.533248 59.887983 
L 389.842559 57.298752 
L 396.282304 55.260831 
L 402.803379 53.778778 
L 409.356797 52.852716 
L 415.894094 52.478377 
L 422.367724 52.647195 
L 428.731446 53.346435 
L 434.9407 54.559342 
L 440.952952 56.265345 
L 446.728036 58.440277 
L 452.228453 61.05663 
L 457.419663 64.083835 
L 462.27033 67.488566 
L 466.752552 71.235069 
L 470.842047 75.285505 
L 474.518311 79.600308 
L 477.764736 84.138556 
L 480.568703 88.858355 
L 482.921621 93.717215 
L 484.818945 98.672442 
L 486.26015 103.681516 
L 487.248668 108.702469 
L 487.791795 113.69426 
L 487.900558 118.617117 
L 487.589553 123.43289 
L 486.876748 128.105365 
L 485.783268 132.600563 
L 484.333134 136.887026 
L 482.553002 140.936051 
L 480.471854 144.721926 
L 478.120695 148.222107 
L 475.532212 151.417387 
L 472.740448 154.29202 
L 469.780431 156.833802 
L 466.687836 159.034141 
L 463.498614 160.888071 
L 460.248639 162.394236 
L 456.973348 163.554849 
L 453.707409 164.375602 
L 450.484366 164.865556 
L 447.336342 165.036985 
L 444.293714 164.905212 
L 441.384844 164.488392 
L 438.635812 163.807284 
L 436.070179 162.884996 
L 433.708783 161.746706 
L 431.569554 160.41937 
L 429.667371 158.93141 
L 428.013937 157.31239 
L 426.617696 155.592681 
L 425.48379 153.803135 
L 424.61403 151.974728 
L 424.006923 150.138232 
L 423.657717 148.323874 
L 423.558485 146.561013 
L 423.69824 144.877814 
L 424.063086 143.300951 
L 424.636393 141.855317 
L 425.398995 140.563753 
L 426.329426 139.44681 
L 427.404169 138.522518 
L 428.597928 137.806196 
L 429.883927 137.310285 
L 431.234204 137.044216 
L 432.619941 137.014288 
L 434.011784 137.223619 
L 435.380178 137.672089 
L 436.695706 138.356342 
L 437.929416 139.269808 
L 439.053159 140.402771 
L 440.039905 141.742458 
L 440.864061 143.273169 
L 441.501767 144.97643 
L 441.931176 146.831179 
L 442.132717 148.813981 
L 442.089334 150.899273 
L 441.786705 153.059612 
L 441.213421 155.265971 
L 440.36116 157.488038 
L 439.224799 159.694527 
L 437.802526 161.853508 
L 436.095895 163.932748 
L 434.109859 165.900054 
L 431.852764 167.723609 
L 429.336324 169.372329 
L 426.575525 170.816195 
L 423.588546 172.026585 
L 420.3966 172.976604 
L 417.023776 173.641378 
L 413.496833 173.998354 
L 409.844977 174.027572 
L 406.099604 173.711898 
L 402.294018 173.037262 
L 398.463133 171.992849 
L 394.643161 170.571256 
L 390.871263 168.768636 
L 387.185214 166.584788 
L 383.623037 164.023238 
L 380.222646 161.091259 
L 377.021469 157.79987 
L 374.056096 154.163804 
L 371.361904 150.201425 
L 368.972707 145.934626 
L 366.920415 141.388675 
L 365.234693 136.592049 
L 363.942661 131.576224 
L 363.068589 126.375427 
L 362.633638 121.026376 
L 362.655606 115.567988 
L 363.148713 110.041062 
L 364.123422 104.487941 
L 365.586276 98.952155 
L 367.539787 93.47806 
L 369.98234 88.110447 
L 372.908156 82.894167 
L 376.307271 77.873726 
L 380.165567 73.092897 
L 384.46483 68.594329 
L 389.182855 64.419159 
L 394.293577 60.606644 
L 399.767244 57.193786 
L 405.570621 54.214998 
L 411.667231 51.701773 
L 418.017622 49.682377 
L 424.579659 48.181575 
L 431.308849 47.220378 
L 438.158691 46.815825 
L 445.081033 46.98079 
L 452.026464 47.723833 
L 458.944702 49.049087 
L 465.785007 50.956166 
L 472.496594 53.440133 
L 479.029049 56.491489 
L 485.332747 60.096218 
L 491.359268 64.235845 
L 497.061793 68.887566 
L 502.395517 74.024383 
L 507.318009 79.615295 
L 511.78959 85.625523 
L 515.773666 92.016757 
L 519.237043 98.747441 
L 522.150231 105.773088 
L 524.487688 113.046625 
L 526.228055 120.518743 
L 527.354359 128.138289 
L 527.854157 135.852669 
L 527.719672 143.608244 
L 526.947864 151.350777 
L 525.540486 159.025845 
L 523.504083 166.579276 
L 520.849953 173.957588 
L 517.594082 181.108405 
L 513.757021 187.980886 
L 509.363742 194.526126 
L 504.443444 200.697549 
L 499.029335 206.451284 
L 493.15837 211.746509 
L 486.870962 216.545789 
L 480.210672 220.815366 
L 473.223858 224.525426 
L 465.959316 227.650344 
L 458.467886 230.168878 
L 450.802057 232.064336 
L 443.015543 233.324705 
L 435.162863 233.94274 
L 427.298901 233.916006 
L 419.478482 233.246905 
L 411.755933 231.942623 
L 404.184645 230.015078 
L 396.816673 227.480807 
L 389.702311 224.360811 
L 382.889706 220.680384 
L 376.424487 216.468886 
L 370.349406 211.759497 
L 364.704026 206.588929 
L 359.524404 200.997126 
L 354.842837 195.026917 
L 350.68762 188.723663 
L 347.082847 182.134881 
L 344.048241 175.309846 
L 341.599034 168.299185 
L 339.745865 161.154464 
L 338.494745 153.927762 
L 337.847023 146.671251 
L 337.799435 139.436772 
L 338.34416 132.275419 
L 339.468916 125.237135 
L 341.157118 118.370311 
L 343.38804 111.721409 
L 346.137025 105.334608 
L 349.375738 99.251453 
L 353.072426 93.510555 
L 357.192221 88.147295 
L 361.697461 83.193577 
L 366.548034 78.677593 
L 371.701738 74.623642 
L 377.114663 71.051971 
L 377.114663 71.051971 
" clip-path="url(#p56007afeea)" style="fill: none; stroke: #000000; stroke-linecap: square"/>
   </g>
   <g id="line2d_39">
    <path d="M 368.847242 67.495228 
L 374.430015 63.280877 
L 380.288125 59.587412 
L 386.372767 56.432446 
L 392.634064 53.829007 
L 399.021508 51.785476 
L 405.484383 50.305571 
L 411.972207 49.388374 
L 418.435155 49.02839 
L 424.824474 49.215659 
L 431.092896 49.935893 
L 437.195016 51.170658 
L 443.087665 52.89759 
L 448.730254 55.090634 
L 454.085095 57.720337 
L 459.117684 60.754136 
L 463.796965 64.156706 
L 468.095554 67.890292 
L 471.989924 71.915101 
L 475.460566 76.18967 
L 478.492101 80.671274 
L 481.073353 85.316319 
L 483.197389 90.080763 
L 484.861517 94.920512 
L 486.067247 99.791835 
L 486.82021 104.651752 
L 487.130041 109.458424 
L 487.010228 114.171527 
L 486.477922 118.752603 
L 485.553726 123.165389 
L 484.261433 127.376136 
L 482.62776 131.353883 
L 480.682045 135.070713 
L 478.455911 138.50197 
L 475.98294 141.626457 
L 473.298301 144.426584 
L 470.438395 146.888482 
L 467.440458 149.002093 
L 464.342196 150.761202 
L 461.181383 152.163455 
L 457.995498 153.210314 
L 454.821336 153.906999 
L 451.694646 154.262375 
L 448.64978 154.288815 
L 445.719358 154.002026 
L 442.933946 153.420841 
L 440.321768 152.566989 
L 437.908437 151.464824 
L 435.716713 150.14105 
L 433.76629 148.6244 
L 432.073625 146.945317 
L 430.651785 145.135608 
L 429.510341 143.228093 
L 428.655299 141.256236 
L 428.089053 139.253785 
L 427.810387 137.254393 
L 427.814519 135.291258 
L 428.093164 133.396764 
L 428.634642 131.60212 
L 429.424028 129.937028 
L 430.443323 128.429358 
L 431.671652 127.104842 
L 433.085518 125.986801 
L 434.659044 125.095877 
L 436.364275 124.449811 
L 438.171483 124.063241 
L 440.049482 123.947535 
L 441.965987 124.11066 
L 443.887957 124.557078 
L 445.781957 125.28768 
L 447.614531 126.299763 
L 449.352566 127.587042 
L 450.963659 129.139686 
L 452.416475 130.94441 
L 453.681103 132.984585 
L 454.729391 135.240395 
L 455.535263 137.689024 
L 456.075033 140.304863 
L 456.32767 143.059769 
L 456.275067 145.923328 
L 455.90226 148.863164 
L 455.197622 151.845243 
L 454.153039 154.834224 
L 452.764027 157.793815 
L 451.029841 160.687126 
L 448.953522 163.477052 
L 446.541935 166.126658 
L 443.805732 168.599554 
L 440.759319 170.860271 
L 437.42076 172.874645 
L 433.811642 174.610175 
L 429.956925 176.036376 
L 425.884738 177.125116 
L 421.626155 177.850925 
L 417.21493 178.191297 
L 412.687214 178.126952 
L 408.081239 177.642078 
L 403.436983 176.724534 
L 398.795813 175.366034 
L 394.200109 173.562278 
L 389.692883 171.313064 
L 385.317379 168.622356 
L 381.116669 165.4983 
L 377.133254 161.953233 
L 373.408652 158.003619 
L 369.983005 153.669965 
L 366.894691 148.976701 
L 364.179937 143.952005 
L 361.872467 138.627614 
L 360.003154 133.038584 
L 358.599702 127.223025 
L 357.686348 121.221803 
L 357.283605 115.078219 
L 357.408019 108.837652 
L 358.071969 102.547195 
L 359.283508 96.255257 
L 361.046223 90.011166 
L 363.359155 83.864736 
L 366.216744 77.865856 
L 369.608819 72.064055 
L 373.52063 66.508067 
L 377.932918 61.245402 
L 382.822026 56.321932 
L 388.16005 51.78148 
L 393.91503 47.665417 
L 400.051169 44.012298 
L 406.529106 40.85749 
L 413.306198 38.232859 
L 420.336849 36.166456 
L 427.572864 34.682248 
L 434.963822 33.799882 
L 442.457482 33.534477 
L 450.000186 33.896464 
L 457.537306 34.891455 
L 465.01368 36.520161 
L 472.374054 38.778343 
L 479.563551 41.656813 
L 486.528108 45.141472 
L 493.214933 49.213386 
L 499.572943 53.848916 
L 505.553186 59.019879 
L 511.109259 64.693741 
L 516.197691 70.83387 
L 520.778318 77.399802 
L 524.814622 84.347549 
L 528.274043 91.629938 
L 531.128258 99.196986 
L 533.353431 106.996277 
L 534.930415 114.973387 
L 535.844929 123.072309 
L 536.087681 131.235895 
L 535.654464 139.406322 
L 534.546194 147.52554 
L 532.768918 155.53575 
L 530.333779 163.379856 
L 527.256925 171.001934 
L 523.559391 178.34767 
L 519.266934 185.364798 
L 514.409828 192.003531 
L 509.02263 198.216937 
L 503.143891 203.961333 
L 496.815852 209.196625 
L 490.08411 213.886622 
L 482.997237 217.999325 
L 475.606396 221.507177 
L 467.964931 224.387273 
L 460.12792 226.621532 
L 452.151749 228.196834 
L 444.093645 229.105106 
L 436.011219 229.343378 
L 427.962004 228.913781 
L 420.00299 227.823517 
L 412.190174 226.084777 
L 404.578112 223.714623 
L 397.219484 220.734826 
L 390.164688 217.171669 
L 383.461436 213.05571 
L 377.15439 208.42151 
L 371.284818 203.307331 
L 365.890284 197.754805 
L 361.004361 191.808566 
L 356.656397 185.515876 
L 352.871293 178.926218 
L 349.669351 172.090876 
L 347.066128 165.062499 
L 345.072362 157.894665 
L 343.693908 150.641428 
L 342.931753 143.356874 
L 342.782037 136.094671 
L 343.236139 128.907636 
L 344.280787 121.8473 
L 345.898224 114.963495 
L 348.066393 108.30396 
L 350.759177 101.913957 
L 353.946648 95.83593 
L 357.595377 90.10917 
L 361.668742 84.769526 
L 366.12728 79.84914 
L 370.929061 75.376221 
L 376.030065 71.374849 
L 376.030065 71.374849 
" clip-path="url(#p56007afeea)" style="fill: none; stroke: #0078dd; stroke-linecap: square"/>
   </g>
   <g id="line2d_40">
    <path d="M 372.837301 66.406998 
L 378.823868 62.942219 
L 385.027216 60.000927 
L 391.400561 57.596129 
L 397.896416 55.736582 
L 404.466983 54.426763 
L 411.064532 53.666875 
L 417.641807 53.452892 
L 424.152392 53.776645 
L 430.551083 54.625927 
L 436.794253 55.984644 
L 442.840183 57.832999 
L 448.649386 60.147689 
L 454.184905 62.902161 
L 459.412587 66.066857 
L 464.301333 69.609513 
L 468.823312 73.495461 
L 472.954154 77.687959 
L 476.6731 82.148521 
L 479.963134 86.837282 
L 482.811059 91.713348 
L 485.207569 96.735167 
L 487.147247 101.860892 
L 488.628572 107.048751 
L 489.653852 112.257408 
L 490.229149 117.446314 
L 490.364167 122.576045 
L 490.072096 127.608648 
L 489.369443 132.507927 
L 488.275819 137.239756 
L 486.81372 141.77234 
L 485.008263 146.07646 
L 482.886912 150.125692 
L 480.479195 153.896601 
L 477.81638 157.368898 
L 474.931163 160.525572 
L 471.857335 163.352987 
L 468.629444 165.840945 
L 465.282454 167.982722 
L 461.851404 169.775063 
L 458.371081 171.218151 
L 454.875667 172.315539 
L 451.398446 173.074049 
L 447.971471 173.50365 
L 444.625282 173.617299 
L 441.388633 173.430753 
L 438.288226 172.962366 
L 435.348488 172.232849 
L 432.591364 171.265023 
L 430.036126 170.083547 
L 427.699232 168.714629 
L 425.594196 167.185724 
L 423.731495 165.525235 
L 422.118512 163.762184 
L 420.759504 161.925906 
L 419.655602 160.045722 
L 418.804849 158.150622 
L 418.202262 156.26896 
L 417.839929 154.428149 
L 417.707129 152.654365 
L 417.790496 150.972288 
L 418.07418 149.404825 
L 418.540071 147.972881 
L 419.168006 146.695146 
L 419.936032 145.587893 
L 420.820654 144.66482 
L 421.797128 143.936904 
L 422.839738 143.412299 
L 423.922108 143.096249 
L 425.017505 142.991039 
L 426.099142 143.095982 
L 427.140497 143.407425 
L 428.11562 143.9188 
L 428.999419 144.620687 
L 429.767977 145.500933 
L 430.398809 146.544774 
L 430.871143 147.735002 
L 431.166156 149.052147 
L 431.267217 150.474695 
L 431.160076 151.979315 
L 430.833062 153.541116 
L 430.277229 155.133916 
L 429.486486 156.730527 
L 428.4577 158.303053 
L 427.190761 159.823199 
L 425.688622 161.262579 
L 423.957304 162.593033 
L 422.005875 163.786947 
L 419.84639 164.817558 
L 417.493802 165.659265 
L 414.965852 166.287925 
L 412.282915 166.681138 
L 409.467827 166.818512 
L 406.545678 166.681924 
L 403.543601 166.255738 
L 400.490503 165.52703 
L 397.416806 164.485754 
L 394.354165 163.124914 
L 391.335151 161.440685 
L 388.392947 159.432509 
L 385.561021 157.10317 
L 382.872791 154.458824 
L 380.361298 151.509001 
L 378.058863 148.266583 
L 375.996762 144.747729 
L 374.204898 140.971791 
L 372.711483 136.961187 
L 371.542739 132.741238 
L 370.722608 128.339978 
L 370.272481 123.787954 
L 370.210945 119.117971 
L 370.553563 114.364835 
L 371.312672 109.565061 
L 372.497206 104.756572 
L 374.112558 99.978374 
L 376.160464 95.270214 
L 378.638921 90.672246 
L 381.542148 86.224662 
L 384.860561 81.967338 
L 388.580803 77.939478 
L 392.685797 74.179248 
L 397.154836 70.723422 
L 401.963706 67.607045 
L 407.084842 64.863093 
L 412.487512 62.522157 
L 418.138043 60.612141 
L 424.000057 59.157984 
L 430.034752 58.181402 
L 436.201191 57.700655 
L 442.456624 57.73035 
L 448.756827 58.281259 
L 455.056447 59.360186 
L 461.309375 60.969856 
L 467.469121 63.108834 
L 473.489193 65.771498 
L 479.32349 68.948029 
L 484.926676 72.624445 
L 490.254573 76.782666 
L 495.264532 81.400628 
L 499.915802 86.452409 
L 504.169876 91.908419 
L 507.99083 97.735583 
L 511.345644 103.897599 
L 514.204487 110.355187 
L 516.540988 117.066393 
L 518.332485 123.98689 
L 519.560232 131.070336 
L 520.209571 138.268712 
L 520.270093 145.532705 
L 519.735747 152.81209 
L 518.604907 160.056128 
L 516.880424 167.213964 
L 514.569625 174.235031 
L 511.684274 181.06946 
L 508.240512 187.668467 
L 504.258739 193.984755 
L 499.763477 199.972893 
L 494.783195 205.589673 
L 489.35009 210.794475 
L 483.499853 215.549582 
L 477.271395 219.820494 
L 470.706548 223.576204 
L 463.849744 226.789451 
L 456.747671 229.436936 
L 449.448909 231.49952 
L 442.003546 232.962374 
L 434.462794 233.815097 
L 426.878581 234.0518 
L 419.303148 233.671156 
L 411.788636 232.676403 
L 404.386677 231.075322 
L 397.147996 228.880166 
L 390.122003 226.107557 
L 383.356417 222.778353 
L 376.896892 218.917471 
L 370.786663 214.553683 
L 365.066213 209.719378 
L 359.772969 204.450295 
L 354.941006 198.78523 
L 350.600807 192.765725 
L 346.779029 186.435717 
L 343.498316 179.841192 
L 340.777133 173.029805 
L 338.629651 166.050495 
L 337.065651 158.953094 
L 336.090483 151.787923 
L 335.705044 144.605395 
L 335.905807 137.455607 
L 336.684873 130.387947 
L 338.030077 123.450707 
L 339.925108 116.690707 
L 342.349684 110.152928 
L 345.27974 103.88017 
L 348.687659 97.912729 
L 352.542527 92.288094 
L 356.810417 87.040674 
L 361.454684 82.201545 
L 366.436303 77.79824 
L 371.714197 73.854556 
L 377.245612 70.390405 
L 377.245612 70.390405 
" clip-path="url(#p56007afeea)" style="fill: none; stroke: #00bc00; stroke-linecap: square"/>
   </g>
   <g id="line2d_41">
    <path d="M 369.200188 70.386739 
L 375.070036 66.591284 
L 381.16547 63.321116 
L 387.438827 60.588593 
L 393.841895 58.401708 
L 400.32633 56.76407 
L 406.844036 55.674944 
L 413.34758 55.129316 
L 419.790566 55.117993 
L 426.128013 55.627753 
L 432.316707 56.641505 
L 438.31554 58.138501 
L 444.085823 60.09457 
L 449.591582 62.48238 
L 454.799808 65.271717 
L 459.680707 68.429803 
L 464.207887 71.921618 
L 468.358536 75.710244 
L 472.113558 79.757227 
L 475.457669 84.022932 
L 478.379468 88.466926 
L 480.871457 93.048344 
L 482.930043 97.726268 
L 484.555494 102.460098 
L 485.751862 107.209905 
L 486.526864 111.936794 
L 486.891753 116.603231 
L 486.861134 121.173371 
L 486.452764 125.613355 
L 485.687315 129.891587 
L 484.588134 133.978986 
L 483.180949 137.849222 
L 481.493588 141.478898 
L 479.555653 144.847731 
L 477.398204 147.938672 
L 475.053425 150.738026 
L 472.554269 153.2355 
L 469.934127 155.424255 
L 467.226472 157.300895 
L 464.464524 158.865434 
L 461.680907 160.121235 
L 458.907323 161.074905 
L 456.174249 161.736163 
L 453.510622 162.117685 
L 450.943573 162.234909 
L 448.498161 162.105827 
L 446.197145 161.750737 
L 444.060766 161.191994 
L 442.106575 160.453722 
L 440.349269 159.561523 
L 438.800583 158.542175 
L 437.469186 157.423306 
L 436.360639 156.233075 
L 435.477351 154.999848 
L 434.818604 153.75186 
L 434.380587 152.516908 
L 434.156465 151.322016 
L 434.136495 150.193139 
L 434.308148 149.154863 
L 434.656282 148.230123 
L 435.163331 147.439947 
L 435.809518 146.803208 
L 436.573101 146.33641 
L 437.430626 146.053498 
L 438.357211 145.965689 
L 439.326839 146.081337 
L 440.312659 146.405828 
L 441.287309 146.941503 
L 442.22323 147.687624 
L 443.092993 148.640351 
L 443.869626 149.79278 
L 444.526932 151.134986 
L 445.039799 152.654123 
L 445.38451 154.334532 
L 445.539034 156.157901 
L 445.48329 158.103437 
L 445.199418 160.148071 
L 444.672004 162.266701 
L 443.888294 164.432424 
L 442.838375 166.616837 
L 441.515344 168.790308 
L 439.915422 170.922297 
L 438.038055 172.981669 
L 435.885981 174.937031 
L 433.465261 176.757061 
L 430.785271 178.410848 
L 427.858675 179.868233 
L 424.701352 181.100137 
L 421.332286 182.078894 
L 417.773447 182.778565 
L 414.04961 183.175238 
L 410.188171 183.24732 
L 406.218911 182.9758 
L 402.17376 182.344501 
L 398.08651 181.340289 
L 393.992523 179.953275 
L 389.928424 178.176978 
L 385.931757 176.00846 
L 382.040651 173.448426 
L 378.293458 170.501291 
L 374.728403 167.175218 
L 371.383205 163.482113 
L 368.294727 159.437589 
L 365.498606 155.060901 
L 363.028904 150.374827 
L 360.91776 145.405541 
L 359.19506 140.182428 
L 357.888128 134.737884 
L 357.021425 129.107084 
L 356.61628 123.327711 
L 356.690644 117.439665 
L 357.258864 111.484762 
L 358.331506 105.506384 
L 359.915187 99.549136 
L 362.012448 93.658474 
L 364.621676 87.880328 
L 367.737041 82.260711 
L 371.348478 76.845329 
L 375.441717 71.679184 
L 379.998328 66.806183 
L 384.99582 62.268746 
L 390.407775 58.10743 
L 396.204007 54.360565 
L 402.350767 51.063901 
L 408.810973 48.250273 
L 415.544477 45.949295 
L 422.50835 44.187073 
L 429.657215 42.985947 
L 436.943572 42.364265 
L 444.318177 42.336181 
L 451.730411 42.911498 
L 459.128688 44.095543 
L 466.460854 45.889068 
L 473.674603 48.288208 
L 480.717903 51.284461 
L 487.53941 54.864717 
L 494.08889 59.011319 
L 500.317623 63.702166 
L 506.178813 68.910851 
L 511.627971 74.606845 
L 516.623286 80.755699 
L 521.12597 87.319296 
L 525.100595 94.256124 
L 528.515387 101.521589 
L 531.342498 109.068339 
L 533.558253 116.846629 
L 535.143349 124.804699 
L 536.083035 132.889165 
L 536.367242 141.045438 
L 535.990682 149.218141 
L 534.952912 157.351543 
L 533.258346 165.38999 
L 530.916236 173.278345 
L 527.940617 180.96241 
L 524.350203 188.389362 
L 520.168248 195.508161 
L 515.422378 202.269946 
L 510.144372 208.628426 
L 504.369925 214.540236 
L 498.138367 219.965276 
L 491.492354 224.867025 
L 484.477544 229.212819 
L 477.14223 232.974103 
L 469.536966 236.126652 
L 461.714169 238.650747 
L 453.727706 240.531319 
L 445.632477 241.758064 
L 437.483975 242.325494 
L 429.337865 242.232985 
L 421.249535 241.484748 
L 413.27368 240.08978 
L 405.463864 238.061788 
L 397.872116 235.419041 
L 390.548532 232.184216 
L 383.540884 228.38419 
L 376.894271 224.049814 
L 370.65077 219.215638 
L 364.849133 213.91962 
L 359.524502 208.202805 
L 354.708159 202.108971 
L 350.427309 195.68428 
L 346.704895 188.976873 
L 343.559454 182.036486 
L 341.005011 174.914042 
L 339.050999 167.661223 
L 337.702243 160.330066 
L 336.95895 152.972532 
L 336.816766 145.640098 
L 337.266857 138.383346 
L 338.296022 131.251565 
L 339.88686 124.292373 
L 342.017953 117.551343 
L 344.664091 111.071663 
L 347.796522 104.893812 
L 351.383233 99.055271 
L 355.389259 93.59024 
L 359.777003 88.529418 
L 364.506593 83.899782 
L 369.536231 79.724433 
L 374.822586 76.022443 
L 374.822586 76.022443 
" clip-path="url(#p56007afeea)" style="fill: none; stroke: #ffc900; stroke-linecap: square"/>
   </g>
   <g id="line2d_42">
    <path d="M 370.534609 67.1804 
L 376.732083 63.144344 
L 383.178523 59.640919 
L 389.82702 56.684858 
L 396.629871 54.286671 
L 403.538976 52.452627 
L 410.506209 51.184756 
L 417.483809 50.480879 
L 424.424744 50.334697 
L 431.283083 50.735886 
L 438.01434 51.670238 
L 444.575816 53.119841 
L 450.926907 55.063263 
L 457.029403 57.475802 
L 462.847761 60.329711 
L 468.349342 63.594499 
L 473.504646 67.237212 
L 478.287476 71.222746 
L 482.675113 75.514183 
L 486.648439 80.073118 
L 490.192021 84.860019 
L 493.294177 89.834565 
L 495.947002 94.956019 
L 498.146355 100.183558 
L 499.891829 105.476645 
L 501.186659 110.795352 
L 502.037642 116.100707 
L 502.454977 121.354998 
L 502.45212 126.522083 
L 502.045589 131.567674 
L 501.254745 136.459592 
L 500.101556 141.168015 
L 498.610341 145.665686 
L 496.807491 149.928102 
L 494.721184 153.933675 
L 492.381074 157.663854 
L 489.817987 161.103231 
L 487.063599 164.239606 
L 484.150114 167.064021 
L 481.109942 169.570772 
L 477.975389 171.757372 
L 474.77833 173.624498 
L 471.54992 175.17591 
L 468.320294 176.41833 
L 465.118292 177.361295 
L 461.971196 178.016996 
L 458.904495 178.400084 
L 455.941656 178.52745 
L 453.103938 178.417998 
L 450.410213 178.092391 
L 447.876824 177.572786 
L 445.517469 176.882556 
L 443.343114 176.046003 
L 441.361929 175.088072 
L 439.579266 174.034051 
L 437.997655 172.909275 
L 436.616838 171.738831 
L 435.433827 170.547283 
L 434.442993 169.35838 
L 433.63618 168.194797 
L 432.530242 166.027408 
L 432.006241 164.195802 
L 431.925437 162.819163 
L 432.127645 161.980005 
L 432.439611 161.720674 
L 432.581225 161.810226 
L 432.726335 162.408356 
L 432.549584 163.509636 
L 431.902158 165.014326 
L 430.661033 166.789084 
L 429.788135 167.728355 
L 428.735746 168.673064 
L 427.498537 169.600013 
L 426.073799 170.485262 
L 424.461533 171.304406 
L 422.664493 172.032864 
L 420.688215 172.646164 
L 418.541 173.120245 
L 416.233887 173.431738 
L 413.780577 173.558265 
L 411.197343 173.478709 
L 408.502902 173.17349 
L 405.71826 172.624826 
L 402.866545 171.816966 
L 399.972796 170.736425 
L 397.06374 169.372183 
L 394.167551 167.715869 
L 391.313585 165.761918 
L 388.532093 163.5077 
L 385.853946 160.953635 
L 383.310314 158.103251 
L 380.932366 154.963243 
L 378.750954 151.543481 
L 376.796291 147.856998 
L 375.097637 143.919938 
L 373.682992 139.751478 
L 372.578786 135.373721 
L 371.809591 130.811554 
L 371.397831 126.092484 
L 371.363528 121.246437 
L 371.72405 116.305542 
L 372.493882 111.303884 
L 373.684435 106.277228 
L 375.303861 101.26275 
L 377.356908 96.298711 
L 379.8448 91.424154 
L 382.765145 86.678562 
L 386.111879 82.101521 
L 389.875247 77.73238 
L 394.041799 73.60989 
L 398.594436 69.77186 
L 403.512491 66.254817 
L 408.771824 63.09366 
L 414.344965 60.321335 
L 420.201292 57.968515 
L 426.307221 56.063303 
L 432.626435 54.630943 
L 439.120149 53.693573 
L 445.747374 53.269971 
L 452.465236 53.375355 
L 459.229286 54.021197 
L 465.993845 55.215064 
L 472.712357 56.960511 
L 479.33775 59.256972 
L 485.822817 62.099724 
L 492.120584 65.479852 
L 498.184703 69.384274 
L 503.969822 73.795785 
L 509.431962 78.693141 
L 514.528887 84.051182 
L 519.220449 89.840987 
L 523.468942 96.03005 
L 527.23942 102.582509 
L 530.499998 109.45938 
L 533.222135 116.618842 
L 535.380892 124.016529 
L 536.955159 131.605854 
L 537.927845 139.338357 
L 538.286061 147.164056 
L 538.021237 155.031833 
L 537.129226 162.88981 
L 535.610374 170.685751 
L 533.469538 178.367462 
L 530.716082 185.883189 
L 527.363833 193.182022 
L 523.430992 200.214281 
L 518.940026 206.931923 
L 513.917508 213.288888 
L 508.393933 219.241488 
L 502.403506 224.74873 
L 495.983881 229.772643 
L 489.1759 234.27858 
L 482.023276 238.235486 
L 474.572272 241.61614 
L 466.871359 244.397375 
L 458.97084 246.560257 
L 450.922479 248.090221 
L 442.779103 248.977206 
L 434.594201 249.215711 
L 426.421521 248.804843 
L 418.314661 247.74832 
L 410.326659 246.054442 
L 402.509595 243.736011 
L 394.9142 240.810228 
L 387.589468 237.298557 
L 380.582289 233.226544 
L 373.937107 228.623613 
L 367.695584 223.522822 
L 361.896296 217.960606 
L 356.574457 211.976473 
L 351.76166 205.612702 
L 347.485661 198.913993 
L 343.770189 191.927117 
L 340.634788 184.700544 
L 338.094691 177.284068 
L 336.160744 169.728404 
L 334.839347 162.084802 
L 334.132437 154.404645 
L 334.037522 146.73905 
L 334.547726 139.138485 
L 335.651889 131.652376 
L 337.334693 124.328735 
L 339.576823 117.213807 
L 342.355153 110.351728 
L 345.642976 103.784197 
L 349.410247 97.550189 
L 353.623858 91.68567 
L 358.247936 86.223358 
L 363.244158 81.192508 
L 368.572089 76.618719 
L 374.189526 72.523781 
L 374.189526 72.523781 
" clip-path="url(#p56007afeea)" style="fill: none; stroke: #cccccc; stroke-linecap: square"/>
   </g>
   <g id="patch_8">
    <path d="M 323.089641 253.155371 
L 323.089641 20.904431 
" style="fill: none; stroke: #000000; stroke-width: 0.8; stroke-linejoin: miter; stroke-linecap: square"/>
   </g>
   <g id="patch_9">
    <path d="M 555.340581 253.155371 
L 555.340581 20.904431 
" style="fill: none; stroke: #000000; stroke-width: 0.8; stroke-linejoin: miter; stroke-linecap: square"/>
   </g>
   <g id="patch_10">
    <path d="M 323.089641 253.155371 
L 555.340581 253.155371 
" style="fill: none; stroke: #000000; stroke-width: 0.8; stroke-linejoin: miter; stroke-linecap: square"/>
   </g>
   <g id="patch_11">
    <path d="M 323.089641 20.904431 
L 555.340581 20.904431 
" style="fill: none; stroke: #000000; stroke-width: 0.8; stroke-linejoin: miter; stroke-linecap: square"/>
   </g>
   <g id="text_38">
    <!-- $r_{displacement} = 5.0$ -->
    <g transform="translate(396.101123 14.904431)scale(0.12 -0.12)">
     <defs>
      <path id="CMR17-35" d="M 730 3692 
C 794 3666 1056 3584 1325 3584 
C 1920 3584 2246 3911 2432 4100 
C 2432 4157 2432 4192 2394 4192 
C 2387 4192 2374 4192 2323 4163 
C 2099 4058 1837 3973 1517 3973 
C 1325 3973 1037 3999 723 4139 
C 653 4171 640 4171 634 4171 
C 602 4171 595 4164 595 4037 
L 595 2203 
C 595 2089 595 2057 659 2057 
C 691 2057 704 2070 736 2114 
C 941 2401 1222 2522 1542 2522 
C 1766 2522 2246 2382 2246 1289 
C 2246 1085 2246 715 2054 421 
C 1894 159 1645 25 1370 25 
C 947 25 518 320 403 814 
C 429 807 480 795 506 795 
C 589 795 749 840 749 1038 
C 749 1210 627 1280 506 1280 
C 358 1280 262 1190 262 1011 
C 262 454 704 -128 1382 -128 
C 2042 -128 2669 440 2669 1264 
C 2669 2030 2170 2624 1549 2624 
C 1222 2624 947 2503 730 2274 
L 730 3692 
z
" transform="scale(0.015625)"/>
     </defs>
     <use xlink:href="#CMMI12-72" transform="scale(0.996264)"/>
     <use xlink:href="#CMMI12-64" transform="translate(43.960894 -14.943915)scale(0.697382)"/>
     <use xlink:href="#CMMI12-69" transform="translate(79.443101 -14.943915)scale(0.697382)"/>
     <use xlink:href="#CMMI12-73" transform="translate(102.738008 -14.943915)scale(0.697382)"/>
     <use xlink:href="#CMMI12-70" transform="translate(134.902897 -14.943915)scale(0.697382)"/>
     <use xlink:href="#CMMI12-6c" transform="translate(169.174403 -14.943915)scale(0.697382)"/>
     <use xlink:href="#CMMI12-61" transform="translate(191.048187 -14.943915)scale(0.697382)"/>
     <use xlink:href="#CMMI12-63" transform="translate(226.893534 -14.943915)scale(0.697382)"/>
     <use xlink:href="#CMMI12-65" transform="translate(256.281665 -14.943915)scale(0.697382)"/>
     <use xlink:href="#CMMI12-6d" transform="translate(287.929922 -14.943915)scale(0.697382)"/>
     <use xlink:href="#CMMI12-65" transform="translate(347.658713 -14.943915)scale(0.697382)"/>
     <use xlink:href="#CMMI12-6e" transform="translate(379.306969 -14.943915)scale(0.697382)"/>
     <use xlink:href="#CMMI12-74" transform="translate(420.067812 -14.943915)scale(0.697382)"/>
     <use xlink:href="#CMR17-3d" transform="translate(472.898262 0)scale(0.996264)"/>
     <use xlink:href="#CMR17-35" transform="translate(572.28706 0)scale(0.996264)"/>
     <use xlink:href="#CMMI12-3a" transform="translate(617.977537 0)scale(0.996264)"/>
     <use xlink:href="#CMR17-30" transform="translate(645.074714 0)scale(0.996264)"/>
    </g>
   </g>
  </g>
 </g>
 <defs>
  <clipPath id="pb2deb540d8">
   <rect x="44.767091" y="20.904431" width="232.25094" height="232.25094"/>
  </clipPath>
  <clipPath id="p56007afeea">
   <rect x="323.089641" y="20.904431" width="232.25094" height="232.25094"/>
  </clipPath>
 </defs>
</svg>
